<svg viewBox="0 0 25 24" xmlns="http://www.w3.org/2000/svg">
<path d="M8.49834 2.40039C5.41114 2.40039 2.8999 4.91395 2.8999 8.00195V16.002C2.8999 19.0892 5.41346 21.6004 8.50146 21.6004H16.5015C19.5887 21.6004 22.0999 19.0868 22.0999 15.9988V7.99883C22.0999 4.91163 19.5863 2.40039 16.4983 2.40039H8.49834ZM18.0999 5.60039C18.5415 5.60039 18.8999 5.95879 18.8999 6.40039C18.8999 6.84199 18.5415 7.20039 18.0999 7.20039C17.6583 7.20039 17.2999 6.84199 17.2999 6.40039C17.2999 5.95879 17.6583 5.60039 18.0999 5.60039ZM12.4999 7.20039C15.1471 7.20039 17.2999 9.35319 17.2999 12.0004C17.2999 14.6476 15.1471 16.8004 12.4999 16.8004C9.8527 16.8004 7.6999 14.6476 7.6999 12.0004C7.6999 9.35319 9.8527 7.20039 12.4999 7.20039ZM12.4999 8.80039C11.6512 8.80039 10.8373 9.13753 10.2372 9.73765C9.63704 10.3378 9.2999 11.1517 9.2999 12.0004C9.2999 12.8491 9.63704 13.663 10.2372 14.2631C10.8373 14.8632 11.6512 15.2004 12.4999 15.2004C13.3486 15.2004 14.1625 14.8632 14.7626 14.2631C15.3628 13.663 15.6999 12.8491 15.6999 12.0004C15.6999 11.1517 15.3628 10.3378 14.7626 9.73765C14.1625 9.13753 13.3486 8.80039 12.4999 8.80039V8.80039Z" />
</svg>
