<svg viewBox="0 0 25 24" xmlns="http://www.w3.org/2000/svg">
  <path d="M19.7002 3.2002H5.3002C4.4162 3.2002 3.7002 3.9162 3.7002 4.8002V19.2002C3.7002 20.0842 4.4162 20.8002 5.3002 20.8002H19.7002C20.5842 20.8002 21.3002 20.0842 21.3002 19.2002V4.8002C21.3002 3.9162 20.5842 3.2002 19.7002 3.2002ZM9.2634 17.6002H6.90339V10.0066H9.2634V17.6002ZM8.0594 8.92099C7.2986 8.92099 6.6834 8.30419 6.6834 7.54499C6.6834 6.78579 7.2994 6.1698 8.0594 6.1698C8.8178 6.1698 9.4346 6.78659 9.4346 7.54499C9.4346 8.30419 8.8178 8.92099 8.0594 8.92099ZM18.1034 17.6002H15.745V13.9074C15.745 13.0266 15.729 11.8938 14.5186 11.8938C13.2906 11.8938 13.1018 12.853 13.1018 13.8434V17.6002H10.7434V10.0066H13.0074V11.0442H13.0394C13.3546 10.4474 14.1242 9.8178 15.2722 9.8178C17.6618 9.8178 18.1034 11.3906 18.1034 13.4354V17.6002Z" />
</svg>