<svg viewBox="0 0 32 32" fill="none" xmlns="http://www.w3.org/2000/svg">
  <path d="M29.3334 14.1259C29.3334 10.4589 28.5334 7.60078 26.5334 5.57854C23.6801 2.93614 18.9867 2.6665 16.0001 2.6665C13.0134 2.6665 8.32008 2.93614 5.46675 5.57854C3.46675 7.60078 2.66675 10.4589 2.66675 14.1259C2.66675 14.4225 2.66675 17.5502 2.66675 17.8738C2.66675 21.5408 3.46675 24.3719 5.46675 26.4211C8.32008 29.0366 13.0134 29.3332 16.0001 29.3332C18.9867 29.3332 23.6801 29.0635 26.5334 26.4211C28.5334 24.3989 29.3334 21.5408 29.3334 17.8738C29.3334 17.5502 29.3334 14.4225 29.3334 14.1259Z" fill="white"/>
  <path fill-rule="evenodd" clip-rule="evenodd" d="M20.5223 18.9226C21.2883 19.3839 21.6357 19.5931 22.2933 20.1334C22.56 20.3467 22.6667 20.5867 22.6667 20.8267C22.6667 21.2534 22.4533 21.8134 22.1867 22.2134C21.76 22.8 21.1733 23.3867 20.4533 23.5467C20.4 23.5467 20.3467 23.5534 20.2933 23.56C20.24 23.5667 20.1867 23.5734 20.1333 23.5734C19.3867 23.6 18.64 23.3067 18 22.9867C16.48 22.24 15.0133 21.2267 13.7067 20.16C13.28 19.8134 12.88 19.44 12.5067 19.04C12.4447 18.9781 12.382 18.9161 12.319 18.8539C12.0027 18.5413 11.6802 18.2225 11.4133 17.8667C10.32 16.56 9.33334 15.0667 8.58668 13.5467C8.26668 12.9067 7.97334 12.16 8.00001 11.4134C8.00001 11.3562 8.00767 11.2991 8.01478 11.246C8.02093 11.2 8.02668 11.1572 8.02668 11.12C8.18668 10.4 8.80001 9.81338 9.36001 9.36005C9.73334 9.09338 10.2933 8.88005 10.72 8.88005C10.9867 8.90671 11.2267 9.01338 11.44 9.25338C11.9803 9.91107 12.1895 10.2584 12.6508 11.0244C12.7132 11.128 12.7803 11.2393 12.8533 11.36C13.12 11.7867 13.3333 12.4267 13.3333 12.7734C13.3333 13.0134 13.1467 13.28 12.9867 13.44C12.866 13.5607 12.7398 13.6586 12.6193 13.7521C12.2873 14.0097 12 14.2325 12 14.8C12 15.5467 12.7733 16.88 13.76 17.8134C14.6933 18.8 16 19.5467 16.7467 19.5467C17.3164 19.5467 17.5387 19.2573 17.7869 18.9343C17.8756 18.8188 17.9676 18.6991 18.08 18.5867C18.2667 18.4267 18.5333 18.24 18.7733 18.24C19.12 18.24 19.76 18.4534 20.1867 18.72C20.3074 18.7931 20.4187 18.8602 20.5223 18.9226ZM22 16.2134C22 16.5867 22.2933 16.88 22.6667 16.88C23.04 16.88 23.3333 16.5867 23.3333 16.2134V15.5467C23.3333 11.4934 20.0533 8.21338 16 8.21338C15.6267 8.21338 15.3333 8.50671 15.3333 8.88005C15.3333 9.25338 15.6267 9.54671 16 9.54671C19.3067 9.54671 22 12.24 22 15.5467V16.2134ZM17.92 15.04C18 15.36 18.2667 15.5467 18.56 15.5467C18.64 15.5467 18.6933 15.5467 18.72 15.52C19.0667 15.44 19.28 15.0667 19.2 14.72C18.9067 13.5734 18 12.64 16.8267 12.3467C16.48 12.2667 16.1067 12.48 16.0267 12.8267C15.9467 13.1734 16.16 13.5467 16.5067 13.6267C17.2 13.8134 17.7333 14.3734 17.92 15.04ZM19.9999 15.5467C19.9999 15.92 20.2932 16.2133 20.6666 16.2133C21.0399 16.2133 21.3332 15.92 21.3332 15.5467C21.3332 12.72 19.1199 10.4 16.2666 10.24C15.9199 10.24 15.5999 10.5067 15.5732 10.88C15.5732 11.2267 15.8399 11.5467 16.2132 11.5467C18.3466 11.68 19.9999 13.4133 19.9999 15.5467Z" fill="#6F58A1"/>
</svg>
