<svg viewBox="0 0 32 32" fill="none" xmlns="http://www.w3.org/2000/svg">
  <path d="M16.0001 2.6665C12.4639 2.6665 9.07248 4.07126 6.57199 6.57175C4.07151 9.07223 2.66675 12.4636 2.66675 15.9998C2.66675 19.5361 4.07151 22.9274 6.57199 25.4279C9.07248 27.9284 12.4639 29.3332 16.0001 29.3332C19.5363 29.3332 22.9277 27.9284 25.4282 25.4279C27.9287 22.9274 29.3334 19.5361 29.3334 15.9998C29.3334 12.4636 27.9287 9.07223 25.4282 6.57175C22.9277 4.07126 19.5363 2.6665 16.0001 2.6665Z" fill="white"/>
  <path d="M8.74273 15.9527C13.1786 13.7224 18.919 11.0033 19.7113 10.627C21.7898 9.64193 22.4276 9.83071 22.1096 12.0121C21.8812 13.58 21.2223 18.771 20.6971 22.002C20.3855 23.918 19.6863 24.1451 18.5868 23.3162C18.0581 22.9172 15.3895 20.9004 14.8103 20.4268C14.2816 19.9952 13.5524 19.4761 14.4669 18.4536C14.7923 18.0893 16.9255 15.7615 18.5875 13.9495C18.8053 13.7115 18.5318 13.3207 18.2805 13.5115C16.0403 15.2092 12.9343 17.5657 12.539 17.8727C11.9419 18.3362 11.3683 18.5487 10.3388 18.2107C9.56087 17.9554 8.80097 17.6508 8.5052 17.5347C7.36623 17.0877 7.63659 16.5089 8.74273 15.9527Z" fill="#29B6F6"/>
</svg>
