<svg viewBox="0 0 108 80" fill="none" xmlns="http://www.w3.org/2000/svg">
  <mask id="path-1-inside-1" fill="white">
    <path fill-rule="evenodd" clip-rule="evenodd" d="M35.4859 0V9.09091C21.4262 9.09091 9.95032 19.9546 9.28743 33.6005L9.26336 34.5455H46.2859V80H0L0.00617146 34.5455L0.0268857 33.4793C0.741642 15.3111 15.6198 0.710521 34.1247 0.0251641L35.4859 0ZM97.2 0V9.09091C83.1403 9.09091 71.6644 19.9546 71.0016 33.6005L70.9775 34.5455H108V80H61.7141L61.7203 34.5455L61.741 33.4793C62.4558 15.3111 77.334 0.710521 95.8388 0.0251641L97.2 0ZM37.0284 43.6365H9.25684V70.9092H37.0284V43.6365ZM98.7437 43.6365H70.9722V70.9092H98.7437V43.6365Z"/>
  </mask>
  <path fill-rule="evenodd" clip-rule="evenodd" d="M35.4859 0V9.09091C21.4262 9.09091 9.95032 19.9546 9.28743 33.6005L9.26336 34.5455H46.2859V80H0L0.00617146 34.5455L0.0268857 33.4793C0.741642 15.3111 15.6198 0.710521 34.1247 0.0251641L35.4859 0ZM97.2 0V9.09091C83.1403 9.09091 71.6644 19.9546 71.0016 33.6005L70.9775 34.5455H108V80H61.7141L61.7203 34.5455L61.741 33.4793C62.4558 15.3111 77.334 0.710521 95.8388 0.0251641L97.2 0ZM37.0284 43.6365H9.25684V70.9092H37.0284V43.6365ZM98.7437 43.6365H70.9722V70.9092H98.7437V43.6365Z" fill="#111111" fill-opacity="0.04"/>
  <path d="M35.4859 0H38.4859V-3.05597L35.4304 -2.99949L35.4859 0ZM35.4859 9.09091V12.0909H38.4859V9.09091H35.4859ZM9.28743 33.6005L6.29096 33.4549L6.28928 33.4895L6.2884 33.5241L9.28743 33.6005ZM9.26336 34.5455L6.26433 34.4691L6.18595 37.5455H9.26336V34.5455ZM46.2859 34.5455H49.2859V31.5455H46.2859V34.5455ZM46.2859 80V83H49.2859V80H46.2859ZM0 80L-3 79.9996L-3.00041 83H0V80ZM0.00617146 34.5455L-2.99326 34.4872L-2.99382 34.5161L-2.99383 34.545L0.00617146 34.5455ZM0.0268857 33.4793L-2.9708 33.3614L-2.97197 33.3912L-2.97255 33.4211L0.0268857 33.4793ZM34.1247 0.0251641L34.0693 -2.97432L34.0415 -2.97381L34.0137 -2.97278L34.1247 0.0251641ZM97.2 0H100.2V-3.05597L97.1445 -2.99949L97.2 0ZM97.2 9.09091V12.0909H100.2V9.09091H97.2ZM71.0016 33.6005L68.0051 33.4549L68.0034 33.4895L68.0025 33.5241L71.0016 33.6005ZM70.9775 34.5455L67.9785 34.4691L67.9001 37.5455H70.9775V34.5455ZM108 34.5455H111V31.5455H108V34.5455ZM108 80V83H111V80H108ZM61.7141 80L58.7141 79.9996L58.7137 83H61.7141V80ZM61.7203 34.5455L58.7209 34.4872L58.7203 34.5161L58.7203 34.545L61.7203 34.5455ZM61.741 33.4793L58.7433 33.3614L58.7422 33.3912L58.7416 33.4211L61.741 33.4793ZM95.8388 0.0251641L95.7834 -2.97432L95.7556 -2.97381L95.7278 -2.97278L95.8388 0.0251641ZM37.0284 43.6365H40.0284V40.6365H37.0284V43.6365ZM9.25684 43.6365V40.6365H6.25684V43.6365H9.25684ZM9.25684 70.9092H6.25684V73.9092H9.25684V70.9092ZM37.0284 70.9092V73.9092H40.0284V70.9092H37.0284ZM98.7437 43.6365H101.744V40.6365H98.7437V43.6365ZM70.9722 43.6365V40.6365H67.9722V43.6365H70.9722ZM70.9722 70.9092H67.9722V73.9092H70.9722V70.9092ZM98.7437 70.9092V73.9092H101.744V70.9092H98.7437ZM32.4859 0V9.09091H38.4859V0H32.4859ZM35.4859 6.09091C19.866 6.09091 7.03343 18.1709 6.29096 33.4549L12.2839 33.7461C12.8672 21.7382 22.9864 12.0909 35.4859 12.0909V6.09091ZM6.2884 33.5241L6.26433 34.4691L12.2624 34.6219L12.2865 33.6769L6.2884 33.5241ZM9.26336 37.5455H46.2859V31.5455H9.26336V37.5455ZM43.2859 34.5455V80H49.2859V34.5455H43.2859ZM46.2859 77H0V83H46.2859V77ZM3 80.0004L3.00617 34.5459L-2.99383 34.545L-3 79.9996L3 80.0004ZM3.00561 34.6037L3.02632 33.5376L-2.97255 33.4211L-2.99326 34.4872L3.00561 34.6037ZM3.02457 33.5973C3.6759 17.0411 17.2522 3.65212 34.2358 3.02311L34.0137 -2.97278C13.9874 -2.23108 -2.19262 13.581 -2.9708 33.3614L3.02457 33.5973ZM34.1802 3.02465L35.5413 2.99949L35.4304 -2.99949L34.0693 -2.97432L34.1802 3.02465ZM94.2 0V9.09091H100.2V0H94.2ZM97.2 6.09091C81.5801 6.09091 68.7476 18.1709 68.0051 33.4549L73.998 33.7461C74.5813 21.7382 84.7006 12.0909 97.2 12.0909V6.09091ZM68.0025 33.5241L67.9785 34.4691L73.9765 34.6219L74.0006 33.6769L68.0025 33.5241ZM70.9775 37.5455H108V31.5455H70.9775V37.5455ZM105 34.5455V80H111V34.5455H105ZM108 77H61.7141V83H108V77ZM64.7141 80.0004L64.7203 34.5459L58.7203 34.545L58.7141 79.9996L64.7141 80.0004ZM64.7197 34.6037L64.7404 33.5376L58.7416 33.4211L58.7209 34.4872L64.7197 34.6037ZM64.7387 33.5973C65.39 17.0411 78.9663 3.65212 95.9499 3.02311L95.7278 -2.97278C75.7016 -2.23108 59.5215 13.581 58.7433 33.3614L64.7387 33.5973ZM95.8943 3.02465L97.2554 2.99949L97.1445 -2.99949L95.7834 -2.97432L95.8943 3.02465ZM37.0284 40.6365H9.25684V46.6365H37.0284V40.6365ZM6.25684 43.6365V70.9092H12.2568V43.6365H6.25684ZM9.25684 73.9092H37.0284V67.9092H9.25684V73.9092ZM40.0284 70.9092V43.6365H34.0284V70.9092H40.0284ZM98.7437 40.6365H70.9722V46.6365H98.7437V40.6365ZM67.9722 43.6365V70.9092H73.9722V43.6365H67.9722ZM70.9722 73.9092H98.7437V67.9092H70.9722V73.9092ZM101.744 70.9092V43.6365H95.7437V70.9092H101.744Z" fill="white" mask="url(#path-1-inside-1)"/>
</svg>
