<svg xmlns="http://www.w3.org/2000/svg" width="106" height="58" fill="none" viewBox="0 0 106 58">
  <g clip-path="url(#clip0)">
    <path stroke="#111" stroke-opacity=".16" d="M51.031 38.626c5.552 2.78 12.515.672 15.553-4.708 3.038-5.38 1-11.995-4.552-14.775-5.552-2.78-12.515-.672-15.553 4.708-3.038 5.38-1 11.995 4.552 14.775z"/>
    <path fill="#111" d="M17.512 14.652l7.116-7.094-2.264 9.524 1.652.828 8.405-8.836-1.488-.745-6.886 7.598 2.376-9.857-1.503-.753-7.364 7.396 2.87-9.646-1.504-.753-3.063 11.511 1.653.827zM88.407 50.407l.6-1.062-4.41-2.21 1.992-3.53 3.966 1.987.566-1.004-3.966-1.988 1.952-3.458 4.41 2.21.6-1.063-5.758-2.884-5.708 10.118 5.756 2.884z"/>
    <path stroke="#111" stroke-opacity=".16" d="M70.615 3.72L42.447 54.048"/>
    <path stroke="#111" d="M34.692 17.315l44.148 22.3"/>
  </g>
  <defs>
    <clipPath id="clip0">
      <path fill="#fff" d="M0 0h106v57H0z" transform="translate(0 .5)"/>
    </clipPath>
  </defs>
</svg>
