<svg width="194" height="97" viewBox="0 0 194 97" xmlns="http://www.w3.org/2000/svg">
  <g clip-path="url(#clip0)">
    <path d="M7 29.5117H44.0405C44.0481 41.9826 44.0481 54.4611 44.0481 66.932C31.6987 66.9168 19.3494 66.932 7 66.9244V29.5117ZM15.1873 38.1396C15.2177 41.2611 15.2101 44.375 15.1949 47.4965C18.4228 47.656 21.643 47.6332 24.8709 47.5421C24.8481 44.375 24.8557 41.2155 24.8633 38.0484C21.6506 37.6535 18.3924 37.6307 15.1873 38.1396ZM26.1772 38.0105C26.1392 41.1927 26.1468 44.375 26.1544 47.5573C29.3823 47.618 32.6101 47.6484 35.8304 47.5041C35.8304 44.375 35.8228 41.2535 35.8456 38.1244C32.6329 37.8813 29.3975 37.9345 26.1772 38.0105ZM15.1873 58.4408C18.4152 58.5699 21.643 58.5396 24.8709 58.5244C24.8785 55.3269 24.8937 52.1218 24.8557 48.9244C21.6354 48.9016 18.4228 48.8864 15.2101 48.9548C15.2101 52.1218 15.2177 55.2813 15.1873 58.4408ZM26.0937 58.3877C29.2304 58.8661 32.3367 59.5269 35.4962 59.8611C36.1114 56.7624 36.681 53.6408 37.0911 50.5041C34.0076 49.813 30.8785 49.3573 27.7797 48.7649C26.9139 51.9092 26.4051 55.1446 26.0937 58.3877Z"/>
    <path d="M122.603 35.8912C127.41 33.7115 133.334 34.6077 137.451 37.8735C136.433 39.6355 135.453 41.4279 134.2 43.0305C131.413 41.6178 128.116 39.59 125.041 41.5039C124.722 43.3646 126.066 44.6178 127.82 44.7165C129.666 44.9976 131.473 45.4457 133.266 45.9621C139.122 48.1722 138.742 57.5672 133.441 60.195C128.39 62.7545 122.17 61.4254 117.651 58.3419C118.82 56.4659 120.013 54.6051 121.129 52.6912C123.256 53.9292 125.572 54.7419 127.851 55.6305C129.21 55.5621 130.327 54.8406 131.246 53.876C130.889 53.2153 130.547 52.5469 130.197 51.8862C129.765 51.8254 128.899 51.7115 128.466 51.6507C127 51.2558 125.504 51.0355 124.03 50.6786C116.997 49.5241 116.716 38.7393 122.603 35.8912Z"/>
    <path d="M52.7214 35.3073C56.967 35.3225 61.205 35.2845 65.4505 35.3149C68.2151 35.3377 71.4202 36.363 72.6202 39.0896C73.1442 40.7225 72.7645 42.4693 72.6885 44.1478C71.9746 45.082 71.1999 45.9858 70.4404 46.882C73.0379 48.8339 73.9189 52.1833 73.2126 55.2744C72.1797 57.9174 70.2354 60.7503 67.1214 60.8947C62.3214 61.0238 57.5214 60.9098 52.7214 60.9402C52.7594 52.3959 52.7594 43.8516 52.7214 35.3073ZM58.7594 40.7529C58.7442 42.1352 58.7518 43.5098 58.7898 44.8921C60.324 44.8997 61.8581 44.8769 63.3847 44.9529C64.8961 44.6719 66.6126 43.4795 65.7923 41.7326C63.8252 40.1757 61.0835 40.92 58.7594 40.7529ZM58.9341 50.482C58.9189 51.9706 58.8961 53.4668 58.8809 54.9554C61.2202 54.9782 63.567 54.9782 65.9138 54.9098C67.0455 53.4668 66.9619 51.6668 65.5113 50.4668C63.324 50.4896 61.129 50.482 58.9341 50.482Z"/>
    <path d="M76.5848 35.4892C82.7975 35.4892 89.0026 35.474 95.2152 35.4892C95.2076 37.479 95.2076 39.4689 95.2152 41.4588C91.5696 41.5879 87.9241 41.4132 84.2785 41.5423C82.7139 41.8993 83.7393 43.9347 83.4203 45.0056C85.7899 45.0284 88.1671 45.0208 90.5367 45.0284C90.5291 47.0487 90.5291 49.0765 90.5367 51.0968C88.1671 51.0968 85.7975 51.0892 83.4279 51.1271C83.4431 52.3347 83.4582 53.5347 83.481 54.7347C87.5063 54.7499 91.5393 54.7271 95.5646 54.7575C95.5494 56.679 95.5494 58.6082 95.557 60.5297C89.238 60.5449 82.9114 60.5601 76.5924 60.5221C76.6 52.1752 76.6152 43.8284 76.5848 35.4892Z"/>
    <path d="M97.6 35.4881C103.813 35.4805 110.025 35.4805 116.238 35.4881C116.2 37.4856 116.208 39.4906 116.223 41.4881C114.149 41.5033 112.053 41.397 110.018 41.8451C110.101 48.0805 110.041 54.316 110.056 60.5514C107.739 60.5362 105.423 60.5362 103.114 60.5742C103.076 54.2172 103.137 47.8527 103.076 41.4881C101.253 41.5033 99.438 41.5109 97.6152 41.5033C97.6228 39.4982 97.6304 37.4932 97.6 35.4881Z"/>
    <path d="M147.537 35.4824C149.876 35.4824 152.223 35.4824 154.57 35.49C154.995 36.8115 155.428 38.1406 155.815 39.4774L156.051 39.8951C157.995 46.047 160.061 52.1685 161.937 58.3432C162.286 59.2014 162.651 60.0596 163.03 60.9179C160.608 60.9558 158.177 60.9482 155.762 60.9406C155.496 59.4293 155.162 57.9255 154.759 56.4444C152.208 56.4672 149.656 56.4672 147.096 56.452C146.671 57.8799 146.238 59.3153 145.843 60.7584C143.382 60.7432 140.929 60.9103 138.476 60.9786C141.529 52.4875 144.506 43.9736 147.537 35.4824ZM148.889 50.4824C150.142 50.4824 151.395 50.4748 152.648 50.4672C152.063 48.0444 151.501 45.6065 150.696 43.2444C150.324 45.7128 149.656 48.1128 148.889 50.4824Z"/>
    <path d="M165.089 35.4887C167.223 35.4811 169.364 35.4887 171.506 35.4735C174.332 39.6811 177.096 43.9419 179.982 48.1115C180.035 43.8355 179.982 39.5672 179.99 35.2988C182.215 35.314 184.433 35.3064 186.658 35.2988C186.628 43.8507 186.628 52.4026 186.658 60.9469C184.706 60.9469 182.754 60.9393 180.802 60.9621C177.711 56.4052 174.742 51.7722 171.635 47.2229C171.673 51.7419 171.613 56.2533 171.681 60.7722C169.486 60.7722 167.283 60.7722 165.081 60.7722C165.142 52.3419 165.142 43.9115 165.089 35.4887Z"/>
  </g>
  <defs>
    <clipPath id="clip0">
      <rect width="180" height="37.9747" fill="white" transform="translate(7 29.5117)"/>
    </clipPath>
  </defs>
</svg>
