<svg width="194" height="97" viewBox="0 0 194 97" xmlns="http://www.w3.org/2000/svg">
  <g clip-path="url(#clip0)">
    <path fill-rule="evenodd" clip-rule="evenodd" d="M16.3 69L23.5 50.9C23.7 50.4 24 50.1 24.5 50C25 49.9 25.4 50 25.8 50.3C26.7 51 27.4 51.6 28.2 52.4C28.4 52.6 28.8 52.7 29.1 52.5C29.4 52.3 29.5 52 29.4 51.7C29.1 47.2 28.8 43.1 28.4 38.6C28.3 38.3 28.1 38 27.8 37.9C27.5 37.8 27.1 37.9 26.9 38.1L17.1 47.2C16.9 47.4 16.8 47.7 17 47.9C17.1 48.1 17.4 48.3 17.6 48.2C18.6 48.3 19.5 48.3 20.5 48.3C21.1 48.3 21.7 48.6 22 49.1C22.4 49.6 22.5 50.2 22.3 50.8L15.1 69L14 69.2L21.1 50.8C21.2 50.5 21.2 50.1 21 49.8C20.8 49.5 20.5 49.3 20.1 49.3C19 49.2 18.1 49.2 17 49.3C16.4 49.3 15.9 48.9 15.7 48.3C15.5 47.7 15.6 47.1 16 46.7L26.4 37C26.9 36.5 27.7 36.3 28.4 36.5C29.1 36.7 29.6 37.4 29.6 38.1C29.9 42.9 30.2 47.3 30.6 52.2C30.7 52.8 30.4 53.4 29.9 53.8C29.4 54.1 28.7 54.1 28.2 53.8C27.2 53.1 26.4 52.4 25.6 51.5C25.4 51.3 25.2 51.2 24.9 51.3C24.6 51.3 24.4 51.5 24.3 51.7C21.6 57.5 19.4 62.9 17.4 69H16.3ZM47.3 60.9C47.9 61.8 49 62.3 50.3 62.3C51.7 62.3 53.1 61.8 54.4 60.9C55.6 60 56.7 59.1 57.5 57.9C59.3 55.4 60.2 53 60.4 50.5C60.4 49.3 60.2 48.4 59.6 47.5C59 46.6 57.9 46.1 56.6 46.1C55.2 46.1 53.8 46.6 52.5 47.5C51.3 48.4 50.2 49.3 49.4 50.5C47.6 53 46.6 55.5 46.5 57.9C46.5 59.1 46.7 60.1 47.3 60.9ZM29.5 69.4L46 27H58.2L52.6 41.4C57 38.9 61.4 37.8 65.5 38.1C69.9 38.4 72.9 40.9 73.5 44.8C74.5 50.8 71.7 57.8 66.1 63.7C62.4 67.6 57.5 70.1 52.8 70.6C48.4 71 44.9 69.6 42.8 66.8L41.8 69.4H29.5ZM68.5 69.4L85 27H97.7L81.2 69.4H68.5ZM129.1 39.2L117.4 69.3H105.5L106.6 66.4C105 67.6 103.3 68.5 101.5 69.2C97.3 70.6 93.4 70.6 90.1 69.4C86.4 67.9 85.1 64 86.8 59.6L94.7 39.3H107.1L100.1 57.3C99.6 58.5 99.7 59.7 100.2 60.5C100.8 61.4 101.7 61.9 103 61.9C104.3 61.9 105.7 61.4 106.9 60.6C108.2 59.7 109.1 58.6 109.6 57.3L116.6 39.3H129.1V39.2ZM130.5 39.2H141.6L140.4 42.5C144.8 39 149.9 37.3 154.2 38.1C156.9 38.6 158.8 40.2 159.6 42.7C161.5 41.1 163.5 39.9 165.7 39.1C169.5 37.7 172.9 37.5 175.9 38.5C179.8 39.8 181.3 44.1 179.5 48.8L172.1 69.2H160.6L167.1 51.3C167.6 50 167.5 48.9 167 48C166.5 47.1 165.5 46.6 164.3 46.6C163.1 46.6 161.9 47.1 160.7 47.9C159.6 48.8 158.7 49.9 158.2 51.1L151.7 69.1H139.9L146.4 51.1C146.9 49.8 146.8 48.6 146.3 47.7C145.7 46.8 144.7 46.3 143.5 46.4C142.3 46.5 141.1 46.9 140 47.8C138.9 48.7 138.1 49.7 137.6 50.9L131 69H119.4L130.5 39.2Z"/>
  </g>
  <defs>
    <clipPath id="clip0">
      <rect width="166.3" height="43.6" fill="white" transform="translate(14 27)"/>
    </clipPath>
  </defs>
</svg>
