<svg width="194" height="97" viewBox="0 0 194 97" xmlns="http://www.w3.org/2000/svg">
  <path d="M15.7689 34.6406H30.5364C34.1574 34.6406 36.7077 35.5461 38.3944 37.2327C39.5456 38.384 40.2451 39.9075 40.2451 41.8806V41.9642C40.2451 45.2966 38.3525 47.2698 35.8033 48.3803C39.2999 49.5325 41.5208 51.5077 41.5208 55.4153V55.4969C41.5208 60.4353 37.4899 63.4374 30.62 63.4374H15.7689V34.6406ZM28.5633 46.1196C30.9892 46.1196 32.3474 45.2966 32.3474 43.61V43.5274C32.3474 41.9642 31.1136 41.0597 28.7275 41.0597H23.5442V46.1196H28.5633ZM29.7145 57.0203C32.1415 57.0203 33.5405 56.074 33.5405 54.3864V54.3038C33.5405 52.7406 32.3067 51.7117 29.6319 51.7117H23.5442V57.0193H29.7145V57.0203Z"/>
  <path d="M44.1914 48.5473V48.4637C44.1914 40.1959 50.8552 33.4902 59.7421 33.4902C68.6268 33.4902 75.2091 40.1133 75.2091 48.3811V48.4637C75.2091 56.7336 68.5442 63.4382 59.6595 63.4382C50.7737 63.4382 44.1914 56.8152 44.1914 48.5473ZM67.0626 48.5473V48.4637C67.0626 44.3094 64.0606 40.6894 59.6595 40.6894C55.2981 40.6894 52.3777 44.2268 52.3777 48.3811V48.4637C52.3777 52.6191 55.3807 56.2391 59.7421 56.2391C64.1421 56.2391 67.0626 52.7017 67.0626 48.5473Z"/>
  <path d="M78.3723 48.5473V48.4637C78.3723 40.0725 84.8312 33.4902 93.5518 33.4902C99.4355 33.4902 103.22 35.96 105.77 39.4964L99.7649 44.1442C98.1181 42.0885 96.2265 40.772 93.4702 40.772C89.4393 40.772 86.6004 44.187 86.6004 48.3811V48.4637C86.6004 52.7832 89.4393 56.1565 93.4702 56.1565C96.4743 56.1565 98.2425 54.7584 99.9709 52.6609L105.977 56.9396C103.263 60.6819 99.6007 63.4393 93.2234 63.4393C84.9954 63.4382 78.3723 57.1456 78.3723 48.5473Z"/>
  <path d="M107.575 48.5473V48.4637C107.575 40.0725 114.036 33.4902 122.755 33.4902C128.639 33.4902 132.422 35.96 134.975 39.4964L128.968 44.1442C127.323 42.0885 125.428 40.772 122.673 40.772C118.642 40.772 115.803 44.187 115.803 48.3811V48.4637C115.803 52.7832 118.642 56.1565 122.673 56.1565C125.676 56.1565 127.445 54.7584 129.172 52.6609L135.179 56.9396C132.464 60.6819 128.803 63.4393 122.426 63.4393C114.2 63.4382 107.575 57.1456 107.575 48.5473Z"/>
  <path d="M138.589 34.6406H146.571V45.418H156.814V34.6406H164.793V63.4374H156.814V52.4948H146.571V63.4374H138.589V34.6406Z"/>
  <path d="M170.056 34.6406H178.078V63.4374H170.056V34.6406Z"/>
</svg>
