<svg width="194" height="97" viewBox="0 0 194 97" xmlns="http://www.w3.org/2000/svg">
  <g clip-path="url(#clip0)">
    <path d="M154.654 26.9434H155.774C157.065 27.1164 158.277 27.8778 158.958 28.9928C159.92 30.5049 159.841 32.6074 158.746 34.0303C157.614 35.5944 155.402 36.223 153.609 35.518C151.747 34.8596 150.525 32.8357 150.768 30.8829C150.938 28.8781 152.648 27.1356 154.654 26.9434Z"/>
    <path d="M165.799 33.6462C168.472 33.6547 171.146 33.6186 173.817 33.6643C173.78 36.4963 173.802 39.3304 173.806 42.1624C175.26 42.1539 176.715 42.1529 178.17 42.1635C178.191 44.5155 178.177 46.8697 178.176 49.2228C176.844 49.2398 175.51 49.2281 174.177 49.2292C174.045 49.2323 173.916 49.2472 173.791 49.2748C173.808 56.0559 173.801 62.837 173.794 69.6181C171.128 69.6171 168.462 69.6192 165.797 69.6171C165.797 63.3563 165.797 57.0966 165.797 50.8358C165.779 50.3155 165.83 49.7877 165.775 49.2716C164.92 49.175 164.049 49.26 163.189 49.2292C163.184 46.875 163.195 44.5208 163.183 42.1667C164.053 42.1486 164.924 42.1539 165.796 42.1635C165.799 39.324 165.793 36.4857 165.799 33.6462Z"/>
    <path d="M25.0793 42.552C26.8261 42.0763 28.6599 42.1453 30.4449 42.3163C33.0104 42.5956 35.6438 43.3495 37.6104 45.0963C37.5743 47.1266 37.6009 49.159 37.5403 51.1893C37.1379 50.5936 36.6569 50.0595 36.1567 49.5455C35.972 49.3703 35.7872 49.073 35.492 49.1834C35.543 49.1675 35.646 49.1346 35.698 49.1186C34.1201 47.7286 32.0398 47.0374 29.965 46.8961C28.5643 46.8123 27.1202 46.7804 25.778 47.2519C23.2178 48.1226 21.2831 50.3801 20.4485 52.9085C19.7752 55.0248 19.7986 57.3609 20.5005 59.4666C21.3096 61.7729 23.0777 63.7788 25.3532 64.7165C27.013 65.4215 28.8627 65.4109 30.6254 65.2346C32.3828 65.0456 34.17 64.5678 35.6046 63.4942C36.4902 62.8677 37.1634 61.98 37.6402 61.0126C37.7113 63.027 37.6338 65.0467 37.6784 67.0621C36.7078 67.9637 35.613 68.7569 34.3738 69.2453C32.9998 69.7816 31.5206 69.9844 30.0542 70.0566H27.7701C25.3055 69.9504 22.8504 69.1625 20.8509 67.7003C17.5273 65.2729 15.3271 61.3673 15 57.26V54.8156C15.1126 54.0404 15.1933 53.2567 15.4035 52.4996C15.9164 50.3939 16.9931 48.4454 18.4245 46.8271C20.1787 44.817 22.4703 43.2093 25.0793 42.552Z"/>
    <path d="M72.1934 42.2106C74.7982 41.9334 77.5059 42.2722 79.8782 43.4201C81.4879 44.1708 82.8854 45.3474 83.9525 46.7628C84.9741 48.1581 85.6653 49.7828 86.0455 51.4658C86.5223 53.4431 86.5573 55.4914 86.5382 57.5143C79.6615 57.5196 72.7859 57.5121 65.9093 57.5175C65.8721 59.3014 66.6356 61.0471 67.8535 62.332C69.1469 63.7007 70.8501 64.6628 72.6617 65.1555C73.5006 65.404 74.3872 65.3551 75.2495 65.2893C76.7998 65.1587 78.3098 64.6097 79.5798 63.7092C80.9262 62.762 82.0263 61.508 82.9703 60.1679C84.0863 61.0386 85.2066 61.9083 86.3184 62.7854C86.2982 63.0455 86.0274 63.2675 85.9287 63.5202C85.9765 63.5807 85.9924 63.6551 85.9733 63.7305L85.8862 63.5213C85.0208 64.8836 83.9101 66.0974 82.6273 67.0775C82.4988 67.1953 82.2801 67.2537 82.2504 67.4438C82.2259 67.4332 82.1771 67.413 82.1537 67.4024C81.7916 67.6955 81.3743 67.9057 80.9708 68.1319C80.9528 68.1786 80.9177 68.271 80.9007 68.3167C80.8328 68.2551 80.7595 68.2423 80.6809 68.2774C78.5253 69.3106 76.1021 69.6865 73.7278 69.6334C72.29 69.6674 70.8501 69.4369 69.4888 68.9782C66.3393 67.9036 63.7526 65.4401 62.2957 62.4743C61.4016 60.7572 61.1744 58.8002 61.0077 56.8994C60.9588 55.9045 60.9695 54.9063 60.9886 53.9113C61.1436 51.6432 61.9135 49.4143 63.227 47.555C64.0669 46.3752 65.0513 45.273 66.2438 44.4395C67.9735 43.1695 70.0675 42.4399 72.1934 42.2106ZM72.0808 46.5271C70.3882 46.9285 68.7508 47.7472 67.569 49.0448C66.4731 50.2107 65.8445 51.8078 65.8519 53.4069C65.8753 53.4303 65.9209 53.476 65.9443 53.4993C71.2929 53.4749 76.6437 53.51 81.9934 53.4813C81.9987 51.8014 81.4147 50.0992 80.2583 48.8632C78.2057 46.7108 74.9543 45.8401 72.0808 46.5271Z"/>
    <path d="M97.1599 43.7998C99.1127 42.6423 101.4 42.0848 103.665 42.1273C106.144 42.0594 108.648 42.8048 110.657 44.267C111.335 44.7183 111.902 45.3087 112.507 45.8481C112.514 44.8319 112.502 43.8146 112.514 42.7984C114.084 42.7952 115.655 42.7952 117.225 42.7984C117.225 51.5472 117.239 60.2959 117.219 69.0447C115.652 69.0457 114.086 69.0372 112.52 69.0489C112.5 68.0009 112.508 66.9517 112.514 65.9037C111.673 66.7107 110.795 67.4986 109.777 68.0773C107.947 69.1817 105.784 69.6691 103.658 69.6149C101.706 69.565 99.735 69.1933 97.9797 68.3141C96.3487 67.5358 94.9279 66.3603 93.7662 64.9841C92.2923 63.2798 91.3239 61.1667 90.8917 58.9601C90.5158 56.9425 90.4956 54.8517 90.8662 52.831C91.5437 49.1027 93.9286 45.7547 97.1599 43.7998ZM102.935 46.824C100.13 47.1457 97.6463 49.0422 96.3837 51.5344C95.4673 53.3056 95.2464 55.3752 95.5289 57.3322C95.7827 59.2425 96.6768 61.053 98.0041 62.4451C100.393 65.0669 104.562 65.8527 107.727 64.2365C109.371 63.3838 110.704 61.9928 111.626 60.3968C113.382 57.3046 113.026 53.2111 110.912 50.3812C109.899 48.9743 108.51 47.7924 106.861 47.2094C105.611 46.7443 104.249 46.6955 102.935 46.824Z"/>
    <path d="M53.5321 42.3605C55.3245 41.9973 57.1658 42.5569 58.7331 43.4202C58.9062 43.4606 58.7915 43.6358 58.765 43.7388C58.2882 44.9907 57.8857 46.2724 57.3675 47.5074C56.2982 46.694 54.8498 46.3882 53.5448 46.7067C52.2684 46.9828 51.1439 47.7973 50.3921 48.8528C49.8495 49.6237 49.4842 50.5082 49.2697 51.4246C49.3026 51.5011 49.3345 51.5775 49.3663 51.6561C49.3228 51.6805 49.2368 51.7294 49.1943 51.7549C49.1402 52.2985 49.0467 52.839 49.0594 53.388C49.0488 58.7144 49.0669 64.0418 49.0499 69.3681C47.5696 69.3617 46.0894 69.3511 44.6091 69.3734C44.6006 69.3065 44.5826 69.1727 44.5741 69.1058C44.5783 60.4176 44.5773 51.7304 44.5741 43.0422C45.9736 43.038 47.3732 43.0167 48.7717 43.0518C48.7674 43.9586 48.7589 44.8654 48.7802 45.7712C49.0892 45.4314 49.3387 45.0417 49.6445 44.6977C50.6724 43.5657 51.9998 42.626 53.5321 42.3605Z"/>
    <path d="M120.173 42.8879C123.025 42.8412 125.879 42.8921 128.731 42.8613C130.763 47.7597 132.814 52.6518 134.839 57.5534C135.673 55.7206 136.399 53.8336 137.188 51.9785C138.44 48.9427 139.729 45.9227 140.961 42.8794C143.677 42.856 146.394 42.8815 149.111 42.8666C149.249 42.8645 149.388 42.873 149.527 42.8911C145.959 50.6586 142.435 58.4475 138.88 66.2214C138.347 67.4192 137.775 68.5989 137.259 69.8042C135.663 69.8265 134.066 69.8105 132.469 69.8126C131.45 67.5785 130.43 65.3454 129.414 63.1101C128.532 61.1361 127.594 59.1844 126.741 57.1976C126.69 57.1913 126.587 57.1785 126.537 57.1722C126.563 57.0989 126.594 57.0277 126.626 56.9566C125.466 54.5058 124.376 52.0221 123.236 49.5607C122.977 48.9618 122.679 48.3799 122.443 47.7725C122.406 47.8468 122.371 47.9222 122.339 47.9987L122.26 47.7459C122.298 47.7587 122.374 47.7842 122.411 47.7969C121.787 46.2901 121.056 44.83 120.405 43.3349C120.338 43.1788 120.258 43.0323 120.173 42.8879Z"/>
    <path d="M151.149 42.9004C153.827 42.9015 156.506 42.9025 159.185 42.9004C159.197 51.8063 159.189 60.7111 159.188 69.6171C156.507 69.6202 153.827 69.6192 151.146 69.6171C151.144 60.7122 151.138 51.8063 151.149 42.9004Z"/>
  </g>
  <defs>
    <clipPath id="clip0">
      <rect width="164" height="43.6547" fill="white" transform="translate(15 26.6719)"/>
    </clipPath>
  </defs>
</svg>
