<svg width="194" height="97" viewBox="0 0 194 97" xmlns="http://www.w3.org/2000/svg">
  <g clip-path="url(#clip0)">
    <path fill-rule="evenodd" clip-rule="evenodd" d="M69.3549 23.4922H17.3818V73.5088H69.3549V23.4922ZM20.0186 55.05V59.4732H33.3733V55.05H31.0766V50.7118H34.9044V46.4587H31.0766V42.0354H36.0953V44.5022H41.6244V37.6973H20.0186V42.0354H21.8049V55.05H20.0186ZM55.3194 55.135H52.9376V50.5417H55.6596L60.4231 59.5583H69.0144V55.135H67.6534L64.0808 49.1807C65.2717 48.5852 66.1223 47.9047 66.7177 47.0541C67.3132 46.2035 67.5683 45.1827 67.5683 43.9919C67.5683 41.7803 66.7177 40.1641 64.8464 39.1433C62.975 38.2076 59.9127 37.6973 55.6596 37.6973H42.56V42.0354H44.4314V55.135H42.56V59.5583H55.3194V55.135ZM52.9376 46.6288V42.0354C52.9902 42.0354 53.0753 42.003 53.1928 41.9581C53.2655 41.9303 53.3505 41.8978 53.448 41.8653H53.7883C55.1493 41.8653 56.17 42.0354 56.8505 42.4608C57.531 42.8861 57.8713 43.4815 57.8713 44.2471C57.8713 45.0977 57.531 45.6931 56.8505 46.0334C56.17 46.4587 55.1493 46.6288 53.7032 46.6288H52.9376Z"/>
    <path fill-rule="evenodd" clip-rule="evenodd" d="M123.199 23.4922H71.311V73.5088H123.199V23.4922ZM84.9212 49.2649H80.8382L83.0498 43.0553L84.9212 49.2649ZM80.3278 55.1341H78.7967L79.9025 51.8167H85.6867L86.6224 55.0491H84.9212V59.4723H96.5747V55.0491H95.2987L90.7054 41.9495H92.4917V37.6113H76.1597V41.9495H77.9461L73.2676 55.1341H71.9917V59.5574H80.3278V55.1341ZM103.805 55.0491V45.8624L112.311 59.5574H120.477V42.0346H122.178V37.6964H113.247V42.0346H115.288V50.4557L107.548 37.6964H97V42.0346H98.7012V55.0491H97V59.4723H105.932V55.0491H103.805Z"/>
    <path fill-rule="evenodd" clip-rule="evenodd" d="M176.533 23.4922H124.645V73.5088H176.533V23.4922ZM153.056 55.135H152.546L145.145 46.4587L149.568 42.0354H150.929V37.6973H140.382V42.0354H142.678L136.554 48.245L142.253 55.135H140.637V59.5583H153.056V55.135ZM125.326 55.05V59.4732V59.5583H137.83V55.135H136.129V42.0354H137.83V37.6973H125.326V42.0354H127.027V55.05H125.326ZM153.226 55.05V59.3881H174.407V52.2429H168.963V55.05H163.944V50.7118H168.197V46.4587H163.944V42.0354H168.963V44.5022H174.492V37.6973H153.226V42.0354H154.927V55.05H153.226Z"/>
  </g>
  <defs>
    <clipPath id="clip0">
      <rect width="194" height="97" fill="white"/>
    </clipPath>
  </defs>
</svg>
