<svg width="194" height="97" viewBox="0 0 194 97" xmlns="http://www.w3.org/2000/svg">
  <g clip-path="url(#clip0)">
      <path fill-rule="evenodd" clip-rule="evenodd" d="M163.008 22.0464V26.7248H173.216V32.2538H163.008V38.2082H176.533V43.7372H163.008H162.073H155.948V16.6024H160.712H163.008H175.172V22.1314H163.008V22.0464ZM148.037 16.6024V43.7372H140.977V32.2538H127.537V43.7372H120.477V16.6024H127.537V26.8098H140.977V16.6024H148.037ZM98.446 15.9219C108.058 15.9219 115.969 22.3015 115.969 30.1273C115.969 37.953 108.143 44.3327 98.446 44.3327C88.834 44.3327 80.9232 37.953 80.9232 30.1273C80.9232 22.3015 88.7489 15.9219 98.446 15.9219ZM98.446 21.0256C103.635 21.0256 107.803 25.1086 107.803 30.1273C107.803 35.1459 103.55 39.2289 98.446 39.2289C93.3423 39.2289 89.0892 35.1459 89.0892 30.1273C89.0041 25.1086 93.2572 21.0256 98.446 21.0256ZM53.278 16.6024H60.3381H66.7178C74.7137 16.6024 77.4357 20.9405 77.4357 25.0235C77.4357 29.1065 75.5643 31.6584 71.9066 33.0194L81.6037 43.6522H71.7365C68.0788 39.0588 64.5062 34.5505 60.8485 29.9571H65.2718C67.4834 29.9571 69.2697 28.1708 69.2697 25.9592C69.2697 23.7476 67.4834 21.9613 65.2718 21.9613H60.2531V43.6522H53.278V16.6024ZM34.9045 15.9219C39.2427 15.9219 43.3257 17.1978 46.3879 19.4094V24.1729C42.305 21.9613 38.4771 20.9405 34.9045 21.0256C29.7157 21.0256 25.5477 25.1086 25.5477 30.1273C25.5477 35.1459 29.8008 39.2289 34.9045 39.2289C36.6058 39.2289 38.222 38.8036 39.583 38.0381V30.3825H46.8133V40.5899C43.6659 42.9717 39.4979 44.4177 34.9045 44.4177C25.2925 44.4177 17.3817 37.953 17.3817 30.1273C17.3817 22.3015 25.2925 15.9219 34.9045 15.9219Z"/>
      <path fill-rule="evenodd" clip-rule="evenodd" d="M79.9025 53.0928C85.4315 55.1343 91.2158 57.2609 98.0207 57.2609C104.826 57.2609 110.61 55.1343 116.139 53.0928C130.259 47.904 134.683 47.904 148.888 52.9227C154.417 54.8791 160.201 56.9206 167.006 56.9206C169.048 56.9206 170.919 56.7505 172.79 56.4102C172.025 57.516 171.174 58.5368 170.239 59.6426C169.218 59.7277 168.112 59.8127 167.091 59.8127C159.776 59.8127 153.822 57.6862 148.037 55.6447C142.934 53.8584 138 52.1571 132.641 52.0721C132.641 52.0721 132.641 52.0721 132.556 52.0721C127.197 52.1571 122.263 53.9434 117.245 55.8148C111.461 57.9414 105.421 60.153 98.1058 60.153C90.7904 60.153 84.8361 57.9414 78.9668 55.8148C73.8631 53.9434 68.9295 52.1571 63.6556 52.0721C63.5705 52.0721 63.5705 52.0721 63.5705 52.0721C58.2116 52.1571 53.278 53.8584 48.1743 55.6447C42.39 57.6862 36.3506 59.8127 29.1203 59.8127C27.9295 59.8127 26.7386 59.7277 25.6328 59.6426C24.6971 58.6219 23.8465 57.516 22.9958 56.4102C24.9523 56.7505 26.9938 56.9206 29.0353 56.9206C35.8402 56.9206 41.6245 54.8791 47.1535 52.9227C61.3589 47.9891 65.8672 47.904 79.9025 53.0928ZM79.9025 63.5555C85.4315 65.597 91.2158 67.7235 98.0207 67.7235C104.826 67.7235 110.61 65.597 116.139 63.5555C130.259 58.3667 134.683 58.4517 148.888 63.3853C152.971 64.8314 157.139 66.2775 161.817 66.958C160.712 67.7235 159.521 68.4891 158.33 69.2546C154.672 68.4891 151.27 67.2982 147.952 66.1073C142.849 64.321 137.915 62.6198 132.556 62.5347C132.556 62.5347 132.556 62.5347 132.471 62.5347C127.112 62.6198 122.178 64.4061 117.16 66.2775C111.376 68.404 105.336 70.6156 98.0207 70.6156C90.7054 70.6156 84.751 68.404 78.8817 66.2775C73.778 64.4061 68.8444 62.6198 63.5705 62.5347C63.4855 62.5347 63.4855 62.5347 63.4855 62.5347C58.1266 62.6198 53.278 64.321 48.1743 66.1073C44.7718 67.2982 41.3693 68.4891 37.6266 69.3397C36.4357 68.5741 35.2448 67.8086 34.139 67.043C38.8174 66.3625 43.0705 64.9165 47.2386 63.4704C61.3589 58.4517 65.8672 58.3667 79.9025 63.5555ZM79.9025 74.0181C85.4315 76.0596 91.2158 78.1862 98.0207 78.1862C104.826 78.1862 110.61 76.0596 116.139 74.0181C130.259 68.8293 134.683 68.8293 148.888 73.848C148.973 73.848 149.143 73.9331 149.228 73.9331C147.952 74.5285 146.676 75.0389 145.315 75.5492C141.147 74.1032 136.979 72.9123 132.556 72.9123C132.556 72.9123 132.556 72.9123 132.471 72.9123C127.112 72.9974 122.178 74.7837 117.16 76.6551C111.376 78.7816 105.336 80.9932 98.0207 80.9932C90.7054 80.9932 84.751 78.7816 78.8817 76.6551C73.778 74.7837 68.8444 72.9974 63.5705 72.9123C63.4855 72.9123 63.4855 72.9123 63.4855 72.9123C58.9772 72.9974 54.8091 74.1883 50.556 75.6343C49.195 75.1239 47.9191 74.5285 46.6432 74.0181C46.8133 73.9331 46.9834 73.9331 47.1535 73.848C61.3589 68.9144 65.8672 68.9144 79.9025 74.0181Z"/>
    </g>
    <defs>
      <clipPath id="clip0">
        <rect width="194" height="97" fill="white"/>
      </clipPath>
  </defs>
</svg>
