<svg width="194" height="97" viewBox="0 0 194 97" xmlns="http://www.w3.org/2000/svg">
  <g clip-path="url(#clip0)">
    <path d="M3 20.8555V76.146H191V20.8555H3ZM190.035 75.1813C189.071 75.1813 4.98974 75.1813 4.02502 75.1813C4.02502 74.2166 4.02502 30.3821 4.02502 29.4174H190.035C190.035 30.3821 190.035 74.2166 190.035 75.1813Z"/>
    <path d="M51.7788 62.761C54.07 63.1831 57.1451 63.364 58.773 61.4346C60.2804 59.6257 60.0392 57.0933 60.1598 54.6815C60.2201 48.652 60.0995 42.5019 59.9186 36.4121H67.8173C67.5761 42.7431 67.5158 48.7726 67.5761 55.1639C67.5761 58.5404 67.757 62.0375 65.5261 64.5096C62.8128 67.7052 58.773 68.4288 54.5524 68.4288L53.648 68.3685L51.7788 62.761Z"/>
    <path d="M175.142 66.6202C171.464 60.8922 167.183 55.4656 163.023 49.9788C162.963 55.4656 163.083 61.1333 163.264 66.6202H156.149C156.511 56.6715 156.451 46.4816 156.149 36.4727H162.541C166.279 42.1404 170.5 47.6875 174.66 53.1744C174.72 47.6272 174.66 41.9595 174.419 36.4727H181.473C181.413 39.7889 181.292 43.1654 181.292 46.4213C181.232 53.1141 181.292 59.9877 181.473 66.6202H175.142Z"/>
    <path d="M116.656 66.6199C116.355 58.4801 116.355 50.2197 116.536 42.0798C119.068 42.0798 121.721 42.2004 124.193 42.321V36.4121H101.281V42.321C103.753 42.2004 106.406 42.0196 108.938 42.0798C109.119 50.28 109.059 58.5404 108.818 66.6199H116.656Z"/>
    <path d="M139.086 67.4641C137.217 67.4641 135.348 67.2832 133.659 66.7405C130.946 65.8964 128.534 63.7861 127.509 61.0728C126.424 58.6007 126.786 55.4051 126.725 52.6918C126.786 47.2652 126.665 41.8387 126.484 36.4121H134.262C134.081 42.5019 134.021 48.7726 134.081 54.7418C134.142 56.9727 134.142 59.2036 135.709 60.8316C136.554 61.736 137.82 62.0978 139.086 62.0978C140.352 62.0978 141.618 61.736 142.462 60.8316C144.03 59.2639 144.03 56.9727 144.09 54.7418C144.151 48.7726 144.09 42.4416 143.91 36.4121H151.688C151.507 41.8387 151.446 47.2652 151.446 52.6918C151.386 55.4051 151.688 58.6007 150.663 61.0728C149.698 63.7258 147.226 65.8964 144.512 66.7405C142.885 67.2832 141.015 67.5244 139.086 67.4641Z"/>
    <path d="M101.402 46.7212C100.377 43.0432 97.8441 39.4858 94.2264 37.4961C92.0558 36.2299 89.2219 35.627 86.4484 35.627C83.6748 35.627 80.9012 36.2299 78.6703 37.4961C75.0526 39.4255 72.5202 43.0432 71.4952 46.7212C70.4099 51.364 70.7716 56.6699 73.3643 60.5288C75.1129 63.423 77.9468 65.5936 81.0218 66.6186C82.7704 67.2216 84.5792 67.4628 86.3881 67.4628C88.1969 67.4628 90.0058 67.1613 91.7543 66.6186C94.8897 65.5936 97.6633 63.423 99.4118 60.5288C102.125 56.7302 102.487 51.364 101.402 46.7212ZM94.1661 53.4743C93.9853 55.9464 93.322 58.1773 91.7543 60.1068C90.4881 61.6744 88.5587 62.3377 86.5087 62.3377C84.5189 62.3377 82.5895 61.6141 81.263 60.1068C79.6953 58.2376 78.9718 55.9464 78.8512 53.4743C78.6703 49.5551 78.8512 45.6359 81.5042 42.8021C82.8307 41.4153 84.6395 40.8123 86.5087 40.8123C88.3778 40.8123 90.1867 41.4153 91.5132 42.8021C94.1661 45.6359 94.347 49.5551 94.1661 53.4743Z"/>
    <path d="M35.3785 45.0334V33.3965C32.2432 33.3965 27.9019 33.9391 25.068 38.0995C23.8018 40.0892 23.018 42.3804 22.6562 45.0334C22.3548 45.0937 22.0533 45.154 21.8121 45.2746C15.4811 47.1438 11.0796 51.485 11.0796 57.213C11.0796 61.8558 15.7826 66.4985 22.4754 68.4279V69.5735H35.9212V68.4882C42.6139 66.5588 47.3169 61.916 47.3169 57.2733C47.2566 51.1835 42.3124 46.7217 35.3785 45.0334ZM13.9738 51.1835H17.9532C17.1091 52.5703 16.5061 54.138 16.265 55.766H11.984C12.2252 54.0777 12.9487 52.51 13.9738 51.1835ZM11.8634 57.2733C11.8634 57.0322 11.8634 56.8513 11.9237 56.6101H16.2047C16.2047 56.8513 16.1444 57.0322 16.1444 57.2733C16.1444 58.6601 16.3856 59.9866 16.8679 61.2528H13.0693C12.2855 59.9866 11.8634 58.6601 11.8634 57.2733ZM22.4151 67.6441C18.6165 66.4985 15.4811 64.5087 13.6723 62.0969H17.2297C18.315 64.3881 20.1239 66.3176 22.4151 67.6441ZM22.4151 66.6794C20.6062 65.5338 19.1591 63.9661 18.1944 62.0969H22.4151V66.6794ZM22.4151 61.2528H17.8326C17.3503 60.0469 17.0488 58.6601 17.0488 57.2733C17.0488 57.0322 17.0488 56.8513 17.1091 56.6101H22.4151V61.2528ZM22.4151 55.766H17.1694C17.4106 54.0777 18.0135 52.51 18.9782 51.1835H22.4151V55.766ZM29.6505 36.5921C30.2534 36.5921 30.7358 37.0745 30.7358 37.6774C30.7358 38.2804 30.2534 38.7627 29.6505 38.7627C29.0475 38.7627 28.5652 38.2804 28.5652 37.6774C28.5652 37.0745 29.0475 36.5921 29.6505 36.5921ZM29.1681 68.4279C25.3092 68.4279 23.9224 63.1822 23.9224 56.6704C23.9224 50.1585 25.1886 44.9128 29.1681 44.9128C33.1476 44.9128 34.4138 50.1585 34.4138 56.6704C34.4138 63.1822 33.027 68.4279 29.1681 68.4279ZM44.3625 51.1835C45.3875 52.5703 46.0507 54.0777 46.2919 55.766H42.011C41.7698 54.0777 41.2271 52.5703 40.3227 51.1835H44.3625ZM35.8609 51.1835H39.358C40.2624 52.5703 40.9256 54.0777 41.1668 55.766H35.8609V51.1835ZM35.8609 56.6101H41.2271C41.2271 56.8513 41.2874 57.0322 41.2874 57.2733C41.2874 58.6601 40.9859 59.9866 40.5036 61.2528H35.8609V56.6101ZM35.8609 62.0969H40.0815C39.1168 63.9661 37.6697 65.594 35.8609 66.7397V62.0969ZM35.8609 67.6441C38.1521 66.3176 39.9609 64.3881 41.0462 62.0969H44.6036C42.7948 64.5087 39.6595 66.4985 35.8609 67.6441ZM41.408 61.2528C41.8904 59.9866 42.1315 58.6601 42.1315 57.2733C42.1315 57.0322 42.1316 56.8513 42.0713 56.6101H46.4125C46.4125 56.8513 46.4125 57.0322 46.4125 57.2733C46.4125 58.6601 45.9904 59.9866 45.2066 61.2528H41.408Z"/>
    <path d="M29.6505 38.038C29.8313 38.038 30.0122 37.8571 30.0122 37.6762C30.0122 37.4953 29.8313 37.3145 29.6505 37.3145C29.4696 37.3145 29.2887 37.4953 29.2887 37.6762C29.2887 37.8571 29.4696 38.038 29.6505 38.038Z"/>
  </g>
  <defs>
    <clipPath id="clip0">
      <rect width="188" height="55.2906" fill="white" transform="translate(3 20.8555)"/>
    </clipPath>
  </defs>
</svg>
