<svg width="194" height="97" viewBox="0 0 194 97" xmlns="http://www.w3.org/2000/svg">
  <path d="M48.497 11L40 70.5676H48.9865L51.3442 53.7013L51.3888 53.2551L51.6557 51.2026L51.7001 54.0136L51.7447 54.906L52.501 70.5676H61.4429L58.996 48.7485L66.9149 29.785H58.3734L53.0349 44.2865L52.8124 44.8219L52.234 46.7852L52.5454 44.6434L52.6344 44.1526L57.2166 11H48.497ZM98.7234 29.6958L86.3559 70.4784H94.9419L96.8993 62.536H100.503L99.6131 70.4784H108.11L110.423 29.6958H98.7234ZM69.5842 29.785L63.4448 70.5676H71.2746L74.1218 51.8719L74.4777 49.2393L74.4332 51.2918L74.4777 51.7826L75.323 70.5676H83.8646L90.0038 29.785H82.7079L80.0387 46.6513L79.6382 49.2393L79.6828 47.1868L79.6382 46.696L79.0599 29.785H69.5842ZM125.638 29.785L116.696 29.8296C114.737 42.0787 113.79 49.8818 111.892 60.1712C111.844 60.4621 111.778 60.7691 111.714 61.1528C111.586 61.9435 111.546 62.006 111.402 63.1607C111.276 64.187 111.231 64.9544 111.402 65.9718C111.566 66.9498 111.694 67.5085 112.203 68.3366C112.643 69.0381 113.006 69.4057 113.671 69.8983C114.36 70.4088 114.853 70.6016 115.673 70.9246C116.506 71.253 117.951 71.4243 119.232 71.5046C120.93 71.6135 122.649 71.5457 124.17 71.3262C125.852 71.0852 127.199 70.6426 128.218 69.9429C129.306 69.2005 130.258 68.3366 130.799 67.1765C131.194 66.3341 131.516 65.3364 131.733 64.0085C132.19 61.2028 131.737 64.021 132.178 61.1974L137.116 29.8296H128.308L123.191 62.0006C123.191 62.0006 123.143 62.6074 123.058 62.9822C122.964 63.4124 122.976 63.7176 122.747 64.0977C122.608 64.319 122.52 64.4422 122.302 64.5886C122.054 64.751 121.885 64.8117 121.59 64.8117C121.257 64.8152 121.031 64.6778 120.789 64.4547C120.529 64.2137 120.455 63.9996 120.389 63.6515C120.325 63.3356 120.389 62.8484 120.389 62.8484L120.567 61.9114L125.638 29.785ZM140.675 29.785L132.178 85.5153H141.253L146.725 51.158H151.797L152.82 44.3757H147.615L148.772 36.2549H154.11L155 29.785H140.675ZM103.795 34.3808L103.35 37.5042L103.217 38.3074L101.304 55.7092H98.59L102.905 38.1735L103.083 37.415L103.795 34.3808Z"/>
</svg>
