<svg width="194" height="97" viewBox="0 0 194 97" xmlns="http://www.w3.org/2000/svg">
  <g clip-path="url(#clip0)">
    <path fill-rule="evenodd" clip-rule="evenodd" d="M95.8601 34.5391C96.5089 34.5391 97.1196 34.7681 97.6539 35.0734C98.7225 35.684 99.6385 36.4855 100.631 37.2107C103.417 39.3861 106.012 41.7142 108.531 44.1187C109.294 44.9583 110.21 45.8743 110.21 47.0956C110.21 47.9734 109.371 48.7368 108.417 48.6986C107.462 48.6604 106.661 48.1643 105.86 47.7445C101.28 45.2637 97.6539 44.6149 92.7686 43.8515C92.3488 43.7752 92.1198 43.508 92.158 43.279C92.2343 42.7447 92.8831 42.7829 93.2648 42.7447C95.4021 42.7447 97.6539 42.7447 99.7912 42.7447C100.707 42.7447 100.936 42.0196 100.707 41.5234C100.364 40.8364 99.753 40.3021 99.2187 39.7296C98.3409 38.89 97.3867 37.8595 96.2799 37.4397C95.1731 37.0198 93.9518 38.0503 92.9595 38.7373C89.1047 41.5234 85.3645 44.424 81.6624 47.401C81.128 47.7826 80.6319 48.2788 80.0212 48.6223C79.3724 48.9658 78.7236 48.3933 79.1816 47.8208C79.6396 47.2483 80.2502 46.8285 80.7846 46.2942C84.4485 42.7066 88.3032 39.2716 92.4633 36.1802C93.3793 35.4932 94.6769 34.5772 95.8601 34.5391Z"/>
    <path fill-rule="evenodd" clip-rule="evenodd" d="M84.7922 34.5391C86.0135 34.5391 86.7005 35.5695 84.7922 35.9512C82.5023 36.4092 80.2505 36.371 77.9605 37.0962C76.5484 37.4778 75.0981 38.203 74.5256 39.5388C73.3806 42.1722 73.8386 44.7675 73.4951 47.3628C73.2661 49.1566 71.4723 49.1566 71.2815 47.3628C70.9762 44.7675 71.4342 42.1722 70.251 39.5388C69.6785 38.2412 68.2282 37.4778 66.8161 37.0962C64.5261 36.4092 62.2744 36.4092 59.9844 35.9512C58.1143 35.5695 58.7631 34.5391 59.9844 34.5391C68.3046 34.5391 76.5484 34.5391 84.7922 34.5391Z"/>
    <path fill-rule="evenodd" clip-rule="evenodd" d="M2.96456 35.6065C2.96456 34.3089 4.37669 34.0799 4.68202 35.2631C5.25451 37.2477 5.44534 39.2705 5.827 41.2933C5.9415 41.8276 6.24682 42.4382 6.85748 42.6291C7.69712 42.8199 8.49861 42.4001 9.30009 42.0947C14.4525 40.2246 19.643 38.3927 24.8336 36.5225C26.4747 35.9119 28.1159 35.3012 29.7952 34.7669C30.1387 34.6524 30.9401 34.3852 31.2073 34.7669C31.36 34.9577 31.2455 35.3012 31.0165 35.492C30.444 36.0264 29.6425 36.2554 28.9555 36.637C27.0472 37.5912 25.1771 38.5835 23.2688 39.5376C21.0552 40.6826 21.2842 41.4078 23.2306 42.7054C25.1008 43.8885 27.0854 44.9954 28.9555 46.2167C29.7188 46.7128 30.5585 47.209 31.131 47.9341C31.5126 48.3158 31.2836 48.7738 30.5966 48.6974C29.9097 48.6211 29.299 48.3921 28.6502 48.1631C25.6351 47.0181 22.6963 45.6823 19.6812 44.461C18.6507 44.0412 17.5821 43.4305 16.4371 43.4687C15.2158 43.5069 13.422 44.461 12.3534 45.0335C10.2542 46.064 8.19328 47.1708 6.09416 48.2394C5.36901 48.5829 4.37669 49.0791 3.65154 48.6974C2.92639 48.3158 2.96456 47.2471 2.92639 46.4838C2.96456 42.9726 2.96456 39.0415 2.96456 35.6065Z"/>
    <path fill-rule="evenodd" clip-rule="evenodd" d="M34.6039 34.6147C35.4818 34.5384 35.9397 37.4772 35.7489 38.126C35.2528 38.5458 34.4894 39.1946 33.8025 38.7748C33.8406 37.9733 33.4971 34.6529 34.6039 34.6147Z"/>
    <path fill-rule="evenodd" clip-rule="evenodd" d="M114.561 35.1493C115.287 36.8668 115.401 38.6987 116.317 40.378C117.576 42.3627 122.843 42.1718 125.286 42.1718C127.767 42.1718 133.034 42.3627 134.255 40.378C135.171 38.7369 135.285 36.8668 136.011 35.1493C136.316 34.2333 137.652 34.3478 137.652 35.3401C137.652 39.1186 137.652 43.6985 137.652 47.4769C137.728 49.1562 136.583 49.118 135.553 47.8967C134.942 47.1716 134.484 46.3319 133.682 45.7976C131.698 44.3473 127.767 44.4618 125.286 44.4236C122.805 44.4236 118.874 44.3473 116.89 45.7976C116.088 46.3319 115.63 47.1716 115.019 47.8967C114.027 49.0799 112.844 49.1562 112.92 47.4769C112.92 43.6985 112.92 39.1186 112.92 35.3401C112.92 34.3097 114.256 34.1952 114.561 35.1493Z"/>
    <path fill-rule="evenodd" clip-rule="evenodd" d="M153.796 38.5455C155.056 38.5455 156.315 38.2402 157.498 37.7822C160.055 36.7517 162.956 35.6449 165.627 34.8053C166.085 34.6526 167.345 34.3854 167.65 34.8434C167.994 35.3396 167.307 35.6449 166.963 35.8739C166.391 36.2556 165.78 36.5609 165.208 36.9044C163.185 38.1639 161.086 39.3852 159.177 40.7973C157.918 41.7133 156.888 42.8964 156.315 44.2704C155.819 45.339 155.704 46.484 155.323 47.5908C155.017 48.3923 154.636 48.7358 153.834 48.7358C153.033 48.7358 152.651 48.4305 152.346 47.5908C151.964 46.484 151.85 45.339 151.353 44.2704C150.781 42.8964 149.75 41.7133 148.491 40.7973C146.583 39.3852 144.484 38.1639 142.461 36.9044C141.888 36.5227 141.278 36.2174 140.705 35.8739C140.362 35.6449 139.713 35.3014 140.018 34.8434C140.324 34.3854 141.583 34.6526 142.041 34.8053C144.713 35.6068 147.613 36.7517 150.17 37.7822C151.239 38.2402 152.537 38.5455 153.796 38.5455Z"/>
    <path fill-rule="evenodd" clip-rule="evenodd" d="M36.3214 40.1103C36.8557 41.2171 36.9321 42.2858 37.6572 43.3926C38.2679 44.3849 39.4128 45.0337 40.596 45.339C41.741 45.7207 44.2217 45.6444 45.4812 45.6444C46.7407 45.6444 49.2215 45.7207 50.3664 45.339C51.5496 45.0337 52.6946 44.3849 53.3052 43.3926C54.0304 42.2858 54.1067 41.2171 54.641 40.1103C55.0608 39.1943 57.2363 40.0721 57.16 41.3698C57.16 42.7437 57.16 44.0796 57.16 45.4535C57.1218 47.4763 56.0532 48.6595 53.9922 48.774C51.1679 48.8885 48.3055 48.545 45.4812 48.545C42.6569 48.545 39.7945 48.8885 36.9702 48.774C34.9093 48.6976 33.8406 47.4763 33.8025 45.4535C33.8025 44.0796 33.8025 42.7437 33.8025 41.3698C33.7261 40.0721 35.9398 39.1943 36.3214 40.1103Z"/>
    <path fill-rule="evenodd" clip-rule="evenodd" d="M183.527 55.9112C183.527 56.9035 183.527 58.0485 183.527 59.0026C184.596 59.1553 185.703 59.1935 186.771 58.9263C188.412 58.5447 189.595 57.1707 190.588 55.873C190.969 55.873 191.313 55.9112 191.695 55.9494C190.779 57.4378 189.519 58.6973 188.031 59.6133C189.519 60.5293 190.779 61.7888 191.695 63.2772C191.313 63.3154 190.969 63.3154 190.588 63.3536C189.595 62.0178 188.412 60.6819 186.771 60.3003C185.703 60.0713 184.596 60.0713 183.527 60.224C183.565 61.2163 183.527 62.3231 183.527 63.3154H182.573V55.9112H183.527Z"/>
    <path fill-rule="evenodd" clip-rule="evenodd" d="M100.822 55.9121H94.6009C92.9598 55.9121 91.5858 57.2479 91.5858 58.9272V60.3012C91.5858 61.9423 92.9216 63.3163 94.6009 63.3163H100.822V62.2476H94.7536C93.6468 62.2476 92.7308 61.3317 92.7308 60.2249H100.86V59.0799H92.7308C92.7308 57.9731 93.6468 57.0571 94.7536 57.0571H100.822V55.9121Z"/>
    <path fill-rule="evenodd" clip-rule="evenodd" d="M111.508 55.9121H119.256C120.515 55.9121 121.508 56.9426 121.508 58.1639C121.508 59.3089 120.63 60.263 119.523 60.4157L121.622 63.2781H120.363L118.264 60.4538H112.539V63.2781H111.47V60.4538V55.9121H111.508ZM112.539 56.9808V59.3852H119.256C119.905 59.3852 120.477 58.8509 120.477 58.1639C120.477 57.5151 119.943 56.9426 119.256 56.9426H112.539V56.9808Z"/>
    <path fill-rule="evenodd" clip-rule="evenodd" d="M131.85 63.3163H132.843V59.9959H140.285V63.3163H141.277V58.8509C141.277 57.2479 139.942 55.9121 138.339 55.9121H134.751C133.148 55.9121 131.812 57.2479 131.812 58.8509V63.3163H131.85ZM132.843 58.9654C132.843 57.8586 133.759 56.9808 134.827 56.9808H138.262C139.369 56.9808 140.247 57.8967 140.247 58.9654H132.843Z"/>
    <path fill-rule="evenodd" clip-rule="evenodd" d="M151.888 63.3168H152.918V57.4775L156.811 63.1642L160.704 57.4775V63.3168H161.735V56.7523C161.735 55.7982 160.704 55.6837 160.132 56.5233L156.85 61.3704L153.567 56.5233C152.995 55.6837 151.964 55.7982 151.964 56.7523V63.3168H151.888Z"/>
    <path fill-rule="evenodd" clip-rule="evenodd" d="M172.726 63.3163H171.734V59.0417H172.726V63.3163ZM172.726 55.9121H171.734V58.0112H172.726V55.9121Z"/>
    <path fill-rule="evenodd" clip-rule="evenodd" d="M81.2428 55.9121H73.5715C72.4647 55.9121 71.5487 56.8663 71.5487 58.0494C71.5487 59.1944 72.4265 60.1867 73.5715 60.1867H79.1819C79.7544 60.1867 80.1742 60.6447 80.1742 61.2172C80.1742 61.7515 79.7544 62.2476 79.22 62.2476H71.5487V63.3545H79.22C80.3269 63.3545 81.2428 62.4003 81.2428 61.2172C81.2428 60.0722 80.365 59.0799 79.22 59.0799H73.6097C73.0372 59.0799 72.6174 58.6219 72.6174 58.0494C72.6174 57.5151 73.0372 57.0189 73.5715 57.0189H81.2428V55.9121Z"/>
    <path fill-rule="evenodd" clip-rule="evenodd" d="M56.3586 34.6147C55.4808 34.5384 55.0228 37.4772 55.2136 38.126C55.7098 38.5458 56.4731 39.1946 57.1601 38.7748C57.1601 37.9733 57.5036 34.6529 56.3586 34.6147Z"/>
    <path fill-rule="evenodd" clip-rule="evenodd" d="M177.612 34.5391C178.26 34.5391 178.871 34.7681 179.405 35.0734C180.474 35.684 181.39 36.4855 182.382 37.2107C185.168 39.3861 187.764 41.7142 190.283 44.1187C191.046 44.9583 191.962 45.8743 191.962 47.0956C191.962 47.9734 191.122 48.7368 190.168 48.6986C189.214 48.6604 188.412 48.1643 187.611 47.7445C183.031 45.2637 179.405 44.6149 174.52 43.8515C174.1 43.7752 173.871 43.508 173.909 43.279C173.986 42.7447 174.635 42.7829 175.016 42.7447C177.154 42.7447 179.405 42.7447 181.543 42.7447C182.459 42.7447 182.688 42.0196 182.459 41.5234C182.115 40.8364 181.504 40.3021 180.97 39.7296C180.092 38.89 179.138 37.8595 178.031 37.4397C176.925 37.0198 175.703 38.0503 174.711 38.7373C170.894 41.5234 167.154 44.424 163.452 47.401C162.918 47.7826 162.422 48.2788 161.811 48.6223C161.162 48.9658 160.513 48.3933 160.971 47.8208C161.429 47.2483 162.04 46.8285 162.574 46.2942C166.238 42.7066 170.093 39.2716 174.253 36.1802C175.169 35.4932 176.467 34.5772 177.612 34.5391Z"/>
  </g>
  <defs>
    <clipPath id="clip0">
      <rect width="190" height="29.8985" fill="white" transform="translate(2 33.5508)"/>
    </clipPath>
  </defs>
</svg>
