<svg width="194" height="97" viewBox="0 0 194 97" xmlns="http://www.w3.org/2000/svg">
  <g clip-path="url(#clip0)">
    <path d="M32.3281 43.6229L25.8765 39.8829V43.9658H25.9077L28.8686 45.68L21.6066 49.8252V57.1806L25.1285 55.1548V55.1236V51.8199L32.3593 55.9963L38.7485 52.3809L35.2266 50.355H35.1955L32.3593 52.0069L32.3281 43.6229ZM40.0575 55.747L42.9249 54.0951V45.8981L40.0264 44.2151V39.2595L32.3904 34.7715H32.3281L28.2452 37.0467L25.3778 35.3948L18.3341 39.4777V42.7814L13.9395 45.306V54.2821L18.0224 56.6196V59.9233L25.1285 64.0374L28.027 62.3544L32.3281 64.8789H32.3593L40.0575 60.422V55.747ZM42.1146 46.1163L42.3327 46.241L40.0887 47.5188V44.9631L42.1146 46.1163ZM18.8951 40.1011V39.8517L21.1391 41.1607L18.8951 42.4386V40.1011ZM25.3467 63.1959L25.1597 63.3206V60.7337L27.3725 62.0427L25.3467 63.1959ZM39.4965 47.8928L35.85 49.9499L39.403 52.0381V60.048L32.3593 64.1309V64.1621L25.1597 60.0168V55.8405L21.5755 57.9286L14.6252 53.9081V45.7423L21.7625 41.5659L25.3467 43.6853V39.5089L32.4216 35.5195L39.4965 39.6647V47.8928Z"/>
    <path d="M53.0855 52.537L40.7745 26.0449H10.7918C10.1373 26.0449 9.60743 26.5748 9.60743 27.2293C9.60743 27.4786 9.66976 27.6968 9.79443 27.8526L12.5683 32.029C12.7865 32.2783 12.9111 32.6212 12.9111 32.964C12.9111 33.1822 12.8488 33.3692 12.7865 33.5562L4.18435 52.537C3.43634 54.22 3 56.0588 3 58.0224C3 65.1596 8.79708 70.9567 15.9344 70.9567L41.3044 70.9879C48.4416 70.9879 54.2387 65.1908 54.2387 58.0224C54.2387 56.0588 53.8647 54.22 53.0855 52.537ZM41.3044 65.6271L15.9344 65.596C11.758 65.596 8.32958 62.1988 8.32958 57.9912C8.32958 56.8692 8.57891 55.7783 9.01525 54.781V54.7498L17.5862 35.7379L17.6485 35.7067C18.0225 34.834 18.2095 33.899 18.2095 32.964C18.2095 32.4342 18.1472 31.9043 18.0225 31.4057H37.315C40.5564 38.3871 48.1923 54.8122 48.1923 54.8122C48.6286 55.7472 48.8468 56.8069 48.8468 58.0224C48.9092 62.1988 45.4808 65.6271 41.3044 65.6271Z"/>
    <path d="M170.679 65.8129H152.072L161.08 31.4355H179.717L177.411 40.1623H168.092L166.783 45.1802H176.071L174.014 53.0344H164.726L163.448 57.8341H172.767L170.679 65.8129Z"/>
    <path d="M172.674 65.8129H181.962L191 31.4355H181.712L172.674 65.8129Z"/>
    <path d="M125.58 31.4355H117.29L97.8104 65.8129H107.815L109.685 62.478H117.477L117.539 65.8129H126.204L125.58 31.4355ZM113.269 56.1822L117.228 49.2008L117.352 56.1822H113.269Z"/>
    <path d="M81.6658 31.4374H71.256L62.2175 65.8147H71.5053L75.7129 49.826L76.2116 65.8147H82.1333L90.9536 49.826L86.746 65.8147H96.0338L105.072 31.4374L94.382 31.4062L83.38 48.6105L81.6658 31.4374Z"/>
    <path d="M156.186 40.9434C156.155 39.4474 155.937 38.0137 155.501 36.6423C154.535 33.6191 151.73 31.4062 148.395 31.4062H136.271L127.263 65.7836H136.582L138.234 59.3943H143.501C147.117 59.3943 150.015 57.5866 151.885 54.9686C152.291 54.3764 152.665 53.7842 153.039 53.1609C155.033 49.7637 156.155 45.7431 156.186 41.4421C156.186 41.3174 156.186 41.1304 156.186 40.9434ZM143.907 51.509C143.688 51.883 143.408 52.1947 143.065 52.444C142.598 52.7869 142.037 53.0051 141.257 53.0051H139.886L144.187 36.6735H145.434C146.712 36.6735 147.709 37.702 147.709 38.9487C147.74 38.9487 147.802 45.7431 143.907 51.509Z"/>
  </g>
  <defs>
    <clipPath id="clip0">
      <rect width="188" height="44.9118" fill="white" transform="translate(3 26.0449)"/>
    </clipPath>
  </defs>
</svg>
