<svg width="194" height="97" viewBox="0 0 194 97" xmlns="http://www.w3.org/2000/svg">
  <g clip-path="url(#clip0)">
    <path d="M94.4418 3.45479C95.2418 2.12479 95.9334 0.728125 96.8184 -0.546875C101.09 6.86312 105.358 14.2765 109.638 21.6815C105.407 29.1048 101.08 36.4748 96.8634 43.9048C105.397 43.9281 113.93 43.9048 122.465 43.9181C125.962 49.9998 129.473 56.0731 132.975 62.1515C133.718 63.5115 134.605 64.7965 135.24 66.2131C126.707 66.2415 118.173 66.2048 109.64 66.2298C106.307 60.5931 103.09 54.8865 99.8001 49.2231C98.8051 47.4931 97.7951 45.7698 96.8134 44.0298C95.1984 46.6498 93.7184 49.3531 92.1651 52.0115C89.5184 56.5831 86.8834 61.1615 84.2518 65.7415C84.0934 66.0031 83.8668 66.2998 83.5184 66.2248C75.1167 66.2181 66.7134 66.2281 58.3101 66.2181C59.2484 64.3331 60.4017 62.5615 61.4151 60.7165C64.6501 55.1215 67.8851 49.5265 71.1034 43.9231C79.6317 43.8965 88.1601 43.9348 96.6884 43.9031C95.2068 41.1715 93.5968 38.5115 92.0634 35.8081C89.4401 31.2631 86.8184 26.7148 84.1951 22.1698C83.9734 21.8681 83.9918 21.4865 84.2118 21.1931C87.6284 15.2831 91.0318 9.36646 94.4418 3.45479Z"/>
    <path d="M73.0633 71.166C74.3933 70.7693 75.7933 70.8843 77.16 70.911C78.8883 71.1027 80.6116 71.7377 81.91 72.9193C83.2266 74.1493 84.0433 75.941 83.9533 77.756C82.5583 77.7543 81.165 77.7493 79.7717 77.7577C79.7567 76.6827 79.2583 75.5943 78.3017 75.051C76.9417 74.3177 75.275 74.3093 73.8333 74.7977C73.0267 75.0693 72.29 75.6893 72.09 76.5427C72.0333 77.136 71.9817 77.801 72.3417 78.316C72.7167 78.876 73.3267 79.2177 73.9533 79.4294C76.0517 80.1577 78.3333 80.1727 80.4133 80.9677C81.8933 81.5293 83.3133 82.491 84.0216 83.951C84.545 84.896 84.6633 85.9894 84.6166 87.051C84.6483 88.7227 83.8816 90.366 82.6666 91.4994C81.2583 92.7744 79.3633 93.3427 77.5083 93.5494C74.9367 93.7144 72.1517 93.5394 69.97 92.0177C68.1517 90.7827 67.21 88.5577 67.2267 86.401C68.6183 86.386 70.01 86.4044 71.4017 86.3894C71.5183 87.2894 71.7767 88.2244 72.485 88.8477C73.315 89.6644 74.5217 90.001 75.665 89.9594C77 90.0177 78.4933 89.8044 79.4466 88.7744C80.2016 88.0644 80.295 86.811 79.7166 85.966C79.3166 85.376 78.6633 85.0243 78.015 84.776C75.8517 83.9543 73.435 84.0127 71.35 82.9527C70.1967 82.4227 69.1717 81.5893 68.47 80.5277C67.3383 78.6577 67.33 76.1643 68.475 74.2977C69.47 72.656 71.2567 71.6627 73.0633 71.166Z"/>
    <path d="M134.02 71.0789C135.142 70.7906 136.31 70.8956 137.457 70.8956C139.453 71.0273 141.493 71.7839 142.86 73.2923C143.997 74.4706 144.605 76.1173 144.595 77.7473C143.198 77.7673 141.803 77.7423 140.408 77.7589C140.288 76.9523 140.128 76.0806 139.498 75.5006C138.425 74.5039 136.81 74.3139 135.418 74.5606C134.503 74.6806 133.565 75.0589 133.013 75.8323C132.463 76.6273 132.458 77.8106 133.13 78.5389C133.69 79.1873 134.547 79.4439 135.343 79.6706C137.657 80.2789 140.17 80.3173 142.28 81.5589C143.622 82.3273 144.735 83.6039 145.07 85.1406C145.533 87.1339 145.145 89.3773 143.783 90.9473C142.367 92.6406 140.133 93.3423 138.007 93.5589C135.488 93.6989 132.768 93.5306 130.628 92.0489C128.793 90.8123 127.778 88.5873 127.865 86.3973C129.26 86.3889 130.657 86.3956 132.053 86.3939C131.993 88.2273 133.602 89.7239 135.353 89.9139C136.737 90.0106 138.237 90.0539 139.455 89.2806C140.323 88.7689 140.94 87.6939 140.627 86.6839C140.458 85.8623 139.757 85.2823 139.037 84.9389C136.797 83.9639 134.238 84.0756 132.037 82.9923C130.615 82.3456 129.312 81.2739 128.708 79.8006C127.908 77.9256 128.098 75.6356 129.293 73.9689C130.408 72.4273 132.193 71.4906 134.02 71.0789Z"/>
    <path d="M23.7733 71.4629C25.8567 71.4629 27.94 71.4629 30.0233 71.4646C31.54 76.4562 33.01 81.4646 34.5017 86.4646C35.47 83.5262 36.2783 80.5346 37.1917 77.5779C37.7733 75.5662 38.405 73.5679 38.97 71.5496C41.065 71.5379 43.1617 71.5462 45.2583 71.5446C45.245 78.7196 45.26 85.8929 45.25 93.0662C43.91 93.0579 42.57 93.0596 41.2283 93.0662C41.0917 92.3862 41.13 91.6879 41.125 90.9996C41.145 86.4946 41.0817 81.9829 41.1833 77.4829C40.8383 78.0946 40.6967 78.7846 40.5117 79.4546C39.5117 82.9846 38.4933 86.5096 37.4933 90.0412C37.185 91.0479 36.9483 92.0779 36.59 93.0679C35.2083 93.0546 33.8267 93.0679 32.4433 93.0612C31.5083 90.0446 30.7067 86.9879 29.8117 83.9596C29.2033 81.7529 28.5233 79.5662 27.9633 77.3479C27.925 77.6146 27.9017 77.8829 27.89 78.1529C27.9017 83.1212 27.8967 88.0896 27.8933 93.0579C26.5183 93.0696 25.145 93.0596 23.77 93.0612C23.765 85.8612 23.76 78.6612 23.7733 71.4629Z"/>
    <path d="M52.4083 71.5499C57.41 71.5449 62.4117 71.5349 67.4133 71.5549C67.4 72.7849 67.405 74.0166 67.4083 75.2466C65.64 75.2599 63.8733 75.2433 62.105 75.2566C62.105 81.1916 62.115 87.1266 62.1 93.0616C60.64 93.0632 59.18 93.0616 57.7217 93.0616C57.7183 87.1249 57.7217 81.1899 57.7183 75.2533C55.9517 75.2483 54.185 75.2516 52.4167 75.2533C52.41 74.0183 52.4217 72.7849 52.4083 71.5499Z"/>
    <path d="M85.7267 71.5489C87.1717 71.5489 88.6167 71.5305 90.0617 71.5605C90.045 76.5405 90.06 81.5205 90.0534 86.5005C89.9184 87.8922 90.7984 89.2772 92.1217 89.7305C93.6284 90.2705 95.3817 90.2388 96.8 89.4555C97.785 88.9055 98.5167 87.8289 98.4467 86.6722C98.45 81.6355 98.4617 76.5988 98.4417 71.5622C99.89 71.5255 101.338 71.5538 102.788 71.5472C102.79 76.2538 102.787 80.9605 102.79 85.6672C102.78 86.7005 102.857 87.7605 102.525 88.7572C102.107 90.3122 101.063 91.6922 99.6417 92.4622C97.4267 93.7155 94.7933 93.7205 92.3267 93.5588C90.47 93.3155 88.5217 92.6972 87.2684 91.2272C86.1417 89.8722 85.7117 88.0705 85.7334 86.3372C85.72 81.4089 85.735 76.4789 85.7267 71.5489Z"/>
    <path d="M122.443 71.5591C123.918 71.5341 125.395 71.5358 126.872 71.5591C126.857 78.6441 126.887 85.7291 126.855 92.8141C126.817 92.8758 126.742 93.0025 126.705 93.0641C125.287 93.0808 123.867 93.0241 122.452 93.0891C122.448 85.9125 122.462 78.7358 122.443 71.5591Z"/>
    <path d="M146.387 71.5471C147.832 71.5471 149.277 71.5287 150.722 71.5604C150.717 74.3371 150.71 77.1171 150.727 79.8937C153.53 79.8837 156.335 79.9054 159.14 79.8837L159.238 79.7871C159.272 77.0437 159.252 74.2971 159.245 71.5537C160.69 71.5354 162.137 71.5387 163.582 71.5521C163.567 78.7221 163.583 85.8921 163.573 93.0621C162.132 93.0571 160.693 93.0654 159.253 93.0587C159.253 89.9421 159.253 86.8271 159.253 83.7104C158.62 83.5821 157.972 83.6287 157.332 83.6237C155.132 83.6271 152.932 83.6204 150.733 83.6271C150.7 86.5887 150.722 89.5521 150.722 92.5154C150.762 92.7387 150.695 92.9171 150.52 93.0537C149.145 93.0721 147.77 93.0587 146.397 93.0587C146.38 85.8887 146.392 78.7171 146.387 71.5471Z"/>
    <path d="M165.282 71.5576C166.728 71.5326 168.175 71.5476 169.622 71.5459C169.617 78.7176 169.63 85.8876 169.615 93.0592C168.347 93.0659 167.077 93.0559 165.808 93.0676C165.545 93.1409 165.245 92.9726 165.285 92.6776C165.283 85.6376 165.288 78.5976 165.282 71.5576Z"/>
    <path d="M46.9317 92.954C46.905 85.819 46.93 78.684 46.9183 71.549C48.3733 71.5407 49.8283 71.5424 51.285 71.5457C51.275 78.7174 51.295 85.889 51.2733 93.0607C49.86 93.0524 48.445 93.0824 47.0317 93.049L46.9317 92.954Z"/>
    <path d="M104.287 71.564C107.69 71.519 111.095 71.5557 114.498 71.5457C116.222 71.499 118.022 72.0057 119.32 73.1774C121.245 75.0474 121.228 78.469 119.368 80.379C118.87 80.9474 118.19 81.2924 117.53 81.6357C119.955 82.394 121.66 84.9757 121.452 87.504C121.498 89.0557 120.755 90.5807 119.585 91.584C118.363 92.614 116.743 93.0223 115.173 93.0607C111.578 93.064 107.985 93.0573 104.39 93.064C104.33 92.714 104.287 92.3607 104.292 92.0073C104.29 85.1923 104.298 78.379 104.287 71.564ZM108.717 74.934C108.695 76.6674 108.71 78.4007 108.708 80.134C110.523 80.1307 112.34 80.1557 114.157 80.124C115.758 80.074 116.948 78.2124 116.393 76.7324C116.035 75.6857 114.968 74.8857 113.85 74.9357C112.138 74.939 110.427 74.9457 108.717 74.934ZM108.708 83.5573C108.703 85.624 108.708 87.6907 108.708 89.7573C110.42 89.7507 112.13 89.759 113.842 89.754C115.218 89.764 116.537 88.7857 116.9 87.454C116.978 86.884 116.977 86.3007 116.887 85.734C116.552 84.464 115.283 83.594 113.998 83.569C112.235 83.5457 110.472 83.5673 108.708 83.5573Z"/>
  </g>
  <defs>
    <clipPath id="clip0">
      <rect width="194" height="97" fill="white"/>
    </clipPath>
  </defs>
</svg>
