<svg width="194" height="97" viewBox="0 0 194 97" xmlns="http://www.w3.org/2000/svg">
  <g clip-path="url(#clip0)">
    <path fill-rule="evenodd" clip-rule="evenodd" d="M29.95 62.2H38.15V34.5H29.95V62.2Z"/>
    <path fill-rule="evenodd" clip-rule="evenodd" d="M44.7499 62.2H66.0499V56.7H52.9499V51H64.4499V45.7H52.9499V40H66.0499V34.5H44.7499V62.2Z"/>
    <path fill-rule="evenodd" clip-rule="evenodd" d="M88.6499 50.9L81.3499 34.5H70.6499V62.2H77.2499V45.7L84.5499 62.2H89.9499L97.7499 45.3V62.2H106.05V34.5H96.2499L88.6499 50.9Z"/>
    <path fill-rule="evenodd" clip-rule="evenodd" d="M158.35 51.5L148.05 34.5H138.95V62.2H144.75V45.1L155.25 62.2H164.15V34.5H158.35V51.5Z"/>
    <path fill-rule="evenodd" clip-rule="evenodd" d="M112.45 62.2H133.85V56.7H120.75V51H132.15V45.7H120.75V40H133.85V34.5H112.45V62.2Z"/>
    <path fill-rule="evenodd" clip-rule="evenodd" d="M21.0499 47.2002C18.7499 46.1002 15.0499 44.3002 12.5499 43.2002C10.2499 42.1002 10.1499 36.5002 23.7499 40.7002V35.4002C20.9499 34.4002 13.1499 32.6002 7.34993 35.8002C1.54993 39.0002 2.94993 47.0002 7.34993 49.7002C9.24993 50.8002 11.9499 51.7002 15.3499 53.2002C18.1499 54.4002 19.8499 60.6002 3.74993 56.4002V61.8002C7.04993 63.0002 19.1499 64.3002 22.7499 60.3002C27.1499 55.4002 25.1499 48.9002 21.0499 47.2002Z"/>
    <path fill-rule="evenodd" clip-rule="evenodd" d="M186.35 47.2002C184.05 46.1002 180.35 44.3002 177.85 43.2002C175.45 42.1002 175.45 36.6002 189.05 40.7002V35.4002C186.25 34.4002 178.45 32.6002 172.65 35.8002C166.85 39.0002 168.25 47.0002 172.65 49.7002C174.55 50.8002 177.25 51.7002 180.65 53.2002C183.45 54.4002 185.15 60.6002 169.05 56.4002V61.8002C172.35 63.0002 184.45 64.3002 188.05 60.3002C192.45 55.4002 190.45 48.9002 186.35 47.2002Z"/>
  </g>
  <defs>
    <clipPath id="clip0">
      <rect width="187.1" height="29" fill="white" transform="translate(3.44995 34)"/>
    </clipPath>
  </defs>
</svg>
