<svg width="1046" height="141" viewBox="0 0 1046 141" fill="none" xmlns="http://www.w3.org/2000/svg">
  <mask id="path-1-outside-1" maskUnits="userSpaceOnUse" x="0.307617" y="-0.419922" width="1045" height="141" fill="black">
  <rect fill="white" x="0.307617" y="-0.419922" width="1045" height="141"/>
  <path d="M41.9756 68.6961C44.4823 69.1974 47.1143 69.5734 49.8716 69.8241C52.629 70.0747 55.073 70.2001 57.2036 70.2001C66.4783 70.2001 73.685 67.5054 78.8236 62.1161C84.0876 56.6014 86.7196 48.3294 86.7196 37.3001C86.7196 30.9081 86.093 25.5814 84.8396 21.3201C83.5863 17.0587 81.581 13.6747 78.8236 11.1681C76.1916 8.53607 72.6823 6.71874 68.2956 5.71608C64.0343 4.71341 58.8956 4.21208 52.8796 4.21208C50.4983 4.21208 48.305 4.27474 46.2996 4.40008C44.4196 4.52541 42.9783 4.65074 41.9756 4.77608V68.6961ZM2.30762 133.368H23.1756V4.77608H2.30762V2.14408H37.6516C39.4063 2.14408 41.161 2.14408 42.9156 2.14408C44.6703 2.01874 46.425 1.89341 48.1796 1.76808C49.9343 1.76808 51.6263 1.76808 53.2556 1.76808C55.0103 1.64274 56.765 1.58008 58.5196 1.58008C65.6636 1.58008 72.2436 2.45741 78.2596 4.21208C84.401 5.84141 89.665 8.22274 94.0516 11.3561C98.5636 14.4894 102.073 18.2494 104.58 22.6361C107.086 27.0227 108.34 31.9107 108.34 37.3001C108.34 42.9401 106.898 47.9534 104.016 52.3401C101.133 56.7267 97.3103 60.4241 92.5476 63.4321C87.785 66.4401 82.2076 68.7587 75.8156 70.3881C69.549 72.0174 62.969 72.8321 56.0756 72.8321C54.321 72.8321 52.065 72.7067 49.3076 72.4561C46.5503 72.0801 44.1063 71.7041 41.9756 71.3281V133.368H62.8436V136H2.30762V133.368ZM131.17 133.368H145.646V57.9801H131.17V55.3481H161.438V74.3361H161.814C162.315 72.4561 163.13 70.3254 164.258 67.9441C165.386 65.5628 166.953 63.3067 168.958 61.1761C170.963 58.9201 173.345 57.0401 176.102 55.5361C178.985 54.0321 182.431 53.2801 186.442 53.2801C189.325 53.2801 191.831 53.7814 193.962 54.7841C196.093 55.6614 197.847 56.8521 199.226 58.3561C200.605 59.7348 201.607 61.3641 202.234 63.2441C202.861 65.1241 203.174 67.0041 203.174 68.8841C203.174 73.0201 202.234 75.7774 200.354 77.1561C198.474 78.5347 196.281 79.2241 193.774 79.2241C188.259 79.2241 185.502 77.4694 185.502 73.9601C185.502 72.8321 185.627 71.9547 185.878 71.3281C186.129 70.5761 186.379 69.8867 186.63 69.2601C187.006 68.5081 187.319 67.6934 187.57 66.8161C187.821 65.9387 187.946 64.6854 187.946 63.0561C187.946 59.0454 185.753 57.0401 181.366 57.0401C179.361 57.0401 177.23 57.7921 174.974 59.2961C172.718 60.8001 170.587 62.9934 168.582 65.8761C166.702 68.7588 165.073 72.2681 163.694 76.4041C162.441 80.4147 161.814 85.0521 161.814 90.3161V133.368H178.17V136H131.17V133.368ZM237.432 95.7681C237.432 104.667 238.122 111.748 239.5 117.012C240.879 122.276 242.696 126.349 244.952 129.232C247.208 131.989 249.84 133.807 252.848 134.684C255.856 135.561 259.052 136 262.436 136C265.82 136 269.016 135.561 272.024 134.684C275.032 133.807 277.664 131.989 279.92 129.232C282.176 126.349 283.994 122.276 285.372 117.012C286.751 111.748 287.44 104.667 287.44 95.7681C287.44 88.2481 286.939 81.9814 285.936 76.9681C284.934 71.8294 283.367 67.6934 281.236 64.5601C279.231 61.3014 276.662 58.9827 273.528 57.6041C270.395 56.2254 266.698 55.5361 262.436 55.5361C258.175 55.5361 254.478 56.2254 251.344 57.6041C248.211 58.9827 245.579 61.3014 243.448 64.5601C241.443 67.6934 239.939 71.8294 238.936 76.9681C237.934 81.9814 237.432 88.2481 237.432 95.7681ZM218.632 95.7681C218.632 89.6267 219.948 83.9241 222.58 78.6601C225.338 73.3961 228.784 68.8841 232.92 65.1241C237.182 61.2387 241.882 58.2307 247.02 56.1001C252.284 53.9694 257.423 52.9041 262.436 52.9041C267.45 52.9041 272.526 53.9694 277.664 56.1001C282.928 58.2307 287.628 61.2387 291.764 65.1241C296.026 68.8841 299.472 73.3961 302.104 78.6601C304.862 83.9241 306.24 89.6267 306.24 95.7681C306.24 101.659 304.987 107.236 302.48 112.5C299.974 117.639 296.652 122.151 292.516 126.036C288.506 129.921 283.868 132.992 278.604 135.248C273.34 137.504 267.951 138.632 262.436 138.632C256.922 138.632 251.532 137.504 246.268 135.248C241.004 132.992 236.304 129.921 232.168 126.036C228.158 122.151 224.899 117.639 222.392 112.5C219.886 107.236 218.632 101.659 218.632 95.7681ZM325.917 133.368H340.393V57.9801H325.917V55.3481H356.185V75.0881H356.561C359.193 67.5681 362.953 62.0534 367.841 58.5441C372.855 55.0347 378.871 53.2801 385.889 53.2801C392.156 53.2801 397.671 54.6587 402.433 57.4161C407.321 60.1734 410.517 64.7481 412.021 71.1401H412.397C413.275 68.8841 414.465 66.6908 415.969 64.5601C417.473 62.4294 419.353 60.5494 421.609 58.9201C423.865 57.1654 426.497 55.7867 429.505 54.7841C432.639 53.7814 436.148 53.2801 440.033 53.2801C458.332 53.2801 467.481 62.6174 467.481 81.2921V133.368H481.957V136H436.837V133.368H451.313V69.4481C451.313 65.1867 450.123 61.8654 447.741 59.4841C445.485 57.1027 442.352 55.9121 438.341 55.9121C435.208 55.9121 432.075 56.5387 428.941 57.7921C425.808 58.9201 422.988 60.6748 420.481 63.0561C417.975 65.4374 415.907 68.5081 414.277 72.2681C412.773 76.0281 412.021 80.4147 412.021 85.4281V133.368H426.497V136H381.377V133.368H395.853V72.0801C395.853 66.5654 394.725 62.4921 392.469 59.8601C390.213 57.2281 387.205 55.9121 383.445 55.9121C380.813 55.9121 377.931 56.6014 374.797 57.9801C371.664 59.2334 368.719 61.3014 365.961 64.1841C363.329 66.9414 361.073 70.5761 359.193 75.0881C357.439 79.6001 356.561 85.1147 356.561 91.6321V133.368H371.037V136H325.917V133.368ZM520.519 95.7681C520.519 104.667 521.209 111.748 522.587 117.012C523.966 122.276 525.783 126.349 528.039 129.232C530.295 131.989 532.927 133.807 535.935 134.684C538.943 135.561 542.139 136 545.523 136C548.907 136 552.103 135.561 555.111 134.684C558.119 133.807 560.751 131.989 563.007 129.232C565.263 126.349 567.081 122.276 568.459 117.012C569.838 111.748 570.527 104.667 570.527 95.7681C570.527 88.2481 570.026 81.9814 569.023 76.9681C568.021 71.8294 566.454 67.6934 564.323 64.5601C562.318 61.3014 559.749 58.9827 556.615 57.6041C553.482 56.2254 549.785 55.5361 545.523 55.5361C541.262 55.5361 537.565 56.2254 534.431 57.6041C531.298 58.9827 528.666 61.3014 526.535 64.5601C524.53 67.6934 523.026 71.8294 522.023 76.9681C521.021 81.9814 520.519 88.2481 520.519 95.7681ZM501.719 95.7681C501.719 89.6267 503.035 83.9241 505.667 78.6601C508.425 73.3961 511.871 68.8841 516.007 65.1241C520.269 61.2387 524.969 58.2307 530.107 56.1001C535.371 53.9694 540.51 52.9041 545.523 52.9041C550.537 52.9041 555.613 53.9694 560.751 56.1001C566.015 58.2307 570.715 61.2387 574.851 65.1241C579.113 68.8841 582.559 73.3961 585.191 78.6601C587.949 83.9241 589.327 89.6267 589.327 95.7681C589.327 101.659 588.074 107.236 585.567 112.5C583.061 117.639 579.739 122.151 575.603 126.036C571.593 129.921 566.955 132.992 561.691 135.248C556.427 137.504 551.038 138.632 545.523 138.632C540.009 138.632 534.619 137.504 529.355 135.248C524.091 132.992 519.391 129.921 515.255 126.036C511.245 122.151 507.986 117.639 505.479 112.5C502.973 107.236 501.719 101.659 501.719 95.7681ZM608.44 55.3481H622.916V31.0961C623.919 31.4721 624.859 31.7854 625.736 32.0361C626.613 32.2867 628.118 32.4121 630.248 32.4121C632.128 32.4121 633.758 32.2241 635.136 31.8481C636.515 31.3467 637.831 30.5947 639.084 29.5921V55.3481H665.78V57.9801H639.084V119.456C639.084 122.965 639.398 125.848 640.024 128.104C640.776 130.235 641.716 131.927 642.844 133.18C643.972 134.308 645.163 135.06 646.416 135.436C647.795 135.812 649.111 136 650.364 136C654.751 136 658.26 134.433 660.892 131.3C663.649 128.041 665.404 124.344 666.156 120.208L668.788 121.148C668.412 122.777 667.848 124.595 667.096 126.6C666.344 128.605 665.154 130.548 663.524 132.428C662.02 134.183 660.015 135.624 657.508 136.752C655.002 138.005 651.868 138.632 648.108 138.632C638.708 138.632 632.128 136.815 628.368 133.18C624.733 129.545 622.916 124.407 622.916 117.764V57.9801H608.44V55.3481ZM692.854 11.5441C692.854 8.78675 693.794 6.46808 695.674 4.58807C697.679 2.58274 700.06 1.58008 702.818 1.58008C705.575 1.58008 707.894 2.58274 709.774 4.58807C711.779 6.46808 712.782 8.78675 712.782 11.5441C712.782 14.3014 711.779 16.6827 709.774 18.6881C707.894 20.5681 705.575 21.5081 702.818 21.5081C700.06 21.5081 697.679 20.5681 695.674 18.6881C693.794 16.6827 692.854 14.3014 692.854 11.5441ZM680.634 133.368H695.11V57.9801H680.634V55.3481H711.278V133.368H725.754V136H680.634V133.368ZM765.779 95.7681C765.779 104.667 766.468 111.748 767.847 117.012C769.225 122.276 771.043 126.349 773.299 129.232C775.555 131.989 778.187 133.807 781.195 134.684C784.203 135.561 787.399 136 790.783 136C794.167 136 797.363 135.561 800.371 134.684C803.379 133.807 806.011 131.989 808.267 129.232C810.523 126.349 812.34 122.276 813.719 117.012C815.097 111.748 815.787 104.667 815.787 95.7681C815.787 88.2481 815.285 81.9814 814.283 76.9681C813.28 71.8294 811.713 67.6934 809.583 64.5601C807.577 61.3014 805.008 58.9827 801.875 57.6041C798.741 56.2254 795.044 55.5361 790.783 55.5361C786.521 55.5361 782.824 56.2254 779.691 57.6041C776.557 58.9827 773.925 61.3014 771.795 64.5601C769.789 67.6934 768.285 71.8294 767.283 76.9681C766.28 81.9814 765.779 88.2481 765.779 95.7681ZM746.979 95.7681C746.979 89.6267 748.295 83.9241 750.927 78.6601C753.684 73.3961 757.131 68.8841 761.267 65.1241C765.528 61.2387 770.228 58.2307 775.367 56.1001C780.631 53.9694 785.769 52.9041 790.783 52.9041C795.796 52.9041 800.872 53.9694 806.011 56.1001C811.275 58.2307 815.975 61.2387 820.111 65.1241C824.372 68.8841 827.819 73.3961 830.451 78.6601C833.208 83.9241 834.587 89.6267 834.587 95.7681C834.587 101.659 833.333 107.236 830.827 112.5C828.32 117.639 824.999 122.151 820.863 126.036C816.852 129.921 812.215 132.992 806.951 135.248C801.687 137.504 796.297 138.632 790.783 138.632C785.268 138.632 779.879 137.504 774.615 135.248C769.351 132.992 764.651 129.921 760.515 126.036C756.504 122.151 753.245 117.639 750.739 112.5C748.232 107.236 746.979 101.659 746.979 95.7681ZM855.203 133.368H869.679V57.9801H855.203V55.3481H885.471V75.4641H885.847C886.599 73.8347 887.665 71.7667 889.043 69.2601C890.547 66.7534 892.553 64.3094 895.059 61.9281C897.566 59.5467 900.699 57.5414 904.459 55.9121C908.219 54.1574 912.794 53.2801 918.183 53.2801C926.455 53.2801 933.161 55.2854 938.299 59.2961C943.563 63.3067 946.195 69.6987 946.195 78.4721V133.368H960.671V136H915.551V133.368H930.027V72.6441C930.027 67.7561 928.837 63.7454 926.455 60.6121C924.199 57.4787 920.627 55.9121 915.739 55.9121C911.729 55.9121 907.906 56.7894 904.271 58.5441C900.637 60.2987 897.441 62.7427 894.683 65.8761C891.926 69.0094 889.733 72.7067 888.103 76.9681C886.599 81.2294 885.847 85.8667 885.847 90.8801V133.368H900.323V136H855.203V133.368ZM983.481 109.68H985.549C986.426 112.688 987.554 115.759 988.933 118.892C990.312 121.9 992.129 124.72 994.385 127.352C996.766 129.859 999.649 131.927 1003.03 133.556C1006.42 135.185 1010.49 136 1015.25 136C1019.26 136 1022.84 134.809 1025.97 132.428C1029.1 129.921 1030.67 125.911 1030.67 120.396C1030.67 115.633 1029.42 112.312 1026.91 110.432C1024.53 108.427 1021.71 106.86 1018.45 105.732L1003.79 100.656C1001.91 100.029 999.837 99.2774 997.581 98.4001C995.45 97.3974 993.445 96.0814 991.565 94.4521C989.685 92.6974 988.118 90.5041 986.865 87.8721C985.737 85.2401 985.173 81.8561 985.173 77.7201C985.173 74.2107 985.862 70.9521 987.241 67.9441C988.62 64.9361 990.5 62.3041 992.881 60.0481C995.262 57.7921 998.082 56.0374 1001.34 54.7841C1004.73 53.5307 1008.36 52.9041 1012.25 52.9041C1015 52.9041 1017.2 53.1547 1018.83 53.6561C1020.58 54.0321 1022.08 54.4707 1023.34 54.9721C1024.59 55.3481 1025.72 55.7867 1026.72 56.2881C1027.72 56.6641 1028.91 56.8521 1030.29 56.8521C1031.67 56.8521 1032.67 56.3507 1033.3 55.3481H1035.37V76.7801H1033.3C1032.42 74.0228 1031.42 71.3907 1030.29 68.8841C1029.17 66.2521 1027.79 63.9334 1026.16 61.9281C1024.65 59.9227 1022.71 58.3561 1020.33 57.2281C1018.07 56.1001 1015.38 55.5361 1012.25 55.5361C1006.23 55.5361 1001.53 56.9147 998.145 59.6721C994.886 62.3041 993.257 65.8761 993.257 70.3881C993.257 74.3988 994.636 77.4694 997.393 79.6001C1000.28 81.6054 1004.47 83.4854 1009.99 85.2401L1023.71 89.7521C1029.6 91.7574 1034.43 94.5148 1038.19 98.0241C1041.95 101.533 1043.83 106.171 1043.83 111.936C1043.83 115.32 1043.14 118.641 1041.76 121.9C1040.51 125.159 1038.57 128.041 1035.93 130.548C1033.43 132.929 1030.29 134.872 1026.53 136.376C1022.9 137.88 1018.7 138.632 1013.94 138.632C1011.18 138.632 1008.61 138.319 1006.23 137.692C1003.97 137.191 1001.84 136.627 999.837 136C997.957 135.373 996.202 134.809 994.573 134.308C992.944 133.681 991.44 133.368 990.061 133.368C988.682 133.368 987.68 133.681 987.053 134.308C986.426 134.809 985.925 135.373 985.549 136H983.481V109.68Z"/>
  </mask>
  <path d="M41.9756 68.6961C44.4823 69.1974 47.1143 69.5734 49.8716 69.8241C52.629 70.0747 55.073 70.2001 57.2036 70.2001C66.4783 70.2001 73.685 67.5054 78.8236 62.1161C84.0876 56.6014 86.7196 48.3294 86.7196 37.3001C86.7196 30.9081 86.093 25.5814 84.8396 21.3201C83.5863 17.0587 81.581 13.6747 78.8236 11.1681C76.1916 8.53607 72.6823 6.71874 68.2956 5.71608C64.0343 4.71341 58.8956 4.21208 52.8796 4.21208C50.4983 4.21208 48.305 4.27474 46.2996 4.40008C44.4196 4.52541 42.9783 4.65074 41.9756 4.77608V68.6961ZM2.30762 133.368H23.1756V4.77608H2.30762V2.14408H37.6516C39.4063 2.14408 41.161 2.14408 42.9156 2.14408C44.6703 2.01874 46.425 1.89341 48.1796 1.76808C49.9343 1.76808 51.6263 1.76808 53.2556 1.76808C55.0103 1.64274 56.765 1.58008 58.5196 1.58008C65.6636 1.58008 72.2436 2.45741 78.2596 4.21208C84.401 5.84141 89.665 8.22274 94.0516 11.3561C98.5636 14.4894 102.073 18.2494 104.58 22.6361C107.086 27.0227 108.34 31.9107 108.34 37.3001C108.34 42.9401 106.898 47.9534 104.016 52.3401C101.133 56.7267 97.3103 60.4241 92.5476 63.4321C87.785 66.4401 82.2076 68.7587 75.8156 70.3881C69.549 72.0174 62.969 72.8321 56.0756 72.8321C54.321 72.8321 52.065 72.7067 49.3076 72.4561C46.5503 72.0801 44.1063 71.7041 41.9756 71.3281V133.368H62.8436V136H2.30762V133.368ZM131.17 133.368H145.646V57.9801H131.17V55.3481H161.438V74.3361H161.814C162.315 72.4561 163.13 70.3254 164.258 67.9441C165.386 65.5628 166.953 63.3067 168.958 61.1761C170.963 58.9201 173.345 57.0401 176.102 55.5361C178.985 54.0321 182.431 53.2801 186.442 53.2801C189.325 53.2801 191.831 53.7814 193.962 54.7841C196.093 55.6614 197.847 56.8521 199.226 58.3561C200.605 59.7348 201.607 61.3641 202.234 63.2441C202.861 65.1241 203.174 67.0041 203.174 68.8841C203.174 73.0201 202.234 75.7774 200.354 77.1561C198.474 78.5347 196.281 79.2241 193.774 79.2241C188.259 79.2241 185.502 77.4694 185.502 73.9601C185.502 72.8321 185.627 71.9547 185.878 71.3281C186.129 70.5761 186.379 69.8867 186.63 69.2601C187.006 68.5081 187.319 67.6934 187.57 66.8161C187.821 65.9387 187.946 64.6854 187.946 63.0561C187.946 59.0454 185.753 57.0401 181.366 57.0401C179.361 57.0401 177.23 57.7921 174.974 59.2961C172.718 60.8001 170.587 62.9934 168.582 65.8761C166.702 68.7588 165.073 72.2681 163.694 76.4041C162.441 80.4147 161.814 85.0521 161.814 90.3161V133.368H178.17V136H131.17V133.368ZM237.432 95.7681C237.432 104.667 238.122 111.748 239.5 117.012C240.879 122.276 242.696 126.349 244.952 129.232C247.208 131.989 249.84 133.807 252.848 134.684C255.856 135.561 259.052 136 262.436 136C265.82 136 269.016 135.561 272.024 134.684C275.032 133.807 277.664 131.989 279.92 129.232C282.176 126.349 283.994 122.276 285.372 117.012C286.751 111.748 287.44 104.667 287.44 95.7681C287.44 88.2481 286.939 81.9814 285.936 76.9681C284.934 71.8294 283.367 67.6934 281.236 64.5601C279.231 61.3014 276.662 58.9827 273.528 57.6041C270.395 56.2254 266.698 55.5361 262.436 55.5361C258.175 55.5361 254.478 56.2254 251.344 57.6041C248.211 58.9827 245.579 61.3014 243.448 64.5601C241.443 67.6934 239.939 71.8294 238.936 76.9681C237.934 81.9814 237.432 88.2481 237.432 95.7681ZM218.632 95.7681C218.632 89.6267 219.948 83.9241 222.58 78.6601C225.338 73.3961 228.784 68.8841 232.92 65.1241C237.182 61.2387 241.882 58.2307 247.02 56.1001C252.284 53.9694 257.423 52.9041 262.436 52.9041C267.45 52.9041 272.526 53.9694 277.664 56.1001C282.928 58.2307 287.628 61.2387 291.764 65.1241C296.026 68.8841 299.472 73.3961 302.104 78.6601C304.862 83.9241 306.24 89.6267 306.24 95.7681C306.24 101.659 304.987 107.236 302.48 112.5C299.974 117.639 296.652 122.151 292.516 126.036C288.506 129.921 283.868 132.992 278.604 135.248C273.34 137.504 267.951 138.632 262.436 138.632C256.922 138.632 251.532 137.504 246.268 135.248C241.004 132.992 236.304 129.921 232.168 126.036C228.158 122.151 224.899 117.639 222.392 112.5C219.886 107.236 218.632 101.659 218.632 95.7681ZM325.917 133.368H340.393V57.9801H325.917V55.3481H356.185V75.0881H356.561C359.193 67.5681 362.953 62.0534 367.841 58.5441C372.855 55.0347 378.871 53.2801 385.889 53.2801C392.156 53.2801 397.671 54.6587 402.433 57.4161C407.321 60.1734 410.517 64.7481 412.021 71.1401H412.397C413.275 68.8841 414.465 66.6908 415.969 64.5601C417.473 62.4294 419.353 60.5494 421.609 58.9201C423.865 57.1654 426.497 55.7867 429.505 54.7841C432.639 53.7814 436.148 53.2801 440.033 53.2801C458.332 53.2801 467.481 62.6174 467.481 81.2921V133.368H481.957V136H436.837V133.368H451.313V69.4481C451.313 65.1867 450.123 61.8654 447.741 59.4841C445.485 57.1027 442.352 55.9121 438.341 55.9121C435.208 55.9121 432.075 56.5387 428.941 57.7921C425.808 58.9201 422.988 60.6748 420.481 63.0561C417.975 65.4374 415.907 68.5081 414.277 72.2681C412.773 76.0281 412.021 80.4147 412.021 85.4281V133.368H426.497V136H381.377V133.368H395.853V72.0801C395.853 66.5654 394.725 62.4921 392.469 59.8601C390.213 57.2281 387.205 55.9121 383.445 55.9121C380.813 55.9121 377.931 56.6014 374.797 57.9801C371.664 59.2334 368.719 61.3014 365.961 64.1841C363.329 66.9414 361.073 70.5761 359.193 75.0881C357.439 79.6001 356.561 85.1147 356.561 91.6321V133.368H371.037V136H325.917V133.368ZM520.519 95.7681C520.519 104.667 521.209 111.748 522.587 117.012C523.966 122.276 525.783 126.349 528.039 129.232C530.295 131.989 532.927 133.807 535.935 134.684C538.943 135.561 542.139 136 545.523 136C548.907 136 552.103 135.561 555.111 134.684C558.119 133.807 560.751 131.989 563.007 129.232C565.263 126.349 567.081 122.276 568.459 117.012C569.838 111.748 570.527 104.667 570.527 95.7681C570.527 88.2481 570.026 81.9814 569.023 76.9681C568.021 71.8294 566.454 67.6934 564.323 64.5601C562.318 61.3014 559.749 58.9827 556.615 57.6041C553.482 56.2254 549.785 55.5361 545.523 55.5361C541.262 55.5361 537.565 56.2254 534.431 57.6041C531.298 58.9827 528.666 61.3014 526.535 64.5601C524.53 67.6934 523.026 71.8294 522.023 76.9681C521.021 81.9814 520.519 88.2481 520.519 95.7681ZM501.719 95.7681C501.719 89.6267 503.035 83.9241 505.667 78.6601C508.425 73.3961 511.871 68.8841 516.007 65.1241C520.269 61.2387 524.969 58.2307 530.107 56.1001C535.371 53.9694 540.51 52.9041 545.523 52.9041C550.537 52.9041 555.613 53.9694 560.751 56.1001C566.015 58.2307 570.715 61.2387 574.851 65.1241C579.113 68.8841 582.559 73.3961 585.191 78.6601C587.949 83.9241 589.327 89.6267 589.327 95.7681C589.327 101.659 588.074 107.236 585.567 112.5C583.061 117.639 579.739 122.151 575.603 126.036C571.593 129.921 566.955 132.992 561.691 135.248C556.427 137.504 551.038 138.632 545.523 138.632C540.009 138.632 534.619 137.504 529.355 135.248C524.091 132.992 519.391 129.921 515.255 126.036C511.245 122.151 507.986 117.639 505.479 112.5C502.973 107.236 501.719 101.659 501.719 95.7681ZM608.44 55.3481H622.916V31.0961C623.919 31.4721 624.859 31.7854 625.736 32.0361C626.613 32.2867 628.118 32.4121 630.248 32.4121C632.128 32.4121 633.758 32.2241 635.136 31.8481C636.515 31.3467 637.831 30.5947 639.084 29.5921V55.3481H665.78V57.9801H639.084V119.456C639.084 122.965 639.398 125.848 640.024 128.104C640.776 130.235 641.716 131.927 642.844 133.18C643.972 134.308 645.163 135.06 646.416 135.436C647.795 135.812 649.111 136 650.364 136C654.751 136 658.26 134.433 660.892 131.3C663.649 128.041 665.404 124.344 666.156 120.208L668.788 121.148C668.412 122.777 667.848 124.595 667.096 126.6C666.344 128.605 665.154 130.548 663.524 132.428C662.02 134.183 660.015 135.624 657.508 136.752C655.002 138.005 651.868 138.632 648.108 138.632C638.708 138.632 632.128 136.815 628.368 133.18C624.733 129.545 622.916 124.407 622.916 117.764V57.9801H608.44V55.3481ZM692.854 11.5441C692.854 8.78675 693.794 6.46808 695.674 4.58807C697.679 2.58274 700.06 1.58008 702.818 1.58008C705.575 1.58008 707.894 2.58274 709.774 4.58807C711.779 6.46808 712.782 8.78675 712.782 11.5441C712.782 14.3014 711.779 16.6827 709.774 18.6881C707.894 20.5681 705.575 21.5081 702.818 21.5081C700.06 21.5081 697.679 20.5681 695.674 18.6881C693.794 16.6827 692.854 14.3014 692.854 11.5441ZM680.634 133.368H695.11V57.9801H680.634V55.3481H711.278V133.368H725.754V136H680.634V133.368ZM765.779 95.7681C765.779 104.667 766.468 111.748 767.847 117.012C769.225 122.276 771.043 126.349 773.299 129.232C775.555 131.989 778.187 133.807 781.195 134.684C784.203 135.561 787.399 136 790.783 136C794.167 136 797.363 135.561 800.371 134.684C803.379 133.807 806.011 131.989 808.267 129.232C810.523 126.349 812.34 122.276 813.719 117.012C815.097 111.748 815.787 104.667 815.787 95.7681C815.787 88.2481 815.285 81.9814 814.283 76.9681C813.28 71.8294 811.713 67.6934 809.583 64.5601C807.577 61.3014 805.008 58.9827 801.875 57.6041C798.741 56.2254 795.044 55.5361 790.783 55.5361C786.521 55.5361 782.824 56.2254 779.691 57.6041C776.557 58.9827 773.925 61.3014 771.795 64.5601C769.789 67.6934 768.285 71.8294 767.283 76.9681C766.28 81.9814 765.779 88.2481 765.779 95.7681ZM746.979 95.7681C746.979 89.6267 748.295 83.9241 750.927 78.6601C753.684 73.3961 757.131 68.8841 761.267 65.1241C765.528 61.2387 770.228 58.2307 775.367 56.1001C780.631 53.9694 785.769 52.9041 790.783 52.9041C795.796 52.9041 800.872 53.9694 806.011 56.1001C811.275 58.2307 815.975 61.2387 820.111 65.1241C824.372 68.8841 827.819 73.3961 830.451 78.6601C833.208 83.9241 834.587 89.6267 834.587 95.7681C834.587 101.659 833.333 107.236 830.827 112.5C828.32 117.639 824.999 122.151 820.863 126.036C816.852 129.921 812.215 132.992 806.951 135.248C801.687 137.504 796.297 138.632 790.783 138.632C785.268 138.632 779.879 137.504 774.615 135.248C769.351 132.992 764.651 129.921 760.515 126.036C756.504 122.151 753.245 117.639 750.739 112.5C748.232 107.236 746.979 101.659 746.979 95.7681ZM855.203 133.368H869.679V57.9801H855.203V55.3481H885.471V75.4641H885.847C886.599 73.8347 887.665 71.7667 889.043 69.2601C890.547 66.7534 892.553 64.3094 895.059 61.9281C897.566 59.5467 900.699 57.5414 904.459 55.9121C908.219 54.1574 912.794 53.2801 918.183 53.2801C926.455 53.2801 933.161 55.2854 938.299 59.2961C943.563 63.3067 946.195 69.6987 946.195 78.4721V133.368H960.671V136H915.551V133.368H930.027V72.6441C930.027 67.7561 928.837 63.7454 926.455 60.6121C924.199 57.4787 920.627 55.9121 915.739 55.9121C911.729 55.9121 907.906 56.7894 904.271 58.5441C900.637 60.2987 897.441 62.7427 894.683 65.8761C891.926 69.0094 889.733 72.7067 888.103 76.9681C886.599 81.2294 885.847 85.8667 885.847 90.8801V133.368H900.323V136H855.203V133.368ZM983.481 109.68H985.549C986.426 112.688 987.554 115.759 988.933 118.892C990.312 121.9 992.129 124.72 994.385 127.352C996.766 129.859 999.649 131.927 1003.03 133.556C1006.42 135.185 1010.49 136 1015.25 136C1019.26 136 1022.84 134.809 1025.97 132.428C1029.1 129.921 1030.67 125.911 1030.67 120.396C1030.67 115.633 1029.42 112.312 1026.91 110.432C1024.53 108.427 1021.71 106.86 1018.45 105.732L1003.79 100.656C1001.91 100.029 999.837 99.2774 997.581 98.4001C995.45 97.3974 993.445 96.0814 991.565 94.4521C989.685 92.6974 988.118 90.5041 986.865 87.8721C985.737 85.2401 985.173 81.8561 985.173 77.7201C985.173 74.2107 985.862 70.9521 987.241 67.9441C988.62 64.9361 990.5 62.3041 992.881 60.0481C995.262 57.7921 998.082 56.0374 1001.34 54.7841C1004.73 53.5307 1008.36 52.9041 1012.25 52.9041C1015 52.9041 1017.2 53.1547 1018.83 53.6561C1020.58 54.0321 1022.08 54.4707 1023.34 54.9721C1024.59 55.3481 1025.72 55.7867 1026.72 56.2881C1027.72 56.6641 1028.91 56.8521 1030.29 56.8521C1031.67 56.8521 1032.67 56.3507 1033.3 55.3481H1035.37V76.7801H1033.3C1032.42 74.0228 1031.42 71.3907 1030.29 68.8841C1029.17 66.2521 1027.79 63.9334 1026.16 61.9281C1024.65 59.9227 1022.71 58.3561 1020.33 57.2281C1018.07 56.1001 1015.38 55.5361 1012.25 55.5361C1006.23 55.5361 1001.53 56.9147 998.145 59.6721C994.886 62.3041 993.257 65.8761 993.257 70.3881C993.257 74.3988 994.636 77.4694 997.393 79.6001C1000.28 81.6054 1004.47 83.4854 1009.99 85.2401L1023.71 89.7521C1029.6 91.7574 1034.43 94.5148 1038.19 98.0241C1041.95 101.533 1043.83 106.171 1043.83 111.936C1043.83 115.32 1043.14 118.641 1041.76 121.9C1040.51 125.159 1038.57 128.041 1035.93 130.548C1033.43 132.929 1030.29 134.872 1026.53 136.376C1022.9 137.88 1018.7 138.632 1013.94 138.632C1011.18 138.632 1008.61 138.319 1006.23 137.692C1003.97 137.191 1001.84 136.627 999.837 136C997.957 135.373 996.202 134.809 994.573 134.308C992.944 133.681 991.44 133.368 990.061 133.368C988.682 133.368 987.68 133.681 987.053 134.308C986.426 134.809 985.925 135.373 985.549 136H983.481V109.68Z" stroke="#111111" stroke-opacity="0.04" stroke-width="2.8" mask="url(#path-1-outside-1)"/>
</svg>
