<svg width="1046" height="141" viewBox="0 0 1046 141" fill="none" xmlns="http://www.w3.org/2000/svg">
  <mask id="path-1-outside-1" maskUnits="userSpaceOnUse" x="0.307617" y="0.0800781" width="1045" height="141" fill="black">
  <rect fill="white" x="0.307617" y="0.0800781" width="1045" height="141"/>
  <path d="M41.9756 69.1961C44.4823 69.6974 47.1143 70.0734 49.8716 70.3241C52.629 70.5747 55.073 70.7001 57.2036 70.7001C66.4783 70.7001 73.685 68.0054 78.8236 62.6161C84.0876 57.1014 86.7196 48.8294 86.7196 37.8001C86.7196 31.4081 86.093 26.0814 84.8396 21.8201C83.5863 17.5587 81.581 14.1747 78.8236 11.6681C76.1916 9.03607 72.6823 7.21874 68.2956 6.21608C64.0343 5.21341 58.8956 4.71208 52.8796 4.71208C50.4983 4.71208 48.305 4.77474 46.2996 4.90008C44.4196 5.02541 42.9783 5.15074 41.9756 5.27608V69.1961ZM2.30762 133.868H23.1756V5.27608H2.30762V2.64408H37.6516C39.4063 2.64408 41.161 2.64408 42.9156 2.64408C44.6703 2.51874 46.425 2.39341 48.1796 2.26808C49.9343 2.26808 51.6263 2.26808 53.2556 2.26808C55.0103 2.14274 56.765 2.08008 58.5196 2.08008C65.6636 2.08008 72.2436 2.95741 78.2596 4.71208C84.401 6.34141 89.665 8.72274 94.0516 11.8561C98.5636 14.9894 102.073 18.7494 104.58 23.1361C107.086 27.5227 108.34 32.4107 108.34 37.8001C108.34 43.4401 106.898 48.4534 104.016 52.8401C101.133 57.2267 97.3103 60.9241 92.5476 63.9321C87.785 66.9401 82.2076 69.2587 75.8156 70.8881C69.549 72.5174 62.969 73.3321 56.0756 73.3321C54.321 73.3321 52.065 73.2067 49.3076 72.9561C46.5503 72.5801 44.1063 72.2041 41.9756 71.8281V133.868H62.8436V136.5H2.30762V133.868ZM131.17 133.868H145.646V58.4801H131.17V55.8481H161.438V74.8361H161.814C162.315 72.9561 163.13 70.8254 164.258 68.4441C165.386 66.0628 166.953 63.8067 168.958 61.6761C170.963 59.4201 173.345 57.5401 176.102 56.0361C178.985 54.5321 182.431 53.7801 186.442 53.7801C189.325 53.7801 191.831 54.2814 193.962 55.2841C196.093 56.1614 197.847 57.3521 199.226 58.8561C200.605 60.2348 201.607 61.8641 202.234 63.7441C202.861 65.6241 203.174 67.5041 203.174 69.3841C203.174 73.5201 202.234 76.2774 200.354 77.6561C198.474 79.0347 196.281 79.7241 193.774 79.7241C188.259 79.7241 185.502 77.9694 185.502 74.4601C185.502 73.3321 185.627 72.4547 185.878 71.8281C186.129 71.0761 186.379 70.3867 186.63 69.7601C187.006 69.0081 187.319 68.1934 187.57 67.3161C187.821 66.4387 187.946 65.1854 187.946 63.5561C187.946 59.5454 185.753 57.5401 181.366 57.5401C179.361 57.5401 177.23 58.2921 174.974 59.7961C172.718 61.3001 170.587 63.4934 168.582 66.3761C166.702 69.2588 165.073 72.7681 163.694 76.9041C162.441 80.9147 161.814 85.5521 161.814 90.8161V133.868H178.17V136.5H131.17V133.868ZM237.432 96.2681C237.432 105.167 238.122 112.248 239.5 117.512C240.879 122.776 242.696 126.849 244.952 129.732C247.208 132.489 249.84 134.307 252.848 135.184C255.856 136.061 259.052 136.5 262.436 136.5C265.82 136.5 269.016 136.061 272.024 135.184C275.032 134.307 277.664 132.489 279.92 129.732C282.176 126.849 283.994 122.776 285.372 117.512C286.751 112.248 287.44 105.167 287.44 96.2681C287.44 88.7481 286.939 82.4814 285.936 77.4681C284.934 72.3294 283.367 68.1934 281.236 65.0601C279.231 61.8014 276.662 59.4827 273.528 58.1041C270.395 56.7254 266.698 56.0361 262.436 56.0361C258.175 56.0361 254.478 56.7254 251.344 58.1041C248.211 59.4827 245.579 61.8014 243.448 65.0601C241.443 68.1934 239.939 72.3294 238.936 77.4681C237.934 82.4814 237.432 88.7481 237.432 96.2681ZM218.632 96.2681C218.632 90.1267 219.948 84.4241 222.58 79.1601C225.338 73.8961 228.784 69.3841 232.92 65.6241C237.182 61.7387 241.882 58.7307 247.02 56.6001C252.284 54.4694 257.423 53.4041 262.436 53.4041C267.45 53.4041 272.526 54.4694 277.664 56.6001C282.928 58.7307 287.628 61.7387 291.764 65.6241C296.026 69.3841 299.472 73.8961 302.104 79.1601C304.862 84.4241 306.24 90.1267 306.24 96.2681C306.24 102.159 304.987 107.736 302.48 113C299.974 118.139 296.652 122.651 292.516 126.536C288.506 130.421 283.868 133.492 278.604 135.748C273.34 138.004 267.951 139.132 262.436 139.132C256.922 139.132 251.532 138.004 246.268 135.748C241.004 133.492 236.304 130.421 232.168 126.536C228.158 122.651 224.899 118.139 222.392 113C219.886 107.736 218.632 102.159 218.632 96.2681ZM325.917 133.868H340.393V58.4801H325.917V55.8481H356.185V75.5881H356.561C359.193 68.0681 362.953 62.5534 367.841 59.0441C372.855 55.5347 378.871 53.7801 385.889 53.7801C392.156 53.7801 397.671 55.1587 402.433 57.9161C407.321 60.6734 410.517 65.2481 412.021 71.6401H412.397C413.275 69.3841 414.465 67.1908 415.969 65.0601C417.473 62.9294 419.353 61.0494 421.609 59.4201C423.865 57.6654 426.497 56.2867 429.505 55.2841C432.639 54.2814 436.148 53.7801 440.033 53.7801C458.332 53.7801 467.481 63.1174 467.481 81.7921V133.868H481.957V136.5H436.837V133.868H451.313V69.9481C451.313 65.6867 450.123 62.3654 447.741 59.9841C445.485 57.6027 442.352 56.4121 438.341 56.4121C435.208 56.4121 432.075 57.0387 428.941 58.2921C425.808 59.4201 422.988 61.1748 420.481 63.5561C417.975 65.9374 415.907 69.0081 414.277 72.7681C412.773 76.5281 412.021 80.9147 412.021 85.9281V133.868H426.497V136.5H381.377V133.868H395.853V72.5801C395.853 67.0654 394.725 62.9921 392.469 60.3601C390.213 57.7281 387.205 56.4121 383.445 56.4121C380.813 56.4121 377.931 57.1014 374.797 58.4801C371.664 59.7334 368.719 61.8014 365.961 64.6841C363.329 67.4414 361.073 71.0761 359.193 75.5881C357.439 80.1001 356.561 85.6147 356.561 92.1321V133.868H371.037V136.5H325.917V133.868ZM520.519 96.2681C520.519 105.167 521.209 112.248 522.587 117.512C523.966 122.776 525.783 126.849 528.039 129.732C530.295 132.489 532.927 134.307 535.935 135.184C538.943 136.061 542.139 136.5 545.523 136.5C548.907 136.5 552.103 136.061 555.111 135.184C558.119 134.307 560.751 132.489 563.007 129.732C565.263 126.849 567.081 122.776 568.459 117.512C569.838 112.248 570.527 105.167 570.527 96.2681C570.527 88.7481 570.026 82.4814 569.023 77.4681C568.021 72.3294 566.454 68.1934 564.323 65.0601C562.318 61.8014 559.749 59.4827 556.615 58.1041C553.482 56.7254 549.785 56.0361 545.523 56.0361C541.262 56.0361 537.565 56.7254 534.431 58.1041C531.298 59.4827 528.666 61.8014 526.535 65.0601C524.53 68.1934 523.026 72.3294 522.023 77.4681C521.021 82.4814 520.519 88.7481 520.519 96.2681ZM501.719 96.2681C501.719 90.1267 503.035 84.4241 505.667 79.1601C508.425 73.8961 511.871 69.3841 516.007 65.6241C520.269 61.7387 524.969 58.7307 530.107 56.6001C535.371 54.4694 540.51 53.4041 545.523 53.4041C550.537 53.4041 555.613 54.4694 560.751 56.6001C566.015 58.7307 570.715 61.7387 574.851 65.6241C579.113 69.3841 582.559 73.8961 585.191 79.1601C587.949 84.4241 589.327 90.1267 589.327 96.2681C589.327 102.159 588.074 107.736 585.567 113C583.061 118.139 579.739 122.651 575.603 126.536C571.593 130.421 566.955 133.492 561.691 135.748C556.427 138.004 551.038 139.132 545.523 139.132C540.009 139.132 534.619 138.004 529.355 135.748C524.091 133.492 519.391 130.421 515.255 126.536C511.245 122.651 507.986 118.139 505.479 113C502.973 107.736 501.719 102.159 501.719 96.2681ZM608.44 55.8481H622.916V31.5961C623.919 31.9721 624.859 32.2854 625.736 32.5361C626.613 32.7867 628.118 32.9121 630.248 32.9121C632.128 32.9121 633.758 32.7241 635.136 32.3481C636.515 31.8467 637.831 31.0947 639.084 30.0921V55.8481H665.78V58.4801H639.084V119.956C639.084 123.465 639.398 126.348 640.024 128.604C640.776 130.735 641.716 132.427 642.844 133.68C643.972 134.808 645.163 135.56 646.416 135.936C647.795 136.312 649.111 136.5 650.364 136.5C654.751 136.5 658.26 134.933 660.892 131.8C663.649 128.541 665.404 124.844 666.156 120.708L668.788 121.648C668.412 123.277 667.848 125.095 667.096 127.1C666.344 129.105 665.154 131.048 663.524 132.928C662.02 134.683 660.015 136.124 657.508 137.252C655.002 138.505 651.868 139.132 648.108 139.132C638.708 139.132 632.128 137.315 628.368 133.68C624.733 130.045 622.916 124.907 622.916 118.264V58.4801H608.44V55.8481ZM692.854 12.0441C692.854 9.28675 693.794 6.96808 695.674 5.08807C697.679 3.08274 700.06 2.08008 702.818 2.08008C705.575 2.08008 707.894 3.08274 709.774 5.08807C711.779 6.96808 712.782 9.28675 712.782 12.0441C712.782 14.8014 711.779 17.1827 709.774 19.1881C707.894 21.0681 705.575 22.0081 702.818 22.0081C700.06 22.0081 697.679 21.0681 695.674 19.1881C693.794 17.1827 692.854 14.8014 692.854 12.0441ZM680.634 133.868H695.11V58.4801H680.634V55.8481H711.278V133.868H725.754V136.5H680.634V133.868ZM765.779 96.2681C765.779 105.167 766.468 112.248 767.847 117.512C769.225 122.776 771.043 126.849 773.299 129.732C775.555 132.489 778.187 134.307 781.195 135.184C784.203 136.061 787.399 136.5 790.783 136.5C794.167 136.5 797.363 136.061 800.371 135.184C803.379 134.307 806.011 132.489 808.267 129.732C810.523 126.849 812.34 122.776 813.719 117.512C815.097 112.248 815.787 105.167 815.787 96.2681C815.787 88.7481 815.285 82.4814 814.283 77.4681C813.28 72.3294 811.713 68.1934 809.583 65.0601C807.577 61.8014 805.008 59.4827 801.875 58.1041C798.741 56.7254 795.044 56.0361 790.783 56.0361C786.521 56.0361 782.824 56.7254 779.691 58.1041C776.557 59.4827 773.925 61.8014 771.795 65.0601C769.789 68.1934 768.285 72.3294 767.283 77.4681C766.28 82.4814 765.779 88.7481 765.779 96.2681ZM746.979 96.2681C746.979 90.1267 748.295 84.4241 750.927 79.1601C753.684 73.8961 757.131 69.3841 761.267 65.6241C765.528 61.7387 770.228 58.7307 775.367 56.6001C780.631 54.4694 785.769 53.4041 790.783 53.4041C795.796 53.4041 800.872 54.4694 806.011 56.6001C811.275 58.7307 815.975 61.7387 820.111 65.6241C824.372 69.3841 827.819 73.8961 830.451 79.1601C833.208 84.4241 834.587 90.1267 834.587 96.2681C834.587 102.159 833.333 107.736 830.827 113C828.32 118.139 824.999 122.651 820.863 126.536C816.852 130.421 812.215 133.492 806.951 135.748C801.687 138.004 796.297 139.132 790.783 139.132C785.268 139.132 779.879 138.004 774.615 135.748C769.351 133.492 764.651 130.421 760.515 126.536C756.504 122.651 753.245 118.139 750.739 113C748.232 107.736 746.979 102.159 746.979 96.2681ZM855.203 133.868H869.679V58.4801H855.203V55.8481H885.471V75.9641H885.847C886.599 74.3347 887.665 72.2667 889.043 69.7601C890.547 67.2534 892.553 64.8094 895.059 62.4281C897.566 60.0467 900.699 58.0414 904.459 56.4121C908.219 54.6574 912.794 53.7801 918.183 53.7801C926.455 53.7801 933.161 55.7854 938.299 59.7961C943.563 63.8067 946.195 70.1987 946.195 78.9721V133.868H960.671V136.5H915.551V133.868H930.027V73.1441C930.027 68.2561 928.837 64.2454 926.455 61.1121C924.199 57.9787 920.627 56.4121 915.739 56.4121C911.729 56.4121 907.906 57.2894 904.271 59.0441C900.637 60.7987 897.441 63.2427 894.683 66.3761C891.926 69.5094 889.733 73.2067 888.103 77.4681C886.599 81.7294 885.847 86.3667 885.847 91.3801V133.868H900.323V136.5H855.203V133.868ZM983.481 110.18H985.549C986.426 113.188 987.554 116.259 988.933 119.392C990.312 122.4 992.129 125.22 994.385 127.852C996.766 130.359 999.649 132.427 1003.03 134.056C1006.42 135.685 1010.49 136.5 1015.25 136.5C1019.26 136.5 1022.84 135.309 1025.97 132.928C1029.1 130.421 1030.67 126.411 1030.67 120.896C1030.67 116.133 1029.42 112.812 1026.91 110.932C1024.53 108.927 1021.71 107.36 1018.45 106.232L1003.79 101.156C1001.91 100.529 999.837 99.7774 997.581 98.9001C995.45 97.8974 993.445 96.5814 991.565 94.9521C989.685 93.1974 988.118 91.0041 986.865 88.3721C985.737 85.7401 985.173 82.3561 985.173 78.2201C985.173 74.7107 985.862 71.4521 987.241 68.4441C988.62 65.4361 990.5 62.8041 992.881 60.5481C995.262 58.2921 998.082 56.5374 1001.34 55.2841C1004.73 54.0307 1008.36 53.4041 1012.25 53.4041C1015 53.4041 1017.2 53.6547 1018.83 54.1561C1020.58 54.5321 1022.08 54.9707 1023.34 55.4721C1024.59 55.8481 1025.72 56.2867 1026.72 56.7881C1027.72 57.1641 1028.91 57.3521 1030.29 57.3521C1031.67 57.3521 1032.67 56.8507 1033.3 55.8481H1035.37V77.2801H1033.3C1032.42 74.5228 1031.42 71.8907 1030.29 69.3841C1029.17 66.7521 1027.79 64.4334 1026.16 62.4281C1024.65 60.4227 1022.71 58.8561 1020.33 57.7281C1018.07 56.6001 1015.38 56.0361 1012.25 56.0361C1006.23 56.0361 1001.53 57.4147 998.145 60.1721C994.886 62.8041 993.257 66.3761 993.257 70.8881C993.257 74.8988 994.636 77.9694 997.393 80.1001C1000.28 82.1054 1004.47 83.9854 1009.99 85.7401L1023.71 90.2521C1029.6 92.2574 1034.43 95.0148 1038.19 98.5241C1041.95 102.033 1043.83 106.671 1043.83 112.436C1043.83 115.82 1043.14 119.141 1041.76 122.4C1040.51 125.659 1038.57 128.541 1035.93 131.048C1033.43 133.429 1030.29 135.372 1026.53 136.876C1022.9 138.38 1018.7 139.132 1013.94 139.132C1011.18 139.132 1008.61 138.819 1006.23 138.192C1003.97 137.691 1001.84 137.127 999.837 136.5C997.957 135.873 996.202 135.309 994.573 134.808C992.944 134.181 991.44 133.868 990.061 133.868C988.682 133.868 987.68 134.181 987.053 134.808C986.426 135.309 985.925 135.873 985.549 136.5H983.481V110.18Z"/>
  </mask>
  <path d="M41.9756 69.1961C44.4823 69.6974 47.1143 70.0734 49.8716 70.3241C52.629 70.5747 55.073 70.7001 57.2036 70.7001C66.4783 70.7001 73.685 68.0054 78.8236 62.6161C84.0876 57.1014 86.7196 48.8294 86.7196 37.8001C86.7196 31.4081 86.093 26.0814 84.8396 21.8201C83.5863 17.5587 81.581 14.1747 78.8236 11.6681C76.1916 9.03607 72.6823 7.21874 68.2956 6.21608C64.0343 5.21341 58.8956 4.71208 52.8796 4.71208C50.4983 4.71208 48.305 4.77474 46.2996 4.90008C44.4196 5.02541 42.9783 5.15074 41.9756 5.27608V69.1961ZM2.30762 133.868H23.1756V5.27608H2.30762V2.64408H37.6516C39.4063 2.64408 41.161 2.64408 42.9156 2.64408C44.6703 2.51874 46.425 2.39341 48.1796 2.26808C49.9343 2.26808 51.6263 2.26808 53.2556 2.26808C55.0103 2.14274 56.765 2.08008 58.5196 2.08008C65.6636 2.08008 72.2436 2.95741 78.2596 4.71208C84.401 6.34141 89.665 8.72274 94.0516 11.8561C98.5636 14.9894 102.073 18.7494 104.58 23.1361C107.086 27.5227 108.34 32.4107 108.34 37.8001C108.34 43.4401 106.898 48.4534 104.016 52.8401C101.133 57.2267 97.3103 60.9241 92.5476 63.9321C87.785 66.9401 82.2076 69.2587 75.8156 70.8881C69.549 72.5174 62.969 73.3321 56.0756 73.3321C54.321 73.3321 52.065 73.2067 49.3076 72.9561C46.5503 72.5801 44.1063 72.2041 41.9756 71.8281V133.868H62.8436V136.5H2.30762V133.868ZM131.17 133.868H145.646V58.4801H131.17V55.8481H161.438V74.8361H161.814C162.315 72.9561 163.13 70.8254 164.258 68.4441C165.386 66.0628 166.953 63.8067 168.958 61.6761C170.963 59.4201 173.345 57.5401 176.102 56.0361C178.985 54.5321 182.431 53.7801 186.442 53.7801C189.325 53.7801 191.831 54.2814 193.962 55.2841C196.093 56.1614 197.847 57.3521 199.226 58.8561C200.605 60.2348 201.607 61.8641 202.234 63.7441C202.861 65.6241 203.174 67.5041 203.174 69.3841C203.174 73.5201 202.234 76.2774 200.354 77.6561C198.474 79.0347 196.281 79.7241 193.774 79.7241C188.259 79.7241 185.502 77.9694 185.502 74.4601C185.502 73.3321 185.627 72.4547 185.878 71.8281C186.129 71.0761 186.379 70.3867 186.63 69.7601C187.006 69.0081 187.319 68.1934 187.57 67.3161C187.821 66.4387 187.946 65.1854 187.946 63.5561C187.946 59.5454 185.753 57.5401 181.366 57.5401C179.361 57.5401 177.23 58.2921 174.974 59.7961C172.718 61.3001 170.587 63.4934 168.582 66.3761C166.702 69.2588 165.073 72.7681 163.694 76.9041C162.441 80.9147 161.814 85.5521 161.814 90.8161V133.868H178.17V136.5H131.17V133.868ZM237.432 96.2681C237.432 105.167 238.122 112.248 239.5 117.512C240.879 122.776 242.696 126.849 244.952 129.732C247.208 132.489 249.84 134.307 252.848 135.184C255.856 136.061 259.052 136.5 262.436 136.5C265.82 136.5 269.016 136.061 272.024 135.184C275.032 134.307 277.664 132.489 279.92 129.732C282.176 126.849 283.994 122.776 285.372 117.512C286.751 112.248 287.44 105.167 287.44 96.2681C287.44 88.7481 286.939 82.4814 285.936 77.4681C284.934 72.3294 283.367 68.1934 281.236 65.0601C279.231 61.8014 276.662 59.4827 273.528 58.1041C270.395 56.7254 266.698 56.0361 262.436 56.0361C258.175 56.0361 254.478 56.7254 251.344 58.1041C248.211 59.4827 245.579 61.8014 243.448 65.0601C241.443 68.1934 239.939 72.3294 238.936 77.4681C237.934 82.4814 237.432 88.7481 237.432 96.2681ZM218.632 96.2681C218.632 90.1267 219.948 84.4241 222.58 79.1601C225.338 73.8961 228.784 69.3841 232.92 65.6241C237.182 61.7387 241.882 58.7307 247.02 56.6001C252.284 54.4694 257.423 53.4041 262.436 53.4041C267.45 53.4041 272.526 54.4694 277.664 56.6001C282.928 58.7307 287.628 61.7387 291.764 65.6241C296.026 69.3841 299.472 73.8961 302.104 79.1601C304.862 84.4241 306.24 90.1267 306.24 96.2681C306.24 102.159 304.987 107.736 302.48 113C299.974 118.139 296.652 122.651 292.516 126.536C288.506 130.421 283.868 133.492 278.604 135.748C273.34 138.004 267.951 139.132 262.436 139.132C256.922 139.132 251.532 138.004 246.268 135.748C241.004 133.492 236.304 130.421 232.168 126.536C228.158 122.651 224.899 118.139 222.392 113C219.886 107.736 218.632 102.159 218.632 96.2681ZM325.917 133.868H340.393V58.4801H325.917V55.8481H356.185V75.5881H356.561C359.193 68.0681 362.953 62.5534 367.841 59.0441C372.855 55.5347 378.871 53.7801 385.889 53.7801C392.156 53.7801 397.671 55.1587 402.433 57.9161C407.321 60.6734 410.517 65.2481 412.021 71.6401H412.397C413.275 69.3841 414.465 67.1908 415.969 65.0601C417.473 62.9294 419.353 61.0494 421.609 59.4201C423.865 57.6654 426.497 56.2867 429.505 55.2841C432.639 54.2814 436.148 53.7801 440.033 53.7801C458.332 53.7801 467.481 63.1174 467.481 81.7921V133.868H481.957V136.5H436.837V133.868H451.313V69.9481C451.313 65.6867 450.123 62.3654 447.741 59.9841C445.485 57.6027 442.352 56.4121 438.341 56.4121C435.208 56.4121 432.075 57.0387 428.941 58.2921C425.808 59.4201 422.988 61.1748 420.481 63.5561C417.975 65.9374 415.907 69.0081 414.277 72.7681C412.773 76.5281 412.021 80.9147 412.021 85.9281V133.868H426.497V136.5H381.377V133.868H395.853V72.5801C395.853 67.0654 394.725 62.9921 392.469 60.3601C390.213 57.7281 387.205 56.4121 383.445 56.4121C380.813 56.4121 377.931 57.1014 374.797 58.4801C371.664 59.7334 368.719 61.8014 365.961 64.6841C363.329 67.4414 361.073 71.0761 359.193 75.5881C357.439 80.1001 356.561 85.6147 356.561 92.1321V133.868H371.037V136.5H325.917V133.868ZM520.519 96.2681C520.519 105.167 521.209 112.248 522.587 117.512C523.966 122.776 525.783 126.849 528.039 129.732C530.295 132.489 532.927 134.307 535.935 135.184C538.943 136.061 542.139 136.5 545.523 136.5C548.907 136.5 552.103 136.061 555.111 135.184C558.119 134.307 560.751 132.489 563.007 129.732C565.263 126.849 567.081 122.776 568.459 117.512C569.838 112.248 570.527 105.167 570.527 96.2681C570.527 88.7481 570.026 82.4814 569.023 77.4681C568.021 72.3294 566.454 68.1934 564.323 65.0601C562.318 61.8014 559.749 59.4827 556.615 58.1041C553.482 56.7254 549.785 56.0361 545.523 56.0361C541.262 56.0361 537.565 56.7254 534.431 58.1041C531.298 59.4827 528.666 61.8014 526.535 65.0601C524.53 68.1934 523.026 72.3294 522.023 77.4681C521.021 82.4814 520.519 88.7481 520.519 96.2681ZM501.719 96.2681C501.719 90.1267 503.035 84.4241 505.667 79.1601C508.425 73.8961 511.871 69.3841 516.007 65.6241C520.269 61.7387 524.969 58.7307 530.107 56.6001C535.371 54.4694 540.51 53.4041 545.523 53.4041C550.537 53.4041 555.613 54.4694 560.751 56.6001C566.015 58.7307 570.715 61.7387 574.851 65.6241C579.113 69.3841 582.559 73.8961 585.191 79.1601C587.949 84.4241 589.327 90.1267 589.327 96.2681C589.327 102.159 588.074 107.736 585.567 113C583.061 118.139 579.739 122.651 575.603 126.536C571.593 130.421 566.955 133.492 561.691 135.748C556.427 138.004 551.038 139.132 545.523 139.132C540.009 139.132 534.619 138.004 529.355 135.748C524.091 133.492 519.391 130.421 515.255 126.536C511.245 122.651 507.986 118.139 505.479 113C502.973 107.736 501.719 102.159 501.719 96.2681ZM608.44 55.8481H622.916V31.5961C623.919 31.9721 624.859 32.2854 625.736 32.5361C626.613 32.7867 628.118 32.9121 630.248 32.9121C632.128 32.9121 633.758 32.7241 635.136 32.3481C636.515 31.8467 637.831 31.0947 639.084 30.0921V55.8481H665.78V58.4801H639.084V119.956C639.084 123.465 639.398 126.348 640.024 128.604C640.776 130.735 641.716 132.427 642.844 133.68C643.972 134.808 645.163 135.56 646.416 135.936C647.795 136.312 649.111 136.5 650.364 136.5C654.751 136.5 658.26 134.933 660.892 131.8C663.649 128.541 665.404 124.844 666.156 120.708L668.788 121.648C668.412 123.277 667.848 125.095 667.096 127.1C666.344 129.105 665.154 131.048 663.524 132.928C662.02 134.683 660.015 136.124 657.508 137.252C655.002 138.505 651.868 139.132 648.108 139.132C638.708 139.132 632.128 137.315 628.368 133.68C624.733 130.045 622.916 124.907 622.916 118.264V58.4801H608.44V55.8481ZM692.854 12.0441C692.854 9.28675 693.794 6.96808 695.674 5.08807C697.679 3.08274 700.06 2.08008 702.818 2.08008C705.575 2.08008 707.894 3.08274 709.774 5.08807C711.779 6.96808 712.782 9.28675 712.782 12.0441C712.782 14.8014 711.779 17.1827 709.774 19.1881C707.894 21.0681 705.575 22.0081 702.818 22.0081C700.06 22.0081 697.679 21.0681 695.674 19.1881C693.794 17.1827 692.854 14.8014 692.854 12.0441ZM680.634 133.868H695.11V58.4801H680.634V55.8481H711.278V133.868H725.754V136.5H680.634V133.868ZM765.779 96.2681C765.779 105.167 766.468 112.248 767.847 117.512C769.225 122.776 771.043 126.849 773.299 129.732C775.555 132.489 778.187 134.307 781.195 135.184C784.203 136.061 787.399 136.5 790.783 136.5C794.167 136.5 797.363 136.061 800.371 135.184C803.379 134.307 806.011 132.489 808.267 129.732C810.523 126.849 812.34 122.776 813.719 117.512C815.097 112.248 815.787 105.167 815.787 96.2681C815.787 88.7481 815.285 82.4814 814.283 77.4681C813.28 72.3294 811.713 68.1934 809.583 65.0601C807.577 61.8014 805.008 59.4827 801.875 58.1041C798.741 56.7254 795.044 56.0361 790.783 56.0361C786.521 56.0361 782.824 56.7254 779.691 58.1041C776.557 59.4827 773.925 61.8014 771.795 65.0601C769.789 68.1934 768.285 72.3294 767.283 77.4681C766.28 82.4814 765.779 88.7481 765.779 96.2681ZM746.979 96.2681C746.979 90.1267 748.295 84.4241 750.927 79.1601C753.684 73.8961 757.131 69.3841 761.267 65.6241C765.528 61.7387 770.228 58.7307 775.367 56.6001C780.631 54.4694 785.769 53.4041 790.783 53.4041C795.796 53.4041 800.872 54.4694 806.011 56.6001C811.275 58.7307 815.975 61.7387 820.111 65.6241C824.372 69.3841 827.819 73.8961 830.451 79.1601C833.208 84.4241 834.587 90.1267 834.587 96.2681C834.587 102.159 833.333 107.736 830.827 113C828.32 118.139 824.999 122.651 820.863 126.536C816.852 130.421 812.215 133.492 806.951 135.748C801.687 138.004 796.297 139.132 790.783 139.132C785.268 139.132 779.879 138.004 774.615 135.748C769.351 133.492 764.651 130.421 760.515 126.536C756.504 122.651 753.245 118.139 750.739 113C748.232 107.736 746.979 102.159 746.979 96.2681ZM855.203 133.868H869.679V58.4801H855.203V55.8481H885.471V75.9641H885.847C886.599 74.3347 887.665 72.2667 889.043 69.7601C890.547 67.2534 892.553 64.8094 895.059 62.4281C897.566 60.0467 900.699 58.0414 904.459 56.4121C908.219 54.6574 912.794 53.7801 918.183 53.7801C926.455 53.7801 933.161 55.7854 938.299 59.7961C943.563 63.8067 946.195 70.1987 946.195 78.9721V133.868H960.671V136.5H915.551V133.868H930.027V73.1441C930.027 68.2561 928.837 64.2454 926.455 61.1121C924.199 57.9787 920.627 56.4121 915.739 56.4121C911.729 56.4121 907.906 57.2894 904.271 59.0441C900.637 60.7987 897.441 63.2427 894.683 66.3761C891.926 69.5094 889.733 73.2067 888.103 77.4681C886.599 81.7294 885.847 86.3667 885.847 91.3801V133.868H900.323V136.5H855.203V133.868ZM983.481 110.18H985.549C986.426 113.188 987.554 116.259 988.933 119.392C990.312 122.4 992.129 125.22 994.385 127.852C996.766 130.359 999.649 132.427 1003.03 134.056C1006.42 135.685 1010.49 136.5 1015.25 136.5C1019.26 136.5 1022.84 135.309 1025.97 132.928C1029.1 130.421 1030.67 126.411 1030.67 120.896C1030.67 116.133 1029.42 112.812 1026.91 110.932C1024.53 108.927 1021.71 107.36 1018.45 106.232L1003.79 101.156C1001.91 100.529 999.837 99.7774 997.581 98.9001C995.45 97.8974 993.445 96.5814 991.565 94.9521C989.685 93.1974 988.118 91.0041 986.865 88.3721C985.737 85.7401 985.173 82.3561 985.173 78.2201C985.173 74.7107 985.862 71.4521 987.241 68.4441C988.62 65.4361 990.5 62.8041 992.881 60.5481C995.262 58.2921 998.082 56.5374 1001.34 55.2841C1004.73 54.0307 1008.36 53.4041 1012.25 53.4041C1015 53.4041 1017.2 53.6547 1018.83 54.1561C1020.58 54.5321 1022.08 54.9707 1023.34 55.4721C1024.59 55.8481 1025.72 56.2867 1026.72 56.7881C1027.72 57.1641 1028.91 57.3521 1030.29 57.3521C1031.67 57.3521 1032.67 56.8507 1033.3 55.8481H1035.37V77.2801H1033.3C1032.42 74.5228 1031.42 71.8907 1030.29 69.3841C1029.17 66.7521 1027.79 64.4334 1026.16 62.4281C1024.65 60.4227 1022.71 58.8561 1020.33 57.7281C1018.07 56.6001 1015.38 56.0361 1012.25 56.0361C1006.23 56.0361 1001.53 57.4147 998.145 60.1721C994.886 62.8041 993.257 66.3761 993.257 70.8881C993.257 74.8988 994.636 77.9694 997.393 80.1001C1000.28 82.1054 1004.47 83.9854 1009.99 85.7401L1023.71 90.2521C1029.6 92.2574 1034.43 95.0148 1038.19 98.5241C1041.95 102.033 1043.83 106.671 1043.83 112.436C1043.83 115.82 1043.14 119.141 1041.76 122.4C1040.51 125.659 1038.57 128.541 1035.93 131.048C1033.43 133.429 1030.29 135.372 1026.53 136.876C1022.9 138.38 1018.7 139.132 1013.94 139.132C1011.18 139.132 1008.61 138.819 1006.23 138.192C1003.97 137.691 1001.84 137.127 999.837 136.5C997.957 135.873 996.202 135.309 994.573 134.808C992.944 134.181 991.44 133.868 990.061 133.868C988.682 133.868 987.68 134.181 987.053 134.808C986.426 135.309 985.925 135.873 985.549 136.5H983.481V110.18Z" stroke="white" stroke-opacity="0.04" stroke-width="2.8" mask="url(#path-1-outside-1)"/>
</svg>