<svg width="1030" height="144" viewBox="0 0 1030 144" fill="none" xmlns="http://www.w3.org/2000/svg">
  <path fill-rule="evenodd" clip-rule="evenodd" d="M0.700012 97.68H5.31158L5.53984 98.8006C6.90265 105.491 8.62728 111.079 10.6977 115.589C12.9122 120.139 15.2898 123.845 17.8176 126.734C20.3665 129.647 23.0048 131.856 25.7249 133.393C28.5116 134.968 31.2802 136.109 34.0314 136.828C36.9622 137.56 39.6874 137.981 42.2106 138.102C44.9488 138.226 47.4958 138.288 49.852 138.288C56.3675 138.288 61.5973 137.302 65.6119 135.413C69.7201 133.48 72.9245 131.092 75.2757 128.274C77.6718 125.277 79.3302 122.125 80.2762 118.817C81.2523 115.277 81.728 112.085 81.728 109.232C81.728 105.017 80.9454 101.489 79.4419 98.5979C77.8899 95.6133 75.9321 93.1277 73.5733 91.1227L73.5582 91.1099L73.5435 91.0966C71.1401 88.9336 68.5014 87.1952 65.6247 85.8767L65.6143 85.8719L65.604 85.867C62.7806 84.5167 60.0968 83.4814 57.5514 82.7541L57.5399 82.7508L35.9031 76.1657C25.6266 72.9939 17.6919 68.7692 12.2141 63.4218L12.208 63.4159L12.2021 63.4099C6.75176 57.9596 4.08401 50.6836 4.08401 41.74C4.08401 35.9329 5.11676 30.5469 7.19919 25.5987C9.27447 20.5424 12.2007 16.1815 15.9796 12.5328C19.7535 8.88909 24.2341 6.03613 29.4041 3.96813L29.415 3.96374C34.73 1.8896 40.4817 0.860001 46.656 0.860001C51.1079 0.860001 54.8691 1.24011 57.9063 2.03149C60.9594 2.7951 63.6066 3.69416 65.8326 4.73845C67.9559 5.61313 69.8378 6.42855 71.4767 7.18456C73.0666 7.8635 74.6286 8.19199 76.172 8.19199C76.9416 8.19199 77.5267 8.14695 77.9497 8.0723C78.3384 8.00371 78.4933 7.92628 78.523 7.91049C78.9215 7.57501 79.6122 6.6719 80.5965 4.94941L80.9996 4.244H85.844V41.072H81.002L80.8071 39.9022C80.075 35.5099 78.7946 31.3033 76.9655 27.2793L76.9551 27.2564L76.9455 27.2331C75.2485 23.1119 73.0156 19.558 70.2537 16.5559L70.2445 16.5458L70.2354 16.5356C67.4888 13.4308 64.1417 10.9768 60.1767 9.17451L60.1531 9.16378L60.1299 9.15219C56.3491 7.26177 51.8714 6.292 46.656 6.292C43.7816 6.292 40.5724 6.71155 37.0205 7.56891L36.9982 7.5743L36.9757 7.57896C33.5088 8.29625 30.2844 9.60978 27.2947 11.5232C24.3409 13.4136 21.852 15.8965 19.8264 18.9899C17.9993 21.9672 17.036 25.8239 17.036 30.648C17.036 34.4625 17.8087 37.6574 19.2923 40.2875C20.8276 42.8827 22.7713 45.1232 25.1289 47.015C27.6616 48.8207 30.4394 50.3914 33.4657 51.7253C36.6848 52.9626 39.9028 54.0761 43.1197 55.0659L43.1275 55.0683L65.8776 62.213C68.275 62.9701 71.2956 63.977 74.9364 65.2325C78.7149 66.5354 82.3468 68.4838 85.8317 71.0639C89.5126 73.6954 92.5824 77.1668 95.0495 81.4479C97.7194 85.8601 99.004 91.391 99.004 97.952C99.004 104.024 97.8407 109.845 95.5145 115.405C93.3114 120.845 90.0725 125.699 85.81 129.962L85.8024 129.97L85.7946 129.977C81.5221 134.12 76.3596 137.47 70.3282 140.036L70.3165 140.041L70.3047 140.046C64.2224 142.505 57.3975 143.72 49.852 143.72C47.2181 143.72 44.8838 143.658 42.8523 143.532C40.8054 143.53 38.8732 143.401 37.058 143.142C35.2867 142.889 33.516 142.573 31.7458 142.195C29.9234 141.932 27.9298 141.479 25.769 140.843L25.7617 140.841C23.2329 140.082 20.5188 139.199 17.6201 138.19C14.8269 137.219 12.4823 136.764 10.56 136.764C8.85226 136.764 8.01212 137.107 7.64137 137.444C7.15272 138.047 6.67154 138.891 6.21988 140.02L5.86786 140.9H0.700012V97.68ZM6.61201 136.492C7.36401 135.74 8.68001 135.364 10.56 135.364C12.6907 135.364 15.1973 135.865 18.08 136.868C20.9627 137.871 23.6573 138.748 26.164 139.5C28.2947 140.127 30.2373 140.565 31.992 140.816C33.7467 141.192 35.5013 141.505 37.256 141.756C39.0107 142.007 40.8907 142.132 42.896 142.132C44.9013 142.257 47.22 142.32 49.852 142.32C57.2467 142.32 63.8893 141.129 69.78 138.748C75.6707 136.241 80.684 132.983 84.82 128.972C88.956 124.836 92.0894 120.136 94.22 114.872C96.476 109.483 97.604 103.843 97.604 97.952C97.604 91.56 96.3507 86.296 93.844 82.16C91.4627 78.024 88.5173 74.7027 85.008 72.196C81.624 69.6893 78.1147 67.8093 74.48 66.556C70.8453 65.3027 67.8374 64.3 65.456 63.548L42.708 56.404C39.4493 55.4013 36.1907 54.2733 32.932 53.02C29.7987 51.6413 26.916 50.012 24.284 48.132C21.7773 46.1267 19.7093 43.7453 18.08 40.988C16.4507 38.1053 15.636 34.6587 15.636 30.648C15.636 25.6347 16.6387 21.4987 18.644 18.24C20.7747 14.9813 23.4067 12.3493 26.54 10.344C29.6733 8.33867 33.0573 6.96 36.692 6.20799C40.3267 5.33067 43.648 4.892 46.656 4.892C52.0453 4.892 56.7453 5.89466 60.756 7.89999C64.892 9.77999 68.4013 12.3493 71.284 15.608C74.1667 18.7413 76.4854 22.4387 78.24 26.7C80.12 30.836 81.436 35.16 82.188 39.672H84.444V5.644H81.812C80.8093 7.39867 79.9947 8.52667 79.368 9.028C78.8667 9.404 77.8013 9.592 76.172 9.592C74.4173 9.592 72.6627 9.216 70.908 8.464C69.2787 7.712 67.3987 6.89734 65.268 6.02C63.1374 5.01733 60.568 4.14 57.56 3.388C54.6773 2.636 51.0427 2.26 46.656 2.26C40.64 2.26 35.0627 3.26266 29.924 5.26799C24.9107 7.27333 20.5867 10.0307 16.952 13.54C13.3173 17.0493 10.4973 21.248 8.49201 26.136C6.48668 30.8987 5.48401 36.1 5.48401 41.74C5.48401 50.388 8.05334 57.2813 13.192 62.42C18.456 67.5587 26.164 71.6947 36.316 74.828L57.936 81.408C60.568 82.16 63.3253 83.2253 66.208 84.604C69.216 85.9827 71.9733 87.8 74.48 90.056C76.9867 92.1867 79.0547 94.8187 80.684 97.952C82.3134 101.085 83.128 104.845 83.128 109.232C83.128 112.24 82.6267 115.561 81.624 119.196C80.6214 122.705 78.8667 126.027 76.36 129.16C73.8533 132.168 70.4693 134.675 66.208 136.68C61.9467 138.685 56.4947 139.688 49.852 139.688C47.4707 139.688 44.9013 139.625 42.144 139.5C39.512 139.375 36.692 138.936 33.684 138.184C30.8013 137.432 27.9187 136.241 25.036 134.612C22.1533 132.983 19.396 130.664 16.764 127.656C14.132 124.648 11.688 120.825 9.43201 116.188C7.30135 111.551 5.54668 105.848 4.16801 99.08H2.10001V139.5H4.92001C5.42134 138.247 5.98535 137.244 6.61201 136.492ZM188.031 2.26L137.271 136.868H120.727V139.5H161.147V136.868H140.279L160.019 84.604H203.635L223.375 136.868H202.507V139.5H260.411V136.868H243.679L192.543 2.26H188.031ZM244.644 135.468L193.508 0.860001H187.062L136.302 135.468H119.327V140.9H162.547V135.468H142.304L160.986 86.004H202.667L221.349 135.468H201.107V140.9H261.811V135.468H244.644ZM161.147 81.972H202.507L181.827 27.264L161.147 81.972ZM181.827 31.2234L163.172 80.572H200.481L181.827 31.2234ZM272.022 135.468H292.89V9.676H272.022V4.244H335.358V9.676H314.49V135.468H346.554C357.268 135.468 365.51 132.134 371.462 125.586C377.529 118.913 382.017 109.747 384.862 97.9986L385.121 96.928H389.69V140.9H272.022V135.468ZM313.09 136.868V8.276H333.958V5.644H273.422V8.276H294.29V136.868H273.422V139.5H388.29V98.328H386.222C383.34 110.235 378.765 119.635 372.498 126.528C366.232 133.421 357.584 136.868 346.554 136.868H313.09ZM408.241 135.468H429.109V9.676H408.241V4.244H518.577V39.568H514.1L513.781 38.6107C512.169 33.7748 510.441 29.5833 508.602 26.0272L508.597 26.0187L508.593 26.0101C506.774 22.3726 504.61 19.3768 502.112 16.9978L502.1 16.986L502.087 16.9739C499.611 14.4972 496.662 12.6659 493.221 11.4795C489.773 10.2906 485.55 9.676 480.517 9.676H450.709V64.968H461.529C465.589 64.968 468.972 64.5981 471.704 63.8853C474.359 63.1929 476.579 61.9344 478.399 60.114C480.364 58.1491 482.025 55.5058 483.35 52.1321L483.355 52.1204L483.36 52.1087C484.827 48.5629 486.249 43.9997 487.617 38.3996L487.878 37.332H492.445V98.6H487.875L487.616 97.5285C486.744 93.9157 485.811 90.4295 484.815 87.0697L484.808 87.0466L484.802 87.0233C483.96 83.7749 482.704 80.9135 481.045 78.4246L481.031 78.405L481.019 78.3849C479.529 75.9777 477.465 74.079 474.794 72.6852L474.761 72.6681L474.729 72.6493C472.258 71.1892 468.896 70.4 464.537 70.4H450.709V135.468H484.841C491.542 135.468 496.962 134.068 501.192 131.366C505.696 128.445 509.319 125.055 512.087 121.207C514.893 117.179 516.955 113.048 518.286 108.812C519.652 104.464 520.504 100.916 520.865 98.1469L521.024 96.928H525.721V140.9H408.241V135.468ZM449.309 136.868V69H464.537C469.049 69 472.684 69.8147 475.441 71.444C478.324 72.948 480.58 75.016 482.209 77.648C483.964 80.28 485.28 83.288 486.157 86.672C487.16 90.056 488.1 93.5653 488.977 97.2H491.045V38.732H488.977C487.599 44.372 486.157 49.0093 484.653 52.644C483.275 56.1533 481.52 58.9733 479.389 61.104C477.384 63.1093 474.94 64.488 472.057 65.24C469.175 65.992 465.665 66.368 461.529 66.368H449.309V8.276H480.517C485.656 8.276 490.043 8.90267 493.677 10.156C497.312 11.4093 500.445 13.352 503.077 15.984C505.709 18.4907 507.965 21.624 509.845 25.384C511.725 29.0187 513.48 33.28 515.109 38.168H517.177V5.644H409.641V8.276H430.509V136.868H409.641V139.5H524.321V98.328H522.253C521.877 101.211 521 104.845 519.621 109.232C518.243 113.619 516.112 117.88 513.229 122.016C510.347 126.027 506.587 129.536 501.949 132.544C497.437 135.427 491.735 136.868 484.841 136.868H449.309ZM619.633 90.912H657.401V106.12H619.633V90.912ZM702.195 1.42399H710.183L716.2 7.44265C716.206 7.44794 716.212 7.45324 716.217 7.45854C718.158 9.27615 720.218 10.9115 722.397 12.3655C724.661 13.7938 727.173 14.9311 729.938 15.7727C732.661 16.6013 735.84 17.028 739.495 17.028C741.917 17.028 744.14 16.8474 746.168 16.4922C748.141 16.0241 750.065 15.2674 751.94 14.2155C753.831 13.0303 755.746 11.4773 757.681 9.54205L757.696 9.52705L757.711 9.51251C759.78 7.56535 762.054 5.04879 764.534 1.94942L765.318 0.968334L769.705 3.75995L768.826 4.96526C765.434 9.61243 762.354 13.6995 759.584 17.2249C756.783 20.7898 753.964 23.8041 751.126 26.2556L751.122 26.259C748.375 28.613 745.415 30.393 742.242 31.5829C739.048 32.7807 735.43 33.364 731.411 33.364C729.103 33.364 726.914 33.2358 724.845 32.9772L724.794 32.9709L724.744 32.9608C722.796 32.5711 720.671 31.9904 718.372 31.2242L718.36 31.2203L718.349 31.2162C716.197 30.4567 713.86 29.5724 711.339 28.5639L711.311 28.5529L711.284 28.5407C709.214 27.6089 706.888 26.5496 704.308 25.3629L698.084 65.1601C700.719 62.3954 703.925 60.1219 707.686 58.3354C712.924 55.8475 719.028 54.628 725.959 54.628C732.883 54.628 739.038 55.8451 744.389 58.3212C749.803 60.6442 754.35 63.7558 758.002 67.6688C761.642 71.5688 764.374 76.0567 766.192 81.1213C768.001 86.034 768.907 91.0827 768.907 96.26C768.907 100.192 768.123 104.837 766.6 110.17C765.172 115.488 762.648 120.649 759.056 125.652C755.538 130.602 750.74 134.803 744.704 138.27C738.545 141.808 730.892 143.532 721.823 143.532C715.076 143.532 709.429 142.644 704.943 140.799C700.703 139.127 697.228 137.108 694.566 134.713L694.552 134.7L694.539 134.687C691.937 132.215 690.047 129.68 688.948 127.071L688.932 127.031L688.917 126.99C688.016 124.417 687.523 122.179 687.523 120.324C687.523 117.131 688.586 114.576 691.011 113.115C693.25 111.718 695.762 111.028 698.511 111.028C701.346 111.028 703.762 111.702 705.59 113.215C707.625 114.792 708.559 117.123 708.559 119.948C708.559 120.868 708.495 121.898 708.371 123.033V125.776C708.371 131.219 709.88 134.261 712.355 135.646C715.204 137.242 719.138 138.1 724.267 138.1C728.25 138.1 731.614 137.436 734.399 136.159L734.409 136.155L734.419 136.151C737.241 134.909 739.67 132.687 741.682 129.373C743.689 126.067 745.213 121.554 746.199 115.765L746.201 115.754L746.203 115.742C747.309 109.842 747.871 102.353 747.871 93.252C747.871 88.0527 747.499 83.3733 746.764 79.2073C746.037 75.0851 744.774 71.6281 743.008 68.802L742.996 68.7839L742.985 68.7654C741.366 65.9893 739.119 63.8552 736.217 62.3461C733.345 60.8526 729.576 60.06 724.831 60.06C719.326 60.06 714.843 60.9177 711.323 62.5607L711.305 62.5689L711.287 62.5766C707.655 64.1506 704.742 66.065 702.509 68.298C700.231 70.5759 698.518 72.9462 697.343 75.4047C696.236 77.9897 695.452 80.1702 694.975 81.9567L694.613 83.3171L689.984 82.0547L702.195 1.42399ZM696.067 74.828C697.32 72.196 699.137 69.6893 701.519 67.308C703.9 64.9267 706.971 62.9213 710.731 61.292C714.491 59.5373 719.191 58.66 724.831 58.66C729.719 58.66 733.729 59.4747 736.863 61.104C739.996 62.7333 742.44 65.052 744.195 68.06C746.075 71.068 747.391 74.7027 748.143 78.964C748.895 83.2253 749.271 87.988 749.271 93.252C749.271 102.401 748.707 109.984 747.579 116C746.576 121.891 745.009 126.591 742.879 130.1C740.748 133.609 738.116 136.053 734.983 137.432C731.975 138.811 728.403 139.5 724.267 139.5C719.003 139.5 714.804 138.623 711.671 136.868C708.537 135.113 706.971 131.416 706.971 125.776V122.956C707.096 121.828 707.159 120.825 707.159 119.948C707.159 117.441 706.344 115.561 704.715 114.308C703.211 113.055 701.143 112.428 698.511 112.428C696.004 112.428 693.748 113.055 691.743 114.308C689.863 115.436 688.923 117.441 688.923 120.324C688.923 121.953 689.361 124.021 690.239 126.528C691.241 128.909 692.996 131.291 695.503 133.672C698.009 135.928 701.331 137.871 705.467 139.5C709.728 141.255 715.18 142.132 721.823 142.132C730.721 142.132 738.116 140.44 744.007 137.056C749.897 133.672 754.535 129.599 757.919 124.836C761.428 119.948 763.872 114.935 765.251 109.796C766.755 104.532 767.507 100.02 767.507 96.26C767.507 91.2467 766.629 86.3587 764.875 81.596C763.12 76.708 760.488 72.384 756.979 68.624C753.469 64.864 749.083 61.856 743.819 59.6C738.68 57.2187 732.727 56.028 725.959 56.028C719.191 56.028 713.3 57.2187 708.287 59.6C703.957 61.6565 700.422 64.3672 697.682 67.7323C697.547 67.8984 697.413 68.0661 697.282 68.2354C697.064 68.516 696.852 68.801 696.645 69.0903C696.577 69.1851 696.509 69.2803 696.443 69.376L696.067 69L703.211 23.316C703.658 23.5226 704.099 23.7257 704.532 23.9252C707.254 25.178 709.696 26.291 711.859 27.264C714.365 28.2667 716.684 29.144 718.815 29.896C721.071 30.648 723.139 31.212 725.019 31.588C727.024 31.8387 729.155 31.964 731.411 31.964C735.296 31.964 738.743 31.4 741.751 30.272C744.759 29.144 747.579 27.452 750.211 25.196C752.968 22.8147 755.725 19.8693 758.483 16.36C761.013 13.1392 763.808 9.4433 766.866 5.27234C767.14 4.89871 767.417 4.52126 767.695 4.14L765.627 2.82399C763.12 5.95733 760.801 8.52666 758.671 10.532C756.665 12.5373 754.66 14.1667 752.655 15.42C750.649 16.548 748.581 17.3627 746.451 17.864C744.32 18.24 742.001 18.428 739.495 18.428C735.735 18.428 732.413 17.9893 729.531 17.112C726.648 16.2347 724.016 15.044 721.635 13.54C719.379 12.036 717.248 10.344 715.243 8.464L709.603 2.82399H703.399L691.555 81.032L693.623 81.596C693.65 81.4947 693.678 81.3922 693.707 81.2887C694.213 79.4717 695 77.3181 696.067 74.828ZM855.215 21.624C857.095 27.0133 858.348 33.9067 858.975 42.304C859.727 50.7013 860.103 60.728 860.103 72.384C860.103 84.04 859.727 94.1293 858.975 102.652C858.348 111.049 857.095 118.005 855.215 123.52C853.46 128.909 850.953 132.92 847.695 135.552C844.436 138.184 840.175 139.5 834.911 139.5C829.647 139.5 825.385 138.184 822.127 135.552C818.868 132.92 816.299 128.909 814.419 123.52C812.664 118.005 811.411 111.049 810.659 102.652C810.032 94.1293 809.719 84.04 809.719 72.384C809.719 60.728 810.032 50.7013 810.659 42.304C811.411 33.9067 812.664 27.0133 814.419 21.624C816.299 16.1093 818.868 12.036 822.127 9.404C825.385 6.772 829.647 5.45599 834.911 5.45599C840.175 5.45599 844.436 6.772 847.695 9.404C850.953 12.036 853.46 16.1093 855.215 21.624ZM815.747 22.0666C817.573 16.7131 820.021 12.9047 823.006 10.4931C825.958 8.10939 829.883 6.85599 834.911 6.85599C839.939 6.85599 843.864 8.10939 846.815 10.4931C849.793 12.8987 852.178 16.6987 853.881 22.0485L853.886 22.0669L853.893 22.0851C855.718 27.3187 856.957 34.0807 857.579 42.4082L857.579 42.4185L857.58 42.4289C858.327 50.7724 858.703 60.7552 858.703 72.384C858.703 84.0125 858.327 94.0588 857.58 102.529L857.579 102.538L857.579 102.548C856.957 110.874 855.718 117.704 853.89 123.068L853.886 123.077L853.883 123.087C852.184 128.307 849.801 132.051 846.815 134.463C843.864 136.847 839.939 138.1 834.911 138.1C829.883 138.1 825.958 136.847 823.006 134.463C820.015 132.047 817.57 128.297 815.747 123.077C814.038 117.698 812.8 110.861 812.054 102.539C811.431 94.0627 811.119 84.0126 811.119 72.384C811.119 60.7551 811.431 50.7682 812.054 42.4178C812.8 34.0898 814.039 27.3164 815.747 22.0666ZM792.611 48.884C791.483 57.0307 790.919 64.864 790.919 72.384C790.919 80.0293 791.483 87.988 792.611 96.26C793.864 104.407 796.12 111.927 799.379 118.82C802.637 125.588 807.087 131.165 812.727 135.552C818.492 139.939 825.887 142.132 834.911 142.132C843.935 142.132 851.267 139.939 856.907 135.552C862.672 131.165 867.184 125.588 870.443 118.82C873.701 111.927 875.895 104.407 877.023 96.26C878.276 87.988 878.903 80.0293 878.903 72.384C878.903 64.864 878.276 57.0307 877.023 48.884C875.895 40.612 873.701 33.092 870.443 26.324C867.184 19.4307 862.672 13.7907 856.907 9.404C851.267 5.01733 843.935 2.82399 834.911 2.82399C825.887 2.82399 818.492 5.01733 812.727 9.404C807.087 13.7907 802.637 19.4307 799.379 26.324C796.12 33.092 793.864 40.612 792.611 48.884ZM798.113 25.7252C794.79 32.63 792.498 40.2833 791.226 48.6743L791.225 48.6831L791.224 48.692C790.088 56.8964 789.519 64.7941 789.519 72.384C789.519 80.0981 790.088 88.1201 791.223 96.4492L791.225 96.461L791.227 96.4729C792.499 104.742 794.792 112.393 798.113 119.418L798.117 119.427C801.465 126.38 806.048 132.131 811.867 136.657L811.873 136.662L811.879 136.666C817.943 141.28 825.657 143.532 834.911 143.532C844.16 143.532 851.817 141.282 857.76 136.662C863.705 132.137 868.354 126.385 871.704 119.427L871.708 119.418C875.031 112.389 877.262 104.734 878.408 96.4613C879.67 88.1294 880.303 80.1032 880.303 72.384C880.303 64.7895 879.67 56.8884 878.408 48.6816C877.262 40.2891 875.033 32.6336 871.708 25.7257C868.36 18.6425 863.711 12.8233 857.76 8.29413C851.817 3.67408 844.16 1.42399 834.911 1.42399C825.657 1.42399 817.943 3.67617 811.879 8.28984L811.873 8.29434L811.867 8.2989C806.042 12.8292 801.459 18.6473 798.113 25.7252ZM919.777 63.5039L919.753 63.4922C915.735 61.5481 912.22 59.0777 909.221 56.0779L909.21 56.0674L909.2 56.0567C906.219 52.946 903.814 49.5039 901.994 45.7326L901.981 45.7069L901.97 45.6806C900.269 41.7547 899.41 37.7432 899.41 33.656C899.41 29.0466 900.466 24.746 902.583 20.7772L902.592 20.7614L902.6 20.7458C904.799 16.8659 907.458 13.49 910.58 10.628L910.591 10.6184L910.602 10.609C913.838 7.76098 917.346 5.54827 921.124 3.98232C924.893 2.29512 928.529 1.42399 932.018 1.42399C935.749 1.42399 939.573 2.29057 943.479 3.98342C947.385 5.67616 950.901 8.01898 954.022 11.0051C957.277 13.8743 959.884 17.2654 961.839 21.1697C963.949 25.134 965.003 29.4289 965.003 34.032C965.003 38.2705 964.007 42.3693 962.035 46.3141C960.089 50.2044 957.621 53.6496 954.628 56.6419L954.617 56.653L954.606 56.6637C951.609 59.5308 948.159 61.872 944.267 63.6887L944.257 63.6932L944.247 63.6975C940.457 65.3967 936.69 66.264 932.958 66.264C928.379 66.264 923.989 65.3469 919.801 63.5146L919.777 63.5039ZM960.594 21.812C958.714 18.052 956.208 14.7933 953.074 12.036C950.066 9.15333 946.682 6.89733 942.922 5.26799C939.162 3.63866 935.528 2.82399 932.018 2.82399C928.76 2.82399 925.313 3.63866 921.678 5.26799C918.044 6.772 914.66 8.90267 911.526 11.66C908.518 14.4173 905.949 17.676 903.818 21.436C901.813 25.196 900.81 29.2693 900.81 33.656C900.81 37.5413 901.625 41.364 903.254 45.124C905.009 48.7587 907.328 52.08 910.21 55.088C913.093 57.9707 916.477 60.352 920.362 62.232C924.373 63.9867 928.572 64.864 932.958 64.864C936.468 64.864 940.04 64.0493 943.674 62.42C947.434 60.6653 950.756 58.4093 953.638 55.652C956.521 52.7693 958.902 49.448 960.782 45.688C962.662 41.928 963.602 38.0427 963.602 34.032C963.602 29.6453 962.6 25.572 960.594 21.812ZM922.618 8.08799C924.874 6.33332 927.882 5.45599 931.642 5.45599C937.533 5.45599 942.108 7.46133 945.366 11.472C948.75 15.3573 950.443 22.2507 950.443 32.152C950.443 43.1813 949.001 50.952 946.118 55.464C943.236 59.976 938.661 62.232 932.394 62.232C926.003 62.232 921.302 60.0387 918.294 55.652C915.412 51.14 913.97 43.4947 913.97 32.716C913.97 29.708 914.158 26.6373 914.534 23.504C915.036 20.2453 915.913 17.3 917.167 14.668C918.545 11.9107 920.362 9.71733 922.618 8.08799ZM915.922 23.6946C915.554 26.7669 915.37 29.774 915.37 32.716C915.37 43.4329 916.816 50.7221 919.462 54.8789C922.154 58.7926 926.367 60.832 932.394 60.832C938.278 60.832 942.361 58.7456 944.939 54.7103C947.59 50.5599 949.042 43.1439 949.042 32.152C949.042 22.3181 947.343 15.8733 944.311 12.3915L944.295 12.3734L944.28 12.3548C941.326 8.71963 937.178 6.85599 931.642 6.85599C928.095 6.85599 925.42 7.6823 923.478 9.19308L923.458 9.20837L923.438 9.22294C921.387 10.7041 919.712 12.7109 918.424 15.2831C917.243 17.7678 916.405 20.5679 915.922 23.6946ZM984.073 140.772L984.049 140.76C980.031 138.816 976.516 136.346 973.517 133.346L973.506 133.335L973.496 133.325C970.515 130.214 968.11 126.772 966.29 123.001L966.277 122.975L966.266 122.949C964.565 119.023 963.706 115.011 963.706 110.924C963.706 106.315 964.762 102.014 966.879 98.0452L966.888 98.0294L966.896 98.0138C969.095 94.1339 971.754 90.758 974.876 87.896L974.887 87.8864L974.898 87.877C978.134 85.029 981.642 82.8163 985.42 81.2504C989.189 79.5631 992.825 78.692 996.314 78.692C1000.04 78.692 1003.87 79.5586 1007.78 81.2514C1011.68 82.9439 1015.2 85.2862 1018.32 88.2716C1021.57 91.1416 1024.18 94.5338 1026.14 98.4395C1028.25 102.403 1029.3 106.698 1029.3 111.3C1029.3 115.539 1028.3 119.637 1026.33 123.582C1024.39 127.472 1021.92 130.918 1018.92 133.91L1018.91 133.921L1018.9 133.932C1015.9 136.8 1012.45 139.081 1008.55 140.773C1004.77 142.598 1001 143.532 997.254 143.532C992.675 143.532 988.285 142.615 984.097 140.783L984.073 140.772ZM1024.89 99.08C1023.01 95.32 1020.5 92.0613 1017.37 89.304C1014.36 86.4213 1010.98 84.1653 1007.22 82.536C1003.46 80.9067 999.824 80.092 996.314 80.092C993.056 80.092 989.609 80.9067 985.974 82.536C982.34 84.04 978.956 86.1707 975.822 88.928C972.814 91.6853 970.245 94.944 968.115 98.704C966.109 102.464 965.106 106.537 965.106 110.924C965.106 114.809 965.921 118.632 967.55 122.392C969.305 126.027 971.624 129.348 974.506 132.356C977.389 135.239 980.773 137.62 984.658 139.5C988.669 141.255 992.868 142.132 997.254 142.132C1000.76 142.132 1004.34 141.255 1007.97 139.5C1011.73 137.871 1015.05 135.677 1017.93 132.92C1020.82 130.037 1023.2 126.716 1025.08 122.956C1026.96 119.196 1027.9 115.311 1027.9 111.3C1027.9 106.913 1026.9 102.84 1024.89 99.08ZM997.775 0.955128L1003.66 3.89948L930.934 144.001L925.045 141.057L997.775 0.955128ZM1008.59 89.6414L1008.58 89.6228C1005.62 85.9876 1001.47 84.124 995.938 84.124C992.391 84.124 989.716 84.9503 987.774 86.4611L987.754 86.4764L987.734 86.491C985.684 87.9717 984.009 89.9778 982.721 92.5489C981.539 95.0337 980.701 97.834 980.218 100.961C979.85 104.034 979.667 107.041 979.667 109.984C979.667 120.701 981.112 127.99 983.758 132.147C986.451 136.061 990.663 138.1 996.69 138.1C1002.57 138.1 1006.66 136.014 1009.23 131.978C1011.89 127.828 1013.34 120.412 1013.34 109.42C1013.34 99.5861 1011.64 93.1413 1008.61 89.6595L1008.59 89.6414ZM982.59 132.92C979.708 128.408 978.266 120.763 978.266 109.984C978.266 106.976 978.454 103.905 978.831 100.772C979.332 97.5133 980.209 94.568 981.462 91.936C982.841 89.1787 984.658 86.9853 986.914 85.356C989.17 83.6013 992.178 82.724 995.938 82.724C1001.83 82.724 1006.4 84.7293 1009.66 88.74C1013.05 92.6253 1014.74 99.5187 1014.74 109.42C1014.74 120.449 1013.3 128.22 1010.41 132.732C1007.53 137.244 1002.96 139.5 996.69 139.5C990.298 139.5 985.599 137.307 982.59 132.92ZM998.383 2.82399L1001.77 4.516L930.326 142.132L926.943 140.44L998.383 2.82399ZM621.033 92.312V104.72H656.001V92.312H621.033Z" fill="#111111" fill-opacity="0.04"/>
</svg>
