<svg width="1030" height="144" viewBox="0 0 1030 144" fill="none" xmlns="http://www.w3.org/2000/svg">
  <mask id="path-1-outside-1" maskUnits="userSpaceOnUse" x="0.100006" y="0.26001" width="1030" height="144" fill="black">
  <rect fill="white" x="0.100006" y="0.26001" width="1030" height="144"/>
  <path d="M2.10001 99.08H4.16801C5.54667 105.848 7.30134 111.551 9.43201 116.188C11.688 120.825 14.132 124.648 16.764 127.656C19.396 130.664 22.1533 132.983 25.036 134.612C27.9187 136.241 30.8013 137.432 33.684 138.184C36.692 138.936 39.512 139.375 42.144 139.5C44.9013 139.625 47.4707 139.688 49.852 139.688C56.4947 139.688 61.9467 138.685 66.208 136.68C70.4693 134.675 73.8533 132.168 76.36 129.16C78.8667 126.027 80.6213 122.705 81.624 119.196C82.6267 115.561 83.128 112.24 83.128 109.232C83.128 104.845 82.3133 101.085 80.684 97.952C79.0547 94.8187 76.9867 92.1867 74.48 90.056C71.9733 87.8 69.216 85.9827 66.208 84.604C63.3253 83.2253 60.568 82.16 57.936 81.408L36.316 74.828C26.164 71.6947 18.456 67.5587 13.192 62.42C8.05334 57.2813 5.48401 50.388 5.48401 41.74C5.48401 36.1 6.48667 30.8987 8.49201 26.136C10.4973 21.248 13.3173 17.0493 16.952 13.54C20.5867 10.0307 24.9107 7.27334 29.924 5.268C35.0627 3.26267 40.64 2.26001 46.656 2.26001C51.0427 2.26001 54.6773 2.63601 57.56 3.38801C60.568 4.14 63.1373 5.01734 65.268 6.02001C67.3987 6.89734 69.2787 7.71201 70.908 8.46401C72.6627 9.21601 74.4173 9.592 76.172 9.592C77.8013 9.592 78.8667 9.40401 79.368 9.02801C79.9947 8.52668 80.8093 7.39868 81.812 5.64401H84.444V39.672H82.188C81.436 35.16 80.12 30.836 78.24 26.7C76.4853 22.4387 74.1667 18.7413 71.284 15.608C68.4013 12.3493 64.892 9.78 60.756 7.9C56.7453 5.89467 52.0453 4.89201 46.656 4.89201C43.648 4.89201 40.3267 5.33067 36.692 6.208C33.0573 6.96001 29.6733 8.33868 26.54 10.344C23.4067 12.3493 20.7747 14.9813 18.644 18.24C16.6387 21.4987 15.636 25.6347 15.636 30.648C15.636 34.6587 16.4507 38.1053 18.08 40.988C19.7093 43.7453 21.7773 46.1267 24.284 48.132C26.916 50.012 29.7987 51.6413 32.932 53.02C36.1907 54.2733 39.4493 55.4013 42.708 56.404L65.456 63.548C67.8373 64.3 70.8453 65.3027 74.48 66.556C78.1147 67.8093 81.624 69.6893 85.008 72.196C88.5173 74.7027 91.4627 78.024 93.844 82.16C96.3507 86.296 97.604 91.56 97.604 97.952C97.604 103.843 96.476 109.483 94.22 114.872C92.0893 120.136 88.956 124.836 84.82 128.972C80.684 132.983 75.6707 136.241 69.78 138.748C63.8893 141.129 57.2467 142.32 49.852 142.32C47.22 142.32 44.9013 142.257 42.896 142.132C40.8907 142.132 39.0107 142.007 37.256 141.756C35.5013 141.505 33.7467 141.192 31.992 140.816C30.2373 140.565 28.2947 140.127 26.164 139.5C23.6573 138.748 20.9627 137.871 18.08 136.868C15.1973 135.865 12.6907 135.364 10.56 135.364C8.68001 135.364 7.36401 135.74 6.61201 136.492C5.98534 137.244 5.42134 138.247 4.92001 139.5H2.10001V99.08ZM181.827 27.264L161.147 81.972H202.507L181.827 27.264ZM120.727 136.868H137.271L188.031 2.26001H192.543L243.679 136.868H260.411V139.5H202.507V136.868H223.375L203.635 84.604H160.019L140.279 136.868H161.147V139.5H120.727V136.868ZM273.422 136.868H294.29V8.27601H273.422V5.64401H333.958V8.27601H313.09V136.868H346.554C357.584 136.868 366.232 133.421 372.498 126.528C378.765 119.635 383.34 110.235 386.222 98.328H388.29V139.5H273.422V136.868ZM409.641 136.868H430.509V8.27601H409.641V5.64401H517.177V38.168H515.109C513.48 33.28 511.725 29.0187 509.845 25.384C507.965 21.624 505.709 18.4907 503.077 15.984C500.445 13.352 497.312 11.4093 493.677 10.156C490.043 8.90268 485.656 8.27601 480.517 8.27601H449.309V66.368H461.529C465.665 66.368 469.175 65.992 472.057 65.24C474.94 64.488 477.384 63.1093 479.389 61.104C481.52 58.9733 483.275 56.1533 484.653 52.644C486.157 49.0093 487.599 44.372 488.977 38.732H491.045V97.2H488.977C488.1 93.5653 487.16 90.056 486.157 86.672C485.28 83.288 483.964 80.28 482.209 77.648C480.58 75.016 478.324 72.948 475.441 71.444C472.684 69.8147 469.049 69 464.537 69H449.309V136.868H484.841C491.735 136.868 497.437 135.427 501.949 132.544C506.587 129.536 510.347 126.027 513.229 122.016C516.112 117.88 518.243 113.619 519.621 109.232C521 104.845 521.877 101.211 522.253 98.328H524.321V139.5H409.641V136.868ZM621.033 92.312H656.001V104.72H621.033V92.312ZM703.399 2.824H709.603C711.483 4.70401 713.363 6.58401 715.243 8.46401C717.248 10.344 719.379 12.036 721.635 13.54C724.016 15.044 726.648 16.2347 729.531 17.112C732.413 17.9893 735.735 18.428 739.495 18.428C742.001 18.428 744.32 18.24 746.451 17.864C748.581 17.3627 750.649 16.548 752.655 15.42C754.66 14.1667 756.665 12.5373 758.671 10.532C760.801 8.52667 763.12 5.95734 765.627 2.824L767.695 4.14001C764.311 8.77734 761.24 12.8507 758.483 16.36C755.725 19.8693 752.968 22.8147 750.211 25.196C747.579 27.452 744.759 29.144 741.751 30.272C738.743 31.4 735.296 31.964 731.411 31.964C729.155 31.964 727.024 31.8387 725.019 31.588C723.139 31.212 721.071 30.648 718.815 29.896C716.684 29.144 714.365 28.2667 711.859 27.264C709.352 26.136 706.469 24.82 703.211 23.316L696.067 69L696.443 69.376C699.325 65.24 703.273 61.9813 708.287 59.6C713.3 57.2187 719.191 56.028 725.959 56.028C732.727 56.028 738.68 57.2187 743.819 59.6C749.083 61.856 753.469 64.864 756.979 68.624C760.488 72.384 763.12 76.708 764.875 81.596C766.629 86.3587 767.507 91.2467 767.507 96.26C767.507 100.02 766.755 104.532 765.251 109.796C763.872 114.935 761.428 119.948 757.919 124.836C754.535 129.599 749.897 133.672 744.007 137.056C738.116 140.44 730.721 142.132 721.823 142.132C715.18 142.132 709.728 141.255 705.467 139.5C701.331 137.871 698.009 135.928 695.503 133.672C692.996 131.291 691.241 128.909 690.239 126.528C689.361 124.021 688.923 121.953 688.923 120.324C688.923 117.441 689.863 115.436 691.743 114.308C693.748 113.055 696.004 112.428 698.511 112.428C701.143 112.428 703.211 113.055 704.715 114.308C706.344 115.561 707.159 117.441 707.159 119.948C707.159 120.825 707.096 121.828 706.971 122.956C706.971 124.084 706.971 125.024 706.971 125.776C706.971 131.416 708.537 135.113 711.671 136.868C714.804 138.623 719.003 139.5 724.267 139.5C728.403 139.5 731.975 138.811 734.983 137.432C738.116 136.053 740.748 133.609 742.879 130.1C745.009 126.591 746.576 121.891 747.579 116C748.707 109.984 749.271 102.401 749.271 93.252C749.271 87.988 748.895 83.2253 748.143 78.964C747.391 74.7027 746.075 71.068 744.195 68.06C742.44 65.052 739.996 62.7333 736.863 61.104C733.729 59.4747 729.719 58.66 724.831 58.66C719.191 58.66 714.491 59.5373 710.731 61.292C706.971 62.9213 703.9 64.9267 701.519 67.308C699.137 69.6893 697.32 72.196 696.067 74.828C694.939 77.46 694.124 79.716 693.623 81.596L691.555 81.032L703.399 2.824ZM809.719 72.384C809.719 84.04 810.032 94.1293 810.659 102.652C811.411 111.049 812.664 118.005 814.419 123.52C816.299 128.909 818.868 132.92 822.127 135.552C825.385 138.184 829.647 139.5 834.911 139.5C840.175 139.5 844.436 138.184 847.695 135.552C850.953 132.92 853.46 128.909 855.215 123.52C857.095 118.005 858.348 111.049 858.975 102.652C859.727 94.1293 860.103 84.04 860.103 72.384C860.103 60.728 859.727 50.7013 858.975 42.304C858.348 33.9067 857.095 27.0133 855.215 21.624C853.46 16.1093 850.953 12.036 847.695 9.40401C844.436 6.772 840.175 5.456 834.911 5.456C829.647 5.456 825.385 6.772 822.127 9.40401C818.868 12.036 816.299 16.1093 814.419 21.624C812.664 27.0133 811.411 33.9067 810.659 42.304C810.032 50.7013 809.719 60.728 809.719 72.384ZM790.919 72.384C790.919 64.864 791.483 57.0307 792.611 48.884C793.864 40.612 796.12 33.092 799.379 26.324C802.637 19.4307 807.087 13.7907 812.727 9.40401C818.492 5.01734 825.887 2.824 834.911 2.824C843.935 2.824 851.267 5.01734 856.907 9.40401C862.672 13.7907 867.184 19.4307 870.443 26.324C873.701 33.092 875.895 40.612 877.023 48.884C878.276 57.0307 878.903 64.864 878.903 72.384C878.903 80.0293 878.276 87.988 877.023 96.26C875.895 104.407 873.701 111.927 870.443 118.82C867.184 125.588 862.672 131.165 856.907 135.552C851.267 139.939 843.935 142.132 834.911 142.132C825.887 142.132 818.492 139.939 812.727 135.552C807.087 131.165 802.637 125.588 799.379 118.82C796.12 111.927 793.864 104.407 792.611 96.26C791.483 87.988 790.919 80.0293 790.919 72.384ZM932.958 64.864C928.572 64.864 924.373 63.9867 920.362 62.232C916.477 60.352 913.093 57.9707 910.21 55.088C907.328 52.08 905.009 48.7587 903.254 45.124C901.625 41.364 900.81 37.5413 900.81 33.656C900.81 29.2693 901.813 25.196 903.818 21.436C905.949 17.676 908.518 14.4173 911.526 11.66C914.66 8.90268 918.044 6.77201 921.678 5.268C925.313 3.63867 928.76 2.824 932.018 2.824C935.528 2.824 939.162 3.63867 942.922 5.268C946.682 6.89734 950.066 9.15334 953.074 12.036C956.208 14.7933 958.714 18.052 960.594 21.812C962.6 25.572 963.603 29.6453 963.603 34.032C963.603 38.0427 962.663 41.928 960.783 45.688C958.903 49.448 956.521 52.7693 953.638 55.652C950.756 58.4093 947.434 60.6653 943.674 62.42C940.04 64.0493 936.468 64.864 932.958 64.864ZM997.254 142.132C992.868 142.132 988.669 141.255 984.658 139.5C980.773 137.62 977.389 135.239 974.507 132.356C971.624 129.348 969.305 126.027 967.551 122.392C965.921 118.632 965.106 114.809 965.106 110.924C965.106 106.537 966.109 102.464 968.114 98.704C970.245 94.944 972.814 91.6853 975.822 88.928C978.956 86.1707 982.34 84.04 985.974 82.536C989.609 80.9067 993.056 80.092 996.314 80.092C999.824 80.092 1003.46 80.9067 1007.22 82.536C1010.98 84.1653 1014.36 86.4213 1017.37 89.304C1020.5 92.0613 1023.01 95.32 1024.89 99.08C1026.9 102.84 1027.9 106.913 1027.9 111.3C1027.9 115.311 1026.96 119.196 1025.08 122.956C1023.2 126.716 1020.82 130.037 1017.93 132.92C1015.05 135.677 1011.73 137.871 1007.97 139.5C1004.34 141.255 1000.76 142.132 997.254 142.132ZM932.395 62.232C938.661 62.232 943.236 59.976 946.118 55.464C949.001 50.952 950.442 43.1813 950.442 32.152C950.442 22.2507 948.75 15.3573 945.366 11.472C942.108 7.46134 937.533 5.456 931.642 5.456C927.882 5.456 924.874 6.33334 922.618 8.088C920.362 9.71734 918.545 11.9107 917.166 14.668C915.913 17.3 915.036 20.2453 914.534 23.504C914.158 26.6373 913.97 29.708 913.97 32.716C913.97 43.4947 915.412 51.14 918.294 55.652C921.302 60.0387 926.003 62.232 932.395 62.232ZM998.382 2.824L1001.77 4.516L930.327 142.132L926.942 140.44L998.382 2.824ZM996.69 139.5C1002.96 139.5 1007.53 137.244 1010.41 132.732C1013.3 128.22 1014.74 120.449 1014.74 109.42C1014.74 99.5187 1013.05 92.6253 1009.66 88.74C1006.4 84.7293 1001.83 82.724 995.939 82.724C992.179 82.724 989.17 83.6013 986.914 85.356C984.658 86.9853 982.841 89.1787 981.462 91.936C980.209 94.568 979.332 97.5133 978.83 100.772C978.454 103.905 978.267 106.976 978.267 109.984C978.267 120.763 979.708 128.408 982.59 132.92C985.598 137.307 990.298 139.5 996.69 139.5Z"/>
  </mask>
  <path d="M2.10001 99.08H4.16801C5.54667 105.848 7.30134 111.551 9.43201 116.188C11.688 120.825 14.132 124.648 16.764 127.656C19.396 130.664 22.1533 132.983 25.036 134.612C27.9187 136.241 30.8013 137.432 33.684 138.184C36.692 138.936 39.512 139.375 42.144 139.5C44.9013 139.625 47.4707 139.688 49.852 139.688C56.4947 139.688 61.9467 138.685 66.208 136.68C70.4693 134.675 73.8533 132.168 76.36 129.16C78.8667 126.027 80.6213 122.705 81.624 119.196C82.6267 115.561 83.128 112.24 83.128 109.232C83.128 104.845 82.3133 101.085 80.684 97.952C79.0547 94.8187 76.9867 92.1867 74.48 90.056C71.9733 87.8 69.216 85.9827 66.208 84.604C63.3253 83.2253 60.568 82.16 57.936 81.408L36.316 74.828C26.164 71.6947 18.456 67.5587 13.192 62.42C8.05334 57.2813 5.48401 50.388 5.48401 41.74C5.48401 36.1 6.48667 30.8987 8.49201 26.136C10.4973 21.248 13.3173 17.0493 16.952 13.54C20.5867 10.0307 24.9107 7.27334 29.924 5.268C35.0627 3.26267 40.64 2.26001 46.656 2.26001C51.0427 2.26001 54.6773 2.63601 57.56 3.38801C60.568 4.14 63.1373 5.01734 65.268 6.02001C67.3987 6.89734 69.2787 7.71201 70.908 8.46401C72.6627 9.21601 74.4173 9.592 76.172 9.592C77.8013 9.592 78.8667 9.40401 79.368 9.02801C79.9947 8.52668 80.8093 7.39868 81.812 5.64401H84.444V39.672H82.188C81.436 35.16 80.12 30.836 78.24 26.7C76.4853 22.4387 74.1667 18.7413 71.284 15.608C68.4013 12.3493 64.892 9.78 60.756 7.9C56.7453 5.89467 52.0453 4.89201 46.656 4.89201C43.648 4.89201 40.3267 5.33067 36.692 6.208C33.0573 6.96001 29.6733 8.33868 26.54 10.344C23.4067 12.3493 20.7747 14.9813 18.644 18.24C16.6387 21.4987 15.636 25.6347 15.636 30.648C15.636 34.6587 16.4507 38.1053 18.08 40.988C19.7093 43.7453 21.7773 46.1267 24.284 48.132C26.916 50.012 29.7987 51.6413 32.932 53.02C36.1907 54.2733 39.4493 55.4013 42.708 56.404L65.456 63.548C67.8373 64.3 70.8453 65.3027 74.48 66.556C78.1147 67.8093 81.624 69.6893 85.008 72.196C88.5173 74.7027 91.4627 78.024 93.844 82.16C96.3507 86.296 97.604 91.56 97.604 97.952C97.604 103.843 96.476 109.483 94.22 114.872C92.0893 120.136 88.956 124.836 84.82 128.972C80.684 132.983 75.6707 136.241 69.78 138.748C63.8893 141.129 57.2467 142.32 49.852 142.32C47.22 142.32 44.9013 142.257 42.896 142.132C40.8907 142.132 39.0107 142.007 37.256 141.756C35.5013 141.505 33.7467 141.192 31.992 140.816C30.2373 140.565 28.2947 140.127 26.164 139.5C23.6573 138.748 20.9627 137.871 18.08 136.868C15.1973 135.865 12.6907 135.364 10.56 135.364C8.68001 135.364 7.36401 135.74 6.61201 136.492C5.98534 137.244 5.42134 138.247 4.92001 139.5H2.10001V99.08ZM181.827 27.264L161.147 81.972H202.507L181.827 27.264ZM120.727 136.868H137.271L188.031 2.26001H192.543L243.679 136.868H260.411V139.5H202.507V136.868H223.375L203.635 84.604H160.019L140.279 136.868H161.147V139.5H120.727V136.868ZM273.422 136.868H294.29V8.27601H273.422V5.64401H333.958V8.27601H313.09V136.868H346.554C357.584 136.868 366.232 133.421 372.498 126.528C378.765 119.635 383.34 110.235 386.222 98.328H388.29V139.5H273.422V136.868ZM409.641 136.868H430.509V8.27601H409.641V5.64401H517.177V38.168H515.109C513.48 33.28 511.725 29.0187 509.845 25.384C507.965 21.624 505.709 18.4907 503.077 15.984C500.445 13.352 497.312 11.4093 493.677 10.156C490.043 8.90268 485.656 8.27601 480.517 8.27601H449.309V66.368H461.529C465.665 66.368 469.175 65.992 472.057 65.24C474.94 64.488 477.384 63.1093 479.389 61.104C481.52 58.9733 483.275 56.1533 484.653 52.644C486.157 49.0093 487.599 44.372 488.977 38.732H491.045V97.2H488.977C488.1 93.5653 487.16 90.056 486.157 86.672C485.28 83.288 483.964 80.28 482.209 77.648C480.58 75.016 478.324 72.948 475.441 71.444C472.684 69.8147 469.049 69 464.537 69H449.309V136.868H484.841C491.735 136.868 497.437 135.427 501.949 132.544C506.587 129.536 510.347 126.027 513.229 122.016C516.112 117.88 518.243 113.619 519.621 109.232C521 104.845 521.877 101.211 522.253 98.328H524.321V139.5H409.641V136.868ZM621.033 92.312H656.001V104.72H621.033V92.312ZM703.399 2.824H709.603C711.483 4.70401 713.363 6.58401 715.243 8.46401C717.248 10.344 719.379 12.036 721.635 13.54C724.016 15.044 726.648 16.2347 729.531 17.112C732.413 17.9893 735.735 18.428 739.495 18.428C742.001 18.428 744.32 18.24 746.451 17.864C748.581 17.3627 750.649 16.548 752.655 15.42C754.66 14.1667 756.665 12.5373 758.671 10.532C760.801 8.52667 763.12 5.95734 765.627 2.824L767.695 4.14001C764.311 8.77734 761.24 12.8507 758.483 16.36C755.725 19.8693 752.968 22.8147 750.211 25.196C747.579 27.452 744.759 29.144 741.751 30.272C738.743 31.4 735.296 31.964 731.411 31.964C729.155 31.964 727.024 31.8387 725.019 31.588C723.139 31.212 721.071 30.648 718.815 29.896C716.684 29.144 714.365 28.2667 711.859 27.264C709.352 26.136 706.469 24.82 703.211 23.316L696.067 69L696.443 69.376C699.325 65.24 703.273 61.9813 708.287 59.6C713.3 57.2187 719.191 56.028 725.959 56.028C732.727 56.028 738.68 57.2187 743.819 59.6C749.083 61.856 753.469 64.864 756.979 68.624C760.488 72.384 763.12 76.708 764.875 81.596C766.629 86.3587 767.507 91.2467 767.507 96.26C767.507 100.02 766.755 104.532 765.251 109.796C763.872 114.935 761.428 119.948 757.919 124.836C754.535 129.599 749.897 133.672 744.007 137.056C738.116 140.44 730.721 142.132 721.823 142.132C715.18 142.132 709.728 141.255 705.467 139.5C701.331 137.871 698.009 135.928 695.503 133.672C692.996 131.291 691.241 128.909 690.239 126.528C689.361 124.021 688.923 121.953 688.923 120.324C688.923 117.441 689.863 115.436 691.743 114.308C693.748 113.055 696.004 112.428 698.511 112.428C701.143 112.428 703.211 113.055 704.715 114.308C706.344 115.561 707.159 117.441 707.159 119.948C707.159 120.825 707.096 121.828 706.971 122.956C706.971 124.084 706.971 125.024 706.971 125.776C706.971 131.416 708.537 135.113 711.671 136.868C714.804 138.623 719.003 139.5 724.267 139.5C728.403 139.5 731.975 138.811 734.983 137.432C738.116 136.053 740.748 133.609 742.879 130.1C745.009 126.591 746.576 121.891 747.579 116C748.707 109.984 749.271 102.401 749.271 93.252C749.271 87.988 748.895 83.2253 748.143 78.964C747.391 74.7027 746.075 71.068 744.195 68.06C742.44 65.052 739.996 62.7333 736.863 61.104C733.729 59.4747 729.719 58.66 724.831 58.66C719.191 58.66 714.491 59.5373 710.731 61.292C706.971 62.9213 703.9 64.9267 701.519 67.308C699.137 69.6893 697.32 72.196 696.067 74.828C694.939 77.46 694.124 79.716 693.623 81.596L691.555 81.032L703.399 2.824ZM809.719 72.384C809.719 84.04 810.032 94.1293 810.659 102.652C811.411 111.049 812.664 118.005 814.419 123.52C816.299 128.909 818.868 132.92 822.127 135.552C825.385 138.184 829.647 139.5 834.911 139.5C840.175 139.5 844.436 138.184 847.695 135.552C850.953 132.92 853.46 128.909 855.215 123.52C857.095 118.005 858.348 111.049 858.975 102.652C859.727 94.1293 860.103 84.04 860.103 72.384C860.103 60.728 859.727 50.7013 858.975 42.304C858.348 33.9067 857.095 27.0133 855.215 21.624C853.46 16.1093 850.953 12.036 847.695 9.40401C844.436 6.772 840.175 5.456 834.911 5.456C829.647 5.456 825.385 6.772 822.127 9.40401C818.868 12.036 816.299 16.1093 814.419 21.624C812.664 27.0133 811.411 33.9067 810.659 42.304C810.032 50.7013 809.719 60.728 809.719 72.384ZM790.919 72.384C790.919 64.864 791.483 57.0307 792.611 48.884C793.864 40.612 796.12 33.092 799.379 26.324C802.637 19.4307 807.087 13.7907 812.727 9.40401C818.492 5.01734 825.887 2.824 834.911 2.824C843.935 2.824 851.267 5.01734 856.907 9.40401C862.672 13.7907 867.184 19.4307 870.443 26.324C873.701 33.092 875.895 40.612 877.023 48.884C878.276 57.0307 878.903 64.864 878.903 72.384C878.903 80.0293 878.276 87.988 877.023 96.26C875.895 104.407 873.701 111.927 870.443 118.82C867.184 125.588 862.672 131.165 856.907 135.552C851.267 139.939 843.935 142.132 834.911 142.132C825.887 142.132 818.492 139.939 812.727 135.552C807.087 131.165 802.637 125.588 799.379 118.82C796.12 111.927 793.864 104.407 792.611 96.26C791.483 87.988 790.919 80.0293 790.919 72.384ZM932.958 64.864C928.572 64.864 924.373 63.9867 920.362 62.232C916.477 60.352 913.093 57.9707 910.21 55.088C907.328 52.08 905.009 48.7587 903.254 45.124C901.625 41.364 900.81 37.5413 900.81 33.656C900.81 29.2693 901.813 25.196 903.818 21.436C905.949 17.676 908.518 14.4173 911.526 11.66C914.66 8.90268 918.044 6.77201 921.678 5.268C925.313 3.63867 928.76 2.824 932.018 2.824C935.528 2.824 939.162 3.63867 942.922 5.268C946.682 6.89734 950.066 9.15334 953.074 12.036C956.208 14.7933 958.714 18.052 960.594 21.812C962.6 25.572 963.603 29.6453 963.603 34.032C963.603 38.0427 962.663 41.928 960.783 45.688C958.903 49.448 956.521 52.7693 953.638 55.652C950.756 58.4093 947.434 60.6653 943.674 62.42C940.04 64.0493 936.468 64.864 932.958 64.864ZM997.254 142.132C992.868 142.132 988.669 141.255 984.658 139.5C980.773 137.62 977.389 135.239 974.507 132.356C971.624 129.348 969.305 126.027 967.551 122.392C965.921 118.632 965.106 114.809 965.106 110.924C965.106 106.537 966.109 102.464 968.114 98.704C970.245 94.944 972.814 91.6853 975.822 88.928C978.956 86.1707 982.34 84.04 985.974 82.536C989.609 80.9067 993.056 80.092 996.314 80.092C999.824 80.092 1003.46 80.9067 1007.22 82.536C1010.98 84.1653 1014.36 86.4213 1017.37 89.304C1020.5 92.0613 1023.01 95.32 1024.89 99.08C1026.9 102.84 1027.9 106.913 1027.9 111.3C1027.9 115.311 1026.96 119.196 1025.08 122.956C1023.2 126.716 1020.82 130.037 1017.93 132.92C1015.05 135.677 1011.73 137.871 1007.97 139.5C1004.34 141.255 1000.76 142.132 997.254 142.132ZM932.395 62.232C938.661 62.232 943.236 59.976 946.118 55.464C949.001 50.952 950.442 43.1813 950.442 32.152C950.442 22.2507 948.75 15.3573 945.366 11.472C942.108 7.46134 937.533 5.456 931.642 5.456C927.882 5.456 924.874 6.33334 922.618 8.088C920.362 9.71734 918.545 11.9107 917.166 14.668C915.913 17.3 915.036 20.2453 914.534 23.504C914.158 26.6373 913.97 29.708 913.97 32.716C913.97 43.4947 915.412 51.14 918.294 55.652C921.302 60.0387 926.003 62.232 932.395 62.232ZM998.382 2.824L1001.77 4.516L930.327 142.132L926.942 140.44L998.382 2.824ZM996.69 139.5C1002.96 139.5 1007.53 137.244 1010.41 132.732C1013.3 128.22 1014.74 120.449 1014.74 109.42C1014.74 99.5187 1013.05 92.6253 1009.66 88.74C1006.4 84.7293 1001.83 82.724 995.939 82.724C992.179 82.724 989.17 83.6013 986.914 85.356C984.658 86.9853 982.841 89.1787 981.462 91.936C980.209 94.568 979.332 97.5133 978.83 100.772C978.454 103.905 978.267 106.976 978.267 109.984C978.267 120.763 979.708 128.408 982.59 132.92C985.598 137.307 990.298 139.5 996.69 139.5Z" stroke="white" stroke-opacity="0.04" stroke-width="2.8" mask="url(#path-1-outside-1)"/>
</svg>
