<svg width="72" height="72" viewBox="0 0 72 72" fill="none" xmlns="http://www.w3.org/2000/svg">
  <path d="M46.9014 23.2H47.9008L47.5592 22.2608L44.2928 13.2789C44.2079 13.0448 44.1806 12.7936 44.2133 12.5467C44.246 12.2998 44.3377 12.0644 44.4807 11.8604C44.6237 11.6565 44.8137 11.49 45.0346 11.375C45.2556 11.2601 45.501 11.2001 45.75 11.2H51.75V11.2001L51.7599 11.2C51.9653 11.1971 52.1692 11.235 52.3598 11.3116C52.5504 11.3882 52.7239 11.5019 52.8702 11.6461C53.0165 11.7904 53.1326 11.9622 53.2119 12.1517C53.2912 12.3412 53.332 12.5446 53.332 12.75C53.332 12.9555 53.2912 13.1588 53.2119 13.3483C53.1326 13.5379 53.0165 13.7097 52.8702 13.8539C52.7239 13.9982 52.5504 14.1119 52.3598 14.1885C52.1692 14.2651 51.9653 14.303 51.7599 14.3001V14.3H51.75H48.9639H47.9645L48.306 15.2392L54.9242 33.4414L55.1244 33.992L55.7017 33.8919C56.3802 33.7742 57.0594 33.7 57.75 33.7C64.3784 33.7 69.8 39.1217 69.8 45.75C69.8 52.3784 64.3784 57.8 57.75 57.8C51.1216 57.8 45.7 52.3784 45.7 45.75C45.7 41.3274 48.1221 37.4479 51.7079 35.3504L52.2119 35.0556L52.0123 34.5069L49.7858 28.3839L49.2695 26.9642L48.5201 28.2758L38.2457 46.2582L38.2211 46.3014L38.2028 46.3476C38.0732 46.6744 37.8365 46.9475 37.5314 47.1221C37.2263 47.2966 36.8709 47.3623 36.5235 47.3083L36.4701 47.3H36.416H14.25C13.9785 47.3001 13.7117 47.2288 13.4764 47.0933C13.2411 46.9578 13.0455 46.7629 12.9092 46.5281C12.7729 46.2933 12.7006 46.0268 12.6997 45.7553C12.6987 45.4838 12.7691 45.2168 12.9037 44.981L16.8382 38.0964L17.2977 37.2924L16.3988 37.0696C15.7144 36.9 14.9965 36.8 14.25 36.8C9.31548 36.8 5.3 40.8139 5.3 45.75C5.3 50.6862 9.31548 54.7 14.25 54.7C16.9042 54.7 19.2897 53.5384 20.9288 51.7H24.7116C22.6353 55.3404 18.7259 57.8 14.25 57.8C7.6061 57.8 2.2 52.3939 2.2 45.75C2.2 39.1061 7.6061 33.7 14.25 33.7C15.6616 33.7 17.014 33.9577 18.2805 34.4094L18.8327 34.6063L19.1235 34.0972L24.6225 24.4703L24.8035 24.1534L24.6473 23.8236L22.4589 19.2005L22.2693 18.8H21.8262H20.25V18.8L20.2401 18.8001C20.0347 18.803 19.8308 18.7651 19.6402 18.6885C19.4495 18.6119 19.2761 18.4982 19.1298 18.3539L18.6383 18.8524L19.1298 18.3539C18.9835 18.2097 18.8673 18.0379 18.7881 17.8483C18.7088 17.6588 18.668 17.4555 18.668 17.25C18.668 17.0446 18.7088 16.8412 18.7881 16.6517C18.8673 16.4622 18.9835 16.2904 19.1298 16.1461C19.2761 16.0019 19.4495 15.8882 19.6402 15.8116C19.8308 15.735 20.0347 15.6971 20.2401 15.7V15.7H20.25H22.8838H22.9386L22.9927 15.6915C23.1525 15.6663 23.3153 15.6663 23.4751 15.6915L23.5292 15.7H23.584H29.25V15.7001L29.2599 15.7C29.4653 15.6971 29.6692 15.735 29.8598 15.8116C30.0505 15.8882 30.2239 16.0019 30.3702 16.1461C30.5165 16.2904 30.6327 16.4622 30.7119 16.6517L31.3577 16.3816L30.7119 16.6517C30.7912 16.8412 30.832 17.0446 30.832 17.25C30.832 17.4555 30.7912 17.6588 30.7119 17.8483L31.3577 18.1185L30.7119 17.8483C30.6327 18.0379 30.5165 18.2097 30.3702 18.3539L30.8617 18.8524L30.3702 18.3539C30.2239 18.4982 30.0505 18.6119 29.8598 18.6885C29.6692 18.7651 29.4653 18.803 29.2599 18.8001L29.2599 18.8H29.25H26.8066H25.7006L26.174 19.7997L27.5949 22.7997L27.7845 23.2H28.2275H46.9014ZM30.3574 26.3H29.2511L29.7248 27.2998L36.3049 41.1865L36.8796 42.3993L37.5453 41.234L45.4789 27.3473L46.0772 26.3H44.8711H30.3574ZM26.9969 28.7834L26.4222 27.5702L25.7564 28.7359L21.8189 35.6294L21.5288 36.1374L21.9772 36.5131C24.0999 38.2918 25.5923 40.7885 26.1 43.6234L26.2033 44.2H26.7891H33.1934H34.2995L33.826 43.2004L26.9969 28.7834ZM53.5797 38.8165L53.2637 37.9472L52.5129 38.4876C50.263 40.1071 48.8 42.7444 48.8 45.75C48.8 50.7197 52.7804 54.7 57.75 54.7C62.7196 54.7 66.7 50.7197 66.7 45.75C66.7 40.7804 62.7196 36.8 57.75 36.8C57.5408 36.8 57.3373 36.8146 57.1614 36.8271C57.1426 36.8285 57.1242 36.8298 57.1061 36.8311L56.1802 36.8963L56.4974 37.7685L59.2074 45.2217L59.2084 45.2245C59.279 45.4161 59.311 45.6198 59.3027 45.8238C59.2943 46.0279 59.2457 46.2282 59.1597 46.4135C59.0737 46.5987 58.9519 46.765 58.8014 46.903C58.6508 47.0411 58.4745 47.148 58.2826 47.2176C58.0906 47.2873 57.8868 47.3183 57.6827 47.309C57.4787 47.2996 57.2786 47.2501 57.0938 47.1631C56.909 47.0762 56.7432 46.9536 56.606 46.8024C56.4687 46.6512 56.3627 46.4744 56.2939 46.2821L56.2926 46.2784L53.5797 38.8165ZM20.6388 39.4946L19.9907 38.8329L19.531 39.637L17.5212 43.1526L16.9224 44.2H18.1289H22.1807H23.1072L22.854 43.3087C22.4401 41.8519 21.67 40.5475 20.6388 39.4946Z" fill="#0066CC" stroke="white" stroke-width="1.4"/>
</svg>
