<svg width="72" height="72" viewBox="0 0 72 72" fill="none" xmlns="http://www.w3.org/2000/svg">
  <path d="M27.4072 15.6971H27.4646L27.5213 15.6877C27.5893 15.6765 27.658 15.6698 27.7269 15.6677C27.8127 15.6674 27.8983 15.6741 27.983 15.6879L28.039 15.6971H28.0957H38.291C41.2103 15.6971 43.9541 17.1117 45.6521 19.488L45.8618 19.7814L45.8646 19.7814L51.5232 27.7028L51.6882 27.9338L51.9674 27.9846L63.3317 30.053L63.3942 30.0643L63.3952 30.0643C66.2251 30.6104 68.3 33.117 68.3 36.0059V41.6895C68.3 44.7697 66.4159 47.5543 63.5547 48.6977L63.5542 48.6978L61.0816 49.6881L60.7289 49.8293L60.6551 50.202C59.9703 53.662 56.8937 56.3 53.25 56.3C49.8243 56.3 46.9014 53.9658 45.9951 50.807L45.8497 50.3H45.3223H25.1777H24.6503L24.5049 50.807C23.5986 53.9658 20.6757 56.3 17.25 56.3C13.5664 56.3 10.4677 53.6015 9.82937 50.084L9.76679 49.7392L9.45321 49.5827L7.87411 48.7946L7.75349 48.7344C5.2691 47.436 3.7 44.8517 3.7 42.041V38.25V32.25C3.7 29.9719 4.4352 27.7547 5.80421 25.9287L5.80428 25.9286C5.98744 25.6842 6.18009 25.4272 6.38002 25.1604C7.89512 23.1388 9.82812 20.5596 11.2153 18.7101L11.2153 18.71C12.6389 16.8113 14.8801 15.6971 17.25 15.6971H27.4072ZM26.2 19.4971V18.7971H25.5H17.25C15.8423 18.7971 14.5369 19.4494 13.6958 20.5713C12.3878 22.3153 10.6598 24.6196 9.18992 26.5801L8.35032 27.7H9.75H25.5H26.2V27V19.4971ZM30 18.7971H29.3V19.4971V27V27.7H30H46.3506H47.7109L46.9202 26.5931L43.1321 21.2904L43.132 21.2903C42.0132 19.7246 40.2136 18.7971 38.291 18.7971H30ZM50.173 30.8113L50.111 30.8H50.0479H8.25C7.86239 30.8 7.49058 30.9376 7.21406 31.2141C6.93755 31.4906 6.8 31.8624 6.8 32.25V38.25V42.041C6.8 43.7302 7.74697 45.2643 9.25768 46.0213L9.40571 46.0955H9.40897L10.0415 46.4118L10.3378 45.7393C11.5124 43.0738 14.1805 41.2 17.25 41.2C20.6757 41.2 23.5986 43.5342 24.5049 46.6931L24.6503 47.2H25.1777H45.3223H45.8497L45.9951 46.6931C46.9014 43.5342 49.8243 41.2 53.25 41.2C56.3938 41.2 59.1145 43.1665 60.2424 45.935L60.5047 46.5789L61.1503 46.321L62.4042 45.82L62.4043 45.82C64.1002 45.1423 65.2 43.5172 65.2 41.6895V36.0059C65.2 34.565 64.1936 33.3607 62.7769 33.1024L62.7766 33.1023L50.173 30.8113ZM21.6765 48.6067L21.6812 48.5555L21.6785 48.5042C21.5509 46.1456 19.6505 44.3 17.25 44.3C14.8716 44.3 12.9876 46.1123 12.828 48.4384L12.8233 48.5077L12.8322 48.5766C12.8487 48.7038 12.8494 48.8326 12.8342 48.9601L12.8261 49.028L12.8313 49.0962C13.0075 51.4053 14.8833 53.2 17.25 53.2C19.6505 53.2 21.5509 51.3545 21.6785 48.9958L21.6812 48.9445L21.6765 48.8933C21.6676 48.798 21.6676 48.702 21.6765 48.6067ZM57.6647 48.5599L57.6741 48.489L57.6688 48.4176C57.4992 46.1021 55.6216 44.3 53.25 44.3C50.8495 44.3 48.9491 46.1456 48.8215 48.5042L48.8188 48.5555L48.8235 48.6067C48.8324 48.702 48.8324 48.798 48.8235 48.8933L48.8188 48.9445L48.8215 48.9958C48.9491 51.3545 50.8495 53.2 53.25 53.2C55.6117 53.2 57.4858 51.4127 57.6685 49.1101L57.6743 49.0366L57.6647 48.9636C57.6472 48.8296 57.6472 48.6939 57.6647 48.5599Z" fill="#0066CC" stroke="white" stroke-width="1.4"/>
</svg>
