<svg width="72" height="72" viewBox="0 0 72 72" fill="none" xmlns="http://www.w3.org/2000/svg">
  <path d="M31.9943 62.3093L31.938 62.3H31.8809H18.75C13.7787 62.3 9.7 58.2213 9.7 53.25V18.75C9.7 13.7787 13.7787 9.70004 18.75 9.70004L26.2497 9.70004C26.2497 9.70004 26.2498 9.70004 26.2498 9.70004C26.2499 9.70004 26.2499 9.70004 26.25 9.70004C26.5726 9.70025 26.8872 9.80112 27.1498 9.9886C27.1498 9.98862 27.1498 9.98864 27.1499 9.98866L37.6498 17.4886L37.6573 17.494L37.665 17.4992C37.8366 17.615 37.9832 17.764 38.0963 17.9373L38.6826 17.555L38.0963 17.9373C38.2093 18.1107 38.2865 18.305 38.3233 18.5087C38.3601 18.7123 38.3557 18.9213 38.3104 19.1233C38.2651 19.3253 38.1799 19.5161 38.0596 19.6846C37.9394 19.8531 37.7867 19.9958 37.6104 20.1043C37.4341 20.2128 37.2379 20.2849 37.0333 20.3163C36.8288 20.3478 36.62 20.338 36.4193 20.2874C36.2185 20.2369 36.03 20.1467 35.8647 20.0221L35.8575 20.0167L35.8502 20.0115L25.9361 12.9304L25.7536 12.8H25.5293H18.75C15.4383 12.8 12.8 15.4384 12.8 18.75V53.25C12.8 56.5617 15.4383 59.2 18.75 59.2H30H30.7V58.5V40.5V39.8H30H23.25V39.8L23.2401 39.8001C23.0347 39.803 22.8308 39.7651 22.6402 39.6885C22.4495 39.6119 22.2761 39.4982 22.1298 39.3539C21.9835 39.2097 21.8673 39.0379 21.7881 38.8483C21.7088 38.6588 21.668 38.4555 21.668 38.25C21.668 38.0446 21.7088 37.8412 21.7881 37.6517C21.8673 37.4622 21.9835 37.2904 22.1298 37.1461C22.2761 37.0019 22.4495 36.8882 22.6402 36.8116C22.8308 36.735 23.0347 36.6971 23.2401 36.7L23.2401 36.7H23.25H39.75V36.7001L39.7599 36.7C39.9653 36.6971 40.1692 36.735 40.3598 36.8116C40.5505 36.8882 40.7239 37.0019 40.8702 37.1461L41.3617 36.6477L40.8702 37.1461C41.0165 37.2904 41.1327 37.4622 41.2119 37.6517C41.2912 37.8412 41.332 38.0446 41.332 38.25C41.332 38.4555 41.2912 38.6588 41.2119 38.8483C41.1327 39.0379 41.0165 39.2097 40.8702 39.3539L41.3167 39.8067L40.8702 39.3539C40.7239 39.4982 40.5505 39.6119 40.3598 39.6885C40.1692 39.7651 39.9653 39.803 39.7599 39.8001L39.7599 39.8H39.75H34.5H33.8V40.5V58.5V59.2H34.5H53.25C56.5617 59.2 59.2 56.5617 59.2 53.25V40.5V39.8H58.5H51.75V39.8L51.7401 39.8001C51.5347 39.803 51.3308 39.7651 51.1402 39.6885C50.9495 39.6119 50.7761 39.4982 50.6298 39.3539C50.4835 39.2097 50.3674 39.0379 50.2881 38.8484C50.2088 38.6588 50.168 38.4555 50.168 38.25C50.168 38.0446 50.2088 37.8412 50.2881 37.6517C50.3673 37.4622 50.4835 37.2904 50.6298 37.1461C50.7761 37.0019 50.9496 36.8882 51.1402 36.8116C51.3308 36.735 51.5347 36.6971 51.7401 36.7V36.7H51.75H58.5H59.2V36V18.75C59.2 15.4384 56.5617 12.8 53.25 12.8H45.75V12.8L45.7401 12.8001C45.5347 12.803 45.3308 12.7651 45.1402 12.6885C44.9495 12.6119 44.7761 12.4982 44.6298 12.3539L44.1479 12.8427L44.6298 12.3539C44.4835 12.2097 44.3673 12.0379 44.2881 11.8483C44.2088 11.6588 44.168 11.4555 44.168 11.25C44.168 11.0446 44.2088 10.8412 44.2881 10.6517C44.3673 10.4622 44.4835 10.2904 44.6298 10.1461L44.1383 9.64768L44.6298 10.1461C44.7761 10.0019 44.9495 9.8882 45.1402 9.81161L44.8792 9.16209L45.1402 9.81161C45.3308 9.73501 45.5347 9.69707 45.7401 9.69997V9.70004H45.75H53.25C58.2213 9.70004 62.3 13.7787 62.3 18.75V53.25C62.3 58.2213 58.2213 62.3 53.25 62.3H32.6104H32.5532L32.4969 62.3093C32.3305 62.3366 32.1607 62.3366 31.9943 62.3093Z" fill="#0066CC" stroke="white" stroke-width="1.4"/>
</svg>
