<svg xmlns="http://www.w3.org/2000/svg" viewBox="0 0 72 72">
  <path fill="#06c" d="M7.08 53.42a1.07 1.07 0 01.24-1.56c.18-.1.38-.17.58-.17a1.11 1.11 0 01.83.42c6.08 7.6 15.65 11.61 27.69 11.61a1.03 1.03 0 01.77.3c.1.1.17.22.22.34a1.07 1.07 0 01.01.81 1.1 1.1 0 01-.58.58c-.12.05-.27.07-.42.07-12.52 0-22.93-4.4-29.34-12.4zm39.05 10.56a1.14 1.14 0 00.74.35c.1 0 .25-.02.4-.06 5.19-1.73 12.62-4.75 17-10.89a1.06 1.06 0 00-.29-1.53c-.15-.1-.34-.15-.55-.16a1.07 1.07 0 00-.86.46c-3.03 4.24-8.25 7.55-15.99 10.12-.11.04-.25.12-.36.22a1.05 1.05 0 00-.3 1.11c.04.14.12.26.21.38zm-34.76-20.2c0 8.15 10.67 14.54 24.3 14.54s24.3-6.39 24.3-14.55c0-4.24-2.93-8.15-8.1-10.9-.01.88.07 1.71.25 2.56 3.71 2.3 5.75 5.26 5.75 8.34 0 6.87-9.96 12.45-22.2 12.45s-22.2-5.58-22.2-12.45c0-3.4 2.44-6.58 6.87-8.96a1.2 1.2 0 011.75.9c.26 1.9.76 3.69 1.53 5.48.11.25.31.45.58.56a1.04 1.04 0 001.35-1.4c-2.35-5.44-1.7-9.26-.77-13 .13-.53.28-1.05.42-1.58.81-3 1.66-6.1.36-9.38a.96.96 0 00-.38-.5 1.1 1.1 0 00-.6-.2 1.06 1.06 0 00-1.05.94 1 1 0 00.07.5c1 2.55.35 5.06-.47 8.23l-.38 1.47a28.5 28.5 0 00-.75 4.2 1.2 1.2 0 01-.71.98c-6.3 2.75-9.92 7.03-9.92 11.76zm18.08-11.95a38.46 38.46 0 012.16-.29 1.2 1.2 0 011.2 1.14c.13 2.73.74 5.5 1.87 8.46a1.08 1.08 0 00.55.59c.13.05.28.09.41.1.14 0 .26-.03.38-.07a.97.97 0 00.37-.23c.1-.09.18-.2.23-.33a1.03 1.03 0 00.03-.8c-3-7.86-1.86-11.68-.54-16.11l.1-.32c1.26-4.24 2.7-9.05.46-16.51a1.04 1.04 0 00-1.5-.67 1 1 0 00-.36.31 1.03 1.03 0 00-.15.94c2.07 6.93.97 10.58-.3 14.8l-.26.84a33.41 33.41 0 00-1.08 4.69 1.2 1.2 0 01-1.08 1.02c-.7.06-1.43.14-2.15.24-.15.7-.27 1.44-.34 2.2zm15.8-5c-.17.67-.33 1.4-.46 2.15a1.2 1.2 0 01-1.41.97 42.6 42.6 0 00-2.97-.46c-.11.72-.16 1.41-.16 2.1 1.09.14 2.16.32 3.2.54.55.12.94.6.95 1.16.03 2.7.6 5.28 1.72 7.9.06.15.13.27.23.36a1.01 1.01 0 00.73.32 1.05 1.05 0 001-.67 1.03 1.03 0 00-.03-.83c-2.34-5.46-1.7-9.28-.77-13.03l.42-1.57c.8-3 1.65-6.1.36-9.38a1.08 1.08 0 00-.39-.5 1.08 1.08 0 00-.59-.2 1 1 0 00-.48.11c-.17.1-.3.21-.4.36-.1.13-.16.3-.18.47-.01.17.01.35.07.5 1 2.54.35 5.05-.47 8.22l-.38 1.48z"/>
</svg>
