<svg xmlns="http://www.w3.org/2000/svg" viewBox="0 0 72 72">
  <path fill="#06c" d="M67.16 22.1c.2-.2.3-.46.3-.74 0-.28-.1-.55-.3-.75l-3.7-3.7a1.2 1.2 0 010-1.7l3.7-3.72c.2-.2.3-.46.3-.74 0-.28-.1-.54-.3-.74l-5.3-5.3c-.4-.4-1.1-.4-1.49 0l-3.7 3.7a1.2 1.2 0 01-1.7 0l-3.72-3.7a1.03 1.03 0 00-.76-.32c-.27 0-.53.12-.72.31l-3.71 3.71a1.2 1.2 0 01-1.7 0l-.53-.53a1.03 1.03 0 00-1.14-.23c-.13.06-.25.13-.35.23l-5.3 5.3a1.04 1.04 0 000 1.49l5.82 5.82a1.2 1.2 0 010 1.7L21.68 43.44a1.2 1.2 0 01-1.7 0l-5.85-5.86c-.4-.39-1.1-.4-1.49 0l-5.3 5.3a1.03 1.03 0 00-.3.75 1.04 1.04 0 00.3.74l.53.53a1.2 1.2 0 010 1.7l-3.7 3.71c-.2.2-.32.47-.32.74 0 .28.11.55.31.75l3.71 3.7a1.2 1.2 0 010 1.7l-3.7 3.72a1.06 1.06 0 000 1.48l5.3 5.3c.38.4 1.09.4 1.48 0l3.71-3.7a1.2 1.2 0 011.7 0l3.7 3.7a1.06 1.06 0 001.5 0l3.7-3.7a1.2 1.2 0 011.7 0l.53.52a1.07 1.07 0 001.15.23.98.98 0 00.34-.23l5.3-5.3a1.04 1.04 0 000-1.49l-5.8-5.8a1.2 1.2 0 010-1.7l21.17-21.25a1.2 1.2 0 011.7 0l5.84 5.84c.4.4 1.1.4 1.49 0l5.3-5.3c.2-.2.3-.47.3-.75 0-.27-.1-.54-.3-.74l-.53-.53a1.2 1.2 0 010-1.7l3.71-3.7zM58.15 9.9l2.12-2.12a1.2 1.2 0 011.7 0l2.12 2.12a1.2 1.2 0 010 1.7l-2.12 2.12a1.2 1.2 0 01-1.7 0l-2.12-2.12a1.2 1.2 0 010-1.7zM13.18 62.5l-2.13 2.13a1.2 1.2 0 01-1.7 0l-2.1-2.13a1.2 1.2 0 010-1.7l2.12-2.12a1.2 1.2 0 011.7 0l2.12 2.12a1.2 1.2 0 010 1.7zm10.6 0l-2.12 2.13a1.2 1.2 0 01-1.7 0L7.25 51.9a1.2 1.2 0 010-1.7l2.12-2.12a1.2 1.2 0 011.7 0l12.72 12.73a1.2 1.2 0 010 1.7zm7.43-4.87a1.2 1.2 0 010 1.7l-2.12 2.11a1.2 1.2 0 01-1.7 0L10.42 44.48a1.2 1.2 0 010-1.7l2.12-2.11a1.2 1.2 0 011.7 0l5.7 5.7.1.1L31.2 57.64zm16.96-30.14L26.99 48.74a1.2 1.2 0 01-1.7 0l-2.12-2.12a1.2 1.2 0 010-1.7l21.17-21.24a1.2 1.2 0 011.7 0l2.12 2.11a1.2 1.2 0 010 1.7zm12.74 2.13l-2.13 2.12a1.2 1.2 0 01-1.7 0L40.13 14.78a1.2 1.2 0 010-1.7l2.12-2.12a1.2 1.2 0 011.7 0l.45.45-.77.93.84-.85L60.9 27.92a1.2 1.2 0 010 1.7zm1.06-5.3a1.2 1.2 0 01-1.7 0L47.54 11.6a1.2 1.2 0 010-1.7l2.12-2.11a1.2 1.2 0 011.7 0l3.67 3.68.09.08 8.97 8.97a1.2 1.2 0 010 1.7l-2.12 2.11z"/>
</svg>
