<svg xmlns="http://www.w3.org/2000/svg" viewBox="0 0 72 72">
  <path fill="#06c" d="M25.17 64.25a1.05 1.05 0 111.49 0c-.4.4-1.1.4-1.5 0zM58.5 37.7c-.23.29-.3.67-.21 1.03a4.81 4.81 0 01-2.21 5.35c-.69.39-5.2 2.99-10.06 6.46-1.3.93-3.38 2.59-5.3 4.43-1.68 1.6-3.34 3.6-3.8 4.56l-.04.11-2.44 6.91a1.06 1.06 0 01-.95.72.83.83 0 01-.4-.06 1.05 1.05 0 01-.36-.2c-.1-.1-.18-.22-.24-.35a1 1 0 01-.1-.4c0-.13.02-.28.08-.43l1.73-4.91a1.2 1.2 0 00-.73-1.53L21.62 55.2a1.2 1.2 0 00-1.53.73l-1.74 4.93a1.1 1.1 0 01-.2.35 1 1 0 01-.75.36 1 1 0 01-.75-.27 1.02 1.02 0 01-.27-1.16l2.02-5.7a1.2 1.2 0 00-.19-1.15 7.97 7.97 0 01-1.5-3.78l-.12-.77a17.55 17.55 0 00-1.37-5.11l-.1-.25a6.42 6.42 0 01-.76-2.69c-.01-.62.09-1.28.29-1.9a1.2 1.2 0 00-1.14-1.57H6.4a1.02 1.02 0 01-.77-.3c-.1-.1-.18-.22-.23-.33a1.08 1.08 0 010-.82 1.1 1.1 0 01.58-.57c.12-.05.26-.08.42-.08h15.03a1.2 1.2 0 00.96-1.92 9.91 9.91 0 01-2.04-6.03v-18a4.1 4.1 0 014.05-4.05h22.5a4.1 4.1 0 014.05 4.05v.75c0 .66.54 1.2 1.2 1.2h4.09c2.01 0 3.71 1.7 3.71 3.72v2.66a7.74 7.74 0 01-7.8 7.72c-.66 0-1.2.54-1.2 1.2v.75c0 2.18-.7 4.27-2.04 6.03a1.2 1.2 0 00.96 1.92H64.9a1.04 1.04 0 01.77.3 1.08 1.08 0 01.24 1.14 1.1 1.1 0 01-.58.59c-.13.05-.27.07-.43.07h-5.46c-.37 0-.72.17-.95.47zm-7.54-15.77c0 .66.62 1.2 1.29 1.2a5.56 5.56 0 005.61-5.62v-2.66c0-.92-.7-1.62-1.61-1.62h-4.09c-.66 0-1.2.54-1.2 1.2v7.5zm-20.55 13.2h10.5a7.96 7.96 0 007.95-7.95v-18a1.9 1.9 0 00-1.95-1.95h-22.5a1.9 1.9 0 00-1.95 1.95v18a7.96 7.96 0 007.95 7.95zm12.8 3.01a1.2 1.2 0 00-1.17-.9H26.27a1.2 1.2 0 00-1.01 1.83l.07.12.16.24a24.3 24.3 0 002.66 3.5c1.11 1.12 2.02 1.2 3.1 1.2h.66c.51 0 3.28-.92 5.49-1.96 1.67-.8 3.41-1.72 5.2-2.68.49-.26.74-.82.6-1.35zm12.97.82a2.7 2.7 0 00-2.55-1.73c-1.25 0-3.16.65-4.4 1.2-1.22.53-2.26 1.1-2.95 1.48l-.52.28c-2.21 1.19-4.97 2.68-7.46 3.87l-.55.26c-2.22 1.07-3.98 1.91-5.84 1.91-1.6 0-3.64-.2-5.24-1.8a24.04 24.04 0 01-2.94-3.85c-.42-.64-.77-1.2-1.02-1.63l-.26-.43a3.45 3.45 0 00-2.46-1.29h-.39a3.5 3.5 0 00-2.07.86 3.08 3.08 0 00-1.07 2.57 6.3 6.3 0 00.68 2.12c1.02 2.28 1.32 4.27 1.54 5.72l.1.67c.23 1.38.38 2.3 1.45 3.23.11.1.24.17.39.22l13.94 4.93a1.2 1.2 0 001.38-.43c.94-1.31 2.2-2.6 3.33-3.67a53.88 53.88 0 015.53-4.62 128.62 128.62 0 0110.26-6.58 2.68 2.68 0 001.12-3.29z"/>
</svg>
