<svg xmlns="http://www.w3.org/2000/svg" viewBox="0 0 72 72">
  <path fill="#06c" d="M51.38 24.88a6.23 6.23 0 01-1.77-4.07c0-1.62.86-2.8 1.54-3.76l.16-.22c.95-1.34 1.3-2.1 1.3-2.77 0-1.02-.27-1.59-.51-1.96a1.2 1.2 0 00-.48-.5c-.2-.13-.36-.31-.46-.53a1.04 1.04 0 01.35-1.24c.18-.13.4-.2.6-.2h.05a1 1 0 01.48.12s.67.42 1.12 1.06c.29.4.95 1.53.95 3.25 0 1.64-.85 2.82-1.54 3.77l-.15.22c-.96 1.34-1.3 2.1-1.3 2.76 0 1.22.26 1.64.93 2.37l.32.34c.1.1.17.22.21.36a1.03 1.03 0 01-.29 1.14 1 1 0 01-.36.2.94.94 0 01-.37.07 1.33 1.33 0 01-.42-.11 1.17 1.17 0 01-.36-.3zm-15.4.3c.11.05.26.1.43.1.1.02.23 0 .37-.05a1.04 1.04 0 00.44-1.7l-.32-.35c-.67-.73-.94-1.15-.94-2.37 0-.67.35-1.42 1.3-2.76l.16-.22c.69-.95 1.54-2.13 1.54-3.77 0-1.72-.66-2.84-.95-3.25a4.45 4.45 0 00-1.12-1.06c-.12-.07-.3-.11-.48-.12h-.05a1.04 1.04 0 00-.95 1.44c.1.22.26.4.46.52.21.12.37.3.48.5.24.38.51.95.51 1.97 0 .68-.35 1.43-1.3 2.77l-.16.22c-.68.95-1.54 2.14-1.54 3.76 0 2.1 1.33 3.58 1.77 4.07.11.14.22.23.36.3zm-15.74 0c.1.05.25.1.42.1.1.02.23 0 .37-.05a1.04 1.04 0 00.44-1.7l-.32-.35c-.67-.73-.94-1.15-.94-2.37 0-.67.35-1.42 1.3-2.76l.16-.22c.69-.95 1.54-2.13 1.54-3.77 0-1.72-.66-2.84-.95-3.25a4.45 4.45 0 00-1.12-1.06c-.12-.07-.3-.11-.48-.12h-.05a1.04 1.04 0 00-.95 1.44c.1.22.26.4.46.52.21.12.37.3.48.5.24.38.51.95.51 1.97 0 .68-.35 1.43-1.3 2.77l-.16.22c-.68.95-1.54 2.14-1.54 3.76 0 2.1 1.33 3.58 1.77 4.07.11.14.22.23.36.3zm-1.2 36.06c-.51 0-.97.33-1.13.81a1.08 1.08 0 01-1.09.7 1.08 1.08 0 01-.65-.3 1.01 1.01 0 01-.3-.61 1.2 1.2 0 00-.87-1.02 8.44 8.44 0 01-6.19-6.68L5.56 35.18a1.2 1.2 0 00-.93-.97 1.04 1.04 0 01-.79-1.14c.03-.26.16-.5.36-.67a1 1 0 01.67-.26h61.56c.23 0 .5.09.7.27a1.04 1.04 0 01.17 1.38c-.15.21-.37.37-.61.42-.48.1-.84.49-.93.97l-3.25 18.96a8.44 8.44 0 01-6.19 6.69 1.2 1.2 0 00-.87 1c-.03.24-.13.46-.3.63-.18.17-.4.27-.62.3a1.1 1.1 0 01-.67-.15 1.1 1.1 0 01-.44-.56 1.2 1.2 0 00-1.14-.8H19.04zm35.01-2.1l.16-.01a6.44 6.44 0 006.24-5.35l3.1-18.14a1.2 1.2 0 00-1.18-1.4H8.95a1.2 1.2 0 00-1.18 1.4l3.1 18.14a6.44 6.44 0 006.41 5.36h36.77z"/>
</svg>
