<svg xmlns="http://www.w3.org/2000/svg" viewBox="0 0 72 72">
  <path fill="#06c" d="M61.35 34.37l-4.2-21a5.56 5.56 0 00-5.44-4.46h-32.1a5.56 5.56 0 00-5.44 4.46l-4.2 21a5.51 5.51 0 001.17 4.59A5.52 5.52 0 0015.41 41h5.25c.66 0 1.2.53 1.2 1.2v3.75a1.08 1.08 0 00.3.76c.1.1.22.19.36.25.21.08.54.1.82-.02.1-.04.22-.13.33-.23a1.06 1.06 0 00.3-.75v-3.76c0-.67.53-1.2 1.2-1.2h8.24c.66 0 1.2.53 1.2 1.2v18c0 .66-.54 1.2-1.2 1.2h-9.75c-.16 0-.3.02-.43.07a1.1 1.1 0 00-.58.58 1.05 1.05 0 00.24 1.14 1.02 1.02 0 00.77.3h24c.16 0 .3-.02.43-.07a1.11 1.11 0 00.58-.58 1.05 1.05 0 00-.24-1.14c-.1-.1-.22-.18-.34-.23a1.16 1.16 0 00-.43-.07h-9.75a1.2 1.2 0 01-1.2-1.2v-18c0-.67.54-1.2 1.2-1.2h18c1.65 0 3.2-.75 4.27-2.05a5.51 5.51 0 001.17-4.59zm-2.75 3.3a3.45 3.45 0 01-2.7 1.24H36.03l-.2-.02a1.08 1.08 0 00-.33 0 1.2 1.2 0 01-.2.02H15.41a3.45 3.45 0 01-2.69-1.25 3.45 3.45 0 01-.7-2.88l4.21-21a3.42 3.42 0 013.38-2.77h32.1a3.42 3.42 0 013.38 2.77l4.2 21c.21 1.04-.04 2.1-.7 2.88z"/>
</svg>
