<svg xmlns="http://www.w3.org/2000/svg" viewBox="0 0 72 72">
  <path fill="#06c" d="M58.91 63.88a9.31 9.31 0 000-18.6c-.35 0-.7.03-1.05.06a1.2 1.2 0 01-1.23-.72 19.12 19.12 0 00-3.46-5.29 1.2 1.2 0 01-.1-1.47l4.27-8.97a1.2 1.2 0 011.3-.67l2.46.45a2.2 2.2 0 10.4-4.39H50.86a1.25 1.25 0 00-.21 2.5l3.4.61a1.2 1.2 0 01.88 1.7l-3.2 6.7a1.2 1.2 0 01-1.8.44 34.62 34.62 0 00-9.52-4.86 46.2 46.2 0 00-10.16-2.33 1.2 1.2 0 01-.95-1.7l4.3-9.06a1.02 1.02 0 00-.1-1.1 1.11 1.11 0 00-.44-.35 1.16 1.16 0 00-.57-.06l-.17.01h-3.03a3.05 3.05 0 01-3.08-3.08 3.04 3.04 0 013.08-3.07h9.55c.16 0 .3-.03.42-.07a1.11 1.11 0 00.58-.58 1.05 1.05 0 00-.23-1.14c-.1-.1-.23-.19-.35-.24a1.16 1.16 0 00-.42-.07h-9.55a5.18 5.18 0 00-5.18 5.17 5.2 5.2 0 005.04 5.14 1.2 1.2 0 011.05 1.72L23.42 34.8a1.2 1.2 0 01-1.44.63A14.57 14.57 0 003.1 49.34c0 8.01 6.53 14.54 14.55 14.54S32.2 57.35 32.2 49.33c0-4.85-2.42-9.37-6.49-12.1a1.2 1.2 0 01-.42-1.5l1.96-4.13c.2-.41.63-.68 1.09-.68h.1c1.3.11 5.93.6 11.28 2.44 5.22 1.78 12.03 5.28 14.86 11.78.24.55.03 1.2-.48 1.5a9.35 9.35 0 00-4.5 7.94 9.3 9.3 0 009.3 9.3zm-28.8-14.55a12.46 12.46 0 11-12.45-12.45c1 0 2.02.13 3 .38a1.2 1.2 0 01.8 1.68l-4.75 9.94c-.08.16-.12.3-.13.44a1.06 1.06 0 00.6 1.04 1 1 0 00.39.1 1.08 1.08 0 001.03-.64l4.75-10a1.2 1.2 0 011.8-.44c3.15 2.38 4.96 6 4.96 9.95zm28.8-1.95a7.2 7.2 0 11-.02 14.42 7.2 7.2 0 01.02-14.42z"/>
</svg>
