<svg xmlns="http://www.w3.org/2000/svg" viewBox="0 0 72 72">
  <path fill="#06c" d="M68.96 54.2a4 4 0 00-1.19-2.86 4.04 4.04 0 00-6.52 1.13c-.19.42-.61.69-1.08.69h-9.6a1.2 1.2 0 01-.67-2.2 25.92 25.92 0 0011.5-20.07 1.2 1.2 0 011.2-1.13h.81a2.58 2.58 0 002.55-2.55v-6a2.58 2.58 0 00-2.55-2.55h-6a2.58 2.58 0 00-2.55 2.55v6a2.58 2.58 0 002.55 2.55h.69a1.2 1.2 0 011.2 1.27A23.64 23.64 0 0143.55 51.8a1.2 1.2 0 01-1.6-1.13v-.95a2.58 2.58 0 00-2.55-2.55h-7.5a2.58 2.58 0 00-2.55 2.55v.94a1.2 1.2 0 01-1.6 1.14 23.64 23.64 0 01-15.73-20.76 1.2 1.2 0 011.2-1.27h.68a2.58 2.58 0 002.55-2.55v-6a2.58 2.58 0 00-2.55-2.55h-6a2.58 2.58 0 00-2.55 2.55v6a2.58 2.58 0 002.55 2.55h.8c.63 0 1.16.5 1.2 1.13a25.9 25.9 0 0011.62 20.06 1.2 1.2 0 01-.66 2.2h-9.72a1.2 1.2 0 01-1.08-.68 4.04 4.04 0 100 3.47c.2-.42.61-.68 1.08-.68h17.01c.66 0 1.2.53 1.2 1.2v.75a2.58 2.58 0 002.55 2.55h7.5a2.58 2.58 0 002.55-2.55v-.75c0-.67.54-1.2 1.2-1.2h17.01c.46 0 .89.26 1.09.68.32.7.84 1.28 1.49 1.69a4.1 4.1 0 005.02-.56 4.02 4.02 0 001.2-2.86zm-10.8-26.54a1.2 1.2 0 01-1.2-1.2v-4.5c0-.67.54-1.2 1.2-1.2h4.5c.66 0 1.2.53 1.2 1.2v4.5c0 .66-.54 1.2-1.2 1.2h-4.5zm-49.5 0a1.2 1.2 0 01-1.2-1.2v-4.5c0-.67.54-1.2 1.2-1.2h4.5c.66 0 1.2.53 1.2 1.2v4.5c0 .66-.54 1.2-1.2 1.2h-4.5zm31.2 26.18c0 .06 0 .13-.02.2v.33c.02.06.02.13.02.2v1.89c0 .66-.54 1.2-1.2 1.2h-6a1.2 1.2 0 01-1.2-1.2v-1.91c0-.06 0-.12.02-.18v-.33a1.14 1.14 0 01-.02-.18v-3.4c0-.67.54-1.2 1.2-1.2h6c.66 0 1.2.53 1.2 1.2v3.38zm3.57-40.66a1.04 1.04 0 00-.92-.52h-13.7a1.05 1.05 0 00-.91.52l-3.54 6.15a7.45 7.45 0 00.1 7.62l.03.05 7.94 12.94c.47.78 1.26 1.28 2.41 1.52.12.03.23.07.33.12.15.09.32.13.5.13.17 0 .34-.05.49-.13.1-.05.2-.1.32-.12 1.15-.24 1.94-.74 2.42-1.52l7.96-13a7.45 7.45 0 00.1-7.6l-3.53-6.16zM45.1 25.8l-.04.06-6.14 10.02a1.2 1.2 0 01-2.22-.63V22.7a1.07 1.07 0 00-.3-.77 1.06 1.06 0 00-1.5 0 1.05 1.05 0 00-.3.75v12.55a1.2 1.2 0 01-2.22.63l-6.14-10.02a5.36 5.36 0 01-.07-5.47l2.89-5.02c.21-.38.6-.6 1.04-.6h11.1c.44 0 .83.22 1.05.6l2.89 5.02.04.08c.92 1.67.9 3.7-.08 5.33z"/>
</svg>
