<svg xmlns="http://www.w3.org/2000/svg" viewBox="0 0 72 72">
  <path fill="#06c" d="M61.15 61.69a1.06 1.06 0 00.3-.75V35.8l.01-.2c.02-.11.02-.22 0-.34a1.21 1.21 0 01-.02-.2V11.44c0-.28-.1-.55-.3-.74-.2-.2-.47-.31-.75-.31h-4.5a5.56 5.56 0 00-5.55 5.55v5.25c0 .66-.53 1.2-1.2 1.2H34.9a8.56 8.56 0 00-8.55 8.55v3.88c0 .5-.32.96-.8 1.13a.89.89 0 00-.17.08l-9.87 5.92a11.7 11.7 0 00-5.66 9.99 1.06 1.06 0 001.05 1.05h9.75c.67 0 1.2.53 1.2 1.2v2.25a5.56 5.56 0 0011.1 0v-2.25c0-.67.54-1.2 1.2-1.2h9.75c.28 0 .55-.12.75-.31.2-.2.3-.46.3-.74 0-4.07-2.16-7.9-5.65-10l-9.86-5.9a.9.9 0 00-.18-.1 1.2 1.2 0 01-.8-1.12v-3.88a6.38 6.38 0 016.44-6.45h14.25c.67 0 1.2.53 1.2 1.2v5.25a5.56 5.56 0 005.55 5.55h2.25c.67 0 1.2.53 1.2 1.2v23.25a1.08 1.08 0 00.3.76c.1.1.23.19.37.25.2.08.53.1.8-.02.11-.04.23-.13.34-.23zm-30.3-5.26c0 1.93-1.52 3.45-3.46 3.45s-3.45-1.52-3.45-3.45v-2.25c0-.67.54-1.2 1.2-1.2h4.5c.67 0 1.2.53 1.2 1.2v2.25zm-1.96-18.28l9.32 5.59c1.9 1.14 3.24 3.03 4 5.6a1.2 1.2 0 01-1.16 1.54H13.74a1.2 1.2 0 01-1.16-1.54c.75-2.57 2.1-4.46 4-5.6l9.32-5.6c.19-.1.4-.16.62-.16h1.75c.22 0 .43.06.62.17zm30.45-4.97c0 .66-.53 1.2-1.2 1.2H55.9a3.41 3.41 0 01-3.45-3.45v-7.14c0-.07 0-.13.02-.2.02-.11.02-.22 0-.34a1.21 1.21 0 01-.02-.2v-7.12a3.41 3.41 0 013.45-3.45h2.25c.67 0 1.2.53 1.2 1.2v19.5z"/>
</svg>
