<svg xmlns="http://www.w3.org/2000/svg" viewBox="0 0 72 72">
  <path fill="#06c" d="M17.64 40c-.1-.1-.18-.22-.23-.33a1.08 1.08 0 010-.82 1.1 1.1 0 01.57-.57c.13-.05.27-.08.43-.08h4.5a1.04 1.04 0 01.77.3 1.08 1.08 0 01.24 1.14 1.11 1.11 0 01-.58.59c-.13.05-.27.07-.43.07h-4.5c-.16 0-.3-.02-.43-.07a1.02 1.02 0 01-.34-.23zm45.2-26.98c-.16.5-.47.95-.9 1.28-.3.23-.48.58-.48.95v46.52a1.06 1.06 0 01-.63.98c-.27.1-.6.1-.8.01a1.17 1.17 0 01-.37-.24 1.08 1.08 0 01-.3-.76V59.5c0-.66-.54-1.2-1.2-1.2h-45c-.66 0-1.2.54-1.2 1.2v2.27a1.06 1.06 0 01-.63.98c-.27.1-.6.1-.8.01a1.17 1.17 0 01-.37-.24 1.08 1.08 0 01-.3-.76V15.23c0-.38-.18-.73-.48-.96a2.55 2.55 0 01.05-4.1c.87-.63 2.1-.63 2.97 0a2.57 2.57 0 01.94 2.84c-.16.5-.47.95-.9 1.28-.3.23-.48.58-.48.95v2.25c0 .67.54 1.2 1.2 1.2h45c.66 0 1.2-.53 1.2-1.2v-2.26c0-.38-.18-.73-.48-.96a2.55 2.55 0 01.05-4.1c.87-.63 2.1-.63 2.97 0a2.57 2.57 0 01.94 2.84zM59.36 22c0-.66-.54-1.2-1.2-1.2h-45c-.66 0-1.2.54-1.2 1.2v33c0 .67.54 1.2 1.2 1.2h45c.66 0 1.2-.53 1.2-1.2V22z"/>
</svg>
