<svg xmlns="http://www.w3.org/2000/svg" viewBox="0 0 72 72">
  <path fill="#06c" d="M27.94 50.88a1 1 0 00.22.34c.1.1.22.19.36.25.21.08.54.1.82-.02.1-.04.22-.13.33-.23a1.06 1.06 0 00.3-.75v-8.26c0-.67.53-1.2 1.2-1.2h6a9.31 9.31 0 000-18.6H28.9a1.04 1.04 0 00-1.05 1.05v16.13c0 .06 0 .13-.02.2v.33c.02.06.02.13.02.2v10.14c0 .15.02.29.08.42zm2.02-25.17c0-.67.54-1.2 1.2-1.2h6a7.2 7.2 0 010 14.4h-6a1.2 1.2 0 01-1.2-1.2v-12zm22.95-15.3h-34.5a8.56 8.56 0 00-8.55 8.55v34.5A8.56 8.56 0 0018.41 62h34.5a8.56 8.56 0 008.55-8.55v-34.5a8.56 8.56 0 00-8.55-8.55zm6.45 43.05a6.38 6.38 0 01-6.45 6.45h-34.5a6.38 6.38 0 01-6.45-6.45v-34.5a6.38 6.38 0 016.45-6.45h34.5a6.38 6.38 0 016.45 6.45v34.5z"/>
</svg>
