<svg xmlns="http://www.w3.org/2000/svg" viewBox="0 0 72 72">
  <path fill="#06c" d="M37.93 64.98a2.58 2.58 0 002.55-2.55v-10.5a2.58 2.58 0 00-2.55-2.55h-3.75a1.2 1.2 0 01-1.2-1.2v-.75a1.06 1.06 0 00-1.05-1.05h-4.5a1.03 1.03 0 00-1.05 1.05v.75c0 .66-.54 1.2-1.2 1.2h-3.75a2.58 2.58 0 00-2.55 2.55v10.5a2.58 2.58 0 002.55 2.55h16.5zm-16.95-3.3v-9c0-.67.53-1.2 1.2-1.2h15c.66 0 1.2.53 1.2 1.2v9c0 .66-.54 1.2-1.2 1.2h-15a1.2 1.2 0 01-1.2-1.2zm37.59-52.9a4.77 4.77 0 010 6.8 4.78 4.78 0 01-6.79-.01 4.81 4.81 0 016.79-6.79zm4.22 35.52a1.1 1.1 0 01-.52.4c-.48.17-.8.62-.8 1.13v18.11a1.06 1.06 0 01-.62.98c-.28.11-.6.1-.81.02a1.17 1.17 0 01-.37-.25 1.05 1.05 0 01-.3-.75v-.2l-3-18.75a1.2 1.2 0 00-2.38 0l-3 18.75a1.2 1.2 0 00-.01.2 1.06 1.06 0 01-.63.98c-.28.11-.6.1-.81.02a1.17 1.17 0 01-.37-.25 1.08 1.08 0 01-.3-.76v-18.1c0-.5-.31-.96-.79-1.13-.21-.08-.4-.22-.51-.38a1.1 1.1 0 01-.2-.64V29.43a7.06 7.06 0 017.06-7.05h1.5a7.06 7.06 0 017.05 7.05v14.26c0 .22-.07.44-.19.61zM25.57 8.78a4.77 4.77 0 010 6.8 4.78 4.78 0 01-6.79-.01 4.81 4.81 0 016.79-6.79zM9.43 37.98a1.04 1.04 0 01-.77-.3 1.07 1.07 0 01-.24-1.14 1.1 1.1 0 01.58-.59c.12-.05.27-.07.43-.07h3.75c.66 0 1.2-.54 1.2-1.2v-5.25a7.06 7.06 0 017.05-7.05h1.5a7.06 7.06 0 017.05 7.05v5.25c0 .66.53 1.2 1.2 1.2h8.25c.15 0 .3.02.42.07a1.08 1.08 0 01.57.56 1.07 1.07 0 01.01.82 1.1 1.1 0 01-.58.57c-.12.05-.27.08-.42.08h-30z"/>
</svg>
