<svg xmlns="http://www.w3.org/2000/svg" viewBox="0 0 72 72">
  <path fill="#06c" d="M67.94 36.82l1.68-.34a1.06 1.06 0 00.88-1.15 1.05 1.05 0 00-1.27-.9l-.33.06a1.2 1.2 0 01-1.43-1.18v-3.1a4.8 4.8 0 00-9.6 0v5.49c0 .57-.4 1.06-.97 1.18l-14.4 2.86a1.2 1.2 0 01-1.3-.62c-.25-.5-.52-.9-.81-1.22-1.13-1.27-2.85-2-4.72-2s-3.6.73-4.73 2a6.33 6.33 0 00-1.52 3.64 1.2 1.2 0 01-.96 1.06L14.9 45.3a1.2 1.2 0 01-1.43-1.18V41c0-2.63-1.9-4.87-4.32-5.1a4.86 4.86 0 00-5.28 4.8v5.81c0 .57-.4 1.07-.97 1.18l-1.19.24a1.02 1.02 0 00-.88.83 1.06 1.06 0 00.46 1.1 1.04 1.04 0 00.8.13l2.47-.5a1.2 1.2 0 01.98.24l7.02 4.04a1.2 1.2 0 01.32 1.82l-2.7 3.15c-.18.21-.27.54-.24.84.03.23.14.42.32.55.35.23.58.38.8.38.25 0 .56-.16.8-.4l4.35-5.07c.22-.46.34-.75.28-1.05a1.2 1.2 0 01-.02-.24c-.06-.06-.07-.02-.11-.1l-2.7-4.2a1.2 1.2 0 01-.2-.64c0-.58.4-1.16.97-1.27l14.4-2.87a1.2 1.2 0 011.3.63c.09.17.19.33.3.5.19.29.24.65.14.99L26.4 60.65a1.07 1.07 0 00.16.93 1.07 1.07 0 00.85.43h16.5a1.07 1.07 0 00.84-.43 1.06 1.06 0 00.16-.93L40.76 46.8c-.1-.34-.05-.7.15-1 .56-.86.9-1.84 1-2.92.05-.53.44-.96.96-1.06l13.42-2.67A1.2 1.2 0 0157.51 41l-2.33 3.43-.3.72c.04.38.18.52.23.57l4.57 5.32c.33.31.97.5 1.39.08l.08-.08c.18-.15.31-.42.34-.7a1 1 0 00-.2-.76l-2.98-3.43a1.2 1.2 0 01.17-1.73l7.95-6.15c.26-.22.5-.52.7-.86.17-.3.47-.51.81-.58zm-35.43 2.47c.78-.87 1.79-1.28 3.16-1.28s2.37.4 3.15 1.28a4.1 4.1 0 01.9 1.9c0 .11.02.21.05.31.03.1.06.18.06.28.02.19.04.3.04.43a4.46 4.46 0 01-1.11 2.93c-.07.05-.13.12-.19.19a.8.8 0 01-.2.21c-.71.6-1.57.87-2.7.87a4.14 4.14 0 01-2.6-.77c-.1-.08-.2-.18-.27-.29a1 1 0 00-.24-.26 1.2 1.2 0 01-.26-.25 4.17 4.17 0 01-.6-1.16 1.2 1.2 0 01-.05-.4c0-.15-.03-.3-.08-.43a2.47 2.47 0 01-.1-.64c0-1.1.38-2.17 1.04-2.92zm9.53 19.07a1.2 1.2 0 01-1.15 1.55H30.44a1.2 1.2 0 01-1.15-1.55L32.1 49a1.2 1.2 0 011.51-.8c1.3.4 2.8.4 4.11 0a1.2 1.2 0 011.5.8l2.82 9.36zM12.06 22.31a4.77 4.77 0 010 6.79 4.77 4.77 0 01-6.79 0 4.77 4.77 0 010-6.79 4.77 4.77 0 016.79 0zm54-10.5a4.77 4.77 0 010 6.79 4.77 4.77 0 01-6.79 0 4.77 4.77 0 010-6.79 4.77 4.77 0 016.79 0z"/>
</svg>
