<svg xmlns="http://www.w3.org/2000/svg" viewBox="0 0 72 72">
  <path fill="#06c" d="M7.91 51a8.54 8.54 0 01-2.31-1.36 1 1 0 00-.66-.25 1.05 1.05 0 00-.72 1.84c.01.01 1.1.92 2.85 1.69 1.65.72 4.4 1.59 8.1 1.59a22.05 22.05 0 004.8-.5c.15-.01.3-.05.42-.11l.24-.1a17.6 17.6 0 002.66-.88c.65-.29.82-.42 1.08-.6.11-.1.23-.18.39-.29.4-.27.94-.27 1.34 0 .16.1.28.2.39.28.26.2.43.32 1.08.6 1.65.73 4.4 1.6 8.11 1.6s6.46-.87 8.11-1.6c.65-.28.82-.4 1.08-.6l.39-.28a1.2 1.2 0 011.34 0l.4.28c.25.2.42.32 1.07.6.71.32 1.63.63 2.66.9l.24.08c.12.07.27.1.42.11a22 22 0 0012.9-1.09 12.87 12.87 0 002.85-1.68 1.03 1.03 0 00.34-.7 1.06 1.06 0 00-.59-1.02 1.04 1.04 0 00-1.15.16c-.09.08-.73.64-2.3 1.32a17.97 17.97 0 01-7.26 1.42c-.87 0-1.71-.06-2.65-.18a1.2 1.2 0 01-1.05-1.2v-9.2c0-.07 0-.14.02-.2a.97.97 0 000-.34 1.2 1.2 0 01-.02-.2v-9.77c0-.06 0-.13.02-.2a.91.91 0 000-.33 1.2 1.2 0 01-.02-.2v-9.77c0-.06 0-.13.02-.2a.91.91 0 000-.33 1.2 1.2 0 01-.02-.2v-4.13A4.9 4.9 0 0157.43 11c.16 0 .3-.03.43-.08a1.03 1.03 0 00.57-.57 1.04 1.04 0 00-.23-1.15 1.03 1.03 0 00-.75-.3 7.06 7.06 0 00-7.07 7.05v2.24c0 .67-.54 1.2-1.2 1.2h-27a1.2 1.2 0 01-1.2-1.2v-2.24A4.9 4.9 0 0125.93 11a1.03 1.03 0 001-.64 1.04 1.04 0 00-.23-1.16 1.03 1.03 0 00-.75-.3h-.02a7.06 7.06 0 00-7.05 7.05v4.13c0 .06 0 .13-.02.2v.33c.02.06.02.13.02.2v9.77c0 .06 0 .13-.02.2v.33c.02.06.02.13.02.2v9.77c0 .06 0 .13-.02.2v.33c.02.06.02.13.02.2v9.22c0 .6-.45 1.1-1.04 1.19-.95.12-1.8.18-2.66.18-2.69 0-5.13-.48-7.27-1.42zm13.07-28.3c0-.66.54-1.2 1.2-1.2h27a1.2 1.2 0 011.2 1.2v6c0 .67-.54 1.2-1.2 1.2h-27a1.2 1.2 0 01-1.2-1.2v-6zm0 10.5c0-.66.54-1.2 1.2-1.2h27a1.2 1.2 0 011.2 1.2v6c0 .67-.54 1.2-1.2 1.2h-27a1.2 1.2 0 01-1.2-1.2v-6zm0 10.5c0-.66.54-1.2 1.2-1.2h27a1.2 1.2 0 011.2 1.2v6.1a1.2 1.2 0 01-1.7 1.08 8.79 8.79 0 01-2.06-1.22c-.38-.33-1-.33-1.38 0a8.7 8.7 0 01-2.3 1.33c-2.13.94-4.57 1.42-7.26 1.42s-5.13-.48-7.26-1.42a8.67 8.67 0 01-2.32-1.35 1.1 1.1 0 00-1.36.03c-.1.09-.7.58-2.06 1.21a1.2 1.2 0 01-1.7-1.09v-6.08zm46.16 16.53c-.01.01-1.1.92-2.85 1.69-1.65.72-4.4 1.59-8.1 1.59-3.72 0-6.47-.87-8.12-1.6a4.42 4.42 0 01-1.08-.6l-.39-.28a1.2 1.2 0 00-1.34 0l-.39.28c-.26.2-.43.32-1.08.6-1.65.73-4.4 1.6-8.1 1.6s-6.47-.87-8.12-1.6a4.42 4.42 0 01-1.08-.6l-.39-.28a1.2 1.2 0 00-1.34 0l-.4.28c-.25.2-.42.32-1.07.6-1.65.73-4.4 1.6-8.11 1.6-3.71 0-6.46-.87-8.1-1.6a12.86 12.86 0 01-2.86-1.68 1.05 1.05 0 01.72-1.85c.25.01.49.11.66.26.1.1.75.67 2.31 1.35 2.14.94 4.58 1.42 7.27 1.42a18 18 0 007.27-1.42 8.66 8.66 0 002.29-1.32 1.1 1.1 0 011.36-.03c.11.11.75.67 2.32 1.35 2.13.94 4.57 1.42 7.26 1.42s5.13-.48 7.27-1.42a8.7 8.7 0 002.29-1.32 1.1 1.1 0 011.36-.03c.1.1.75.67 2.32 1.35 2.13.94 4.57 1.42 7.26 1.42 2.7 0 5.14-.48 7.27-1.42a8.62 8.62 0 002.29-1.32 1.05 1.05 0 011.48.1 1.05 1.05 0 01-.08 1.46z"/>
</svg>
