<svg xmlns="http://www.w3.org/2000/svg" viewBox="0 0 72 72">
  <path fill="#06c" d="M49.19 12.01c.1.13.08.25.04.32a.28.28 0 01-.27.18h-8.6a.28.28 0 01-.27-.18c-.04-.07-.06-.2.1-.38l4.24-5.84c.08-.1.18-.1.23-.1s.15 0 .18.04l4.35 5.96zm-18.23-6.1h-8.6c-.15 0-.23.09-.27.17-.03.08-.06.2.04.31l4.35 5.98c.05.05.26.12.41-.06l4.25-5.85c.15-.18.13-.3.1-.38a.28.28 0 00-.28-.17zm27.5 17.55v37.5a5.56 5.56 0 01-5.55 5.55h-34.5a5.56 5.56 0 01-5.55-5.55v-37.5a5.56 5.56 0 015.55-5.55h34.5a5.56 5.56 0 015.55 5.55zM34.61 21.2c0-.67-.54-1.2-1.2-1.2h-15a3.41 3.41 0 00-3.45 3.45v37.5a3.41 3.41 0 003.45 3.45h15c.66 0 1.2-.54 1.2-1.2v-42zm21.75 2.25A3.41 3.41 0 0052.91 20h-15c-.66 0-1.2.53-1.2 1.2v42c0 .66.54 1.2 1.2 1.2h15a3.41 3.41 0 003.45-3.45v-37.5z"/>
</svg>
