<svg xmlns="http://www.w3.org/2000/svg" viewBox="0 0 72 72">
  <path fill="#06c" d="M53.54 17.8c1.13 1.26 2.85 2 4.72 2s3.6-.74 4.73-2c1.01-1.14 1.57-2.67 1.57-4.3S64 10.32 63 9.2c-1.13-1.28-2.85-2-4.73-2s-3.6.72-4.72 1.99c-1.02 1.14-1.58 2.66-1.58 4.3s.56 3.17 1.58 4.3zm1.56-7.22c.8-.88 1.8-1.29 3.16-1.29s2.38.4 3.16 1.28c.67.77 1.04 1.83 1.04 2.92s-.37 2.15-1.04 2.91c-.78.88-1.78 1.3-3.16 1.3s-2.37-.42-3.15-1.29c-.67-.77-1.05-1.83-1.05-2.92s.38-2.15 1.04-2.9zm5.35 51.6c.85-.86 2.01-2.02 2.53-3.75.5-1.73-.16-3.85-1.71-5.4a11.83 11.83 0 00-2.85-2l-.6-.34a18.08 18.08 0 01-4.23-3.23c-1.15-1.15-1.76-3.22-1.68-5.67.08-1.98.53-3.56.55-3.63.03-.12.04-.24.03-.36 0-.12 0-.23.03-.35a23.55 23.55 0 00-6.43-21.8A23.81 23.81 0 0029.6 8.6 22.17 22.17 0 006.87 31.33a23.81 23.81 0 007.05 16.48 23.55 23.55 0 0021.8 6.43c.12-.03.24-.03.35-.02.12 0 .24 0 .37-.04a17.12 17.12 0 014.07-.54c1.33 0 3.77.21 5.23 1.67a18.2 18.2 0 013.23 4.25l.33.58c.53.95 1.08 1.93 2 2.85 1.55 1.56 3.67 2.23 5.4 1.71 1.71-.5 2.89-1.67 3.75-2.53zm-30.4-9.96a1.2 1.2 0 01-.94.35 21.5 21.5 0 01-13.7-6.24c-8.37-8.36-8.62-21.72-.57-29.77a20.28 20.28 0 0114.76-5.89c5.6.1 10.94 2.4 15 6.46a21.49 21.49 0 016.24 13.7c.03.35-.1.7-.34.94L30.05 52.22zm25.12 10.63c-.7 0-1.37-.33-2.33-1.3a10.8 10.8 0 01-1.72-2.5l-.33-.54a21.19 21.19 0 00-3.57-4.68c-1.66-1.66-4-2.4-7.23-2.29-1.75.07-2.76.34-3.3.48l-.16.04c-.1.03-.2.04-.3.04a1.21 1.21 0 01-1.05-2.04l13.15-13.15a1.2 1.2 0 012.05.91v.1c0 .11-.01.24-.04.35l-.04.12c-.13.5-.42 1.55-.48 3.33-.12 3.2.63 5.57 2.28 7.22a21.34 21.34 0 004.68 3.58l.48.28c1.08.6 1.85 1.04 2.52 1.71 1.42 1.43 1.52 2.2 1.19 3.3-.32 1.07-1.4 2.26-2.01 2.87-.62.62-1.82 1.7-2.86 2.01-.33.1-.63.16-.93.16z"/>
</svg>
