<svg xmlns="http://www.w3.org/2000/svg" viewBox="0 0 72 72">
  <path fill="#06c" d="M35.66 50.9c8.1 0 14.7-6.59 14.7-14.71a1.05 1.05 0 011.04-1.06h.04a1.02 1.02 0 01.72.31 1 1 0 01.3.77c0 9.26-7.53 16.8-16.8 16.8a1.02 1.02 0 01-.77-.3 1.08 1.08 0 01-.24-1.14 1.1 1.1 0 01.59-.59c.12-.05.26-.07.42-.07zm28.8-14.7c0 15.89-12.92 28.8-28.8 28.8S6.86 52.1 6.86 36.2c0-15.87 12.92-28.8 28.8-28.8s28.8 12.93 28.8 28.8zm-2.1 0c0-14.72-11.98-26.7-26.7-26.7S8.96 21.49 8.96 36.2s11.98 26.7 26.7 26.7 26.7-11.97 26.7-26.7z"/>
</svg>
