<svg xmlns="http://www.w3.org/2000/svg" viewBox="0 0 72 72">
  <path fill="#06c" d="M14.53 12.34a4.07 4.07 0 010 5.73 4.02 4.02 0 01-5.73 0 4.07 4.07 0 010-5.73 4.02 4.02 0 015.73 0zm51.16-.88a1.03 1.03 0 00-.76-.3h-3.01a5.56 5.56 0 00-5.55 5.55v5.25c0 .66-.54 1.2-1.2 1.2H40.92a.86.86 0 00-.43.07.98.98 0 00-.34.23 1.02 1.02 0 00-.31.75 1.05 1.05 0 001.06 1.05h14.27c.66 0 1.2.53 1.2 1.2v6c0 .66-.54 1.2-1.2 1.2H40.92a.89.89 0 00-.43.07.98.98 0 00-.34.23 1.02 1.02 0 00-.31.75 1.05 1.05 0 00.65.97.9.9 0 00.41.08h14.27c.66 0 1.2.53 1.2 1.2v6.75a1.08 1.08 0 00.3.77 1.06 1.06 0 001.5 0 1.04 1.04 0 00.3-.76V16.71a3.41 3.41 0 013.45-3.45h3a1.03 1.03 0 001-.64 1.04 1.04 0 00-.23-1.16zM25.12 47.47c-.41.43-1.09.85-2.03 1.28-1.99.94-4.32 1.4-6.92 1.4s-4.94-.46-6.93-1.4a7.2 7.2 0 01-2.13-1.33 1.04 1.04 0 00-.73-.29 1.04 1.04 0 00-.97.67 1.05 1.05 0 00.26 1.15s1.02.93 2.68 1.7c1.56.74 4.19 1.6 7.82 1.6s6.25-.86 7.81-1.6c.51-.23.63-.32.84-.5l.4-.3c.42-.3.98-.3 1.4 0l.4.3c.2.18.32.27.83.5 1.56.74 4.19 1.6 7.82 1.6s6.25-.86 7.81-1.6c.51-.23.63-.32.84-.5l.4-.3a1.2 1.2 0 011.4 0l.4.3c.2.18.32.27.83.5 1.56.74 4.19 1.6 7.82 1.6s6.25-.86 7.81-1.6c1.66-.76 2.67-1.7 2.68-1.7a1.04 1.04 0 00.33-.74 1.02 1.02 0 00-.3-.75 1.06 1.06 0 00-1.15-.25c-.13.06-.24.13-.34.23-.12.12-.67.65-2.1 1.32-2 .93-4.33 1.4-6.93 1.4s-4.94-.47-6.93-1.4a7.2 7.2 0 01-2.13-1.34c-.32-.32-1.03-.35-1.42.03-.1.11-.66.64-2.1 1.3-1.99.94-4.32 1.4-6.92 1.4s-4.94-.46-6.93-1.4a7.29 7.29 0 01-2.01-1.25 1.1 1.1 0 00-.38-.28 1.18 1.18 0 00-.44-.09l-.11.01c-.26.03-.5.14-.68.33zM5.67 57.95s1.02.93 2.68 1.7c1.56.74 4.19 1.6 7.82 1.6s6.25-.86 7.81-1.6c.51-.23.63-.32.84-.5l.4-.3c.42-.3.98-.3 1.4 0l.4.3c.2.18.32.27.83.5 1.56.74 4.19 1.6 7.82 1.6s6.25-.86 7.81-1.6c.51-.23.63-.32.84-.5l.4-.3a1.2 1.2 0 011.4 0l.4.3c.2.18.32.27.83.5 1.56.74 4.19 1.6 7.82 1.6s6.25-.86 7.81-1.6c1.66-.76 2.67-1.7 2.68-1.7a1.04 1.04 0 00.33-.74 1.02 1.02 0 00-.3-.75 1.06 1.06 0 00-1.15-.25c-.13.06-.24.13-.34.23-.12.12-.67.65-2.1 1.32-2 .93-4.33 1.4-6.93 1.4s-4.94-.47-6.93-1.4a7.2 7.2 0 01-2.13-1.34c-.32-.32-1.03-.35-1.42.03-.1.11-.66.64-2.1 1.3-1.99.94-4.32 1.4-6.92 1.4s-4.94-.46-6.93-1.4a7.29 7.29 0 01-2.01-1.25 1.1 1.1 0 00-.38-.28 1.12 1.12 0 00-.44-.09l-.11.01c-.26.03-.5.14-.68.33-.41.43-1.09.85-2.03 1.28-1.99.94-4.32 1.4-6.92 1.4s-4.94-.46-6.93-1.4a7.2 7.2 0 01-2.13-1.33 1.05 1.05 0 00-.73-.29 1 1 0 00-.59.2 1.05 1.05 0 00-.12 1.62zM41.7 11.46a1.03 1.03 0 00-.74-.3h-3.03a5.56 5.56 0 00-5.55 5.55v27a1.08 1.08 0 00.3.77 1.06 1.06 0 001.5 0 1.04 1.04 0 00.3-.76V16.71a3.41 3.41 0 013.45-3.45h3a.9.9 0 00.42-.08 1.03 1.03 0 00.58-.57 1.04 1.04 0 00-.23-1.15z"/>
</svg>
