<svg xmlns="http://www.w3.org/2000/svg" viewBox="0 0 72 72">
  <path fill="#06c" d="M67.4 52.27a1.05 1.05 0 00.17-1.15c0-.03-1.52-3.35-4.25-6.61-2.3-2.76-6.1-6.15-11.15-6.59a1.2 1.2 0 01-1.08-.97c-1.06-5.73-5.91-9.99-12.37-10.85a1.2 1.2 0 01-1.04-1.2v-1.1c0-1.06.22-3.65 1.06-5.9 1-2.68 2.52-4.27 4.66-4.87.1-.03.23-.05.33-.04 3.9.04 6.3.66 7.38 1.02 1.46.5 2 .85 2.2 1.02.05.03.17.1.3.12a1.02 1.02 0 00.8-.1c.12-.08.22-.17.3-.28a1.03 1.03 0 00.08-1.15 1.07 1.07 0 00-.29-.33s-1.04-.71-2.73-1.27c-.76-.26-1.81-.5-3.02-.72a1.2 1.2 0 01-.52-2.14c2.39-1.82 5.84-2.07 9.23-.68 3.96 1.62 6.75 5.2 7.67 9.8a1.2 1.2 0 01-1.26 1.43c-1.41-.1-2.96.1-4.6.6-.84.26-1.64.52-2.39.77-1.77.58-3.04 1-3.9 1a9.1 9.1 0 01-4.59-1.29 7.5 7.5 0 01-1.92-1.66c-.09-.1-.2-.2-.34-.28a1.1 1.1 0 00-.4-.12.97.97 0 00-.4.04 1.1 1.1 0 00-.74.91c-.01.14 0 .28.05.42.04.12.1.24.18.33a9.55 9.55 0 002.48 2.15 10.92 10.92 0 005.68 1.6c1.76 0 3.4-.6 4.98-1.19.65-.24 1.29-.48 1.91-.67 2.42-.73 4.4-.97 6.18.2.16.1.35.16.54.17.18 0 .37-.04.55-.13.15-.09.3-.22.4-.39.09-.16.14-.34.14-.53 0-8.3-4.87-13.24-9.42-15.1a13.22 13.22 0 00-5.38-1.02c-3.61.09-6.62 1.74-8.25 4.53-.21.48-.75.83-1.27.78l-.07.01c-.22.03-.38.08-.51.17-.09.06-.18.1-.28.14-3.47 1.15-5.08 4.26-5.73 6.01a19.84 19.84 0 00-1.2 6.64V25c0 .6-.43 1.1-1.02 1.2a14.2 14.2 0 00-7.1 3.1c-.36.3-.88.35-1.3.13A11.56 11.56 0 0020.8 28c-2.6 0-4.7.4-6.4 1.24a8.8 8.8 0 00-4.25 4.67c-.15.48-.6.88-1.1.91-1.26.1-2.45.65-3.35 1.55a5.49 5.49 0 00-.48 7.1c.07.08.12.18.15.29.05.13.13.26.23.37l.07.06.06.06.1.07c3.54 2.98 6.45 5.47 8.92 7.59 3.16 2.71 5.65 4.85 7.64 6.43 3.75 2.96 5.9 4 8.23 4 3.12 0 6.24-.38 9.25-.76a70.7 70.7 0 018.75-.73 5.92 5.92 0 015.16 2.58 8.16 8.16 0 011.32 2.6 1.1 1.1 0 00.49.72c.1.06.24.11.36.13a1.06 1.06 0 001.09-.5 1.06 1.06 0 00.1-.8 10.6 10.6 0 00-1.68-3.41 8.53 8.53 0 00-6.84-3.42c-3.28 0-6.49.4-9.58.78-2.94.37-5.72.72-8.42.72-1.83 0-3.51-.87-6.93-3.57-1.9-1.5-4.41-3.65-7.58-6.37-2.47-2.11-5.39-4.62-8.87-7.54a3.41 3.41 0 01-.06-4.91 3 3 0 012.25-.98 4.67 4.67 0 012.85 1.16c2.51 1.86 14.97 11.17 14.97 11.17l.11.07.13.08a5.5 5.5 0 003.13.99h10.5a1.02 1.02 0 00.77-.3 1.05 1.05 0 000-1.5c-.1-.1-.22-.18-.35-.23a1.16 1.16 0 00-.42-.07h-10.5a3.53 3.53 0 01-2.1-.72l-.13-.1a3.44 3.44 0 01-1.22-2.63 3.41 3.41 0 013.45-3.45h6.59c4.31 0 6.75-.4 8.56-.78l.8-.17c1.4-.3 2.5-.55 4.56-.55 4.59 0 8.28 3.26 10.57 6a30.4 30.4 0 013.96 6.14c.06.13.15.25.26.36.08.07.2.14.35.2.1.04.26.05.38.06a1.1 1.1 0 00.75-.34zm-18.73-14.6a1.2 1.2 0 01-.8.52c-.4.07-.85.12-1.3.17-.45.05-.91.1-1.24.16-1.71.37-3.76.73-8.11.73h-6.6a5.6 5.6 0 00-5.26 3.93 1.2 1.2 0 01-1.86.6l-1.66-1.24-8.4-6.27c-.2-.14-.43-.28-.66-.42a1.24 1.24 0 01-.5-1.54 6.15 6.15 0 013.05-3.18c1.4-.69 3.23-1.03 5.48-1.03a9.6 9.6 0 015.47 1.7c.2.14.44.2.68.17a1 1 0 00.67-.31 12.36 12.36 0 018.97-3.81c6.1 0 10.9 3.48 12.23 8.87.07.32.02.66-.16.94z"/>
</svg>
