<svg xmlns="http://www.w3.org/2000/svg" viewBox="0 0 72 72">
  <path fill="#06c" d="M55.93 31.33a1.03 1.03 0 01-.58.57.94.94 0 01-.42.08h-3a3.41 3.41 0 00-3.46 3.45v27.01a1.05 1.05 0 01-1.79.76 1.05 1.05 0 01-.3-.77v-6.75c0-.67-.54-1.2-1.2-1.2H30.9a1.04 1.04 0 01-.98-.65 1.05 1.05 0 01.57-1.38.87.87 0 01.43-.07h14.25c.66 0 1.2-.54 1.2-1.2v-6c0-.67-.54-1.2-1.2-1.2H30.9a1.24 1.24 0 01-.4-.08 1.04 1.04 0 01-.59-.57 1.05 1.05 0 01.58-1.38c.13-.05.27-.1.43-.07h14.25c.66 0 1.2-.54 1.2-1.2v-5.25a5.56 5.56 0 015.55-5.55h3.01a1.03 1.03 0 01.99.65 1.05 1.05 0 010 .8zm-25 .65c.13 0 .29-.03.42-.08a1.03 1.03 0 00.58-.57 1.04 1.04 0 00-.23-1.15 1.03 1.03 0 00-.74-.3h-3.03a5.56 5.56 0 00-5.55 5.55v27a1.08 1.08 0 00.3.77 1.06 1.06 0 001.5 0 1.04 1.04 0 00.3-.76V35.43a3.41 3.41 0 013.45-3.45h3zm35.04-8.5a1.06 1.06 0 00-.6-1l-4.32-2.04a1.07 1.07 0 01-.1-.05 1.03 1.03 0 00-.18-.08 1.17 1.17 0 01-.1-.05L37.36 9.3a2.77 2.77 0 00-1.7-.42c-.6 0-.88.1-1.2.23l-.33.12-.12.05-23.34 10.98-.1.05a1.1 1.1 0 00-.2.09 1.4 1.4 0 01-.1.05l-4.3 2.03a1.04 1.04 0 00-.5 1.4 1.04 1.04 0 001.4.5L34.84 11.2c.08-.04.16-.07.25-.09l.27-.05c.13-.03.27-.04.4-.03h.1c.18 0 .36.04.54.13l28.07 13.2a1.04 1.04 0 00.8.05 1.06 1.06 0 00.6-.54c.05-.13.09-.27.1-.4z"/>
</svg>
