<svg xmlns="http://www.w3.org/2000/svg" viewBox="0 0 72 72">
  <path fill="#06c" d="M69.41 31.23c.28 0 .55-.12.75-.31.2-.2.3-.46.3-.74v-7.5a5.56 5.56 0 00-5.55-5.55h-6c-1.7 0-2.94.81-3.69 1.5a1.2 1.2 0 01-1.62 0 5.45 5.45 0 00-3.69-1.5H6.41a5.56 5.56 0 00-5.55 5.55v7.5c0 .28.11.54.3.74.2.2.48.3.75.3h2.25c.66 0 1.2.54 1.2 1.2v15.65a.66.66 0 000 .28v5.83a1.08 1.08 0 00.3.76c.1.1.22.19.36.25.21.08.54.1.82-.02.1-.04.22-.13.33-.23a1.06 1.06 0 00.3-.75v-5.13c0-.3.1-.6.3-.81l5.62-6.13c.23-.25.55-.4.89-.4h29.27c.33 0 .65.15.88.4l5.62 6.13c.2.22.31.5.31.8v5.13a1.08 1.08 0 00.3.76c.1.1.22.19.36.25.21.08.54.1.82-.02.1-.04.22-.13.33-.23a1.06 1.06 0 00.3-.75v-5.84c.01-.1.01-.2 0-.28V32.43c0-.67.53-1.2 1.2-1.2H69.4zm-13.95-8.55a3.41 3.41 0 013.45-3.45h6a3.41 3.41 0 013.45 3.45v5.25c0 .66-.54 1.2-1.2 1.2h-10.5a1.2 1.2 0 01-1.2-1.2v-5.25zM9.55 43.2a1.2 1.2 0 01-2.09-.81v-9.97c0-.67.54-1.2 1.2-1.2h9.14a1.2 1.2 0 01.88 2L9.55 43.2zm30.97-4.3c-.2.44-.62.72-1.1.72H18.4a1.2 1.2 0 01-.88-2.01l5.5-6c.22-.25.55-.4.88-.4h10.02c.34 0 .66.15.89.4l5.5 6c.32.35.4.86.2 1.3zm9.84 3.49a1.2 1.2 0 01-2.08.8l-9.14-9.96a1.2 1.2 0 01.89-2.01h9.13c.66 0 1.2.53 1.2 1.2v9.97zm3-14.47c0 .66-.54 1.2-1.2 1.2h-.39c-.07 0-.14 0-.2-.02a1 1 0 00-.35 0l-.18.02H35.26c-.07 0-.13 0-.2-.02a1.2 1.2 0 00-.34 0l-.2.02H23.31c-.06 0-.13 0-.2-.02a1.1 1.1 0 00-.35 0l-.2.02H6.78c-.07 0-.14 0-.2-.02a1 1 0 00-.35 0l-.18.02H4.16a1.2 1.2 0 01-1.2-1.2v-5.25a3.41 3.41 0 013.45-3.45h43.5a3.41 3.41 0 013.45 3.45v5.25z"/>
</svg>
