<svg xmlns="http://www.w3.org/2000/svg" viewBox="0 0 72 72">
  <path fill="#06c" d="M54.4 66.5c.15 0 .3-.02.42-.07s.24-.13.34-.23a1.05 1.05 0 000-1.5c-.1-.1-.22-.17-.34-.22a1.16 1.16 0 00-.42-.07h-.91a1.2 1.2 0 01-1.2-1.12l-1.25-17.52a2.59 2.59 0 00-2.54-2.36h-.85a1.2 1.2 0 01-1.2-1.2V14.46A8.56 8.56 0 0037.9 5.9h-6a8.62 8.62 0 00-7.96 5.44c-.16.4-.51.68-.94.74-1.64.25-3.07.76-4.25 1.52-.88.55-2.9 2.11-2.9 4.6v3.75c0 .28.1.54.3.73.2.2.47.32.75.32h5.25c.66 0 1.2.53 1.2 1.2a1.8 1.8 0 003.6 0c0-.67.53-1.2 1.2-1.2h5.25c.27 0 .54-.12.74-.32.2-.2.3-.45.3-.73V18.2c0-2.49-2.02-4.05-2.9-4.6a10.86 10.86 0 00-3.8-1.44 1.2 1.2 0 01-.68-1.97c1.23-1.4 3-2.2 4.84-2.2h6c3.55 0 6.45 2.9 6.45 6.46V42.2c0 .66-.54 1.2-1.2 1.2h-.86a2.59 2.59 0 00-2.54 2.36L38.5 63.3a1.2 1.2 0 01-1.2 1.12h-.9c-.16 0-.3.02-.43.07a1.07 1.07 0 00-.58.57 1.05 1.05 0 001 1.46h18zM30.42 15.4c1.59 1 1.93 2.09 1.93 2.82v1.5c0 .66-.54 1.2-1.2 1.2h-12a1.2 1.2 0 01-1.2-1.2v-1.5c0-.73.33-1.81 1.93-2.83 1.35-.87 3.27-1.37 5.27-1.37s3.9.5 5.27 1.38zM41.8 46.62a1.2 1.2 0 011.2-1.11h4.81c.63 0 1.15.48 1.2 1.11l1.18 16.5a1.2 1.2 0 01-1.2 1.29H41.8a1.2 1.2 0 01-1.2-1.29l1.18-16.5z"/>
</svg>
