<svg xmlns="http://www.w3.org/2000/svg" viewBox="0 0 72 72">
  <path fill="#06c" d="M62.45 46.92a.3.3 0 010-.42c.06-.06.13-.1.21-.1s.16.04.22.1c.05.05.08.13.08.2s-.03.16-.08.22a.3.3 0 01-.43 0zM40.88 25.37a1 1 0 00-.7.3 1.03 1.03 0 00-.32.77v9.02a1.08 1.08 0 00.3.76c.1.1.23.19.36.25.21.08.53.1.82-.02.1-.04.22-.13.33-.23a1.06 1.06 0 00.3-.75v-9.01a1.04 1.04 0 00-1.04-1.08h-.05zM56.66 46.7c.2-.2.3-.46.3-.74s-.1-.55-.3-.74a1.05 1.05 0 00-1.49 1.48c.4.39 1.09.39 1.49 0zM9.4 62c-.16 0-.3-.02-.42-.07a1.06 1.06 0 01-.57-.56 1.07 1.07 0 01-.01-.82 1.07 1.07 0 011-.64h7.54a1.2 1.2 0 001.19-1.33 5.7 5.7 0 01.89-3.73 5.6 5.6 0 015.7-2.23c.43.1.88-.07 1.16-.41a6.8 6.8 0 019.1-1.32c.4.28.94.27 1.35 0a7.33 7.33 0 014.23-1.4c.18 0 .39 0 .6.04 1.94.29 3.39 1.62 4.26 2.69.28.34.73.5 1.16.41a5.57 5.57 0 015.66 2.2 5.7 5.7 0 01.9 3.75 1.2 1.2 0 001.2 1.33h7.56c.16 0 .3.02.43.07a1.08 1.08 0 01.57.56 1.07 1.07 0 010 .81 1.1 1.1 0 01-.57.58c-.13.05-.27.08-.43.08H9.41zm10.92-2.8c.2.43.63.7 1.1.7h28.44c.48 0 .9-.28 1.1-.72.44-1.01.29-2.08-.45-3.16-1.11-1.62-2.68-2.02-4.43-1.12a1.04 1.04 0 01-.83.06 1.04 1.04 0 01-.37-.23.95.95 0 01-.24-.33 4.86 4.86 0 00-4.95-2.93c-1.25.14-2.4.76-3.23 1.73a1.3 1.3 0 01-.36.28c-.29.13-.64.11-.87.01a1.17 1.17 0 01-.37-.28 4.92 4.92 0 00-4.44-1.7 4.9 4.9 0 00-3.76 2.9c-.06.12-.14.24-.25.35a1 1 0 01-.37.2 1.04 1.04 0 01-.83-.06c-1.76-.93-3.34-.53-4.45 1.12-.74 1.1-.88 2.16-.44 3.17zm-12-47.74c0 .14.03.27.08.4a1.06 1.06 0 001 .65h7.08a4.92 4.92 0 014.62 3.18l.67 1.76c.05.13.08.28.08.43v29.27c.4-.06.8-.1 1.2-.13.29-.25.59-.49.9-.7V19.7c0-.67.54-1.2 1.2-1.2h21c.66 0 1.2.53 1.2 1.2v26.6c.31.22.62.46.9.71.4.02.8.07 1.2.13V17.88c0-.15.03-.3.08-.43l.67-1.76a4.92 4.92 0 014.63-3.18h7.07a1.03 1.03 0 00.77-.3 1.05 1.05 0 00-.77-1.8h-7.07a7.09 7.09 0 00-6.58 4.52l-.28.7a1.2 1.2 0 01-1.12.78h-22.4c-.5 0-.94-.31-1.12-.77l-.27-.7a7.09 7.09 0 00-6.58-4.53H9.4c-.16 0-.3.02-.43.07-.12.05-.23.13-.33.23a1.07 1.07 0 00-.32.75zm3.33 42.74c.2-.2.3-.46.3-.74s-.1-.55-.3-.74a1.05 1.05 0 00-1.49 1.48c.4.39 1.09.39 1.49 0zm49.5 0c.2-.2.3-.46.3-.74s-.1-.55-.3-.74a1.05 1.05 0 00-1.49 1.48c.4.39 1.09.39 1.49 0zm-52.7-7.7c-.06.05-.09.13-.09.2s.03.16.09.22a.3.3 0 00.43 0c.05-.06.08-.13.08-.21s-.03-.16-.08-.21c-.06-.06-.14-.1-.22-.1s-.15.04-.21.1zm7.7.2a1.04 1.04 0 000-1.48c-.2-.2-.46-.31-.74-.31a1.05 1.05 0 00-.74 1.79c.4.39 1.09.39 1.49 0zm16.5-2.98c.11.1.24.19.37.25.21.08.53.1.82-.02.1-.04.22-.13.33-.23a1.06 1.06 0 00.3-.75v-6.01a1.04 1.04 0 00-1.04-1.08h-.05a1 1 0 00-.7.29 1.03 1.03 0 00-.32.77v6.02a1.08 1.08 0 00.3.76zm-1.49-19.53a1 1 0 00-.73-.31h-.05a1 1 0 00-.7.29 1.03 1.03 0 00-.32.77v3.02a1.08 1.08 0 00.3.76c.1.1.23.19.36.25.21.08.54.1.82-.02.1-.04.22-.13.33-.23a1.06 1.06 0 00.3-.75v-3.01c0-.3-.11-.57-.3-.77z"/>
</svg>
