<svg xmlns="http://www.w3.org/2000/svg" viewBox="0 0 72 72">
  <path fill="#06c" d="M47.37 45.04a1.19 1.19 0 01-.36-.26 15.94 15.94 0 00-11.35-4.72c-4.27 0-8.3 1.68-11.34 4.71-.4.4-1.1.4-1.5 0-.19-.2-.3-.45-.3-.74 0-.28.11-.54.31-.74 3.41-3.41 7.97-5.3 12.83-5.3s9.42 1.89 12.86 5.34c.1.08.17.19.23.33a1.04 1.04 0 01-.59 1.38c-.2.09-.52.1-.8 0zM35.94 61.18a4.81 4.81 0 000-9.6 4.82 4.82 0 00-3.4 8.19c.91.9 2.12 1.4 3.4 1.4zm31.14-35.06a1.08 1.08 0 00.6-.57 1.04 1.04 0 00-.24-1.14 44.6 44.6 0 00-31.78-13.17c-12 0-23.28 4.66-31.75 13.13a.99.99 0 00-.25.35 1.02 1.02 0 000 .83 1.04 1.04 0 00.56.56 1.02 1.02 0 001.17-.25A42.53 42.53 0 0135.66 13.3a42.52 42.52 0 0130.27 12.56c.11.11.23.2.36.26.27.1.58.09.79 0zm-9.46 9.46a1.08 1.08 0 00.6-.57 1.04 1.04 0 00-.24-1.14 31.34 31.34 0 00-22.32-9.25 31.3 31.3 0 00-22.29 9.21.99.99 0 00-.25.35 1.02 1.02 0 000 .83 1.02 1.02 0 00.56.56 1.02 1.02 0 001.17-.25c5.57-5.57 12.96-8.63 20.81-8.63s15.24 3.06 20.8 8.63c.12.11.24.2.37.26.27.1.58.09.79 0z"/>
</svg>
