<svg xmlns="http://www.w3.org/2000/svg" viewBox="0 0 72 72">
  <path fill="#06c" d="M57.47 7.28v.02-.5.48zm-29.45 13.7c1.25 1.4 1.95 3.3 1.95 5.33s-.7 3.92-1.96 5.33c-1.39 1.57-3.52 2.47-5.84 2.47s-4.46-.9-5.85-2.47c-1.26-1.41-1.95-3.3-1.95-5.33s.69-3.93 1.95-5.34c1.4-1.56 3.52-2.46 5.85-2.46s4.45.9 5.85 2.47zm-.15 5.33c0-1.49-.52-2.92-1.43-3.95-1.05-1.18-2.45-1.75-4.27-1.75s-3.23.57-4.28 1.75c-.9 1.03-1.42 2.46-1.42 3.95s.51 2.91 1.42 3.94c1.05 1.18 2.45 1.76 4.28 1.76s3.22-.58 4.28-1.76a6.02 6.02 0 001.42-3.94zM57.7 8.14l-.1-.1a.25.25 0 00-.12-.03h-.06c-.15 0-.27.13-.27.3v.1l.02 7.07c0 .57-.4 1.07-.96 1.18l-5.61 1.15c-.1.02-.19.1-.23.2a.3.3 0 00.04.27l8.18 11.2c.08.11.18.13.24.13l.1-.03c.12-.04.2-.14.2-.27l-.01-7.18c0-.57.4-1.06.96-1.18l5.6-1.15c.1-.02.2-.1.23-.2a.28.28 0 00-.04-.26l-8.17-11.2zm-4.8 57.47a8.53 8.53 0 01-4.78-1.47c-1.25-.7-21.44-11.91-37.77-25.9l-.05-.06A16.67 16.67 0 015.37 26.3c0-9.27 7.53-16.8 16.8-16.8a16.7 16.7 0 0111.87 4.93l.03.03C47.39 30 57.6 47.97 59.5 51.4l.1.16a8.89 8.89 0 011.86 5.49c0 2.22-.76 4.3-2.14 5.85a8.51 8.51 0 01-6.41 2.7zM12.39 37.14A14.44 14.44 0 0022.17 41c8.1 0 14.7-6.6 14.7-14.7 0-3.6-1.34-6.99-3.84-9.75a6.35 6.35 0 00-.6-.75 14.6 14.6 0 00-10.26-4.2c-8.1 0-14.7 6.59-14.7 14.7a14.62 14.62 0 004.28 10.34l.4.31.23.18zm32 20.2l-.01-.28a8.56 8.56 0 018.55-8.55h.32a1.2 1.2 0 001.02-1.82 279.8 279.8 0 00-13.34-20.02 1.2 1.2 0 00-2.17.63A16.68 16.68 0 0123.16 42.9a1.2 1.2 0 00-.63 2.16A278.03 278.03 0 0042.56 58.4a1.2 1.2 0 001.82-1.07zm8.54 6.17a6.1 6.1 0 004.84-2 6.75 6.75 0 001.6-4.45c0-1.38-.4-2.75-1.16-3.85a1.08 1.08 0 00-.21-.23l-.12-.2c-.04-.09-.1-.16-.16-.23a6.1 6.1 0 00-4.8-1.94c-3.61 0-6.44 2.83-6.44 6.45s2.83 6.45 6.45 6.45z"/>
</svg>
