<svg xmlns="http://www.w3.org/2000/svg" viewBox="0 0 72 72">
  <path fill="#06c" d="M20.65 29.9c-1.88 0-3.6.73-4.73 2a6.42 6.42 0 00-1.57 4.3c0 1.64.55 3.17 1.57 4.3 1.13 1.28 2.85 2 4.73 2s3.6-.72 4.72-2a6.42 6.42 0 001.58-4.3c0-1.63-.56-3.16-1.58-4.3a6.27 6.27 0 00-4.72-2zm3.15 9.22c-.78.88-1.78 1.29-3.15 1.29s-2.38-.41-3.16-1.29a4.47 4.47 0 01-1.04-2.91c0-1.1.37-2.16 1.04-2.91.78-.89 1.78-1.3 3.16-1.3s2.37.41 3.15 1.29a4.47 4.47 0 011.05 2.92c0 1.09-.38 2.15-1.05 2.9zM35.65 57.5c1.87 0 3.6-.73 4.72-2a6.42 6.42 0 001.58-4.3c0-1.64-.56-3.17-1.58-4.3-1.13-1.28-2.85-2-4.72-2s-3.6.72-4.73 2a6.42 6.42 0 00-1.57 4.3c0 1.63.55 3.16 1.57 4.3a6.27 6.27 0 004.73 2zm-3.16-9.21c.78-.89 1.78-1.3 3.16-1.3s2.37.41 3.15 1.29a4.47 4.47 0 011.05 2.92c0 1.09-.38 2.15-1.05 2.9-.78.89-1.78 1.3-3.15 1.3s-2.38-.41-3.16-1.29a4.47 4.47 0 01-1.04-2.91c0-1.1.37-2.16 1.04-2.91zm3.16-33.4c-1.88 0-3.6.73-4.73 2a6.42 6.42 0 00-1.57 4.3c0 1.64.55 3.17 1.57 4.3 1.13 1.28 2.85 2 4.73 2s3.6-.72 4.72-2a6.42 6.42 0 001.58-4.3c0-1.63-.56-3.16-1.58-4.3a6.27 6.27 0 00-4.72-2zm3.15 9.22c-.78.88-1.78 1.29-3.15 1.29s-2.38-.41-3.16-1.29a4.47 4.47 0 01-1.04-2.91c0-1.1.37-2.16 1.04-2.91.78-.89 1.78-1.3 3.16-1.3s2.37.41 3.15 1.29a4.47 4.47 0 011.05 2.92c0 1.09-.38 2.15-1.05 2.9zM35.65 7.4c-15.89 0-28.8 12.92-28.8 28.8S19.76 65 35.65 65H63.4a1.03 1.03 0 00.77-.3c.1-.1.17-.23.23-.36a1.05 1.05 0 00-1-1.44H51.37a1.2 1.2 0 01-.63-2.22 28.64 28.64 0 0013.7-24.48 28.83 28.83 0 00-28.8-28.8zm0 55.5c-14.73 0-26.7-11.98-26.7-26.7S20.92 9.5 35.65 9.5s26.7 11.97 26.7 26.7-11.98 26.7-26.7 26.7zm19.72-22.4a6.42 6.42 0 001.58-4.3c0-1.64-.56-3.17-1.58-4.3-1.13-1.28-2.85-2-4.72-2s-3.6.72-4.73 2a6.42 6.42 0 00-1.57 4.3c0 1.63.55 3.16 1.57 4.3 1.13 1.27 2.85 2 4.73 2s3.6-.73 4.72-2zm-8.92-4.3c0-1.1.37-2.16 1.04-2.91.78-.89 1.78-1.3 3.16-1.3s2.37.41 3.15 1.29a4.47 4.47 0 011.05 2.92c0 1.09-.38 2.15-1.05 2.9-.78.89-1.78 1.3-3.15 1.3s-2.38-.41-3.16-1.29a4.47 4.47 0 01-1.04-2.91zm-10.8-1.8a1.8 1.8 0 011.27 3.07c-.68.67-1.87.67-2.55 0a1.8 1.8 0 011.27-3.07z"/>
</svg>
