<svg xmlns="http://www.w3.org/2000/svg" viewBox="0 0 72 72">
  <path fill="#06c" d="M46.47 5.14a.95.95 0 01.5-.1 1 1 0 01.63.22 1.07 1.07 0 01.3 1.27c-.1.2-.27.38-.48.49a1.2 1.2 0 00-.52.49c-.22.31-.44.76-.44 1.58 0 .23 0 .77 1.27 2.34l.2.24c.68.84 1.53 1.9 1.53 3.42 0 1.3-.59 2.53-1.83 3.77a1 1 0 01-.77.31.97.97 0 01-.73-.3c-.1-.1-.17-.22-.23-.36a1.03 1.03 0 01.27-1.16l.33-.32c.6-.57.86-.92.86-1.94 0-.2 0-.76-1.27-2.34l-.2-.24c-.68-.84-1.53-1.89-1.53-3.42 0-1.65.75-2.71.98-3 .48-.59 1.13-.94 1.13-.95zM34.1 6.1a4.87 4.87 0 00-.98 3c0 1.53.85 2.58 1.53 3.42l.2.24c1.27 1.58 1.27 2.13 1.27 2.34 0 1.02-.26 1.37-.86 1.94l-.33.32a1.07 1.07 0 00-.34.76 1.02 1.02 0 00.3.75c.1.11.22.19.38.25.1.04.23.07.35.06a1 1 0 00.76-.31c1.25-1.24 1.84-2.47 1.84-3.77 0-1.52-.85-2.58-1.54-3.42l-.19-.24c-1.27-1.57-1.27-2.1-1.27-2.34a2.51 2.51 0 01.64-1.85c.1-.1.2-.17.32-.22.2-.11.37-.29.47-.5a1.06 1.06 0 00-.29-1.26c-.17-.14-.4-.22-.63-.23h-.04a.95.95 0 00-.46.11s-.65.36-1.13.95zm-11.25 0a4.87 4.87 0 00-.98 3c0 1.53.85 2.58 1.53 3.42l.2.24c1.27 1.58 1.27 2.13 1.27 2.34 0 1.02-.26 1.37-.86 1.94l-.33.32a1.07 1.07 0 00-.34.76 1.02 1.02 0 00.3.75c.1.11.22.19.38.25.1.04.23.07.35.06a1 1 0 00.76-.31c1.25-1.24 1.84-2.47 1.84-3.77 0-1.52-.85-2.58-1.54-3.42l-.19-.24c-1.27-1.57-1.27-2.1-1.27-2.34a2.51 2.51 0 01.64-1.85c.1-.1.2-.17.32-.22.2-.11.37-.29.47-.5a1.06 1.06 0 00-.29-1.26c-.17-.14-.4-.22-.63-.23h-.04a.95.95 0 00-.46.11s-.65.36-1.13.95zm-3.38 53.99c-.15.46 0 .96.36 1.27a3.26 3.26 0 01.93 3.64 3.27 3.27 0 01-1.21 1.56 3.3 3.3 0 11-2.98-5.82c.34-.13.62-.4.73-.76l4.18-13.07a1.2 1.2 0 00-.55-1.41c-1.3-.74-2.43-1.5-3.43-2.34-4.92-4.09-7.63-10.06-7.63-16.8v-.76a2.58 2.58 0 012.55-2.55h46.5a2.58 2.58 0 012.55 2.55v.75c0 6.75-2.7 12.72-7.62 16.8a23.86 23.86 0 01-3.46 2.37 1.2 1.2 0 00-.56 1.38l5.6 18.94a1.07 1.07 0 01-.06.82 1.04 1.04 0 01-1.47.41 1.1 1.1 0 01-.29-.25c-.08-.1-.15-.24-.2-.42L51.23 59a1.2 1.2 0 00-1.15-.86H20.95c-.52 0-.98.34-1.14.84l-.35 1.1zm16.2-13.04c6.58 0 12.56-1.95 16.83-5.5 4.56-3.8 6.87-8.9 6.87-15.2 0-.66-.54-1.2-1.2-1.2h-45c-.66 0-1.2.54-1.2 1.2 0 6.3 2.31 11.4 6.87 15.2 4.27 3.55 10.25 5.5 16.83 5.5zm-14.24 8.51c.23.3.59.5.97.5h26.34a1.2 1.2 0 001.15-1.55l-1.9-6.4a1.2 1.2 0 00-1.55-.79 31.61 31.61 0 01-10.77 1.83c-3.82 0-7.45-.62-10.8-1.84a1.2 1.2 0 00-1.56.76l-2.05 6.42c-.12.36-.05.76.17 1.07z"/>
</svg>
