<svg xmlns="http://www.w3.org/2000/svg" viewBox="0 0 72 72">
  <path fill="#06c" d="M42.89 31.6c-1.36-.45-3.6-1-6.54-1.08a1.06 1.06 0 01-1.05-1.08 1.07 1.07 0 01.33-.74 1.1 1.1 0 01.75-.29h.06c2.5.07 4.96.48 7.1 1.19 1.89.62 3.18 1.28 4.1 2.1a1.07 1.07 0 01.3 1.13.97.97 0 01-.2.37 1 1 0 01-.72.35c-.15 0-.3-.02-.44-.07a.98.98 0 01-.35-.23c-.4-.36-1.7-1.12-3.34-1.65zm1.97-17.08a1.05 1.05 0 00-.12-1.18c-.09-.1-.2-.2-.33-.26a10.7 10.7 0 00-5-1.17c-.16 0-.3.02-.42.07a1.1 1.1 0 00-.58.58 1.05 1.05 0 00.23 1.14 1.02 1.02 0 00.77.3c1.36 0 3.41.6 4 .93.13.07.28.11.44.14.11 0 .25 0 .36-.04a1.07 1.07 0 00.66-.51zm-8.85 36.9c.12.06.26.1.41.1 5.14.06 9.1.91 11.51 1.61 3.04.9 5.18 2.1 5.81 2.64.12.1.24.17.39.22a.97.97 0 00.8-.05 1.02 1.02 0 00.53-.63 1.05 1.05 0 00-.35-1.14c-1.38-1.16-3.52-2.15-6.58-3.04a45.9 45.9 0 00-12.1-1.71h-.04c-.12 0-.25.02-.4.07-.08.04-.2.12-.32.23a1.04 1.04 0 00-.3.72c0 .15.02.28.07.42a1.12 1.12 0 00.57.57zM8.36 54.97c0-2.36 1.27-4.23 2.34-5.39a18.54 18.54 0 015.97-4.05c1.7-.79 3.68-1.48 5.87-2.04a1.2 1.2 0 00.24-2.23l-.4-.2-.49-.25c-2.25-1.26-6.03-4.02-6.03-8.34s3.78-7.09 6.03-8.35a24.4 24.4 0 016.83-2.48 1.2 1.2 0 00.55-2.07c-1.88-1.66-2.9-3.74-2.9-5.85 0-2.52 1.44-4.97 3.96-6.7 2.45-1.68 5.67-2.6 9.08-2.6s6.63.92 9.08 2.6c2.52 1.73 3.97 4.18 3.97 6.7 0 2.52-1.45 4.96-3.97 6.7-.33.22-.69.44-1.05.64a1.2 1.2 0 00.1 2.15c.74.32 1.36.62 1.9.91 2.24 1.26 6.02 4.03 6.02 8.35 0 4.31-3.78 7.08-6 8.33l-.52.26-.4.2a1.2 1.2 0 00.24 2.23 35.2 35.2 0 015.88 2.04 18.54 18.54 0 015.96 4.05c1.07 1.16 2.34 3.03 2.34 5.39s-1.27 4.22-2.34 5.38a18.49 18.49 0 01-5.96 4.05c-5.1 2.33-11.85 3.62-19 3.62s-13.9-1.29-19-3.62a18.5 18.5 0 01-5.96-4.05c-1.07-1.16-2.34-3.03-2.34-5.38zm23.16-36.28c2.07 1.41 4.94 2.23 7.9 2.23s5.82-.82 7.88-2.23c2.53-1.74 3.06-3.67 3.06-4.97s-.53-3.23-3.06-4.97c-2.06-1.42-4.94-2.23-7.89-2.23s-5.83.8-7.89 2.23c-2.53 1.74-3.06 3.66-3.06 4.97s.53 3.23 3.06 4.97zm4.14 23.23c4.76 0 9.4-1.08 12.75-2.95 3.2-1.78 4.95-4.1 4.95-6.5s-1.76-4.72-4.95-6.51c-3.35-1.87-8-2.94-12.75-2.94s-9.4 1.07-12.74 2.94c-3.2 1.79-4.96 4.1-4.96 6.5s1.76 4.73 4.96 6.51c3.34 1.87 7.99 2.95 12.74 2.95zm-25.2 13.05c0 1.37.59 2.66 1.78 3.95 1.2 1.3 3.03 2.54 5.3 3.58 4.75 2.17 11.36 3.42 18.12 3.42s13.37-1.25 18.13-3.42a16.76 16.76 0 005.29-3.58c1.2-1.29 1.78-2.58 1.78-3.95s-.58-2.67-1.78-3.96a16.78 16.78 0 00-5.3-3.58c-4.75-2.17-11.36-3.41-18.12-3.41s-13.37 1.24-18.12 3.42a16.76 16.76 0 00-5.3 3.57c-1.2 1.3-1.78 2.59-1.78 3.96z"/>
</svg>
