<svg xmlns="http://www.w3.org/2000/svg" viewBox="0 0 72 72">
  <path fill="#06c" d="M28.17 49.67a1.04 1.04 0 010-1.48c.2-.2.47-.3.74-.3s.55.1.75.3c.2.2.3.47.3.75s-.1.54-.3.73c-.4.4-1.1.4-1.5 0zm33.3-17.36v27.13a4.1 4.1 0 01-4.06 4.05h-43.5a4.1 4.1 0 01-4.05-4.05V32.3c0-3.1 1.4-5.98 3.83-7.9l17.84-14.06a6.7 6.7 0 018.31.04L57.63 24.4a9.99 9.99 0 013.83 7.9zm-12.6 27.88c0-.67-.55-1.2-1.2-1.2a.3.3 0 01-.3-.3v-1.5c0-.67-.55-1.2-1.2-1.2h-21c-.67 0-1.2.53-1.2 1.2v1.5a.3.3 0 01-.3.3 1.2 1.2 0 100 2.4h24c.65 0 1.2-.54 1.2-1.2zm0-14.25a3.41 3.41 0 00-3.46-3.45h-19.5a3.41 3.41 0 00-3.45 3.45v6.75c0 .66.54 1.2 1.2 1.2h24c.66 0 1.2-.54 1.2-1.2v-6.75zm-23.9-6c.22.28.58.45.94.45h19.52a1.2 1.2 0 001.16-1.48l-.64-2.76a3.44 3.44 0 00-3.36-2.66H28.73a3.43 3.43 0 00-3.36 2.66l-.64 2.76c-.09.36 0 .73.23 1.02zm34.4-7.63a7.9 7.9 0 00-3.04-6.25L38.5 12.01a4.67 4.67 0 00-5.66 0L15 26.05a7.9 7.9 0 00-3.03 6.25v27.13a1.9 1.9 0 001.95 1.95h6.75a1.2 1.2 0 100-2.4.3.3 0 01-.3-.3V45.94c0-1.24.44-2.43 1.26-3.45.13-.16.24-.45.27-.65l1.44-6.16.01-.06a5.6 5.6 0 015.4-4.23H42.6a5.6 5.6 0 015.4 4.28l1.46 6.24c.03.21.12.4.25.57a5.44 5.44 0 011.26 3.46v12.75a.3.3 0 01-.3.3 1.2 1.2 0 100 2.4h6.75a1.9 1.9 0 001.95-1.95V32.3zM43.15 49.67a1.04 1.04 0 000-1.48c-.2-.2-.47-.3-.75-.3a1.05 1.05 0 00-1.05 1.05c0 .28.11.54.3.73.4.4 1.1.4 1.5 0z"/>
</svg>
