<svg xmlns="http://www.w3.org/2000/svg" viewBox="0 0 72 72">
  <path fill="#06c" d="M37.6 42.93c1.26.47 2.4 1.3 3.7 2.72a45.37 45.37 0 013.93 5.4l1.49 2.22c3.96 5.79 9.4 11.7 19.7 11.7a1.04 1.04 0 001.05-1.05v-9a1.06 1.06 0 00-1.04-1.04c-2.62 0-4.6-1.11-6.85-3.84-1.59-1.92-3.08-4.52-4.67-7.27l-1.07-1.87c-1.85-3.17-4.08-6.78-7.17-9.54-2.45-2.18-5.79-3.59-9.64-4.06a1.2 1.2 0 01-1.05-1.2v-7.92a1.06 1.06 0 00-.48-.88l-15-9.75a1.06 1.06 0 00-1.15 0l-15 9.75a1.05 1.05 0 00-.47.88v31.88c0 .06 0 .13-.02.2a.91.91 0 000 .33l.02.2v8.27c0 .06 0 .13-.02.2a.91.91 0 000 .33l.02.2v4.14a1.08 1.08 0 00.3.77 1.06 1.06 0 001.5 0 1.04 1.04 0 00.3-.76v-2.26c0-.67.54-1.2 1.2-1.2h25.5c.66 0 1.2.53 1.2 1.2v2.25a1.08 1.08 0 00.3.77 1.06 1.06 0 001.5 0 1.04 1.04 0 00.3-.76V59.8l.01-.2a.97.97 0 000-.34 1.15 1.15 0 01-.01-.2V50.8l.01-.2a.97.97 0 000-.34 1.15 1.15 0 01-.01-.2v-6a1.2 1.2 0 011.62-1.13zm-3.72 14.25c0 .66-.54 1.2-1.2 1.2H7.18a1.2 1.2 0 01-1.2-1.2v-4.5c0-.67.54-1.2 1.2-1.2h25.5c.66 0 1.2.53 1.2 1.2v4.5zm0-9c0 .66-.54 1.2-1.2 1.2H7.18a1.2 1.2 0 01-1.2-1.2v-4.5c0-.67.54-1.2 1.2-1.2h25.5c.66 0 1.2.53 1.2 1.2v4.5zm0-9c0 .66-.54 1.2-1.2 1.2H7.18a1.2 1.2 0 01-1.2-1.2V19.4c0-.4.2-.79.54-1l12.75-8.3c.4-.25.91-.25 1.31 0l12.75 8.3c.34.21.55.6.55 1v19.78zm2.1.56v-9.15a1.2 1.2 0 011.38-1.19c3.22.5 5.8 1.65 7.91 3.53 2.73 2.43 4.86 5.78 6.75 9.03l1.15 2c1.54 2.7 3 5.25 4.78 7.42 1.92 2.32 4.1 3.77 6.5 4.31.54.13.93.61.93 1.17v4.5a1.2 1.2 0 01-1.32 1.2c-8.39-.86-12.45-5.86-15.6-10.47-.5-.71-.97-1.43-1.44-2.15a42.55 42.55 0 00-4.18-5.7 11.48 11.48 0 00-5.93-3.33 1.2 1.2 0 01-.93-1.17zm-16.05-6.26c2.1 0 4.03-.81 5.28-2.23a7.23 7.23 0 001.77-4.82c0-1.83-.63-3.54-1.77-4.82-1.25-1.42-3.18-2.23-5.28-2.23s-4.03.81-5.29 2.23a7.22 7.22 0 00-1.76 4.82c0 1.83.63 3.54 1.76 4.82a7.02 7.02 0 005.29 2.23zM16.2 23c.93-1.04 2.1-1.52 3.72-1.52s2.8.48 3.71 1.52a5.2 5.2 0 011.24 3.43 5.2 5.2 0 01-1.24 3.43c-.92 1.03-2.1 1.52-3.71 1.52s-2.8-.49-3.72-1.52a5.2 5.2 0 01-1.23-3.43c0-1.3.45-2.55 1.23-3.43z"/>
</svg>
