<svg xmlns="http://www.w3.org/2000/svg" viewBox="0 0 72 72">
  <path fill="#06c" d="M40.16 20.46c.1.1.18.22.23.33a1.08 1.08 0 010 .81 1.11 1.11 0 01-.57.58c-.12.05-.27.08-.42.08h-9a1.02 1.02 0 01-.77-.3 1.1 1.1 0 01-.23-.34 1.08 1.08 0 010-.82 1.07 1.07 0 011-.64h9c.15 0 .3.02.42.07s.24.13.34.23zm1.19 35.25v-7.16c0-.51-.32-.96-.8-1.14-2-.7-3.4-2.47-3.64-4.59a1.2 1.2 0 00-1.19-1.06H25.9a7.06 7.06 0 01-7.05-7.05v-.3a1.2 1.2 0 00-1.87-1L6.97 40.08a1.02 1.02 0 01-1.07.05c-.17-.1-.3-.22-.4-.38-.1-.16-.15-.35-.15-.54v-27a1.08 1.08 0 01.31-.76 1.04 1.04 0 01.77-.3 1 1 0 01.55.18l10 6.67a1.2 1.2 0 001.87-1v-.3a7.06 7.06 0 017.05-7.04h33a7.06 7.06 0 017.05 7.05v18a7.06 7.06 0 01-7.05 7.05h-9.83a1.2 1.2 0 00-1.2 1.06 5.49 5.49 0 01-3.63 4.6c-.48.17-.8.62-.8 1.13v7.16a4.9 4.9 0 004.96 4.95h16.5c.15 0 .3.02.42.07s.24.13.34.23c.1.1.18.22.23.33a1.08 1.08 0 010 .81 1.11 1.11 0 01-.57.58c-.12.05-.27.08-.42.08H48.4a7.06 7.06 0 01-7.05-7.05zm-22.5-33.3c0-.4-.2-.78-.54-1l-9-6a1.2 1.2 0 00-1.87 1V35a1.2 1.2 0 001.87 1l9-6c.33-.23.54-.6.54-1v-6.6zM58.9 39.66a4.9 4.9 0 004.95-4.95v-18a4.9 4.9 0 00-4.95-4.95h-33a4.9 4.9 0 00-4.95 4.95v18a4.9 4.9 0 004.95 4.95h33z"/>
</svg>
