<svg xmlns="http://www.w3.org/2000/svg" viewBox="0 0 72 72">
  <path fill="#06c" d="M16.16 41.47a1.08 1.08 0 01-.3-.76c0-5.92 5.13-11.38 12.79-13.58a1.1 1.1 0 01.98.2c.2.17.32.4.36.66a1.05 1.05 0 01-.78 1.16c-6.62 1.91-11.25 6.66-11.25 11.57a1.06 1.06 0 01-.63.98c-.27.11-.6.1-.8.02a1.17 1.17 0 01-.37-.25zm-10.8-.76c0-13.82 13.6-25.05 30.3-25.05 3.37 0 6.73.47 10 1.42a1.2 1.2 0 001.39-.59 10.06 10.06 0 018.86-5.33c5.54 0 10.05 4.5 10.05 10.05a9.96 9.96 0 01-2.9 7.03 1.2 1.2 0 00-.18 1.46 21.7 21.7 0 013.08 11c0 13.82-13.6 25.06-30.3 25.06S5.36 54.52 5.36 40.7zm36.6-10.5c0 2.77 2.18 4.95 4.95 4.95s4.95-2.18 4.95-4.95v-.01a27.46 27.46 0 00-.05-.44 1.04 1.04 0 01.4-.92c.15-.12.32-.2.46-.22.2-.02.38 0 .55.06a7.96 7.96 0 102.7-15.42 7.96 7.96 0 00-7.47 10.65 1.04 1.04 0 01-.16 1c-.1.13-.26.24-.41.31-.16.07-.33.1-.53.08a44.89 44.89 0 00-.44-.04 4.9 4.9 0 00-4.95 4.95zM7.46 40.7c0 12.65 12.65 22.95 28.2 22.95s28.2-10.3 28.2-22.95c0-3.4-.89-6.67-2.64-9.7a1.2 1.2 0 00-1.5-.51c-1.22.5-2.51.76-3.8.76-.1 0-.25-.04-.41-.08-.2-.05-.4-.1-.61-.12a1.2 1.2 0 00-1.31.88 7 7 0 01-6.68 5.32 7.06 7.06 0 01-7.05-7.05 7 7 0 015.32-6.67c.57-.16.95-.7.88-1.3a5.04 5.04 0 00-.12-.64c-.04-.16-.08-.3-.08-.4 0-.29.02-.58.05-.86a1.2 1.2 0 00-.87-1.26 34.08 34.08 0 00-9.38-1.32c-15.55 0-28.2 10.3-28.2 22.95zm-2.1-28.5c0-1.44.5-2.79 1.4-3.8.97-1.1 2.52-1.75 4.15-1.75s3.18.65 4.16 1.75a5.7 5.7 0 011.4 3.8 5.7 5.7 0 01-1.4 3.79c-.98 1.1-2.53 1.76-4.16 1.76S7.73 17.1 6.75 16a5.7 5.7 0 01-1.39-3.8zm2.1 0c0 .9.31 1.78.86 2.4.65.72 1.45 1.05 2.6 1.05s1.93-.33 2.58-1.06c.55-.61.86-1.49.86-2.4s-.31-1.78-.86-2.4c-.65-.72-1.44-1.04-2.59-1.04s-1.94.32-2.59 1.05a3.63 3.63 0 00-.86 2.4z"/>
</svg>
