<svg width="401" height="140" viewBox="0 0 401 140" fill="none" xmlns="http://www.w3.org/2000/svg">
  <path d="M85.9245 137H0.00850246V134.368C4.8965 130.232 9.34584 126.409 13.3565 122.9C17.4925 119.391 21.3152 115.944 24.8245 112.56C28.4592 109.176 31.9058 105.729 35.1645 102.22C38.4232 98.7107 41.7445 94.9507 45.1285 90.94C53.1498 81.164 58.6018 71.7013 61.4845 62.552C64.4925 53.4027 65.9965 44.9427 65.9965 37.172C65.9965 25.892 64.0538 17.3693 60.1685 11.604C56.4085 5.83866 50.3925 2.95599 42.1205 2.95599C35.7285 2.95599 30.4645 4.39732 26.3285 7.27999C22.1925 10.0373 20.1245 13.9227 20.1245 18.936C20.1245 20.6907 20.5005 22.508 21.2525 24.388C22.1298 26.1427 22.5685 27.96 22.5685 29.84C22.5685 31.9707 21.8165 33.6 20.3125 34.728C18.8085 35.7307 17.0538 36.232 15.0485 36.232C12.4165 36.232 10.1605 35.5427 8.2805 34.164C6.4005 32.7853 5.4605 30.2787 5.4605 26.644C5.4605 23.3853 6.4005 20.1893 8.2805 17.056C10.1605 13.7973 12.7298 10.9773 15.9885 8.59599C19.2472 6.08933 23.1325 4.084 27.6445 2.57999C32.1565 1.07599 36.9818 0.323989 42.1205 0.323989C49.3898 0.323989 55.5938 1.38932 60.7325 3.51999C65.9965 5.65066 70.3205 8.47066 73.7045 11.98C77.0885 15.364 79.5952 19.2493 81.2245 23.636C82.8538 28.0227 83.6685 32.5347 83.6685 37.172C83.6685 42.812 82.8538 48.076 81.2245 52.964C79.5952 57.7267 77.3392 62.2387 74.4565 66.5C71.6992 70.7613 68.5032 74.8347 64.8685 78.72C61.2338 82.6053 57.4112 86.4907 53.4005 90.376C47.7605 96.016 42.1832 101.405 36.6685 106.544C31.2792 111.683 25.3258 117.197 18.8085 123.088H61.8605C69.2552 123.088 74.5818 121.333 77.8405 117.824C81.0992 114.189 83.1045 109.239 83.8565 102.972H85.9245V137ZM126.632 69.884C126.632 81.54 126.946 91.6293 127.572 100.152C128.324 108.549 129.578 115.505 131.332 121.02C133.212 126.409 135.782 130.42 139.04 133.052C142.299 135.684 146.56 137 151.824 137C157.088 137 161.35 135.684 164.608 133.052C167.867 130.42 170.374 126.409 172.128 121.02C174.008 115.505 175.262 108.549 175.888 100.152C176.64 91.6293 177.016 81.54 177.016 69.884C177.016 58.228 176.64 48.2013 175.888 39.804C175.262 31.4067 174.008 24.5133 172.128 19.124C170.374 13.6093 167.867 9.536 164.608 6.90399C161.35 4.27199 157.088 2.95599 151.824 2.95599C146.56 2.95599 142.299 4.27199 139.04 6.90399C135.782 9.536 133.212 13.6093 131.332 19.124C129.578 24.5133 128.324 31.4067 127.572 39.804C126.946 48.2013 126.632 58.228 126.632 69.884ZM107.832 69.884C107.832 62.364 108.396 54.5307 109.524 46.384C110.778 38.112 113.034 30.592 116.292 23.824C119.551 16.9307 124 11.2907 129.64 6.90399C135.406 2.51732 142.8 0.323989 151.824 0.323989C160.848 0.323989 168.18 2.51732 173.82 6.90399C179.586 11.2907 184.098 16.9307 187.356 23.824C190.615 30.592 192.808 38.112 193.936 46.384C195.19 54.5307 195.816 62.364 195.816 69.884C195.816 77.5293 195.19 85.488 193.936 93.76C192.808 101.907 190.615 109.427 187.356 116.32C184.098 123.088 179.586 128.665 173.82 133.052C168.18 137.439 160.848 139.632 151.824 139.632C142.8 139.632 135.406 137.439 129.64 133.052C124 128.665 119.551 123.088 116.292 116.32C113.034 109.427 110.778 101.907 109.524 93.76C108.396 85.488 107.832 77.5293 107.832 69.884ZM231.824 69.884C231.824 81.54 232.138 91.6293 232.764 100.152C233.516 108.549 234.77 115.505 236.524 121.02C238.404 126.409 240.974 130.42 244.232 133.052C247.491 135.684 251.752 137 257.016 137C262.28 137 266.542 135.684 269.8 133.052C273.059 130.42 275.566 126.409 277.32 121.02C279.2 115.505 280.454 108.549 281.08 100.152C281.832 91.6293 282.208 81.54 282.208 69.884C282.208 58.228 281.832 48.2013 281.08 39.804C280.454 31.4067 279.2 24.5133 277.32 19.124C275.566 13.6093 273.059 9.536 269.8 6.90399C266.542 4.27199 262.28 2.95599 257.016 2.95599C251.752 2.95599 247.491 4.27199 244.232 6.90399C240.974 9.536 238.404 13.6093 236.524 19.124C234.77 24.5133 233.516 31.4067 232.764 39.804C232.138 48.2013 231.824 58.228 231.824 69.884ZM213.024 69.884C213.024 62.364 213.588 54.5307 214.716 46.384C215.97 38.112 218.226 30.592 221.484 23.824C224.743 16.9307 229.192 11.2907 234.832 6.90399C240.598 2.51732 247.992 0.323989 257.016 0.323989C266.04 0.323989 273.372 2.51732 279.012 6.90399C284.778 11.2907 289.29 16.9307 292.548 23.824C295.807 30.592 298 38.112 299.128 46.384C300.382 54.5307 301.008 62.364 301.008 69.884C301.008 77.5293 300.382 85.488 299.128 93.76C298 101.907 295.807 109.427 292.548 116.32C289.29 123.088 284.778 128.665 279.012 133.052C273.372 137.439 266.04 139.632 257.016 139.632C247.992 139.632 240.598 137.439 234.832 133.052C229.192 128.665 224.743 123.088 221.484 116.32C218.226 109.427 215.97 101.907 214.716 93.76C213.588 85.488 213.024 77.5293 213.024 69.884ZM335.888 0.323989H342.092C343.972 2.20399 345.852 4.084 347.732 5.96399C349.737 7.84399 351.868 9.53599 354.124 11.04C356.505 12.544 359.137 13.7347 362.02 14.612C364.903 15.4893 368.224 15.928 371.984 15.928C374.491 15.928 376.809 15.74 378.94 15.364C381.071 14.8627 383.139 14.048 385.144 12.92C387.149 11.6667 389.155 10.0373 391.16 8.03199C393.291 6.02666 395.609 3.45733 398.116 0.323989L400.184 1.63999C396.8 6.27733 393.729 10.3507 390.972 13.86C388.215 17.3693 385.457 20.3147 382.7 22.696C380.068 24.952 377.248 26.644 374.24 27.772C371.232 28.9 367.785 29.464 363.9 29.464C361.644 29.464 359.513 29.3387 357.508 29.088C355.628 28.712 353.56 28.148 351.304 27.396C349.173 26.644 346.855 25.7667 344.348 24.764C341.841 23.636 338.959 22.32 335.7 20.816L328.556 66.5L328.932 66.876C331.815 62.74 335.763 59.4813 340.776 57.1C345.789 54.7187 351.68 53.528 358.448 53.528C365.216 53.528 371.169 54.7187 376.308 57.1C381.572 59.356 385.959 62.364 389.468 66.124C392.977 69.884 395.609 74.208 397.364 79.096C399.119 83.8587 399.996 88.7467 399.996 93.76C399.996 97.52 399.244 102.032 397.74 107.296C396.361 112.435 393.917 117.448 390.408 122.336C387.024 127.099 382.387 131.172 376.496 134.556C370.605 137.94 363.211 139.632 354.312 139.632C347.669 139.632 342.217 138.755 337.956 137C333.82 135.371 330.499 133.428 327.992 131.172C325.485 128.791 323.731 126.409 322.728 124.028C321.851 121.521 321.412 119.453 321.412 117.824C321.412 114.941 322.352 112.936 324.232 111.808C326.237 110.555 328.493 109.928 331 109.928C333.632 109.928 335.7 110.555 337.204 111.808C338.833 113.061 339.648 114.941 339.648 117.448C339.648 118.325 339.585 119.328 339.46 120.456C339.46 121.584 339.46 122.524 339.46 123.276C339.46 128.916 341.027 132.613 344.16 134.368C347.293 136.123 351.492 137 356.756 137C360.892 137 364.464 136.311 367.472 134.932C370.605 133.553 373.237 131.109 375.368 127.6C377.499 124.091 379.065 119.391 380.068 113.5C381.196 107.484 381.76 99.9013 381.76 90.752C381.76 85.488 381.384 80.7253 380.632 76.464C379.88 72.2027 378.564 68.568 376.684 65.56C374.929 62.552 372.485 60.2333 369.352 58.604C366.219 56.9747 362.208 56.16 357.32 56.16C351.68 56.16 346.98 57.0373 343.22 58.792C339.46 60.4213 336.389 62.4267 334.008 64.808C331.627 67.1893 329.809 69.696 328.556 72.328C327.428 74.96 326.613 77.216 326.112 79.096L324.044 78.532L335.888 0.323989Z" fill="#111111" fill-opacity="0.08"/>
</svg>
