<svg width="404" height="140" viewBox="0 0 404 140" fill="none" xmlns="http://www.w3.org/2000/svg">
  <path d="M85.9245 137H0.00850246V134.368C4.8965 130.232 9.34584 126.409 13.3565 122.9C17.4925 119.391 21.3152 115.944 24.8245 112.56C28.4592 109.176 31.9058 105.729 35.1645 102.22C38.4232 98.7107 41.7445 94.9507 45.1285 90.94C53.1498 81.164 58.6018 71.7013 61.4845 62.552C64.4925 53.4027 65.9965 44.9427 65.9965 37.172C65.9965 25.892 64.0538 17.3693 60.1685 11.604C56.4085 5.83866 50.3925 2.95599 42.1205 2.95599C35.7285 2.95599 30.4645 4.39732 26.3285 7.27999C22.1925 10.0373 20.1245 13.9227 20.1245 18.936C20.1245 20.6907 20.5005 22.508 21.2525 24.388C22.1298 26.1427 22.5685 27.96 22.5685 29.84C22.5685 31.9707 21.8165 33.6 20.3125 34.728C18.8085 35.7307 17.0538 36.232 15.0485 36.232C12.4165 36.232 10.1605 35.5427 8.2805 34.164C6.4005 32.7853 5.4605 30.2787 5.4605 26.644C5.4605 23.3853 6.4005 20.1893 8.2805 17.056C10.1605 13.7973 12.7298 10.9773 15.9885 8.59599C19.2472 6.08933 23.1325 4.084 27.6445 2.57999C32.1565 1.07599 36.9818 0.323989 42.1205 0.323989C49.3898 0.323989 55.5938 1.38932 60.7325 3.51999C65.9965 5.65066 70.3205 8.47066 73.7045 11.98C77.0885 15.364 79.5952 19.2493 81.2245 23.636C82.8538 28.0227 83.6685 32.5347 83.6685 37.172C83.6685 42.812 82.8538 48.076 81.2245 52.964C79.5952 57.7267 77.3392 62.2387 74.4565 66.5C71.6992 70.7613 68.5032 74.8347 64.8685 78.72C61.2338 82.6053 57.4112 86.4907 53.4005 90.376C47.7605 96.016 42.1832 101.405 36.6685 106.544C31.2792 111.683 25.3258 117.197 18.8085 123.088H61.8605C69.2552 123.088 74.5818 121.333 77.8405 117.824C81.0992 114.189 83.1045 109.239 83.8565 102.972H85.9245V137ZM126.632 69.884C126.632 81.54 126.946 91.6293 127.572 100.152C128.324 108.549 129.578 115.505 131.332 121.02C133.212 126.409 135.782 130.42 139.04 133.052C142.299 135.684 146.56 137 151.824 137C157.088 137 161.35 135.684 164.608 133.052C167.867 130.42 170.374 126.409 172.128 121.02C174.008 115.505 175.262 108.549 175.888 100.152C176.64 91.6293 177.016 81.54 177.016 69.884C177.016 58.228 176.64 48.2013 175.888 39.804C175.262 31.4067 174.008 24.5133 172.128 19.124C170.374 13.6093 167.867 9.536 164.608 6.90399C161.35 4.27199 157.088 2.95599 151.824 2.95599C146.56 2.95599 142.299 4.27199 139.04 6.90399C135.782 9.536 133.212 13.6093 131.332 19.124C129.578 24.5133 128.324 31.4067 127.572 39.804C126.946 48.2013 126.632 58.228 126.632 69.884ZM107.832 69.884C107.832 62.364 108.396 54.5307 109.524 46.384C110.778 38.112 113.034 30.592 116.292 23.824C119.551 16.9307 124 11.2907 129.64 6.90399C135.406 2.51732 142.8 0.323989 151.824 0.323989C160.848 0.323989 168.18 2.51732 173.82 6.90399C179.586 11.2907 184.098 16.9307 187.356 23.824C190.615 30.592 192.808 38.112 193.936 46.384C195.19 54.5307 195.816 62.364 195.816 69.884C195.816 77.5293 195.19 85.488 193.936 93.76C192.808 101.907 190.615 109.427 187.356 116.32C184.098 123.088 179.586 128.665 173.82 133.052C168.18 137.439 160.848 139.632 151.824 139.632C142.8 139.632 135.406 137.439 129.64 133.052C124 128.665 119.551 123.088 116.292 116.32C113.034 109.427 110.778 101.907 109.524 93.76C108.396 85.488 107.832 77.5293 107.832 69.884ZM231.824 69.884C231.824 81.54 232.138 91.6293 232.764 100.152C233.516 108.549 234.77 115.505 236.524 121.02C238.404 126.409 240.974 130.42 244.232 133.052C247.491 135.684 251.752 137 257.016 137C262.28 137 266.542 135.684 269.8 133.052C273.059 130.42 275.566 126.409 277.32 121.02C279.2 115.505 280.454 108.549 281.08 100.152C281.832 91.6293 282.208 81.54 282.208 69.884C282.208 58.228 281.832 48.2013 281.08 39.804C280.454 31.4067 279.2 24.5133 277.32 19.124C275.566 13.6093 273.059 9.536 269.8 6.90399C266.542 4.27199 262.28 2.95599 257.016 2.95599C251.752 2.95599 247.491 4.27199 244.232 6.90399C240.974 9.536 238.404 13.6093 236.524 19.124C234.77 24.5133 233.516 31.4067 232.764 39.804C232.138 48.2013 231.824 58.228 231.824 69.884ZM213.024 69.884C213.024 62.364 213.588 54.5307 214.716 46.384C215.97 38.112 218.226 30.592 221.484 23.824C224.743 16.9307 229.192 11.2907 234.832 6.90399C240.598 2.51732 247.992 0.323989 257.016 0.323989C266.04 0.323989 273.372 2.51732 279.012 6.90399C284.778 11.2907 289.29 16.9307 292.548 23.824C295.807 30.592 298 38.112 299.128 46.384C300.382 54.5307 301.008 62.364 301.008 69.884C301.008 77.5293 300.382 85.488 299.128 93.76C298 101.907 295.807 109.427 292.548 116.32C289.29 123.088 284.778 128.665 279.012 133.052C273.372 137.439 266.04 139.632 257.016 139.632C247.992 139.632 240.598 137.439 234.832 133.052C229.192 128.665 224.743 123.088 221.484 116.32C218.226 109.427 215.97 101.907 214.716 93.76C213.588 85.488 213.024 77.5293 213.024 69.884ZM339.46 27.96C339.46 31.9707 340.024 35.4173 341.152 38.3C342.405 41.1827 344.16 43.6893 346.416 45.82C347.293 46.6973 348.609 47.7 350.364 48.828C352.119 49.956 354.061 51.1467 356.192 52.4C358.323 53.528 360.579 54.7187 362.96 55.972C365.467 57.1 367.911 58.228 370.292 59.356C371.796 58.4787 373.3 57.3507 374.804 55.972C376.433 54.468 377.937 52.6507 379.316 50.52C380.695 48.264 381.823 45.632 382.7 42.624C383.577 39.616 384.016 36.1693 384.016 32.284C384.016 28.524 383.765 24.8893 383.264 21.38C382.763 17.8707 381.823 14.7373 380.444 11.98C379.065 9.22266 376.997 7.02933 374.24 5.39999C371.608 3.77066 368.161 2.95599 363.9 2.95599C356.38 2.95599 350.427 5.27466 346.04 9.91199C341.653 14.5493 339.46 20.5653 339.46 27.96ZM335.888 105.604C335.888 109.74 336.327 113.688 337.204 117.448C338.207 121.208 339.711 124.592 341.716 127.6C343.847 130.483 346.541 132.801 349.8 134.556C353.184 136.185 357.257 137 362.02 137C366.156 137 369.853 135.997 373.112 133.992C376.371 131.861 379.191 129.292 381.572 126.284C383.953 123.151 385.771 119.704 387.024 115.944C388.277 112.184 388.904 108.612 388.904 105.228C388.904 99.8387 387.901 95.3893 385.896 91.88C384.016 88.2453 381.447 85.1747 378.188 82.668C375.055 80.036 371.42 77.7173 367.284 75.712C363.273 73.7067 359.2 71.6387 355.064 69.508C350.928 71.5133 347.607 73.832 345.1 76.464C342.593 78.9707 340.651 81.728 339.272 84.736C337.893 87.744 336.953 91.0027 336.452 94.512C336.076 98.0213 335.888 101.719 335.888 105.604ZM320.472 104.288C320.472 98.8987 321.6 94.1987 323.856 90.188C326.237 86.1773 329.057 82.7307 332.316 79.848C335.7 76.9653 339.209 74.584 342.844 72.704C346.604 70.824 349.8 69.32 352.432 68.192C348.797 66.5627 345.351 64.808 342.092 62.928C338.959 60.9227 336.201 58.6667 333.82 56.16C331.564 53.528 329.747 50.4573 328.368 46.948C327.115 43.4387 326.488 39.1773 326.488 34.164C326.488 29.276 327.553 24.764 329.684 20.628C331.94 16.492 334.823 12.92 338.332 9.91199C341.841 6.90399 345.789 4.58532 350.176 2.95599C354.688 1.20132 359.263 0.323989 363.9 0.323989C368.161 0.323989 372.36 1.01332 376.496 2.392C380.632 3.64533 384.267 5.52533 387.4 8.03199C390.659 10.4133 393.228 13.3587 395.108 16.868C397.113 20.252 398.116 24.0747 398.116 28.336C398.116 32.3467 397.427 35.9187 396.048 39.052C394.669 42.06 392.789 44.88 390.408 47.512C388.027 50.0187 385.332 52.3373 382.324 54.468C379.316 56.5987 376.183 58.6667 372.924 60.672C376.559 62.4267 380.193 64.432 383.828 66.688C387.588 68.8187 390.909 71.388 393.792 74.396C396.8 77.404 399.244 80.8507 401.124 84.736C403.004 88.6213 403.944 93.008 403.944 97.896C403.944 103.411 402.941 108.675 400.936 113.688C398.931 118.701 395.985 123.151 392.1 127.036C388.34 130.796 383.703 133.867 378.188 136.248C372.799 138.504 366.657 139.632 359.764 139.632C354.249 139.632 349.048 138.755 344.16 137C339.397 135.245 335.261 132.801 331.752 129.668C328.243 126.535 325.485 122.837 323.48 118.576C321.475 114.189 320.472 109.427 320.472 104.288Z" fill="#111111" fill-opacity="0.08"/>
</svg>
