<svg width="402" height="140" viewBox="0 0 402 140" fill="none" xmlns="http://www.w3.org/2000/svg">
  <path d="M85.9245 137H0.00850246V134.368C4.8965 130.232 9.34584 126.409 13.3565 122.9C17.4925 119.391 21.3152 115.944 24.8245 112.56C28.4592 109.176 31.9058 105.729 35.1645 102.22C38.4232 98.7107 41.7445 94.9507 45.1285 90.94C53.1498 81.164 58.6018 71.7013 61.4845 62.552C64.4925 53.4027 65.9965 44.9427 65.9965 37.172C65.9965 25.892 64.0538 17.3693 60.1685 11.604C56.4085 5.83866 50.3925 2.95599 42.1205 2.95599C35.7285 2.95599 30.4645 4.39732 26.3285 7.27999C22.1925 10.0373 20.1245 13.9227 20.1245 18.936C20.1245 20.6907 20.5005 22.508 21.2525 24.388C22.1298 26.1427 22.5685 27.96 22.5685 29.84C22.5685 31.9707 21.8165 33.6 20.3125 34.728C18.8085 35.7307 17.0538 36.232 15.0485 36.232C12.4165 36.232 10.1605 35.5427 8.2805 34.164C6.4005 32.7853 5.4605 30.2787 5.4605 26.644C5.4605 23.3853 6.4005 20.1893 8.2805 17.056C10.1605 13.7973 12.7298 10.9773 15.9885 8.59599C19.2472 6.08933 23.1325 4.084 27.6445 2.57999C32.1565 1.07599 36.9818 0.323989 42.1205 0.323989C49.3898 0.323989 55.5938 1.38932 60.7325 3.51999C65.9965 5.65066 70.3205 8.47066 73.7045 11.98C77.0885 15.364 79.5952 19.2493 81.2245 23.636C82.8538 28.0227 83.6685 32.5347 83.6685 37.172C83.6685 42.812 82.8538 48.076 81.2245 52.964C79.5952 57.7267 77.3392 62.2387 74.4565 66.5C71.6992 70.7613 68.5032 74.8347 64.8685 78.72C61.2338 82.6053 57.4112 86.4907 53.4005 90.376C47.7605 96.016 42.1832 101.405 36.6685 106.544C31.2792 111.683 25.3258 117.197 18.8085 123.088H61.8605C69.2552 123.088 74.5818 121.333 77.8405 117.824C81.0992 114.189 83.1045 109.239 83.8565 102.972H85.9245V137ZM126.632 69.884C126.632 81.54 126.946 91.6293 127.572 100.152C128.324 108.549 129.578 115.505 131.332 121.02C133.212 126.409 135.782 130.42 139.04 133.052C142.299 135.684 146.56 137 151.824 137C157.088 137 161.35 135.684 164.608 133.052C167.867 130.42 170.374 126.409 172.128 121.02C174.008 115.505 175.262 108.549 175.888 100.152C176.64 91.6293 177.016 81.54 177.016 69.884C177.016 58.228 176.64 48.2013 175.888 39.804C175.262 31.4067 174.008 24.5133 172.128 19.124C170.374 13.6093 167.867 9.536 164.608 6.90399C161.35 4.27199 157.088 2.95599 151.824 2.95599C146.56 2.95599 142.299 4.27199 139.04 6.90399C135.782 9.536 133.212 13.6093 131.332 19.124C129.578 24.5133 128.324 31.4067 127.572 39.804C126.946 48.2013 126.632 58.228 126.632 69.884ZM107.832 69.884C107.832 62.364 108.396 54.5307 109.524 46.384C110.778 38.112 113.034 30.592 116.292 23.824C119.551 16.9307 124 11.2907 129.64 6.90399C135.406 2.51732 142.8 0.323989 151.824 0.323989C160.848 0.323989 168.18 2.51732 173.82 6.90399C179.586 11.2907 184.098 16.9307 187.356 23.824C190.615 30.592 192.808 38.112 193.936 46.384C195.19 54.5307 195.816 62.364 195.816 69.884C195.816 77.5293 195.19 85.488 193.936 93.76C192.808 101.907 190.615 109.427 187.356 116.32C184.098 123.088 179.586 128.665 173.82 133.052C168.18 137.439 160.848 139.632 151.824 139.632C142.8 139.632 135.406 137.439 129.64 133.052C124 128.665 119.551 123.088 116.292 116.32C113.034 109.427 110.778 101.907 109.524 93.76C108.396 85.488 107.832 77.5293 107.832 69.884ZM231.448 134.368H252.316V15.176C250.436 16.5547 248.306 17.9333 245.924 19.312L224.492 31.532L222.988 29.088C231.26 24.4507 238.78 20.0013 245.548 15.74C252.316 11.4787 258.708 6.33999 264.724 0.323989H268.484V134.368H289.352V137H231.448V134.368ZM401.5 137H315.584V134.368C320.472 130.232 324.921 126.409 328.932 122.9C333.068 119.391 336.891 115.944 340.4 112.56C344.035 109.176 347.481 105.729 350.74 102.22C353.999 98.7107 357.32 94.9507 360.704 90.94C368.725 81.164 374.177 71.7013 377.06 62.552C380.068 53.4027 381.572 44.9427 381.572 37.172C381.572 25.892 379.629 17.3693 375.744 11.604C371.984 5.83866 365.968 2.95599 357.696 2.95599C351.304 2.95599 346.04 4.39732 341.904 7.27999C337.768 10.0373 335.7 13.9227 335.7 18.936C335.7 20.6907 336.076 22.508 336.828 24.388C337.705 26.1427 338.144 27.96 338.144 29.84C338.144 31.9707 337.392 33.6 335.888 34.728C334.384 35.7307 332.629 36.232 330.624 36.232C327.992 36.232 325.736 35.5427 323.856 34.164C321.976 32.7853 321.036 30.2787 321.036 26.644C321.036 23.3853 321.976 20.1893 323.856 17.056C325.736 13.7973 328.305 10.9773 331.564 8.59599C334.823 6.08933 338.708 4.084 343.22 2.57999C347.732 1.07599 352.557 0.323989 357.696 0.323989C364.965 0.323989 371.169 1.38932 376.308 3.51999C381.572 5.65066 385.896 8.47066 389.28 11.98C392.664 15.364 395.171 19.2493 396.8 23.636C398.429 28.0227 399.244 32.5347 399.244 37.172C399.244 42.812 398.429 48.076 396.8 52.964C395.171 57.7267 392.915 62.2387 390.032 66.5C387.275 70.7613 384.079 74.8347 380.444 78.72C376.809 82.6053 372.987 86.4907 368.976 90.376C363.336 96.016 357.759 101.405 352.244 106.544C346.855 111.683 340.901 117.197 334.384 123.088H377.436C384.831 123.088 390.157 121.333 393.416 117.824C396.675 114.189 398.68 109.239 399.432 102.972H401.5V137Z" fill="#111111" fill-opacity="0.08"/>
</svg>
