<svg width="401" height="140" viewBox="0 0 401 140" fill="none" xmlns="http://www.w3.org/2000/svg">
  <path d="M85.9245 137H0.00850246V134.368C4.8965 130.232 9.34584 126.409 13.3565 122.9C17.4925 119.391 21.3152 115.944 24.8245 112.56C28.4592 109.176 31.9058 105.729 35.1645 102.22C38.4232 98.7107 41.7445 94.9507 45.1285 90.94C53.1498 81.164 58.6018 71.7013 61.4845 62.552C64.4925 53.4027 65.9965 44.9427 65.9965 37.172C65.9965 25.892 64.0538 17.3693 60.1685 11.604C56.4085 5.83866 50.3925 2.95599 42.1205 2.95599C35.7285 2.95599 30.4645 4.39732 26.3285 7.27999C22.1925 10.0373 20.1245 13.9227 20.1245 18.936C20.1245 20.6907 20.5005 22.508 21.2525 24.388C22.1298 26.1427 22.5685 27.96 22.5685 29.84C22.5685 31.9707 21.8165 33.6 20.3125 34.728C18.8085 35.7307 17.0538 36.232 15.0485 36.232C12.4165 36.232 10.1605 35.5427 8.2805 34.164C6.4005 32.7853 5.4605 30.2787 5.4605 26.644C5.4605 23.3853 6.4005 20.1893 8.2805 17.056C10.1605 13.7973 12.7298 10.9773 15.9885 8.59599C19.2472 6.08933 23.1325 4.084 27.6445 2.57999C32.1565 1.07599 36.9818 0.323989 42.1205 0.323989C49.3898 0.323989 55.5938 1.38932 60.7325 3.51999C65.9965 5.65066 70.3205 8.47066 73.7045 11.98C77.0885 15.364 79.5952 19.2493 81.2245 23.636C82.8538 28.0227 83.6685 32.5347 83.6685 37.172C83.6685 42.812 82.8538 48.076 81.2245 52.964C79.5952 57.7267 77.3392 62.2387 74.4565 66.5C71.6992 70.7613 68.5032 74.8347 64.8685 78.72C61.2338 82.6053 57.4112 86.4907 53.4005 90.376C47.7605 96.016 42.1832 101.405 36.6685 106.544C31.2792 111.683 25.3258 117.197 18.8085 123.088H61.8605C69.2552 123.088 74.5818 121.333 77.8405 117.824C81.0992 114.189 83.1045 109.239 83.8565 102.972H85.9245V137ZM126.632 69.884C126.632 81.54 126.946 91.6293 127.572 100.152C128.324 108.549 129.578 115.505 131.332 121.02C133.212 126.409 135.782 130.42 139.04 133.052C142.299 135.684 146.56 137 151.824 137C157.088 137 161.35 135.684 164.608 133.052C167.867 130.42 170.374 126.409 172.128 121.02C174.008 115.505 175.262 108.549 175.888 100.152C176.64 91.6293 177.016 81.54 177.016 69.884C177.016 58.228 176.64 48.2013 175.888 39.804C175.262 31.4067 174.008 24.5133 172.128 19.124C170.374 13.6093 167.867 9.536 164.608 6.90399C161.35 4.27199 157.088 2.95599 151.824 2.95599C146.56 2.95599 142.299 4.27199 139.04 6.90399C135.782 9.536 133.212 13.6093 131.332 19.124C129.578 24.5133 128.324 31.4067 127.572 39.804C126.946 48.2013 126.632 58.228 126.632 69.884ZM107.832 69.884C107.832 62.364 108.396 54.5307 109.524 46.384C110.778 38.112 113.034 30.592 116.292 23.824C119.551 16.9307 124 11.2907 129.64 6.90399C135.406 2.51732 142.8 0.323989 151.824 0.323989C160.848 0.323989 168.18 2.51732 173.82 6.90399C179.586 11.2907 184.098 16.9307 187.356 23.824C190.615 30.592 192.808 38.112 193.936 46.384C195.19 54.5307 195.816 62.364 195.816 69.884C195.816 77.5293 195.19 85.488 193.936 93.76C192.808 101.907 190.615 109.427 187.356 116.32C184.098 123.088 179.586 128.665 173.82 133.052C168.18 137.439 160.848 139.632 151.824 139.632C142.8 139.632 135.406 137.439 129.64 133.052C124 128.665 119.551 123.088 116.292 116.32C113.034 109.427 110.778 101.907 109.524 93.76C108.396 85.488 107.832 77.5293 107.832 69.884ZM231.448 134.368H252.316V15.176C250.436 16.5547 248.306 17.9333 245.924 19.312L224.492 31.532L222.988 29.088C231.26 24.4507 238.78 20.0013 245.548 15.74C252.316 11.4787 258.708 6.33999 264.724 0.323989H268.484V134.368H289.352V137H231.448V134.368ZM333.632 67.064C334.635 66.5627 335.637 66.0613 336.64 65.56C337.643 65.0587 338.771 64.5573 340.024 64.056C341.403 63.5547 342.969 63.0533 344.724 62.552C346.604 61.9253 348.797 61.2987 351.304 60.672C356.819 59.168 361.393 57.288 365.028 55.032C368.663 52.776 371.483 50.144 373.488 47.136C375.619 44.128 377.06 40.8067 377.812 37.172C378.689 33.5373 379.128 29.5893 379.128 25.328C379.128 22.32 378.815 19.5 378.188 16.868C377.561 14.1107 376.496 11.7293 374.992 9.72399C373.488 7.59333 371.483 5.964 368.976 4.836C366.595 3.58266 363.524 2.95599 359.764 2.95599C355.628 2.95599 352.244 3.51999 349.612 4.64799C346.98 5.65066 344.912 6.90399 343.408 8.408C342.029 9.78666 341.089 11.228 340.588 12.732C340.087 14.1107 339.836 15.2387 339.836 16.116C339.836 19.5 340.337 22.0693 341.34 23.824C342.468 25.5787 343.032 27.1453 343.032 28.524C343.032 30.78 342.217 32.3467 340.588 33.224C339.084 34.1013 337.267 34.54 335.136 34.54C329.621 34.54 326.864 31.8453 326.864 26.456C326.864 24.8267 327.365 22.5707 328.368 19.688C329.496 16.68 331.376 13.7347 334.008 10.852C336.64 7.96933 340.149 5.52533 344.536 3.51999C349.048 1.38932 354.625 0.323989 361.268 0.323989C367.284 0.323989 372.485 1.26399 376.872 3.144C381.384 5.024 385.081 7.40533 387.964 10.288C390.847 13.0453 392.977 16.116 394.356 19.5C395.735 22.7587 396.424 25.892 396.424 28.9C396.424 34.164 394.857 38.676 391.724 42.436C388.716 46.196 385.144 49.3293 381.008 51.836C376.997 54.3427 372.924 56.2853 368.788 57.664C364.652 59.0427 361.519 59.92 359.388 60.296V60.672C364.777 60.9227 369.979 61.988 374.992 63.868C380.005 65.748 384.455 68.38 388.34 71.764C392.225 75.0227 395.296 78.908 397.552 83.42C399.808 87.932 400.936 93.008 400.936 98.648C400.936 103.661 399.808 108.612 397.552 113.5C395.421 118.388 392.351 122.775 388.34 126.66C384.455 130.545 379.692 133.679 374.052 136.06C368.537 138.441 362.396 139.632 355.628 139.632C349.361 139.632 344.035 138.755 339.648 137C335.261 135.371 331.627 133.177 328.744 130.42C325.861 127.537 323.605 124.404 321.976 121.02C320.347 117.511 319.219 113.939 318.592 110.304L321.224 109.74C321.475 111.495 322.101 113.876 323.104 116.884C324.107 119.892 325.799 122.9 328.18 125.908C330.687 128.916 334.071 131.548 338.332 133.804C342.719 135.935 348.359 137 355.252 137C359.137 137 362.772 136.436 366.156 135.308C369.54 134.18 372.423 132.112 374.804 129.104C377.311 126.096 379.253 122.023 380.632 116.884C382.011 111.62 382.7 104.915 382.7 96.768C382.7 92.632 382.387 88.5587 381.76 84.548C381.133 80.412 379.88 76.7773 378 73.644C376.12 70.3853 373.551 67.7533 370.292 65.748C367.033 63.7427 362.772 62.74 357.508 62.74C353.121 62.74 349.111 63.4293 345.476 64.808C341.841 66.0613 338.457 67.816 335.324 70.072L333.632 67.064Z" fill="#111111" fill-opacity="0.08"/>
</svg>
