<svg width="406" height="140" viewBox="0 0 406 140" fill="none" xmlns="http://www.w3.org/2000/svg">
  <path d="M85.9245 137H0.00850246V134.368C4.8965 130.232 9.34584 126.409 13.3565 122.9C17.4925 119.391 21.3152 115.944 24.8245 112.56C28.4592 109.176 31.9058 105.729 35.1645 102.22C38.4232 98.7107 41.7445 94.9507 45.1285 90.94C53.1498 81.164 58.6018 71.7013 61.4845 62.552C64.4925 53.4027 65.9965 44.9427 65.9965 37.172C65.9965 25.892 64.0538 17.3693 60.1685 11.604C56.4085 5.83866 50.3925 2.95599 42.1205 2.95599C35.7285 2.95599 30.4645 4.39732 26.3285 7.27999C22.1925 10.0373 20.1245 13.9227 20.1245 18.936C20.1245 20.6907 20.5005 22.508 21.2525 24.388C22.1298 26.1427 22.5685 27.96 22.5685 29.84C22.5685 31.9707 21.8165 33.6 20.3125 34.728C18.8085 35.7307 17.0538 36.232 15.0485 36.232C12.4165 36.232 10.1605 35.5427 8.2805 34.164C6.4005 32.7853 5.4605 30.2787 5.4605 26.644C5.4605 23.3853 6.4005 20.1893 8.2805 17.056C10.1605 13.7973 12.7298 10.9773 15.9885 8.59599C19.2472 6.08933 23.1325 4.084 27.6445 2.57999C32.1565 1.07599 36.9818 0.323989 42.1205 0.323989C49.3898 0.323989 55.5938 1.38932 60.7325 3.51999C65.9965 5.65066 70.3205 8.47066 73.7045 11.98C77.0885 15.364 79.5952 19.2493 81.2245 23.636C82.8538 28.0227 83.6685 32.5347 83.6685 37.172C83.6685 42.812 82.8538 48.076 81.2245 52.964C79.5952 57.7267 77.3392 62.2387 74.4565 66.5C71.6992 70.7613 68.5032 74.8347 64.8685 78.72C61.2338 82.6053 57.4112 86.4907 53.4005 90.376C47.7605 96.016 42.1832 101.405 36.6685 106.544C31.2792 111.683 25.3258 117.197 18.8085 123.088H61.8605C69.2552 123.088 74.5818 121.333 77.8405 117.824C81.0992 114.189 83.1045 109.239 83.8565 102.972H85.9245V137ZM126.632 69.884C126.632 81.54 126.946 91.6293 127.572 100.152C128.324 108.549 129.578 115.505 131.332 121.02C133.212 126.409 135.782 130.42 139.04 133.052C142.299 135.684 146.56 137 151.824 137C157.088 137 161.35 135.684 164.608 133.052C167.867 130.42 170.374 126.409 172.128 121.02C174.008 115.505 175.262 108.549 175.888 100.152C176.64 91.6293 177.016 81.54 177.016 69.884C177.016 58.228 176.64 48.2013 175.888 39.804C175.262 31.4067 174.008 24.5133 172.128 19.124C170.374 13.6093 167.867 9.536 164.608 6.90399C161.35 4.27199 157.088 2.95599 151.824 2.95599C146.56 2.95599 142.299 4.27199 139.04 6.90399C135.782 9.536 133.212 13.6093 131.332 19.124C129.578 24.5133 128.324 31.4067 127.572 39.804C126.946 48.2013 126.632 58.228 126.632 69.884ZM107.832 69.884C107.832 62.364 108.396 54.5307 109.524 46.384C110.778 38.112 113.034 30.592 116.292 23.824C119.551 16.9307 124 11.2907 129.64 6.90399C135.406 2.51732 142.8 0.323989 151.824 0.323989C160.848 0.323989 168.18 2.51732 173.82 6.90399C179.586 11.2907 184.098 16.9307 187.356 23.824C190.615 30.592 192.808 38.112 193.936 46.384C195.19 54.5307 195.816 62.364 195.816 69.884C195.816 77.5293 195.19 85.488 193.936 93.76C192.808 101.907 190.615 109.427 187.356 116.32C184.098 123.088 179.586 128.665 173.82 133.052C168.18 137.439 160.848 139.632 151.824 139.632C142.8 139.632 135.406 137.439 129.64 133.052C124 128.665 119.551 123.088 116.292 116.32C113.034 109.427 110.778 101.907 109.524 93.76C108.396 85.488 107.832 77.5293 107.832 69.884ZM231.448 134.368H252.316V15.176C250.436 16.5547 248.306 17.9333 245.924 19.312L224.492 31.532L222.988 29.088C231.26 24.4507 238.78 20.0013 245.548 15.74C252.316 11.4787 258.708 6.33999 264.724 0.323989H268.484V134.368H289.352V137H231.448V134.368ZM386.272 95.264C386.272 87.368 385.645 80.9133 384.392 75.9C383.264 70.8867 381.885 67.1267 380.256 64.62C378.627 62.1133 376.371 60.108 373.488 58.604C370.731 56.9747 367.347 56.16 363.336 56.16C357.069 56.16 351.993 57.5387 348.108 60.296C344.348 62.928 341.591 65.8107 339.836 68.944C338.708 71.0747 337.956 73.3933 337.58 75.9C337.204 78.4067 337.016 81.2267 337.016 84.36C337.016 94.0107 337.329 102.095 337.956 108.612C338.708 115.004 340.337 120.895 342.844 126.284C344.223 129.417 346.416 131.987 349.424 133.992C352.557 135.997 357.007 137 362.772 137C367.66 137 371.608 136.06 374.616 134.18C377.624 132.175 379.943 129.48 381.572 126.096C383.327 122.461 384.517 118.325 385.144 113.688C385.896 108.925 386.272 102.784 386.272 95.264ZM405.072 95.828C405.072 101.468 403.944 106.92 401.688 112.184C399.432 117.448 396.361 122.148 392.476 126.284C388.716 130.295 384.267 133.553 379.128 136.06C373.989 138.441 368.537 139.632 362.772 139.632C357.132 139.632 351.68 138.567 346.416 136.436C341.277 134.305 336.703 130.921 332.692 126.284C328.681 121.521 325.423 115.38 322.916 107.86C320.535 100.34 319.344 91.1907 319.344 80.412C319.344 69.2573 320.723 58.8547 323.48 49.204C326.363 39.428 330.311 30.9053 335.324 23.636C340.337 16.3667 346.165 10.664 352.808 6.528C359.576 2.39199 366.908 0.323989 374.804 0.323989C379.567 0.323989 383.515 1.07599 386.648 2.57999C389.907 3.95866 392.476 5.77599 394.356 8.03199C396.361 10.1627 397.74 12.544 398.492 15.176C399.369 17.6827 399.808 20.064 399.808 22.32C399.808 25.0773 398.868 27.396 396.988 29.276C395.233 31.156 392.789 32.096 389.656 32.096C383.891 32.096 381.008 29.9653 381.008 25.704C381.008 24.576 381.196 23.5733 381.572 22.696C382.073 21.8187 382.575 20.8787 383.076 19.876C383.703 18.8733 384.267 17.7453 384.768 16.492C385.269 15.2387 385.52 13.672 385.52 11.792C385.52 8.53333 384.455 6.27733 382.324 5.024C380.193 3.64532 377.311 2.95599 373.676 2.95599C368.913 2.95599 364.715 4.08399 361.08 6.33999C357.445 8.59599 354.312 11.604 351.68 15.364C349.048 18.9987 346.855 23.1973 345.1 27.96C343.345 32.5973 341.904 37.36 340.776 42.248C339.648 47.0107 338.708 51.648 337.956 56.16C337.329 60.672 336.765 64.62 336.264 68.004L336.64 68.38C339.147 63.868 342.781 60.296 347.544 57.664C352.432 54.9067 357.821 53.528 363.712 53.528C370.48 53.528 376.433 54.844 381.572 57.476C386.711 59.9827 390.972 63.304 394.356 67.44C397.865 71.4507 400.497 75.9627 402.252 80.976C404.132 85.9893 405.072 90.94 405.072 95.828Z" fill="#111111" fill-opacity="0.08"/>
</svg>
