<svg width="407" height="140" viewBox="0 0 407 140" fill="none" xmlns="http://www.w3.org/2000/svg">
  <path d="M85.9245 137H0.00850246V134.368C4.8965 130.232 9.34584 126.409 13.3565 122.9C17.4925 119.391 21.3152 115.944 24.8245 112.56C28.4592 109.176 31.9058 105.729 35.1645 102.22C38.4232 98.7107 41.7445 94.9507 45.1285 90.94C53.1498 81.164 58.6018 71.7013 61.4845 62.552C64.4925 53.4027 65.9965 44.9427 65.9965 37.172C65.9965 25.892 64.0538 17.3693 60.1685 11.604C56.4085 5.83866 50.3925 2.95599 42.1205 2.95599C35.7285 2.95599 30.4645 4.39732 26.3285 7.27999C22.1925 10.0373 20.1245 13.9227 20.1245 18.936C20.1245 20.6907 20.5005 22.508 21.2525 24.388C22.1298 26.1427 22.5685 27.96 22.5685 29.84C22.5685 31.9707 21.8165 33.6 20.3125 34.728C18.8085 35.7307 17.0538 36.232 15.0485 36.232C12.4165 36.232 10.1605 35.5427 8.2805 34.164C6.4005 32.7853 5.4605 30.2787 5.4605 26.644C5.4605 23.3853 6.4005 20.1893 8.2805 17.056C10.1605 13.7973 12.7298 10.9773 15.9885 8.59599C19.2472 6.08933 23.1325 4.084 27.6445 2.57999C32.1565 1.07599 36.9818 0.323989 42.1205 0.323989C49.3898 0.323989 55.5938 1.38932 60.7325 3.51999C65.9965 5.65066 70.3205 8.47066 73.7045 11.98C77.0885 15.364 79.5952 19.2493 81.2245 23.636C82.8538 28.0227 83.6685 32.5347 83.6685 37.172C83.6685 42.812 82.8538 48.076 81.2245 52.964C79.5952 57.7267 77.3392 62.2387 74.4565 66.5C71.6992 70.7613 68.5032 74.8347 64.8685 78.72C61.2338 82.6053 57.4112 86.4907 53.4005 90.376C47.7605 96.016 42.1832 101.405 36.6685 106.544C31.2792 111.683 25.3258 117.197 18.8085 123.088H61.8605C69.2552 123.088 74.5818 121.333 77.8405 117.824C81.0992 114.189 83.1045 109.239 83.8565 102.972H85.9245V137ZM126.632 69.884C126.632 81.54 126.946 91.6293 127.572 100.152C128.324 108.549 129.578 115.505 131.332 121.02C133.212 126.409 135.782 130.42 139.04 133.052C142.299 135.684 146.56 137 151.824 137C157.088 137 161.35 135.684 164.608 133.052C167.867 130.42 170.374 126.409 172.128 121.02C174.008 115.505 175.262 108.549 175.888 100.152C176.64 91.6293 177.016 81.54 177.016 69.884C177.016 58.228 176.64 48.2013 175.888 39.804C175.262 31.4067 174.008 24.5133 172.128 19.124C170.374 13.6093 167.867 9.536 164.608 6.90399C161.35 4.27199 157.088 2.95599 151.824 2.95599C146.56 2.95599 142.299 4.27199 139.04 6.90399C135.782 9.536 133.212 13.6093 131.332 19.124C129.578 24.5133 128.324 31.4067 127.572 39.804C126.946 48.2013 126.632 58.228 126.632 69.884ZM107.832 69.884C107.832 62.364 108.396 54.5307 109.524 46.384C110.778 38.112 113.034 30.592 116.292 23.824C119.551 16.9307 124 11.2907 129.64 6.90399C135.406 2.51732 142.8 0.323989 151.824 0.323989C160.848 0.323989 168.18 2.51732 173.82 6.90399C179.586 11.2907 184.098 16.9307 187.356 23.824C190.615 30.592 192.808 38.112 193.936 46.384C195.19 54.5307 195.816 62.364 195.816 69.884C195.816 77.5293 195.19 85.488 193.936 93.76C192.808 101.907 190.615 109.427 187.356 116.32C184.098 123.088 179.586 128.665 173.82 133.052C168.18 137.439 160.848 139.632 151.824 139.632C142.8 139.632 135.406 137.439 129.64 133.052C124 128.665 119.551 123.088 116.292 116.32C113.034 109.427 110.778 101.907 109.524 93.76C108.396 85.488 107.832 77.5293 107.832 69.884ZM296.308 137H210.392V134.368C215.28 130.232 219.73 126.409 223.74 122.9C227.876 119.391 231.699 115.944 235.208 112.56C238.843 109.176 242.29 105.729 245.548 102.22C248.807 98.7107 252.128 94.9507 255.512 90.94C263.534 81.164 268.986 71.7013 271.868 62.552C274.876 53.4027 276.38 44.9427 276.38 37.172C276.38 25.892 274.438 17.3693 270.552 11.604C266.792 5.83866 260.776 2.95599 252.504 2.95599C246.112 2.95599 240.848 4.39732 236.712 7.27999C232.576 10.0373 230.508 13.9227 230.508 18.936C230.508 20.6907 230.884 22.508 231.636 24.388C232.514 26.1427 232.952 27.96 232.952 29.84C232.952 31.9707 232.2 33.6 230.696 34.728C229.192 35.7307 227.438 36.232 225.432 36.232C222.8 36.232 220.544 35.5427 218.664 34.164C216.784 32.7853 215.844 30.2787 215.844 26.644C215.844 23.3853 216.784 20.1893 218.664 17.056C220.544 13.7973 223.114 10.9773 226.372 8.59599C229.631 6.08933 233.516 4.084 238.028 2.57999C242.54 1.07599 247.366 0.323989 252.504 0.323989C259.774 0.323989 265.978 1.38932 271.116 3.51999C276.38 5.65066 280.704 8.47066 284.088 11.98C287.472 15.364 289.979 19.2493 291.608 23.636C293.238 28.0227 294.052 32.5347 294.052 37.172C294.052 42.812 293.238 48.076 291.608 52.964C289.979 57.7267 287.723 62.2387 284.84 66.5C282.083 70.7613 278.887 74.8347 275.252 78.72C271.618 82.6053 267.795 86.4907 263.784 90.376C258.144 96.016 252.567 101.405 247.052 106.544C241.663 111.683 235.71 117.197 229.192 123.088H272.244C279.639 123.088 284.966 121.333 288.224 117.824C291.483 114.189 293.488 109.239 294.24 102.972H296.308V137ZM337.016 69.884C337.016 81.54 337.329 91.6293 337.956 100.152C338.708 108.549 339.961 115.505 341.716 121.02C343.596 126.409 346.165 130.42 349.424 133.052C352.683 135.684 356.944 137 362.208 137C367.472 137 371.733 135.684 374.992 133.052C378.251 130.42 380.757 126.409 382.512 121.02C384.392 115.505 385.645 108.549 386.272 100.152C387.024 91.6293 387.4 81.54 387.4 69.884C387.4 58.228 387.024 48.2013 386.272 39.804C385.645 31.4067 384.392 24.5133 382.512 19.124C380.757 13.6093 378.251 9.536 374.992 6.90399C371.733 4.27199 367.472 2.95599 362.208 2.95599C356.944 2.95599 352.683 4.27199 349.424 6.90399C346.165 9.536 343.596 13.6093 341.716 19.124C339.961 24.5133 338.708 31.4067 337.956 39.804C337.329 48.2013 337.016 58.228 337.016 69.884ZM318.216 69.884C318.216 62.364 318.78 54.5307 319.908 46.384C321.161 38.112 323.417 30.592 326.676 23.824C329.935 16.9307 334.384 11.2907 340.024 6.90399C345.789 2.51732 353.184 0.323989 362.208 0.323989C371.232 0.323989 378.564 2.51732 384.204 6.90399C389.969 11.2907 394.481 16.9307 397.74 23.824C400.999 30.592 403.192 38.112 404.32 46.384C405.573 54.5307 406.2 62.364 406.2 69.884C406.2 77.5293 405.573 85.488 404.32 93.76C403.192 101.907 400.999 109.427 397.74 116.32C394.481 123.088 389.969 128.665 384.204 133.052C378.564 137.439 371.232 139.632 362.208 139.632C353.184 139.632 345.789 137.439 340.024 133.052C334.384 128.665 329.935 123.088 326.676 116.32C323.417 109.427 321.161 101.907 319.908 93.76C318.78 85.488 318.216 77.5293 318.216 69.884Z" fill="#111111" fill-opacity="0.08"/>
</svg>
