<svg xmlns="http://www.w3.org/2000/svg" width="144" height="144" fill="none" viewBox="0 0 144 144">
  <path fill="#111" fill-opacity=".88" d="M130 75.25l9.41.92-.11 1.14-8.4-.82-.43 4.37-1-.1.53-5.51z"/>
  <path fill="#111" fill-opacity=".88" d="M128.54 84.21a3 3 0 01.52-1.14 2 2 0 01.92-.68c.4-.14.82-.16 1.22-.06.34.06.66.22.92.45.21.21.36.47.44.76.08.3.12.62.12.94 0 .33 0 .66-.05 1-.05.34-.07.79-.1 1.06-.04.2-.04.4 0 .6a.39.39 0 00.32.27 1.46 1.46 0 001.11-.13 1.5 1.5 0 00.62-1 2 2 0 00-.06-1.26 2 2 0 00-.58-.77l.59-.93a2.49 2.49 0 011.09 2.05 3.91 3.91 0 01-.35 1.84c-.12.29-.3.55-.51.77a2 2 0 01-.88.51c-.45.12-.93.12-1.38 0l-4.56-1 .24-1.07.94.22v-.06a1.99 1.99 0 01-.68-1.24c-.05-.38-.02-.77.1-1.13zm.92.38c-.1.37-.1.75 0 1.12a1.71 1.71 0 001.27 1.21l1 .22a.71.71 0 01-.08-.33 5.05 5.05 0 010-.55c0-.2 0-.4.05-.59.05-.19 0-.34 0-.46.02-.27.02-.54 0-.81-.02-.24-.1-.46-.23-.66a.91.91 0 00-.59-.36 1 1 0 00-.93.22c-.26.27-.43.62-.49.99z"/>
  <path fill="#111" fill-opacity=".88" d="M128.69 94.35l3.94 1.43-.37 1-6.67-2.42.37-1 1.13.41v-.07a2.2 2.2 0 01-.5-2.42c.14-.39.37-.73.68-1 .32-.26.7-.42 1.11-.46.51-.04 1.03.04 1.51.23l4.23 1.54-.37 1-4.16-1.51c-.42-.17-.9-.17-1.32 0a1.49 1.49 0 00-.81.89 2 2 0 00-.09.85 2 2 0 00.36.89c.24.3.58.53.96.64z"/>
  <path fill="#111" fill-opacity=".88" d="M128.15 99l-3.79-2 .5-1 6.3 3.25-.48.93-1-.5v.08c.25.3.4.68.43 1.07.03.46-.08.92-.31 1.32-.2.4-.48.74-.84 1a2 2 0 01-1.17.34 3.25 3.25 0 01-1.47-.42l-4-2.06.5-1 3.93 2c.4.25.9.32 1.36.21a1.52 1.52 0 001-.84 1.71 1.71 0 00-.06-1.81 2.22 2.22 0 00-.9-.57z"/>
  <path fill="#111" fill-opacity=".88" d="M119.58 104.91a3 3 0 013.06-1.33 4.5 4.5 0 011.78.75c.55.36 1 .84 1.34 1.41a3 3 0 01-.12 3.3c-.25.4-.6.75-1 1a2.44 2.44 0 01-2.43.1l.62-.89c.33.1.67.1 1 0 .42-.1.77-.37 1-.73.23-.32.36-.71.36-1.11 0-.4-.13-.8-.34-1.14a3.95 3.95 0 00-2.34-1.6c-.4-.1-.8-.07-1.19.07a2 2 0 00-1.23 1.45c-.06.24-.06.49 0 .73.07.24.2.46.36.65l-.62.9a2.51 2.51 0 01-.78-2.24c.07-.48.25-.93.53-1.32z"/>
  <path fill="#111" fill-opacity=".88" d="M119.69 112.07l-3.19-2.84.73-.81 7.06 6.29-.72.81-2.6-2.31-.06.07a2 2 0 01.16 1.14c-.1.46-.32.88-.65 1.22-.28.34-.65.6-1.06.75a2 2 0 01-1.22 0c-.5-.15-.95-.42-1.33-.78l-3.36-3 .72-.82 3.31 3c.34.34.8.53 1.27.54a1.56 1.56 0 001.15-.59 2 2 0 00.47-.86c.07-.31.05-.64-.05-.94a2.12 2.12 0 00-.63-.87z"/>
  <path fill="#111" fill-opacity=".88" d="M107.7 117.5a3 3 0 011.13-.54 2.06 2.06 0 012.17.77c.22.27.37.6.41.94.03.3-.02.59-.14.86a3 3 0 01-.51.8c-.21.26-.43.5-.67.74l-.75.74c-.16.13-.29.3-.38.48a.37.37 0 00.08.4 1.3 1.3 0 002.06.23 1.91 1.91 0 00.81-2l1.05-.34c.1.41.1.84 0 1.25-.1.36-.27.7-.5 1a4.4 4.4 0 01-1.44 1.2c-.28.13-.58.22-.89.26a2 2 0 01-1-.17c-.4-.21-.75-.52-1-.9l-2.85-3.7.86-.67.59.76a2.08 2.08 0 01.28-1.39c.18-.28.42-.53.69-.72zm.47.88c-.31.22-.56.52-.71.87-.13.3-.18.61-.14.93.05.3.16.57.34.81l.61.79a.6.6 0 01.15-.31c.1-.15.22-.28.35-.41l.41-.43.33-.32c.2-.2.37-.4.52-.63.14-.2.22-.42.25-.65a.92.92 0 00-.23-.65 1 1 0 00-.85-.43c-.38.04-.74.19-1.03.43z"/>
  <path fill="#111" fill-opacity=".88" d="M98.67 131.47l-.88-7.47 1-.5 5.55 5.13-1 .54L99 125h-.06l.82 5.93-1.09.54z"/>
  <path fill="#111" fill-opacity=".88" d="M94.16 125.61l2.65 6.58-1 .41-2.66-6.6 1.01-.39zm2.58 7.89a.8.8 0 01.84.16.73.73 0 01.22.53c0 .1-.02.19-.06.28a.8.8 0 01-.43.41.77.77 0 01-.83-.16.7.7 0 01-.16-.24.71.71 0 010-.57.77.77 0 01.42-.41z"/>
  <path fill="#111" fill-opacity=".88" d="M88.78 127.38c.53-.16 1.1-.16 1.63 0a3 3 0 011.38.92 5.11 5.11 0 011.1 3.73 3 3 0 01-.66 1.52c-.36.42-.85.73-1.39.87-.36.13-.74.16-1.11.1a2 2 0 01-.74-.32l-.46-.36h-.09l1 3.35-1 .31-2.68-9.07 1-.3.31 1.05h.12c.05-.19.12-.38.19-.56a2.22 2.22 0 011.4-1.24zm.14 1c-.4.1-.75.32-1 .64-.23.33-.36.72-.38 1.12-.05.96.23 1.9.79 2.69a2 2 0 00.92.7c.38.13.78.13 1.16 0 .4-.1.75-.34 1-.66.22-.33.36-.71.39-1.11.03-.46-.03-.92-.17-1.36a3.9 3.9 0 00-.61-1.26 2.36 2.36 0 00-.94-.74 1.81 1.81 0 00-1.16-.04v.02z"/>
  <path fill="#111" fill-opacity=".88" d="M80.85 129.18a3.06 3.06 0 013.15 1.25c.37.55.6 1.17.69 1.83.12.67.09 1.35-.1 2a3 3 0 01-2.48 2.18c-.37.06-.74.06-1.11 0a2.75 2.75 0 01-1.07-.44c-.36-.26-.65-.6-.86-1a4.48 4.48 0 01-.52-1.61l-.07-.45 5.4-.85.12.91-4.3.67c.05.36.19.7.4 1 .2.28.46.5.78.63.33.14.7.18 1.06.11.4-.05.77-.22 1.06-.49.27-.25.48-.57.59-.93.11-.37.14-.75.08-1.13l-.1-.62a3 3 0 00-.49-1.3 1.94 1.94 0 00-.9-.71c-.38-.14-.8-.18-1.19-.11-.26.04-.51.12-.75.24a1.67 1.67 0 00-.83 1.13l-1.08-.13c.05-.36.2-.7.41-1 .22-.32.52-.58.86-.77.39-.22.81-.36 1.25-.41z"/>
  <path fill="#111" fill-opacity=".88" d="M73.59 129.83a3 3 0 012.85 1.66c.3.6.46 1.25.46 1.91a4.3 4.3 0 01-.36 1.94c-.23.53-.6 1-1.09 1.31a3.27 3.27 0 01-3.36.09 3 3 0 01-1.16-1.25 4.73 4.73 0 01-.1-3.85 3 3 0 012.76-1.81zm0 1c-.43 0-.85.13-1.19.4-.3.27-.54.61-.67 1a4 4 0 00.07 2.65c.15.4.4.74.73 1 .35.26.78.38 1.21.35.43 0 .85-.14 1.19-.41.3-.27.54-.61.67-1a3.9 3.9 0 00-.07-2.65c-.15-.4-.4-.74-.73-1a1.83 1.83 0 00-1.19-.36l-.02.02z"/>
  <path fill="#111" fill-opacity=".88" d="M63.25 129.18a3 3 0 011.17.44 2 2 0 01.87 2.09c-.04.35-.18.67-.4.94-.2.23-.44.4-.72.49-.3.1-.61.16-.93.18h-2.06c-.2-.02-.4 0-.6.06a.4.4 0 00-.25.33 1.41 1.41 0 00.19 1.1c.25.3.6.5 1 .56a2 2 0 001.26-.14c.3-.15.54-.36.74-.62l1 .53a2.55 2.55 0 01-1.98 1.21 3.98 3.98 0 01-1.86-.2c-.3-.11-.56-.27-.8-.47a1.92 1.92 0 01-.56-.85 2.8 2.8 0 01-.06-1.38l.75-4.61 1.07.18-.15.94H61a2.08 2.08 0 011.2-.76c.35-.08.7-.08 1.05-.02zm-.32.94a2.15 2.15 0 00-1.12.07 1.74 1.74 0 00-1.13 1.34l-.16 1c.1-.06.2-.1.32-.1.18-.02.37-.02.55 0h1.06c.27.03.54.03.81 0 .23-.03.45-.12.64-.26.18-.16.3-.37.32-.61a1 1 0 00-.28-.92 1.86 1.86 0 00-1.01-.52z"/>
  <path fill="#111" fill-opacity=".88" d="M58.1 128.4l-2.72 9-1-.31 1-3.34h-.09l-.45.36c-.22.15-.47.26-.74.31-.37.07-.76.04-1.12-.09a2.85 2.85 0 01-2.04-2.41 4.4 4.4 0 01.19-2c.17-.65.49-1.25.92-1.76a2.83 2.83 0 013.02-.92c.37.1.72.27 1 .53.2.2.35.43.45.69.08.18.14.37.19.56h.13l.31-1 .95.38zm-2.05 3.08c.15-.46.21-.94.18-1.42-.02-.4-.15-.78-.38-1.11a1.8 1.8 0 00-1-.65 1.82 1.82 0 00-1.2 0c-.38.15-.7.4-.95.74-.28.38-.48.8-.61 1.25-.14.44-.2.9-.17 1.36.02.4.15.78.38 1.11.25.33.6.56 1 .67a1.8 1.8 0 002.09-.7c.3-.37.52-.8.66-1.25z"/>
  <path fill="#111" fill-opacity=".88" d="M48.15 124.72c.54.24 1.01.62 1.35 1.11.31.49.48 1.05.49 1.63A4.74 4.74 0 0148.4 131a3.2 3.2 0 01-4.62-.68 3 3 0 01-.49-1.63 4.83 4.83 0 011.59-3.52 3 3 0 013.27-.42v-.03zm-.4.89c-.39-.2-.83-.25-1.25-.15-.38.1-.73.32-1 .61-.32.32-.58.7-.75 1.11-.2.4-.3.85-.34 1.3-.04.4.04.82.22 1.19a2.1 2.1 0 002.19 1 2.2 2.2 0 001-.62 3.82 3.82 0 001.1-2.41c.03-.4-.05-.81-.23-1.18a1.9 1.9 0 00-.94-.85z"/>
  <path fill="#111" fill-opacity=".88" d="M38.55 122.93l-2.2 3.56-.93-.57 3.73-6 .93.57-.63 1h.06a2.3 2.3 0 011.14-.37c.47-.02.94.12 1.33.38.36.2.65.5.85.87a2 2 0 01.22 1.18c-.07.51-.25 1-.53 1.43l-2.37 3.83-.93-.57 2.33-3.77c.26-.37.36-.83.28-1.28a1.44 1.44 0 00-.7-1 1.87 1.87 0 00-1.76-.09 1.9 1.9 0 00-.82.83z"/>
  <path fill="#111" fill-opacity=".88" d="M30.88 122.48l.56-.73 2.91 2.25-.57.73-2.9-2.25zm1 2.94l-.87-.67 4.14-5.34c.15-.18.26-.4.31-.63a.7.7 0 00-.09-.46 1.44 1.44 0 00-.56-.5l-.17-.09.42-.91.3.12a2.32 2.32 0 011.02.99 1.68 1.68 0 01-.19 1.91l-4.31 5.58z"/>
  <path fill="#111" fill-opacity=".88" d="M24.72 119.19l-.72-.79 4.85-4.71c.18-.15.32-.35.4-.57a.63.63 0 000-.47 1.35 1.35 0 00-.26-.38l-.22-.2-.15-.1.54-.85c.1.05.2.1.28.17.14.1.27.2.38.33.22.22.39.49.49.78a1.72 1.72 0 01-.46 1.87l-5.13 4.92zm-.59-3.06l.66-.64 2.56 2.64-.66.64-2.56-2.64z"/>
  <path fill="#111" fill-opacity=".88" d="M24 111.75l3.36-2.63.67.86-7.44 5.83L20 115l2.73-2.14-.06-.07a2 2 0 01-1.15 0 2.4 2.4 0 01-1.08-.86 2.69 2.69 0 01-.56-1.17 2 2 0 01.18-1.21c.23-.47.58-.87 1-1.17l3.54-2.78.67.86-3.48 2.73c-.4.27-.67.68-.77 1.15a1.63 1.63 0 00.38 1.24 2 2 0 00.77.61c.3.13.61.17.93.12.34-.1.65-.3.9-.56z"/>
  <path fill="#111" fill-opacity=".88" d="M22.14 101.35c.33.53.5 1.13.51 1.75 0 .58-.19 1.15-.52 1.63-.37.54-.86 1-1.43 1.32a4.4 4.4 0 01-1.86.64 3.1 3.1 0 01-1.69-.29 3 3 0 01-1.26-1.21 3.3 3.3 0 01-.4-1 2.8 2.8 0 010-1.15c.1-.43.3-.83.58-1.17.36-.44.8-.8 1.3-1.08l.4-.23 2.79 4.7-.81.48-2.21-3.74c-.32.18-.6.44-.8.75a1.8 1.8 0 000 2c.2.35.5.63.85.81a2.28 2.28 0 002.16-.15l.54-.32c.4-.23.74-.55 1-.93a2 2 0 00.33-1.1 2.5 2.5 0 00-.85-1.75c-.18-.16-.4-.27-.62-.33a1.6 1.6 0 00-.73 0l-.29-1.06c.36-.09.74-.09 1.1 0 .36.1.7.27 1 .51.36.25.66.56.91.92z"/>
  <path fill="#111" fill-opacity=".88" d="M17.51 91.49a3 3 0 01-.7 3.26c-.47.45-1.03.8-1.64 1-.62.23-1.27.32-1.93.27a3.07 3.07 0 01-1.6-.61 2.89 2.89 0 01-1-1.41c-.17-.43-.23-.9-.2-1.36a2.46 2.46 0 011.32-2.04l.37 1c-.28.2-.5.48-.62.81a1.7 1.7 0 000 1.21 1.94 1.94 0 001.82 1.31c.48.02.95-.05 1.4-.22.47-.15.9-.39 1.27-.71.3-.27.52-.61.64-1 .1-.4.08-.8-.07-1.18a1.87 1.87 0 00-.4-.67 1.55 1.55 0 00-1.34-.5l-.37-1c.4-.1.81-.1 1.21 0 .4.11.78.33 1.08.62.34.34.6.76.76 1.22z"/>
  <path fill="#111" fill-opacity=".88" d="M15.55 84.71a3 3 0 01-1.08 3.12c-.52.41-1.14.7-1.79.82-.66.15-1.34.15-2 0a3.21 3.21 0 01-2.24-4.1 3.1 3.1 0 011-1.38c.53-.41 1.14-.7 1.8-.82a4.34 4.34 0 012 0c.56.13 1.08.42 1.49.82.42.42.7.96.82 1.54zm-1 .22c-.05-.42-.25-.8-.55-1.09a2.3 2.3 0 00-1.12-.47 4 4 0 00-2.58.58c-.35.22-.63.53-.81.9-.18.39-.22.83-.11 1.25.08.42.3.8.62 1.09.32.25.71.42 1.12.47a4 4 0 002.59-.58c.34-.22.62-.53.8-.9.17-.4.2-.84.08-1.25h-.04z"/>
  <path fill="#111" fill-opacity=".88" d="M14.39 80.23l-7.08.43-.06-1 1.11-.06v-.1c-.37-.11-.7-.34-.93-.66a2.39 2.39 0 01-.14-2.35c.2-.33.5-.6.84-.78v-.08c-.37-.16-.7-.42-.92-.76a2.49 2.49 0 01-.4-1.28A2.1 2.1 0 017.28 72a2.51 2.51 0 011.81-.72l4.74-.29.06 1.01-4.73.29a1.34 1.34 0 00-1.1.5c-.2.3-.3.65-.27 1A1.46 1.46 0 008.31 75c.33.26.74.39 1.16.35l4.61-.35.06 1.1-4.84.3a1.27 1.27 0 00-1 .45c-.23.28-.33.64-.3 1 .01.28.1.55.27.78.17.24.4.43.66.55.3.13.61.2.93.17l4.43-.28.1 1.16z"/>
  <path fill="#111" fill-opacity=".88" d="M16.64 69.42l-9.7-1 .1-1 1.12.11v-.13l-.42-.4a2 2 0 01-.46-.66 2.4 2.4 0 01-.12-1.12c.04-.56.26-1.09.61-1.52.35-.44.83-.76 1.36-.94.64-.2 1.33-.27 2-.19.67.05 1.32.24 1.9.57a2.76 2.76 0 011.46 2.79c-.03.38-.15.75-.36 1.07a2 2 0 01-.59.58c-.16.1-.33.2-.51.29V68l3.73.37-.12 1.05zm-6.07-1.68c.48.05.96.02 1.43-.09.38-.1.72-.3 1-.59a2 2 0 00.2-2.25c-.22-.34-.53-.6-.9-.78-.4-.2-.85-.33-1.3-.37a3.6 3.6 0 00-1.37.1 1.88 1.88 0 00-1.47 1.7c-.05.4.03.8.23 1.14.2.34.5.6.86.77.41.2.86.33 1.32.37z"/>
  <path fill="#111" fill-opacity=".88" d="M15.52 59.48c-.09.41-.26.8-.52 1.14a2 2 0 01-2.15.73 1.78 1.78 0 01-.91-.46c-.2-.21-.36-.47-.44-.76-.08-.3-.12-.62-.11-.94v-1c0-.34.08-.78.11-1.05.04-.2.04-.4 0-.61a.39.39 0 00-.32-.27 1.44 1.44 0 00-1.12.13 1.5 1.5 0 00-.62 1 2 2 0 00.05 1.27c.13.3.33.56.57.77l-.59.92a2.4 2.4 0 01-.81-1 2.66 2.66 0 01-.27-1.1 4.3 4.3 0 01.36-1.84c.12-.28.3-.54.51-.77.25-.24.56-.42.89-.51.45-.11.93-.11 1.38 0l4.55 1.05-.24 1.06-.94-.21c.15.14.29.3.4.47.14.24.23.5.28.77.07.4.05.82-.06 1.21zm-.92-.38c.1-.37.1-.75 0-1.12a1.7 1.7 0 00-1.25-1.22l-1-.22c.06.1.09.21.08.33V58.47a4.4 4.4 0 000 .81c.02.23.1.46.22.65.14.2.35.33.59.37a1 1 0 00.93-.22c.24-.28.39-.62.43-.98z"/>
  <path fill="#111" fill-opacity=".88" d="M13 52l4 1.48-.38 1L10 52.06l.36-1 1 .38v-.08a2.08 2.08 0 01-.55-1c-.07-.46 0-.94.19-1.36.15-.41.4-.79.72-1.08a2 2 0 011.12-.48c.52-.04 1.03.04 1.51.24l4.22 1.56-.37 1-4.2-1.5a1.86 1.86 0 00-1.37 0 1.54 1.54 0 00-.86.95 2 2 0 00-.11 1c.05.31.19.6.4.84.27.23.6.39.94.47z"/>
  <path fill="#111" fill-opacity=".88" d="M21.87 48.4c-.07.15-.16.29-.26.42l-.22.23-.72-.69c.24-.24.4-.55.44-.89a1.49 1.49 0 00-.53-1l-.4-.44-7.54-.93.55-1.1 5.92.85v-.07L15 40.46l.56-1.05 5.83 6.4c.24.25.43.54.57.86a2.05 2.05 0 01-.09 1.73z"/>
  <path fill="#111" fill-opacity=".88" d="M24.59 38.44l-7.41-5.87L19.23 30c.33-.46.77-.82 1.28-1.07.4-.19.86-.25 1.3-.18.44.07.84.26 1.19.53.28.2.5.48.65.8.12.26.17.55.15.83-.03.28-.1.54-.2.8l.07.06c.21-.23.48-.4.78-.5.35-.11.72-.14 1.08-.08a2.8 2.8 0 012 1.6c.17.43.2.91.08 1.36-.17.6-.47 1.16-.87 1.63l-2.15 2.66zm-3.44-4.19l1.31-1.66c.2-.25.35-.54.43-.86.08-.29.08-.6 0-.88a1.5 1.5 0 00-.53-.73 1.42 1.42 0 00-1.1-.32c-.49.1-.92.4-1.19.81l-1.38 1.69 2.46 1.95zm3.35 2.66l1.42-1.78c.4-.41.62-.95.64-1.52a1.4 1.4 0 00-.53-1 1.7 1.7 0 00-.85-.36c-.32-.04-.65.01-.95.14-.34.15-.64.39-.86.69l-1.44 1.82 2.57 2.01z"/>
  <path fill="#111" fill-opacity=".88" d="M32 30.21c-.43.44-.99.75-1.59.89-.57.13-1.16.09-1.7-.12a4.45 4.45 0 01-2.62-2.76 3 3 0 01.74-3.22c.27-.25.58-.46.92-.62.35-.17.73-.26 1.12-.26.44 0 .87.11 1.27.3.5.25.96.59 1.35 1l.32.33-3.94 3.8-.65-.68 3.14-3a2.4 2.4 0 00-.92-.6 1.8 1.8 0 00-1.93.45 2 2 0 00-.59 1c-.08.37-.05.74.06 1.1.1.38.3.72.58 1l.43.45c.32.35.71.62 1.15.79a2 2 0 001.14.07c.38-.11.72-.32 1-.6.2-.18.35-.4.47-.63.11-.21.17-.44.18-.68 0-.25-.04-.5-.14-.72l1-.52c.15.32.22.67.21 1.02 0 .39-.1.77-.26 1.12-.18.4-.43.77-.74 1.09z"/>
  <path fill="#111" fill-opacity=".88" d="M35.89 19.69l-.62.81c-.16-.1-.32-.16-.5-.21-.2-.05-.42-.05-.62 0-.26.06-.5.18-.71.35-.32.22-.56.53-.69.89a.89.89 0 00.38 1.1c.1.06.23.09.35.09.35 0 .69-.09 1-.24l1-.43a3 3 0 011.52-.31 1.7 1.7 0 011.1.69c.24.31.37.69.38 1.08 0 .42-.1.83-.32 1.19-.25.43-.6.8-1 1.1-.5.4-1.09.64-1.72.7a2 2 0 01-1.54-.56l.67-.82c.28.24.64.36 1 .34.37-.04.72-.18 1-.42.35-.25.62-.6.77-1a1 1 0 00-.11-.9.88.88 0 00-.58-.34c-.3-.02-.6.04-.86.18l-1.11.49c-.49.25-1.04.35-1.58.29A1.77 1.77 0 0131.66 22c0-.4.1-.8.3-1.14.23-.4.54-.73.91-1 .45-.38 1.01-.6 1.6-.62.5 0 1 .16 1.42.45z"/>
  <path fill="#111" fill-opacity=".88" d="M39.54 15.54l.48.79-3.13 1.92-.49-.79 3.14-1.92zm-3.11-.09l.93-.57 3.53 5.77c.11.2.28.39.47.52.14.08.3.1.46.07.15-.03.3-.09.43-.17a1.9 1.9 0 00.38-.3l.7.72a2.1 2.1 0 01-.62.54c-.27.16-.57.26-.88.3-.32.04-.64-.01-.94-.14-.33-.15-.6-.4-.78-.72l-3.68-6.02z"/>
  <path fill="#111" fill-opacity=".88" d="M44.75 20.65L40.85 12l1-.47 1.74 3.84 4.59-2.09-1.7-3.79L47.53 9l3.9 8.61-1 .47-1.75-3.85-4.59 2.08 1.74 3.85-1.08.49z"/>
  <path fill="#111" fill-opacity=".88" d="M56.08 16.37c-.57.16-1.18.16-1.75 0a3.12 3.12 0 01-1.43-.92 4.25 4.25 0 01-.9-1.72 4.35 4.35 0 01-.14-2 3 3 0 012.22-2.44 3.07 3.07 0 013.18.93c.43.52.74 1.13.9 1.78.2.65.25 1.33.14 2-.1.57-.35 1.1-.73 1.54-.41.4-.93.7-1.49.83zm-.27-.94a2 2 0 001-.69c.24-.34.37-.73.4-1.14.03-.45-.02-.9-.15-1.33a3.67 3.67 0 00-.58-1.21c-.24-.34-.56-.6-.94-.77-.4-.14-.85-.14-1.26 0-.4.1-.76.35-1 .69-.23.34-.37.74-.4 1.15a3.84 3.84 0 00.7 2.51c.24.33.56.6.94.76.41.16.87.17 1.29.03z"/>
  <path fill="#111" fill-opacity=".88" d="M60.49 15l-.83-7 1-.12.13 1.1h.1c.08-.4.3-.74.6-1 .33-.26.72-.41 1.14-.45a1.94 1.94 0 012.03.97h.08a2 2 0 01.7-1c.38-.28.83-.45 1.3-.5a2.14 2.14 0 011.62.4 2.51 2.51 0 01.82 1.77l.55 4.71-1.08.12-.56-4.72a1.33 1.33 0 00-.55-1.06A1.63 1.63 0 0066.49 8a1.52 1.52 0 00-1.1.59c-.23.34-.33.76-.27 1.17l.54 4.59-1.1.13L64 9.65a1.3 1.3 0 00-.5-.93 1.55 1.55 0 00-1.81.07c-.23.18-.4.42-.51.69-.12.3-.16.62-.12.94l.52 4.4-1.09.18z"/>
  <path fill="#111" fill-opacity=".88" d="M74.47 14.2c-.62 0-1.23-.19-1.75-.52a3.08 3.08 0 01-1.09-1.32 4.36 4.36 0 01-.32-1.92c0-.66.17-1.32.47-1.91.28-.52.7-.96 1.22-1.26a3.22 3.22 0 013.78.46c.3.32.52.7.66 1.12.17.54.23 1.11.2 1.68v.46l-5.46-.21v-.94l4.36.17c.02-.37-.05-.74-.2-1.08a1.8 1.8 0 00-1.64-1.08c-.4-.03-.79.07-1.13.27-.32.2-.58.48-.76.81-.18.34-.28.7-.3 1.09v.62a3 3 0 00.1 1.36 2 2 0 00.75.88 2.5 2.5 0 001.93.24c.23-.07.44-.19.61-.35.19-.16.33-.37.42-.6l1 .34c-.12.35-.33.66-.59.92a3 3 0 01-1 .59c-.4.13-.83.2-1.26.18z"/>
  <path fill="#111" fill-opacity=".88" d="M91.56 10.39l-1.11-.28a2.48 2.48 0 00-1.25-2.25 3.09 3.09 0 00-.84-.34 2.87 2.87 0 00-1.62 0 3 3 0 00-1.38 1 4.7 4.7 0 00-.89 1.92c-.2.69-.23 1.4-.11 2.11a2.85 2.85 0 002.16 2.3 2.76 2.76 0 002.52-.55c.23-.22.42-.47.55-.76l1.11.28c-.18.44-.44.84-.77 1.18-.3.31-.66.56-1.06.74a3.78 3.78 0 01-2.61.19 3.93 3.93 0 01-1.94-1.09 4.09 4.09 0 01-1-2 5.83 5.83 0 01.1-2.64c.18-.88.57-1.7 1.12-2.4a4.07 4.07 0 011.84-1.27 4 4 0 012.24 0 3.8 3.8 0 012.25 1.34 3.9 3.9 0 01.69 2.52z"/>
  <path fill="#111" fill-opacity=".88" d="M94 18.47a3 3 0 01-1.94-2.67 4.3 4.3 0 01.36-1.93 4.4 4.4 0 011.11-1.64c.43-.39.96-.65 1.53-.75a3.28 3.28 0 013.11 1.28 3 3 0 01.55 1.61c.03.67-.1 1.33-.36 1.94a4.34 4.34 0 01-1.1 1.63 3 3 0 01-3.26.53zm.37-.9c.4.18.83.22 1.25.11.39-.12.73-.34 1-.64a3.94 3.94 0 001.01-2.45c.02-.41-.07-.82-.27-1.18a1.81 1.81 0 00-1-.81c-.4-.18-.84-.22-1.26-.11-.39.12-.73.35-1 .66a3.94 3.94 0 00-1.01 2.44c-.02.41.08.82.27 1.18.23.37.58.66 1 .8h.01z"/>
  <path fill="#111" fill-opacity=".88" d="M101.4 17.07l-2.12 3.71-.94-.54 3.52-6.16.91.52-.55 1h.08c.32-.22.7-.36 1.09-.38.46 0 .92.12 1.31.37.38.2.7.51.94.88.22.35.33.77.29 1.19-.04.51-.2 1-.48 1.44l-2.24 3.9-.95-.54 2.21-3.84c.25-.4.35-.88.27-1.35a1.54 1.54 0 00-.8-1c-.28-.17-.6-.26-.94-.27-.31-.01-.63.08-.89.25-.3.21-.54.5-.71.82z"/>
  <path fill="#111" fill-opacity=".88" d="M112.06 22.66l-1-.37c.05-.18.07-.36.07-.54 0-.21-.06-.42-.16-.6a1.78 1.78 0 00-.53-.59 1.93 1.93 0 00-1-.41.89.89 0 00-.79.35.77.77 0 00-.15.69c.1.32.28.62.5.87l.69.83c.37.4.62.89.72 1.42a1.66 1.66 0 01-.36 1.25c-.22.32-.55.55-.93.66-.4.11-.83.11-1.23 0a3.56 3.56 0 01-1.33-.65 3.1 3.1 0 01-1.15-1.45 2.06 2.06 0 01.1-1.64l1 .41c-.14.32-.16.67-.06 1 .13.35.38.66.69.87a2 2 0 001.17.47 1 1 0 00.83-.36.8.8 0 00.16-.65c-.06-.3-.2-.56-.41-.78l-.78-.93a2.7 2.7 0 01-.71-1.43c-.05-.45.08-.9.36-1.25.23-.3.55-.54.91-.65.39-.1.8-.1 1.18 0 .44.1.86.3 1.22.59a2.57 2.57 0 01.99 2.89z"/>
  <path fill="#111" fill-opacity=".88" d="M116.29 22l.81.73-4.55 5c-.17.17-.3.37-.37.6a.7.7 0 00.06.46 1.44 1.44 0 00.52.55l.16.1-.5.87-.29-.14c-.14-.1-.28-.2-.4-.31-.23-.21-.4-.47-.53-.75-.13-.3-.17-.62-.13-.94.04-.38.2-.73.47-1l4.75-5.17zm.78 3l-.62.68-2.72-2.47.63-.68 2.71 2.47z"/>
  <path fill="#111" fill-opacity=".88" d="M113.4 31.36l5.18-4.85.72.77-.78.73v.06c.35-.15.74-.17 1.1-.07a2 2 0 011 .61l.2.22.18.21-.81.76-.14-.22a3.66 3.66 0 00-.26-.32 2 2 0 00-.79-.53 1.58 1.58 0 00-1.65.36l-3.28 3.06-.67-.79z"/>
  <path fill="#111" fill-opacity=".88" d="M121.61 36.63l3.39-2.52.65.86-5.65 4.28-.66-.87 1-.72-.05-.06c-.4.08-.81.06-1.2-.06a2.23 2.23 0 01-1.1-.84 2.27 2.27 0 01-.48-1.12 2 2 0 01.22-1.18c.24-.45.58-.84 1-1.14l3.59-2.72.66.87-3.54 2.67c-.37.26-.63.65-.72 1.1a1.48 1.48 0 00.3 1.17 2 2 0 00.67.53 1.82 1.82 0 002-.25h-.08z"/>
  <path fill="#111" fill-opacity=".88" d="M122.27 43.34a3.09 3.09 0 01-.45-1.72c.03-.58.23-1.14.57-1.61a4.5 4.5 0 011.44-1.28c.56-.34 1.2-.55 1.85-.6.58-.05 1.16.05 1.68.31A3.05 3.05 0 01129 41c.04.42-.02.85-.18 1.24-.16.4-.42.74-.77 1l-.54-.94c.24-.25.4-.57.47-.91.06-.41-.02-.83-.25-1.18a1.85 1.85 0 00-.84-.8 2.1 2.1 0 00-1.18-.18c-.48.06-.93.22-1.34.47a3.5 3.5 0 00-1.11.94c-.26.32-.41.7-.45 1.11-.04.4.06.8.27 1.14.13.23.3.44.51.6.2.15.42.25.66.29.25.06.5.06.75 0l.54.94a2.52 2.52 0 01-2.37-.26c-.39-.3-.7-.68-.9-1.12z"/>
  <path fill="#111" fill-opacity=".88" d="M132.6 43.89l.45 1-6.17 2.77c-.22.08-.42.22-.57.4a.72.72 0 00-.14.45 1.68 1.68 0 00.26.7l.11.16-.8.6a1.9 1.9 0 01-.45-.69 2.1 2.1 0 01-.19-.9 1.7 1.7 0 011.07-1.6l6.43-2.89zm-.48 3.11l-.84.38-1.51-3.38.85-.38 1.5 3.38z"/>
  <path fill="#111" fill-opacity=".88" d="M126.21 51.34l6.65-2.46.38 1-6.65 2.46-.38-1zm8-2.36a.72.72 0 010-.58.68.68 0 01.41-.4.71.71 0 01.57 0c.18.1.32.25.39.44a.8.8 0 010 .59.76.76 0 01-.41.4.67.67 0 01-.57 0 .8.8 0 01-.44-.43l.05-.02z"/>
  <path fill="#111" fill-opacity=".88" d="M127.88 57a3 3 0 01.94-3.16 4.78 4.78 0 013.72-1 2.95 2.95 0 012.46 2.24 3 3 0 010 1.74c-.2.56-.54 1.06-1 1.43a4.5 4.5 0 01-1.76.89c-.65.2-1.34.23-2 .1a3 3 0 01-2.36-2.24zm1-.25c.1.42.33.8.67 1.06.33.24.72.39 1.13.42.45.04.9 0 1.33-.13.44-.11.85-.3 1.22-.56.34-.23.61-.55.78-.93.16-.4.18-.85.06-1.26-.1-.42-.34-.8-.68-1.06a2.27 2.27 0 00-1.14-.41 3.88 3.88 0 00-2.55.68c-.34.23-.6.55-.77.93-.18.39-.21.83-.1 1.24l.05.02z"/>
  <path fill="#111" fill-opacity=".88" d="M133.49 62l-4.23.56-.14-1.08 7-.93.14 1-1.1.15v.09a2 2 0 011 .63c.28.36.46.8.5 1.26.07.43.03.88-.12 1.29a2 2 0 01-.77 1c-.44.27-.93.44-1.44.49l-4.47.6-.15-1.06 4.4-.59c.47-.03.91-.25 1.23-.6a1.5 1.5 0 00.31-1.24 1.89 1.89 0 00-.35-.9 1.59 1.59 0 00-.74-.55c-.34-.13-.7-.17-1.07-.12z"/>
  <path fill="#111" fill-opacity=".88" d="M130 75.25l9.41.92-.11 1.14-8.4-.82-.43 4.37-1-.1.53-5.51z"/>
  <path fill="#111" fill-opacity=".88" d="M128.54 84.21a3 3 0 01.52-1.14 2 2 0 01.92-.68c.4-.14.82-.16 1.22-.06.34.06.66.22.92.45.21.21.36.47.44.76.08.3.12.62.12.94 0 .33 0 .66-.05 1-.05.34-.07.79-.1 1.06-.04.2-.04.4 0 .6a.39.39 0 00.32.27 1.46 1.46 0 001.11-.13 1.5 1.5 0 00.62-1 2 2 0 00-.06-1.26 2 2 0 00-.58-.77l.59-.93a2.49 2.49 0 011.09 2.05 3.91 3.91 0 01-.35 1.84c-.12.29-.3.55-.51.77a2 2 0 01-.88.51c-.45.12-.93.12-1.38 0l-4.56-1 .24-1.07.94.22v-.06a1.99 1.99 0 01-.68-1.24c-.05-.38-.02-.77.1-1.13zm.92.38c-.1.37-.1.75 0 1.12a1.71 1.71 0 001.27 1.21l1 .22a.71.71 0 01-.08-.33 5.05 5.05 0 010-.55c0-.2 0-.4.05-.59.05-.19 0-.34 0-.46.02-.27.02-.54 0-.81-.02-.24-.1-.46-.23-.66a.91.91 0 00-.59-.36 1 1 0 00-.93.22c-.26.27-.43.62-.49.99z"/>
  <path fill="#111" fill-opacity=".88" d="M128.69 94.35l3.94 1.43-.37 1-6.67-2.42.37-1 1.13.41v-.07a2.2 2.2 0 01-.5-2.42c.14-.39.37-.73.68-1 .32-.26.7-.42 1.11-.46.51-.04 1.03.04 1.51.23l4.23 1.54-.37 1-4.16-1.51c-.42-.17-.9-.17-1.32 0a1.49 1.49 0 00-.81.89 2 2 0 00-.09.85 2 2 0 00.36.89c.24.3.58.53.96.64z"/>
  <path fill="#111" fill-opacity=".88" d="M128.15 99l-3.79-2 .5-1 6.3 3.25-.48.93-1-.5v.08c.25.3.4.68.43 1.07.03.46-.08.92-.31 1.32-.2.4-.48.74-.84 1a2 2 0 01-1.17.34 3.25 3.25 0 01-1.47-.42l-4-2.06.5-1 3.93 2c.4.25.9.32 1.36.21a1.52 1.52 0 001-.84 1.71 1.71 0 00-.06-1.81 2.22 2.22 0 00-.9-.57z"/>
  <path fill="#111" fill-opacity=".88" d="M119.58 104.91a3 3 0 013.06-1.33 4.5 4.5 0 011.78.75c.55.36 1 .84 1.34 1.41a3 3 0 01-.12 3.3c-.25.4-.6.75-1 1a2.44 2.44 0 01-2.43.1l.62-.89c.33.1.67.1 1 0 .42-.1.77-.37 1-.73.23-.32.36-.71.36-1.11 0-.4-.13-.8-.34-1.14a3.95 3.95 0 00-2.34-1.6c-.4-.1-.8-.07-1.19.07a2 2 0 00-1.23 1.45c-.06.24-.06.49 0 .73.07.24.2.46.36.65l-.62.9a2.51 2.51 0 01-.78-2.24c.07-.48.25-.93.53-1.32z"/>
  <path fill="#111" fill-opacity=".88" d="M119.69 112.07l-3.19-2.84.73-.81 7.06 6.29-.72.81-2.6-2.31-.06.07a2 2 0 01.16 1.14c-.1.46-.32.88-.65 1.22-.28.34-.65.6-1.06.75a2 2 0 01-1.22 0c-.5-.15-.95-.42-1.33-.78l-3.36-3 .72-.82 3.31 3c.34.34.8.53 1.27.54a1.56 1.56 0 001.15-.59 2 2 0 00.47-.86c.07-.31.05-.64-.05-.94a2.12 2.12 0 00-.63-.87z"/>
  <path fill="#111" fill-opacity=".88" d="M107.7 117.5a3 3 0 011.13-.54 2.06 2.06 0 012.17.77c.22.27.37.6.41.94.03.3-.02.59-.14.86a3 3 0 01-.51.8c-.21.26-.43.5-.67.74l-.75.74c-.16.13-.29.3-.38.48a.37.37 0 00.08.4 1.3 1.3 0 002.06.23 1.91 1.91 0 00.81-2l1.05-.34c.1.41.1.84 0 1.25-.1.36-.27.7-.5 1a4.4 4.4 0 01-1.44 1.2c-.28.13-.58.22-.89.26a2 2 0 01-1-.17c-.4-.21-.75-.52-1-.9l-2.85-3.7.86-.67.59.76a2.08 2.08 0 01.28-1.39c.18-.28.42-.53.69-.72zm.47.88c-.31.22-.56.52-.71.87-.13.3-.18.61-.14.93.05.3.16.57.34.81l.61.79a.6.6 0 01.15-.31c.1-.15.22-.28.35-.41l.41-.43.33-.32c.2-.2.37-.4.52-.63.14-.2.22-.42.25-.65a.92.92 0 00-.23-.65 1 1 0 00-.85-.43c-.38.04-.74.19-1.03.43z"/>
  <path fill="#111" fill-opacity=".88" d="M98.67 131.47l-.88-7.47 1-.5 5.55 5.13-1 .54L99 125h-.06l.82 5.93-1.09.54z"/>
  <path fill="#111" fill-opacity=".88" d="M94.16 125.61l2.65 6.58-1 .41-2.66-6.6 1.01-.39zm2.58 7.89a.8.8 0 01.84.16.73.73 0 01.22.53c0 .1-.02.19-.06.28a.8.8 0 01-.43.41.77.77 0 01-.83-.16.7.7 0 01-.16-.24.71.71 0 010-.57.77.77 0 01.42-.41z"/>
  <path fill="#111" fill-opacity=".88" d="M88.78 127.38c.53-.16 1.1-.16 1.63 0a3 3 0 011.38.92 5.11 5.11 0 011.1 3.73 3 3 0 01-.66 1.52c-.36.42-.85.73-1.39.87-.36.13-.74.16-1.11.1a2 2 0 01-.74-.32l-.46-.36h-.09l1 3.35-1 .31-2.68-9.07 1-.3.31 1.05h.12c.05-.19.12-.38.19-.56a2.22 2.22 0 011.4-1.24zm.14 1c-.4.1-.75.32-1 .64-.23.33-.36.72-.38 1.12-.05.96.23 1.9.79 2.69a2 2 0 00.92.7c.38.13.78.13 1.16 0 .4-.1.75-.34 1-.66.22-.33.36-.71.39-1.11.03-.46-.03-.92-.17-1.36a3.9 3.9 0 00-.61-1.26 2.36 2.36 0 00-.94-.74 1.81 1.81 0 00-1.16-.04v.02z"/>
  <path fill="#111" fill-opacity=".88" d="M80.85 129.18a3.06 3.06 0 013.15 1.25c.37.55.6 1.17.69 1.83.12.67.09 1.35-.1 2a3 3 0 01-2.48 2.18c-.37.06-.74.06-1.11 0a2.75 2.75 0 01-1.07-.44c-.36-.26-.65-.6-.86-1a4.48 4.48 0 01-.52-1.61l-.07-.45 5.4-.85.12.91-4.3.67c.05.36.19.7.4 1 .2.28.46.5.78.63.33.14.7.18 1.06.11.4-.05.77-.22 1.06-.49.27-.25.48-.57.59-.93.11-.37.14-.75.08-1.13l-.1-.62a3 3 0 00-.49-1.3 1.94 1.94 0 00-.9-.71c-.38-.14-.8-.18-1.19-.11-.26.04-.51.12-.75.24a1.67 1.67 0 00-.83 1.13l-1.08-.13c.05-.36.2-.7.41-1 .22-.32.52-.58.86-.77.39-.22.81-.36 1.25-.41z"/>
  <path fill="#111" fill-opacity=".88" d="M73.59 129.83a3 3 0 012.85 1.66c.3.6.46 1.25.46 1.91a4.3 4.3 0 01-.36 1.94c-.23.53-.6 1-1.09 1.31a3.27 3.27 0 01-3.36.09 3 3 0 01-1.16-1.25 4.73 4.73 0 01-.1-3.85 3 3 0 012.76-1.81zm0 1c-.43 0-.85.13-1.19.4-.3.27-.54.61-.67 1a4 4 0 00.07 2.65c.15.4.4.74.73 1 .35.26.78.38 1.21.35.43 0 .85-.14 1.19-.41.3-.27.54-.61.67-1a3.9 3.9 0 00-.07-2.65c-.15-.4-.4-.74-.73-1a1.83 1.83 0 00-1.19-.36l-.02.02z"/>
  <path fill="#111" fill-opacity=".88" d="M63.25 129.18a3 3 0 011.17.44 2 2 0 01.87 2.09c-.04.35-.18.67-.4.94-.2.23-.44.4-.72.49-.3.1-.61.16-.93.18h-2.06c-.2-.02-.4 0-.6.06a.4.4 0 00-.25.33 1.41 1.41 0 00.19 1.1c.25.3.6.5 1 .56a2 2 0 001.26-.14c.3-.15.54-.36.74-.62l1 .53a2.55 2.55 0 01-1.98 1.21 3.98 3.98 0 01-1.86-.2c-.3-.11-.56-.27-.8-.47a1.92 1.92 0 01-.56-.85 2.8 2.8 0 01-.06-1.38l.75-4.61 1.07.18-.15.94H61a2.08 2.08 0 011.2-.76c.35-.08.7-.08 1.05-.02zm-.32.94a2.15 2.15 0 00-1.12.07 1.74 1.74 0 00-1.13 1.34l-.16 1c.1-.06.2-.1.32-.1.18-.02.37-.02.55 0h1.06c.27.03.54.03.81 0 .23-.03.45-.12.64-.26.18-.16.3-.37.32-.61a1 1 0 00-.28-.92 1.86 1.86 0 00-1.01-.52z"/>
  <path fill="#111" fill-opacity=".88" d="M58.1 128.4l-2.72 9-1-.31 1-3.34h-.09l-.45.36c-.22.15-.47.26-.74.31-.37.07-.76.04-1.12-.09a2.85 2.85 0 01-2.04-2.41 4.4 4.4 0 01.19-2c.17-.65.49-1.25.92-1.76a2.83 2.83 0 013.02-.92c.37.1.72.27 1 .53.2.2.35.43.45.69.08.18.14.37.19.56h.13l.31-1 .95.38zm-2.05 3.08c.15-.46.21-.94.18-1.42-.02-.4-.15-.78-.38-1.11a1.8 1.8 0 00-1-.65 1.82 1.82 0 00-1.2 0c-.38.15-.7.4-.95.74-.28.38-.48.8-.61 1.25-.14.44-.2.9-.17 1.36.02.4.15.78.38 1.11.25.33.6.56 1 .67a1.8 1.8 0 002.09-.7c.3-.37.52-.8.66-1.25z"/>
  <path fill="#111" fill-opacity=".88" d="M48.15 124.72c.54.24 1.01.62 1.35 1.11.31.49.48 1.05.49 1.63A4.74 4.74 0 0148.4 131a3.2 3.2 0 01-4.62-.68 3 3 0 01-.49-1.63 4.83 4.83 0 011.59-3.52 3 3 0 013.27-.42v-.03zm-.4.89c-.39-.2-.83-.25-1.25-.15-.38.1-.73.32-1 .61-.32.32-.58.7-.75 1.11-.2.4-.3.85-.34 1.3-.04.4.04.82.22 1.19a2.1 2.1 0 002.19 1 2.2 2.2 0 001-.62 3.82 3.82 0 001.1-2.41c.03-.4-.05-.81-.23-1.18a1.9 1.9 0 00-.94-.85z"/>
  <path fill="#111" fill-opacity=".88" d="M38.55 122.93l-2.2 3.56-.93-.57 3.73-6 .93.57-.63 1h.06a2.3 2.3 0 011.14-.37c.47-.02.94.12 1.33.38.36.2.65.5.85.87a2 2 0 01.22 1.18c-.07.51-.25 1-.53 1.43l-2.37 3.83-.93-.57 2.33-3.77c.26-.37.36-.83.28-1.28a1.44 1.44 0 00-.7-1 1.87 1.87 0 00-1.76-.09 1.9 1.9 0 00-.82.83z"/>
  <path fill="#111" fill-opacity=".88" d="M30.88 122.48l.56-.73 2.91 2.25-.57.73-2.9-2.25zm1 2.94l-.87-.67 4.14-5.34c.15-.18.26-.4.31-.63a.7.7 0 00-.09-.46 1.44 1.44 0 00-.56-.5l-.17-.09.42-.91.3.12a2.32 2.32 0 011.02.99 1.68 1.68 0 01-.19 1.91l-4.31 5.58z"/>
  <path fill="#111" fill-opacity=".88" d="M24.72 119.19l-.72-.79 4.85-4.71c.18-.15.32-.35.4-.57a.63.63 0 000-.47 1.35 1.35 0 00-.26-.38l-.22-.2-.15-.1.54-.85c.1.05.2.1.28.17.14.1.27.2.38.33.22.22.39.49.49.78a1.72 1.72 0 01-.46 1.87l-5.13 4.92zm-.59-3.06l.66-.64 2.56 2.64-.66.64-2.56-2.64z"/>
  <path fill="#111" fill-opacity=".88" d="M24 111.75l3.36-2.63.67.86-7.44 5.83L20 115l2.73-2.14-.06-.07a2 2 0 01-1.15 0 2.4 2.4 0 01-1.08-.86 2.69 2.69 0 01-.56-1.17 2 2 0 01.18-1.21c.23-.47.58-.87 1-1.17l3.54-2.78.67.86-3.48 2.73c-.4.27-.67.68-.77 1.15a1.63 1.63 0 00.38 1.24 2 2 0 00.77.61c.3.13.61.17.93.12.34-.1.65-.3.9-.56z"/>
  <path fill="#111" fill-opacity=".88" d="M22.14 101.35c.33.53.5 1.13.51 1.75 0 .58-.19 1.15-.52 1.63-.37.54-.86 1-1.43 1.32a4.4 4.4 0 01-1.86.64 3.1 3.1 0 01-1.69-.29 3 3 0 01-1.26-1.21 3.3 3.3 0 01-.4-1 2.8 2.8 0 010-1.15c.1-.43.3-.83.58-1.17.36-.44.8-.8 1.3-1.08l.4-.23 2.79 4.7-.81.48-2.21-3.74c-.32.18-.6.44-.8.75a1.8 1.8 0 000 2c.2.35.5.63.85.81a2.28 2.28 0 002.16-.15l.54-.32c.4-.23.74-.55 1-.93a2 2 0 00.33-1.1 2.5 2.5 0 00-.85-1.75c-.18-.16-.4-.27-.62-.33a1.6 1.6 0 00-.73 0l-.29-1.06c.36-.09.74-.09 1.1 0 .36.1.7.27 1 .51.36.25.66.56.91.92z"/>
  <path fill="#111" fill-opacity=".88" d="M17.51 91.49a3 3 0 01-.7 3.26c-.47.45-1.03.8-1.64 1-.62.23-1.27.32-1.93.27a3.07 3.07 0 01-1.6-.61 2.89 2.89 0 01-1-1.41c-.17-.43-.23-.9-.2-1.36a2.46 2.46 0 011.32-2.04l.37 1c-.28.2-.5.48-.62.81a1.7 1.7 0 000 1.21 1.94 1.94 0 001.82 1.31c.48.02.95-.05 1.4-.22.47-.15.9-.39 1.27-.71.3-.27.52-.61.64-1 .1-.4.08-.8-.07-1.18a1.87 1.87 0 00-.4-.67 1.55 1.55 0 00-1.34-.5l-.37-1c.4-.1.81-.1 1.21 0 .4.11.78.33 1.08.62.34.34.6.76.76 1.22z"/>
  <path fill="#111" fill-opacity=".88" d="M15.55 84.71a3 3 0 01-1.08 3.12c-.52.41-1.14.7-1.79.82-.66.15-1.34.15-2 0a3.21 3.21 0 01-2.24-4.1 3.1 3.1 0 011-1.38c.53-.41 1.14-.7 1.8-.82a4.34 4.34 0 012 0c.56.13 1.08.42 1.49.82.42.42.7.96.82 1.54zm-1 .22c-.05-.42-.25-.8-.55-1.09a2.3 2.3 0 00-1.12-.47 4 4 0 00-2.58.58c-.35.22-.63.53-.81.9-.18.39-.22.83-.11 1.25.08.42.3.8.62 1.09.32.25.71.42 1.12.47a4 4 0 002.59-.58c.34-.22.62-.53.8-.9.17-.4.2-.84.08-1.25h-.04z"/>
  <path fill="#111" fill-opacity=".88" d="M14.39 80.23l-7.08.43-.06-1 1.11-.06v-.1c-.37-.11-.7-.34-.93-.66a2.39 2.39 0 01-.14-2.35c.2-.33.5-.6.84-.78v-.08c-.37-.16-.7-.42-.92-.76a2.49 2.49 0 01-.4-1.28A2.1 2.1 0 017.28 72a2.51 2.51 0 011.81-.72l4.74-.29.06 1.01-4.73.29a1.34 1.34 0 00-1.1.5c-.2.3-.3.65-.27 1A1.46 1.46 0 008.31 75c.33.26.74.39 1.16.35l4.61-.35.06 1.1-4.84.3a1.27 1.27 0 00-1 .45c-.23.28-.33.64-.3 1 .01.28.1.55.27.78.17.24.4.43.66.55.3.13.61.2.93.17l4.43-.28.1 1.16z"/>
  <path fill="#111" fill-opacity=".88" d="M16.64 69.42l-9.7-1 .1-1 1.12.11v-.13l-.42-.4a2 2 0 01-.46-.66 2.4 2.4 0 01-.12-1.12c.04-.56.26-1.09.61-1.52.35-.44.83-.76 1.36-.94.64-.2 1.33-.27 2-.19.67.05 1.32.24 1.9.57a2.76 2.76 0 011.46 2.79c-.03.38-.15.75-.36 1.07a2 2 0 01-.59.58c-.16.1-.33.2-.51.29V68l3.73.37-.12 1.05zm-6.07-1.68c.48.05.96.02 1.43-.09.38-.1.72-.3 1-.59a2 2 0 00.2-2.25c-.22-.34-.53-.6-.9-.78-.4-.2-.85-.33-1.3-.37a3.6 3.6 0 00-1.37.1 1.88 1.88 0 00-1.47 1.7c-.05.4.03.8.23 1.14.2.34.5.6.86.77.41.2.86.33 1.32.37z"/>
  <path fill="#111" fill-opacity=".88" d="M15.52 59.48c-.09.41-.26.8-.52 1.14a2 2 0 01-2.15.73 1.78 1.78 0 01-.91-.46c-.2-.21-.36-.47-.44-.76-.08-.3-.12-.62-.11-.94v-1c0-.34.08-.78.11-1.05.04-.2.04-.4 0-.61a.39.39 0 00-.32-.27 1.44 1.44 0 00-1.12.13 1.5 1.5 0 00-.62 1 2 2 0 00.05 1.27c.13.3.33.56.57.77l-.59.92a2.4 2.4 0 01-.81-1 2.66 2.66 0 01-.27-1.1 4.3 4.3 0 01.36-1.84c.12-.28.3-.54.51-.77.25-.24.56-.42.89-.51.45-.11.93-.11 1.38 0l4.55 1.05-.24 1.06-.94-.21c.15.14.29.3.4.47.14.24.23.5.28.77.07.4.05.82-.06 1.21zm-.92-.38c.1-.37.1-.75 0-1.12a1.7 1.7 0 00-1.25-1.22l-1-.22c.06.1.09.21.08.33V58.47a4.4 4.4 0 000 .81c.02.23.1.46.22.65.14.2.35.33.59.37a1 1 0 00.93-.22c.24-.28.39-.62.43-.98z"/>
  <path fill="#111" fill-opacity=".88" d="M13 52l4 1.48-.38 1L10 52.06l.36-1 1 .38v-.08a2.08 2.08 0 01-.55-1c-.07-.46 0-.94.19-1.36.15-.41.4-.79.72-1.08a2 2 0 011.12-.48c.52-.04 1.03.04 1.51.24l4.22 1.56-.37 1-4.2-1.5a1.86 1.86 0 00-1.37 0 1.54 1.54 0 00-.86.95 2 2 0 00-.11 1c.05.31.19.6.4.84.27.23.6.39.94.47z"/>
  <path fill="#111" fill-opacity=".88" d="M21.87 48.4c-.07.15-.16.29-.26.42l-.22.23-.72-.69c.24-.24.4-.55.44-.89a1.49 1.49 0 00-.53-1l-.4-.44-7.54-.93.55-1.1 5.92.85v-.07L15 40.46l.56-1.05 5.83 6.4c.24.25.43.54.57.86a2.05 2.05 0 01-.09 1.73z"/>
  <path fill="#06C" d="M24.59 38.44l-7.41-5.87L19.23 30c.33-.46.77-.82 1.28-1.07.4-.19.86-.25 1.3-.18.44.07.84.26 1.19.53.28.2.5.48.65.8.12.26.17.55.15.83-.03.28-.1.54-.2.8l.07.06c.21-.23.48-.4.78-.5.35-.11.72-.14 1.08-.08a2.8 2.8 0 012 1.6c.17.43.2.91.08 1.36-.17.6-.47 1.16-.87 1.63l-2.15 2.66zm-3.44-4.19l1.31-1.66c.2-.25.35-.54.43-.86.08-.29.08-.6 0-.88a1.5 1.5 0 00-.53-.73 1.42 1.42 0 00-1.1-.32c-.49.1-.92.4-1.19.81l-1.38 1.69 2.46 1.95zm3.35 2.66l1.42-1.78c.4-.41.62-.95.64-1.52a1.4 1.4 0 00-.53-1 1.7 1.7 0 00-.85-.36c-.32-.04-.65.01-.95.14-.34.15-.64.39-.86.69l-1.44 1.82 2.57 2.01z"/>
  <path fill="#06C" d="M32 30.21c-.43.44-.99.75-1.59.89-.57.13-1.16.09-1.7-.12a4.45 4.45 0 01-2.62-2.76 3 3 0 01.74-3.22c.27-.25.58-.46.92-.62.35-.17.73-.26 1.12-.26.44 0 .87.11 1.27.3.5.25.96.59 1.35 1l.32.33-3.94 3.8-.65-.68 3.14-3a2.4 2.4 0 00-.92-.6 1.8 1.8 0 00-1.93.45 2 2 0 00-.59 1c-.08.37-.05.74.06 1.1.1.38.3.72.58 1l.43.45c.32.35.71.62 1.15.79a2 2 0 001.14.07c.38-.11.72-.32 1-.6.2-.18.35-.4.47-.63.11-.21.17-.44.18-.68 0-.25-.04-.5-.14-.72l1-.52c.15.32.22.67.21 1.02 0 .39-.1.77-.26 1.12-.18.4-.43.77-.74 1.09z"/>
  <path fill="#06C" d="M35.89 19.69l-.62.81c-.16-.1-.32-.16-.5-.21-.2-.05-.42-.05-.62 0-.26.06-.5.18-.71.35-.32.22-.56.53-.69.89a.89.89 0 00.38 1.1c.1.06.23.09.35.09.35 0 .69-.09 1-.24l1-.43a3 3 0 011.52-.31 1.7 1.7 0 011.1.69c.24.31.37.69.38 1.08 0 .42-.1.83-.32 1.19-.25.43-.6.8-1 1.1-.5.4-1.09.64-1.72.7a2 2 0 01-1.54-.56l.67-.82c.28.24.64.36 1 .34.37-.04.72-.18 1-.42.35-.25.62-.6.77-1a1 1 0 00-.11-.9.88.88 0 00-.58-.34c-.3-.02-.6.04-.86.18l-1.11.49c-.49.25-1.04.35-1.58.29A1.77 1.77 0 0131.66 22c0-.4.1-.8.3-1.14.23-.4.54-.73.91-1 .45-.38 1.01-.6 1.6-.62.5 0 1 .16 1.42.45z"/>
  <path fill="#06C" d="M39.54 15.54l.48.79-3.13 1.92-.49-.79 3.14-1.92zm-3.11-.09l.93-.57 3.53 5.77c.11.2.28.39.47.52.14.08.3.1.46.07.15-.03.3-.09.43-.17a1.9 1.9 0 00.38-.3l.7.72a2.1 2.1 0 01-.62.54c-.27.16-.57.26-.88.3-.32.04-.64-.01-.94-.14-.33-.15-.6-.4-.78-.72l-3.68-6.02z"/>
  <path fill="#06C" d="M44.75 20.65L40.85 12l1-.47 1.74 3.84 4.59-2.09-1.7-3.79L47.53 9l3.9 8.61-1 .47-1.75-3.85-4.59 2.08 1.74 3.85-1.08.49z"/>
  <path fill="#06C" d="M56.08 16.37c-.57.16-1.18.16-1.75 0a3.12 3.12 0 01-1.43-.92 4.25 4.25 0 01-.9-1.72 4.35 4.35 0 01-.14-2 3 3 0 012.22-2.44 3.07 3.07 0 013.18.93c.43.52.74 1.13.9 1.78.2.65.25 1.33.14 2-.1.57-.35 1.1-.73 1.54-.41.4-.93.7-1.49.83zm-.27-.94a2 2 0 001-.69c.24-.34.37-.73.4-1.14.03-.45-.02-.9-.15-1.33a3.67 3.67 0 00-.58-1.21c-.24-.34-.56-.6-.94-.77-.4-.14-.85-.14-1.26 0-.4.1-.76.35-1 .69-.23.34-.37.74-.4 1.15a3.84 3.84 0 00.7 2.51c.24.33.56.6.94.76.41.16.87.17 1.29.03z"/>
  <path fill="#06C" d="M60.49 15l-.83-7 1-.12.13 1.1h.1c.08-.4.3-.74.6-1 .33-.26.72-.41 1.14-.45a1.94 1.94 0 012.03.97h.08a2 2 0 01.7-1c.38-.28.83-.45 1.3-.5a2.14 2.14 0 011.62.4 2.51 2.51 0 01.82 1.77l.55 4.71-1.08.12-.56-4.72a1.33 1.33 0 00-.55-1.06A1.63 1.63 0 0066.49 8a1.52 1.52 0 00-1.1.59c-.23.34-.33.76-.27 1.17l.54 4.59-1.1.13L64 9.65a1.3 1.3 0 00-.5-.93 1.55 1.55 0 00-1.81.07c-.23.18-.4.42-.51.69-.12.3-.16.62-.12.94l.52 4.4-1.09.18z"/>
  <path fill="#06C" d="M74.47 14.2c-.62 0-1.23-.19-1.75-.52a3.08 3.08 0 01-1.09-1.32 4.36 4.36 0 01-.32-1.92c0-.66.17-1.32.47-1.91.28-.52.7-.96 1.22-1.26a3.22 3.22 0 013.78.46c.3.32.52.7.66 1.12.17.54.23 1.11.2 1.68v.46l-5.46-.21v-.94l4.36.17c.02-.37-.05-.74-.2-1.08a1.8 1.8 0 00-1.64-1.08c-.4-.03-.79.07-1.13.27-.32.2-.58.48-.76.81-.18.34-.28.7-.3 1.09v.62a3 3 0 00.1 1.36 2 2 0 00.75.88 2.5 2.5 0 001.93.24c.23-.07.44-.19.61-.35.19-.16.33-.37.42-.6l1 .34c-.12.35-.33.66-.59.92a3 3 0 01-1 .59c-.4.13-.83.2-1.26.18z"/>
  <path fill="#06C" d="M91.56 10.39l-1.11-.28a2.48 2.48 0 00-1.25-2.25 3.09 3.09 0 00-.84-.34 2.87 2.87 0 00-1.62 0 3 3 0 00-1.38 1 4.7 4.7 0 00-.89 1.92c-.2.69-.23 1.4-.11 2.11a2.85 2.85 0 002.16 2.3 2.76 2.76 0 002.52-.55c.23-.22.42-.47.55-.76l1.11.28c-.18.44-.44.84-.77 1.18-.3.31-.66.56-1.06.74a3.78 3.78 0 01-2.61.19 3.93 3.93 0 01-1.94-1.09 4.09 4.09 0 01-1-2 5.83 5.83 0 01.1-2.64c.18-.88.57-1.7 1.12-2.4a4.07 4.07 0 011.84-1.27 4 4 0 012.24 0 3.8 3.8 0 012.25 1.34 3.9 3.9 0 01.69 2.52z"/>
  <path fill="#06C" d="M94 18.47a3 3 0 01-1.94-2.67 4.3 4.3 0 01.36-1.93 4.4 4.4 0 011.11-1.64c.43-.39.96-.65 1.53-.75a3.28 3.28 0 013.11 1.28 3 3 0 01.55 1.61c.03.67-.1 1.33-.36 1.94a4.34 4.34 0 01-1.1 1.63 3 3 0 01-3.26.53zm.37-.9c.4.18.83.22 1.25.11.39-.12.73-.34 1-.64a3.94 3.94 0 001.01-2.45c.02-.41-.07-.82-.27-1.18a1.81 1.81 0 00-1-.81c-.4-.18-.84-.22-1.26-.11-.39.12-.73.35-1 .66a3.94 3.94 0 00-1.01 2.44c-.02.41.08.82.27 1.18.23.37.58.66 1 .8h.01z"/>
  <path fill="#06C" d="M101.4 17.07l-2.12 3.71-.94-.54 3.52-6.16.91.52-.55 1h.08c.32-.22.7-.36 1.09-.38.46 0 .92.12 1.31.37.38.2.7.51.94.88.22.35.33.77.29 1.19-.04.51-.2 1-.48 1.44l-2.24 3.9-.95-.54 2.21-3.84c.25-.4.35-.88.27-1.35a1.54 1.54 0 00-.8-1c-.28-.17-.6-.26-.94-.27-.31-.01-.63.08-.89.25-.3.21-.54.5-.71.82z"/>
  <path fill="#06C" d="M112.06 22.66l-1-.37c.05-.18.07-.36.07-.54 0-.21-.06-.42-.16-.6a1.78 1.78 0 00-.53-.59 1.93 1.93 0 00-1-.41.89.89 0 00-.79.35.77.77 0 00-.15.69c.1.32.28.62.5.87l.69.83c.37.4.62.89.72 1.42a1.66 1.66 0 01-.36 1.25c-.22.32-.55.55-.93.66-.4.11-.83.11-1.23 0a3.56 3.56 0 01-1.33-.65 3.1 3.1 0 01-1.15-1.45 2.06 2.06 0 01.1-1.64l1 .41c-.14.32-.16.67-.06 1 .13.35.38.66.69.87a2 2 0 001.17.47 1 1 0 00.83-.36.8.8 0 00.16-.65c-.06-.3-.2-.56-.41-.78l-.78-.93a2.7 2.7 0 01-.71-1.43c-.05-.45.08-.9.36-1.25.23-.3.55-.54.91-.65.39-.1.8-.1 1.18 0 .44.1.86.3 1.22.59a2.57 2.57 0 01.99 2.89z"/>
  <path fill="#06C" d="M116.29 22l.81.73-4.55 5c-.17.17-.3.37-.37.6a.7.7 0 00.06.46 1.44 1.44 0 00.52.55l.16.1-.5.87-.29-.14c-.14-.1-.28-.2-.4-.31-.23-.21-.4-.47-.53-.75-.13-.3-.17-.62-.13-.94.04-.38.2-.73.47-1l4.75-5.17zm.78 3l-.62.68-2.72-2.47.63-.68 2.71 2.47z"/>
  <path fill="#06C" d="M113.4 31.36l5.18-4.85.72.77-.78.73v.06c.35-.15.74-.17 1.1-.07a2 2 0 011 .61l.2.22.18.21-.81.76-.14-.22a3.66 3.66 0 00-.26-.32 2 2 0 00-.79-.53 1.58 1.58 0 00-1.65.36l-3.28 3.06-.67-.79z"/>
  <path fill="#06C" d="M121.61 36.63l3.39-2.52.65.86-5.65 4.28-.66-.87 1-.72-.05-.06c-.4.08-.81.06-1.2-.06a2.23 2.23 0 01-1.1-.84 2.27 2.27 0 01-.48-1.12 2 2 0 01.22-1.18c.24-.45.58-.84 1-1.14l3.59-2.72.66.87-3.54 2.67c-.37.26-.63.65-.72 1.1a1.48 1.48 0 00.3 1.17 2 2 0 00.67.53 1.82 1.82 0 002-.25h-.08z"/>
  <path fill="#06C" d="M122.27 43.34a3.09 3.09 0 01-.45-1.72c.03-.58.23-1.14.57-1.61a4.5 4.5 0 011.44-1.28c.56-.34 1.2-.55 1.85-.6.58-.05 1.16.05 1.68.31A3.05 3.05 0 01129 41c.04.42-.02.85-.18 1.24-.16.4-.42.74-.77 1l-.54-.94c.24-.25.4-.57.47-.91.06-.41-.02-.83-.25-1.18a1.85 1.85 0 00-.84-.8 2.1 2.1 0 00-1.18-.18c-.48.06-.93.22-1.34.47a3.5 3.5 0 00-1.11.94c-.26.32-.41.7-.45 1.11-.04.4.06.8.27 1.14.13.23.3.44.51.6.2.15.42.25.66.29.25.06.5.06.75 0l.54.94a2.52 2.52 0 01-2.37-.26c-.39-.3-.7-.68-.9-1.12z"/>
  <path fill="#06C" d="M132.6 43.89l.45 1-6.17 2.77c-.22.08-.42.22-.57.4a.72.72 0 00-.14.45 1.68 1.68 0 00.26.7l.11.16-.8.6a1.9 1.9 0 01-.45-.69 2.1 2.1 0 01-.19-.9 1.7 1.7 0 011.07-1.6l6.43-2.89zm-.48 3.11l-.84.38-1.51-3.38.85-.38 1.5 3.38z"/>
  <path fill="#06C" d="M126.21 51.34l6.65-2.46.38 1-6.65 2.46-.38-1zm8-2.36a.72.72 0 010-.58.68.68 0 01.41-.4.71.71 0 01.57 0c.18.1.32.25.39.44a.8.8 0 010 .59.76.76 0 01-.41.4.67.67 0 01-.57 0 .8.8 0 01-.44-.43l.05-.02z"/>
  <path fill="#06C" d="M127.88 57a3 3 0 01.94-3.16 4.78 4.78 0 013.72-1 2.95 2.95 0 012.46 2.24 3 3 0 010 1.74c-.2.56-.54 1.06-1 1.43a4.5 4.5 0 01-1.76.89c-.65.2-1.34.23-2 .1a3 3 0 01-2.36-2.24zm1-.25c.1.42.33.8.67 1.06.33.24.72.39 1.13.42.45.04.9 0 1.33-.13.44-.11.85-.3 1.22-.56.34-.23.61-.55.78-.93.16-.4.18-.85.06-1.26-.1-.42-.34-.8-.68-1.06a2.27 2.27 0 00-1.14-.41 3.88 3.88 0 00-2.55.68c-.34.23-.6.55-.77.93-.18.39-.21.83-.1 1.24l.05.02z"/>
  <path fill="#06C" d="M133.49 62l-4.23.56-.14-1.08 7-.93.14 1-1.1.15v.09a2 2 0 011 .63c.28.36.46.8.5 1.26.07.43.03.88-.12 1.29a2 2 0 01-.77 1c-.44.27-.93.44-1.44.49l-4.47.6-.15-1.06 4.4-.59c.47-.03.91-.25 1.23-.6a1.5 1.5 0 00.31-1.24 1.89 1.89 0 00-.35-.9 1.59 1.59 0 00-.74-.55c-.34-.13-.7-.17-1.07-.12z"/>
</svg>
