<svg viewBox="0 0 32 32" fill="none" xmlns="http://www.w3.org/2000/svg">
  <path d="M16 2.6665C23.3544 2.6665 29.3334 8.64545 29.3334 15.9998C29.3334 23.3542 23.3544 29.3332 16 29.3332C13.843 29.3332 11.8043 28.8188 10.0001 27.9063C8.55213 27.174 5.08604 29.1852 4.00012 28C3.1789 27.1037 4.64749 23.095 4.09365 22C3.18107 20.1957 2.6667 18.1569 2.6667 15.9998C2.6667 8.64545 8.64565 2.6665 16 2.6665Z" fill="#54B153"/>
  <path fill-rule="evenodd" clip-rule="evenodd" d="M12.6595 10.4142C12.4069 9.85278 12.1543 9.85278 11.9017 9.85278C11.7052 9.85278 11.4806 9.85278 11.256 9.85278C11.0315 9.85278 10.6946 9.93699 10.3859 10.2738C10.0771 10.5826 9.23499 11.3966 9.23499 13.0247C9.23499 14.6528 10.442 16.2528 10.5824 16.4773C10.7227 16.7019 12.8841 20.1545 16.2806 21.5019C19.0876 22.5966 19.6771 22.4002 20.2666 22.344C20.8841 22.2879 22.2315 21.53 22.5122 20.7721C22.7929 20.0142 22.7929 19.3405 22.7087 19.2002C22.6245 19.0317 22.3999 18.9475 22.0631 18.7791C21.7543 18.6107 20.0981 17.8247 19.7894 17.7124C19.4806 17.6002 19.2841 17.544 19.0595 17.8809C18.835 18.1896 18.1894 18.9475 17.9929 19.1721C17.7964 19.3966 17.5999 19.4247 17.2631 19.2563C16.9543 19.0879 15.8595 18.751 14.5964 17.6002C13.6139 16.73 12.9402 15.6352 12.7438 15.2984C12.5473 14.9616 12.7157 14.7931 12.8841 14.6247C13.0525 14.4563 13.2209 14.2317 13.3894 14.0352C13.5578 13.8387 13.6139 13.6984 13.7262 13.4738C13.8385 13.2493 13.7824 13.0528 13.6981 12.8844C13.6139 12.744 12.9683 11.0879 12.6595 10.4142Z" fill="white"/>
</svg>
