<svg width="20" height="20" viewBox="0 0 20 20" xmlns="http://www.w3.org/2000/svg">
  <path d="M9.99984 1.66663C5.40335 1.66663 1.6665 5.40347 1.6665 9.99996C1.6665 14.5964 5.40335 18.3333 9.99984 18.3333C11.348 18.3333 12.6221 18.0118 13.7498 17.4415C14.6548 16.9838 16.8211 18.2408 17.4998 17.5001C18.0131 16.9399 17.0952 14.4345 17.4413 13.7501C18.0117 12.6224 18.3332 11.3481 18.3332 9.99996C18.3332 5.40347 14.5963 1.66663 9.99984 1.66663Z" fill="#54B153"/>
  <path fill-rule="evenodd" clip-rule="evenodd" d="M7.91232 6.50884C7.75443 6.15796 7.59653 6.15796 7.43864 6.15796C7.31583 6.15796 7.17548 6.15796 7.03513 6.15796C6.89478 6.15796 6.68425 6.21059 6.49127 6.42112C6.29829 6.6141 5.77197 7.12287 5.77197 8.14042C5.77197 9.15796 6.52636 10.158 6.61408 10.2983C6.7018 10.4387 8.05267 12.5966 10.1755 13.4387C11.9299 14.1229 12.2983 14.0001 12.6667 13.965C13.0527 13.9299 13.8948 13.4562 14.0702 12.9825C14.2457 12.5088 14.2457 12.0878 14.193 12.0001C14.1404 11.8948 14 11.8422 13.7895 11.7369C13.5965 11.6316 12.5614 11.1404 12.3685 11.0702C12.1755 11.0001 12.0527 10.965 11.9123 11.1755C11.772 11.3685 11.3685 11.8422 11.2457 11.9825C11.1228 12.1229 11 12.1404 10.7895 12.0352C10.5965 11.9299 9.91232 11.7194 9.12285 11.0001C8.50881 10.4562 8.08776 9.77199 7.96495 9.56147C7.84215 9.35094 7.94741 9.24568 8.05267 9.14042C8.15794 9.03515 8.2632 8.8948 8.36846 8.77199C8.47373 8.64919 8.50881 8.56147 8.57899 8.42112C8.64917 8.28077 8.61408 8.15796 8.56145 8.0527C8.50881 7.96498 8.10531 6.92989 7.91232 6.50884Z" fill="white"/>
</svg>
