<svg width="20" height="20" viewBox="0 0 20 20" fill="none" xmlns="http://www.w3.org/2000/svg">
  <path d="M9.99984 1.66663C7.7897 1.66663 5.67008 2.5446 4.10728 4.1074C2.54448 5.67021 1.6665 7.78982 1.6665 9.99996C1.6665 12.2101 2.54448 14.3297 4.10728 15.8925C5.67008 17.4553 7.7897 18.3333 9.99984 18.3333C12.21 18.3333 14.3296 17.4553 15.8924 15.8925C17.4552 14.3297 18.3332 12.2101 18.3332 9.99996C18.3332 7.78982 17.4552 5.67021 15.8924 4.1074C14.3296 2.5446 12.21 1.66663 9.99984 1.66663Z" fill="#29B6F6"/>
  <path d="M5.46403 9.97035C8.23644 8.57645 11.8242 6.87701 12.3194 6.64179C13.6185 6.02615 14.0171 6.14413 13.8183 7.50752C13.6756 8.48746 13.2638 11.7318 12.9355 13.7512C12.7407 14.9487 12.3037 15.0906 11.6166 14.5725C11.2861 14.3232 9.61824 13.0627 9.25624 12.7667C8.92579 12.497 8.47005 12.1725 9.0416 11.5334C9.24499 11.3058 10.5783 9.85085 11.617 8.71839C11.7531 8.56965 11.5822 8.32536 11.4251 8.4446C10.025 9.50572 8.08379 10.9785 7.83673 11.1704C7.46348 11.46 7.10502 11.5929 6.46155 11.3816C5.97536 11.2221 5.50043 11.0317 5.31557 10.9591C4.60372 10.6798 4.77269 10.318 5.46403 9.97035Z" fill="white"/>
</svg>
