<svg width="20" height="20" viewBox="0 0 20 20" fill="none" xmlns="http://www.w3.org/2000/svg">
  <path d="M18.3332 8.82874C18.3332 6.53686 17.8332 4.75055 16.5832 3.48665C14.7998 1.83515 11.8665 1.66663 9.99984 1.66663C8.13317 1.66663 5.19984 1.83515 3.4165 3.48665C2.1665 4.75055 1.6665 6.53686 1.6665 8.82874C1.6665 9.01411 1.6665 10.9689 1.6665 11.1712C1.6665 13.4631 2.1665 15.2325 3.4165 16.5133C5.19984 18.1479 8.13317 18.3333 9.99984 18.3333C11.8665 18.3333 14.7998 18.1648 16.5832 16.5133C17.8332 15.2494 18.3332 13.4631 18.3332 11.1712C18.3332 10.9689 18.3332 9.01411 18.3332 8.82874Z" fill="#6F58A1"/>
  <path d="M13.9334 12.5833C13.4667 12.2 13.2501 12.0833 12.6167 11.7C12.3501 11.5333 11.9501 11.4 11.7334 11.4C11.5834 11.4 11.4167 11.5166 11.3001 11.6166C11.0334 11.8833 10.9501 12.2166 10.4667 12.2166C10.0001 12.2166 9.18341 11.75 8.60008 11.1333C7.98341 10.55 7.50008 9.71663 7.50008 9.24997C7.50008 8.76663 7.83341 8.6833 8.11675 8.39997C8.21675 8.29997 8.33341 8.1333 8.33341 7.9833C8.33341 7.76663 8.20008 7.36663 8.03341 7.09997C7.65008 6.46663 7.53341 6.24997 7.15008 5.7833C7.01675 5.6333 6.86675 5.56663 6.70008 5.54997C6.43341 5.54997 6.08341 5.6833 5.85008 5.84997C5.50008 6.1333 5.11675 6.49997 5.01675 6.94997C5.01675 6.99997 5.00008 7.06663 5.00008 7.1333C4.98341 7.59997 5.16675 8.06663 5.36675 8.46663C5.83341 9.41663 6.45008 10.35 7.13341 11.1666C7.33341 11.4333 7.58341 11.6666 7.81675 11.9C8.05008 12.15 8.30008 12.3833 8.56675 12.6C9.38341 13.2666 10.3001 13.9 11.2501 14.3666C11.6501 14.5666 12.1167 14.75 12.5834 14.7333C12.6501 14.7333 12.7167 14.7166 12.7834 14.7166C13.2334 14.6166 13.6001 14.25 13.8667 13.8833C14.0334 13.6333 14.1667 13.2833 14.1667 13.0166C14.1667 12.8666 14.1001 12.7166 13.9334 12.5833ZM14.1667 10.55C13.9334 10.55 13.7501 10.3666 13.7501 10.1333V9.71663C13.7501 7.64997 12.0667 5.96663 10.0001 5.96663C9.76675 5.96663 9.58341 5.7833 9.58341 5.54997C9.58341 5.31663 9.76675 5.1333 10.0001 5.1333C12.5334 5.1333 14.5834 7.1833 14.5834 9.71663V10.1333C14.5834 10.3666 14.4001 10.55 14.1667 10.55ZM11.6001 9.71663C11.4167 9.71663 11.2501 9.59997 11.2001 9.39997C11.0834 8.9833 10.7501 8.6333 10.3167 8.51663C10.1001 8.46663 9.96675 8.2333 10.0167 8.01663C10.0667 7.79997 10.3001 7.66663 10.5167 7.71663C11.2501 7.89997 11.8167 8.4833 12.0001 9.19997C12.0501 9.41663 11.9167 9.64997 11.7001 9.69997C11.6834 9.71663 11.6501 9.71663 11.6001 9.71663Z" fill="white"/>
  <path d="M12.9167 10.1334C12.6834 10.1334 12.5001 9.95002 12.5001 9.71669C12.5001 8.38336 11.4667 7.30002 10.1334 7.21669C9.90006 7.21669 9.7334 7.01669 9.7334 6.80002C9.75007 6.56669 9.95006 6.40002 10.1667 6.40002C11.9501 6.50002 13.3334 7.95002 13.3334 9.71669C13.3334 9.95002 13.1501 10.1334 12.9167 10.1334Z" fill="white"/>
</svg>
