<svg xmlns="http://www.w3.org/2000/svg" x="0" y="0" version="1.1" viewBox="0 0 72 72" xml:space="preserve">
  <path d="M31.165 30.193c.196.201.301.466.296.763v1.515a1.053 1.053 0 01-.646.986 1.062 1.062 0 01-1.149-.229 1.048 1.048 0 01-.304-.772V30.94a1.052 1.052 0 01.308-.76 1.052 1.052 0 01.737-.306h.022c.274.004.543.12.736.32zM12.83 38.456a1.047 1.047 0 00.658.974.885.885 0 00.409.076h7.515c.139.005.294-.025.424-.076s.245-.128.343-.225a1.043 1.043 0 00.004-1.495 1.029 1.029 0 00-.346-.229c-.13-.052-.26-.07-.409-.076h-7.531a1.09 1.09 0 00-.41.076 1.022 1.022 0 00-.341.225 1.046 1.046 0 00-.315.75zm16.837 3.772a1.062 1.062 0 001.495-.005 1.04 1.04 0 00.3-.752v-1.515a1.048 1.048 0 00-1.032-1.082h-.022a1.049 1.049 0 00-1.045 1.066v1.516a1.048 1.048 0 00.305.772zm-9.005-16.822h-6c-.992 0-1.8.807-1.8 1.8v3c0 .992.808 1.8 1.8 1.8h6c.993 0 1.8-.808 1.8-1.8v-3c0-.993-.807-1.8-1.8-1.8zm37.175 1.575a1.15 1.15 0 00-.409-.076H39.396a1.09 1.09 0 00-.41.076 1.022 1.022 0 00-.341.225 1.046 1.046 0 00-.004 1.495c.101.101.217.177.346.229s.232.082.409.076H57.41a.975.975 0 00.424-.076c.13-.052.245-.128.343-.225a1.043 1.043 0 00.004-1.495 1.029 1.029 0 00-.346-.229zm9.625-3.525v25.5a7.058 7.058 0 01-7.05 7.05h-24c-1.924 0-3.743-.819-5.12-2.303a1.2 1.2 0 00-1.76 0c-1.377 1.484-3.195 2.302-5.12 2.302h-13.5a7.058 7.058 0 01-7.05-7.05v-25.5a7.058 7.058 0 017.05-7.05h13.5c1.925 0 3.743.819 5.12 2.303.456.49 1.305.49 1.76 0 1.377-1.484 3.196-2.302 5.12-2.302h24a7.058 7.058 0 017.05 7.05zm-2.1 0c0-2.776-2.174-4.95-4.95-4.95h-24c-2.775 0-4.95 2.174-4.95 4.965a.87.87 0 01-.004.101l-.035.2a5.219 5.219 0 01-.038.114c-.013.033-.03.064-.043.09a1.05 1.05 0 01-1.946-.226l-.022-.102-1.185.189 1.174-.381c0-2.776-2.175-4.95-4.95-4.95h-13.5c-2.776 0-4.95 2.174-4.95 4.95v25.5c0 2.775 2.174 4.95 4.95 4.95h13.5c2.775 0 4.95-2.175 4.95-4.966a.883.883 0 01.003-.102l.014-.112a1.041 1.041 0 01.448-.674l.103-.06a1.03 1.03 0 01.395-.113 1.013 1.013 0 01.692.188c.174.123.304.293.379.493l.032.1c.018.068.028.137.033.296 0 2.775 2.175 4.95 4.95 4.95h24c2.776 0 4.95-2.175 4.95-4.95v-25.5zm-13.868 13.5a1.046 1.046 0 00-.311-.746 1.062 1.062 0 00-.755-.305H39.396a1.09 1.09 0 00-.41.076 1.022 1.022 0 00-.341.225 1.046 1.046 0 00-.004 1.495c.101.101.217.177.346.229a.938.938 0 00.409.076H50.41c.15.004.293-.025.424-.076.13-.052.245-.128.343-.225a1.043 1.043 0 00.315-.75zM13.141 46.7c.101.101.217.177.346.229s.251.074.409.076h7.515a.991.991 0 00.424-.076c.13-.052.245-.128.343-.225a1.043 1.043 0 00.004-1.495 1.029 1.029 0 00-.346-.229c-.13-.052-.26-.07-.409-.076h-7.531a1.09 1.09 0 00-.41.076 1.022 1.022 0 00-.341.225 1.046 1.046 0 00-.004 1.495z"/>
</svg>
