<svg xmlns="http://www.w3.org/2000/svg" x="0" y="0" version="1.1" viewBox="0 0 72 72" xml:space="preserve">
  <path d="M60.411 18.505h-24c-2.775 0-4.95 2.175-4.95 4.966a.87.87 0 01-.004.101l-.035.2a5.219 5.219 0 01-.038.114c-.013.033-.03.064-.043.09a1.05 1.05 0 01-1.946-.226l-.022-.102-1.185.189 1.174-.381c0-2.776-2.175-4.95-4.95-4.95h-13.5c-2.776 0-4.95 2.174-4.95 4.95v25.5c0 2.775 2.174 4.95 4.95 4.95h13.5c2.775 0 4.95-2.175 4.95-4.966a.883.883 0 01.003-.102l.014-.112a1.041 1.041 0 01.448-.674l.103-.06a1.03 1.03 0 01.395-.113 1.013 1.013 0 01.692.188c.174.123.304.293.379.493l.032.1c.018.068.028.137.033.296 0 2.775 2.175 4.95 4.95 4.95h24c2.776 0 4.95-2.175 4.95-4.95v-25.5c0-2.776-2.174-4.95-4.95-4.95zm-47.55 8.7c0-.992.808-1.8 1.8-1.8h6c.993 0 1.8.808 1.8 1.8v3c0 .993-.807 1.8-1.8 1.8h-6c-.992 0-1.8-.807-1.8-1.8v-3zm9.55 19.156c-.053.13-.13.244-.233.344a1.016 1.016 0 01-.343.225.991.991 0 01-.424.075h-7.515c-.158 0-.28-.024-.41-.075s-.244-.128-.345-.229a1.047 1.047 0 01.004-1.495c.097-.097.213-.173.342-.225a1.09 1.09 0 01.424-.075h7.516a1.029 1.029 0 01.755.305 1.046 1.046 0 01.23 1.151zm0-7.5c-.053.13-.13.244-.233.344-.098.097-.213.173-.343.225s-.285.08-.424.075h-7.515c-.158.011-.28-.024-.41-.075s-.244-.128-.345-.229a1.047 1.047 0 01.004-1.495c.097-.097.213-.173.342-.225a1.09 1.09 0 01.424-.075h7.516c.148.006.28.023.41.075.128.052.243.128.345.229a1.046 1.046 0 01.23 1.151zm9.05 2.61a1.053 1.053 0 01-.646.986 1.062 1.062 0 01-1.149-.229 1.048 1.048 0 01-.304-.772V39.94a1.052 1.052 0 01.308-.76 1.052 1.052 0 01.737-.306h.022a1.056 1.056 0 011.032 1.082v1.515zm0-9a1.053 1.053 0 01-.646.986 1.062 1.062 0 01-1.149-.229 1.048 1.048 0 01-.304-.772V30.94a1.052 1.052 0 01.308-.76 1.052 1.052 0 01.737-.306h.022a1.056 1.056 0 011.032 1.082v1.515zm19.95 4.89c-.053.13-.13.244-.233.344a1.016 1.016 0 01-.343.225c-.13.051-.274.08-.424.075H39.396a.938.938 0 01-.41-.075 1.029 1.029 0 01-.345-.229 1.047 1.047 0 01.004-1.495c.097-.097.213-.173.342-.225a1.09 1.09 0 01.424-.075h11.016a1.062 1.062 0 01.755.304 1.046 1.046 0 01.23 1.151zm7-9c-.053.13-.13.244-.233.344a1.016 1.016 0 01-.343.225.975.975 0 01-.424.075H39.396c-.177.007-.28-.024-.41-.075s-.244-.128-.345-.229a1.047 1.047 0 01.004-1.495c.097-.097.213-.173.342-.225a1.09 1.09 0 01.424-.075h18.016a1.029 1.029 0 01.755.305 1.046 1.046 0 01.23 1.151z"/>
</svg>
