<svg xmlns="http://www.w3.org/2000/svg" width="132" height="65" viewBox="0 0 132 65">
  <path d="M32.782 8L27 47.916h6.114l1.605-11.302.03-.299.182-1.375.03 1.884.03.598.515 10.495h6.084l-1.665-14.622 5.388-12.707h-5.812l-3.632 9.717-.151.36-.394 1.315.212-1.435.06-.33L38.715 8h-5.932zm34.174 12.528l-8.415 27.329h5.842l1.332-5.322h2.452l-.606 5.322h5.782l1.574-27.329h-7.96zm-19.827.06l-4.177 27.328h5.328l1.937-12.528.242-1.764-.03 1.376.03.329.575 12.587h5.812l4.177-27.328H56.06L54.243 31.89l-.273 1.734.03-1.375-.03-.329-.393-11.332H47.13zm38.14 0l-6.084.03c-1.333 8.208-1.977 13.437-3.269 20.332-.033.195-.078.4-.121.658-.087.53-.114.571-.212 1.345-.086.688-.116 1.202 0 1.884.111.655.199 1.03.545 1.584.299.47.546.717.999 1.047.468.342.804.471 1.362.688.567.22 1.55.334 2.421.388 1.156.073 2.325.028 3.36-.12 1.145-.16 2.061-.457 2.755-.926.74-.498 1.387-1.076 1.756-1.854.268-.564.488-1.233.635-2.123.311-1.88.003.008.303-1.883l3.36-21.02h-5.993l-3.481 21.558s-.033.406-.091.657c-.064.289-.056.493-.212.748-.095.148-.154.23-.303.329a.775.775 0 01-.484.15c-.227.002-.38-.09-.545-.24-.177-.161-.228-.305-.273-.538-.043-.212 0-.538 0-.538l.121-.628 3.451-21.528zm10.231 0L89.72 57.933h6.175l3.723-23.023h3.451l.696-4.545h-3.541l.787-5.442h3.632l.605-4.335h-9.746zm-25.093 3.08l-.303 2.093-.09.538-1.302 11.66h-1.847l2.937-11.75.12-.508.485-2.033z"/>
</svg>
