<svg width="162" height="70" viewBox="0 0 162 70" xmlns="http://www.w3.org/2000/svg">
  <path fill-rule="evenodd" clip-rule="evenodd" d="M8.04878 23.7095V13.2155C8.29783 13.1929 8.54687 13.1702 8.79592 13.1476C9.04497 13.125 9.29402 13.1136 9.54307 13.1136C10.4034 13.1136 11.1053 13.2268 11.6487 13.4532C12.2147 13.6797 12.6562 14.0306 12.9731 14.506C13.2901 14.9589 13.5165 15.5475 13.6524 16.272C13.7882 16.9739 13.8561 17.8229 13.8561 18.8191C13.8561 19.4304 13.8108 20.0304 13.7203 20.619C13.6524 21.2077 13.4712 21.7398 13.1769 22.2152C12.8826 22.668 12.4411 23.0303 11.8524 23.302C11.2638 23.5737 10.46 23.7095 9.44118 23.7095H8.04878ZM8.04878 36.4449V24.185H10.0185C11.1506 24.185 12.0222 24.4227 12.6335 24.8981C13.2675 25.351 13.7316 25.8943 14.0259 26.5283C14.3429 27.1622 14.5353 27.8075 14.6033 28.4641C14.6712 29.098 14.7052 29.6074 14.7052 29.9923C14.7052 31.3734 14.5919 32.4941 14.3655 33.3544C14.1618 34.1922 13.8561 34.8487 13.4486 35.3242C13.0411 35.7996 12.543 36.1279 11.9543 36.3091C11.3883 36.4675 10.743 36.5468 10.0185 36.5468C9.31666 36.5468 8.66008 36.5128 8.04878 36.4449ZM3.12442 13.2155V36.4449H0V36.9204H5.12812C6.07903 36.9204 7.01863 36.9317 7.9469 36.9543C8.89781 36.977 9.84872 36.9883 10.7996 36.9883C11.66 36.9883 12.6335 36.8977 13.7203 36.7166C14.807 36.5128 15.8259 36.1619 16.7768 35.6638C17.7503 35.1657 18.5654 34.4865 19.222 33.6261C19.9012 32.7658 20.2408 31.679 20.2408 30.3659C20.2408 29.1659 19.9804 28.1697 19.4597 27.3773C18.939 26.5849 18.2824 25.9509 17.49 25.4755C16.6975 24.9774 15.8259 24.6151 14.875 24.3887C13.924 24.1623 13.0071 24.0151 12.1241 23.9472V23.8114C12.6675 23.7435 13.3241 23.5963 14.0939 23.3699C14.8863 23.1435 15.6447 22.8152 16.3692 22.385C17.0937 21.9548 17.705 21.4115 18.2031 20.7549C18.7239 20.0757 18.9842 19.2493 18.9842 18.2757C18.9842 17.189 18.7239 16.2833 18.2031 15.5588C17.6824 14.8343 17.0145 14.257 16.1994 13.8268C15.407 13.3966 14.524 13.091 13.5505 12.9099C12.5769 12.7287 11.6487 12.6382 10.7657 12.6382C9.81476 12.6382 8.87516 12.6608 7.9469 12.7061C7.01863 12.7287 6.07903 12.7401 5.12812 12.7401H0V13.2155H3.12442Z"/>
  <path fill-rule="evenodd" clip-rule="evenodd" d="M33.6668 27.9207H28.233C28.2557 27.332 28.2896 26.7207 28.3349 26.0868C28.4028 25.4302 28.5387 24.8302 28.7425 24.2868C28.9462 23.7208 29.2519 23.2567 29.6594 22.8944C30.0896 22.5322 30.6896 22.3511 31.4593 22.3511C32.0027 22.3511 32.4216 22.4756 32.7159 22.7246C33.0329 22.9737 33.2593 23.2793 33.3951 23.6416C33.531 24.0038 33.6102 24.3661 33.6329 24.7283C33.6555 25.0906 33.6668 25.3962 33.6668 25.6453V27.9207ZM28.233 28.3961H38.2516C38.2516 27.2415 38.0478 26.2566 37.6403 25.4415C37.2327 24.6038 36.712 23.9246 36.0781 23.4038C35.4441 22.8831 34.7309 22.4982 33.9385 22.2492C33.1461 22.0001 32.3537 21.8756 31.5612 21.8756C30.4518 21.8756 29.4104 22.102 28.4368 22.5548C27.4859 22.985 26.6482 23.5623 25.9237 24.2868C25.2218 24.9887 24.6671 25.8038 24.2596 26.732C23.8521 27.6603 23.6483 28.6112 23.6483 29.5848C23.6483 30.8074 23.8634 31.9054 24.2936 32.879C24.7237 33.8299 25.3124 34.645 26.0595 35.3242C26.8293 35.9808 27.7236 36.4902 28.7425 36.8524C29.7613 37.192 30.8594 37.3619 32.0367 37.3619C33.0329 37.3619 33.8819 37.2147 34.5838 36.9204C35.2856 36.6487 35.8743 36.3091 36.3497 35.9015C36.8252 35.4714 37.1988 35.0185 37.4705 34.5431C37.7421 34.045 37.9346 33.5809 38.0478 33.1507L37.5723 32.9809C37.5497 33.1846 37.4365 33.5016 37.2327 33.9318C37.0516 34.362 36.7573 34.8035 36.3497 35.2563C35.9648 35.6864 35.4554 36.0713 34.8215 36.4109C34.2102 36.7506 33.4517 36.9204 32.5461 36.9204C31.5273 36.9204 30.7348 36.7053 30.1688 36.2751C29.6028 35.8449 29.1726 35.3015 28.8783 34.645C28.584 33.9657 28.4028 33.2186 28.3349 32.4035C28.267 31.5658 28.233 30.7394 28.233 29.9244V28.3961Z"/>
  <path fill-rule="evenodd" clip-rule="evenodd" d="M41.334 31.996V36.9204H41.8095C41.8774 36.7392 41.9453 36.6147 42.0132 36.5468C42.1038 36.4789 42.2397 36.4449 42.4208 36.4449C42.6245 36.4449 42.9076 36.4902 43.2698 36.5808C43.6321 36.6713 44.0283 36.7845 44.4585 36.9204C44.9113 37.0336 45.3754 37.1354 45.8509 37.226C46.3263 37.3166 46.7678 37.3619 47.1753 37.3619C47.9225 37.3619 48.647 37.2487 49.3488 37.0222C50.0507 36.7958 50.662 36.4789 51.1827 36.0713C51.7261 35.6412 52.1563 35.1317 52.4733 34.5431C52.8129 33.9318 52.9827 33.2526 52.9827 32.5054C52.9827 31.4187 52.6657 30.5244 52.0318 29.8225C51.3978 29.1206 50.4696 28.5546 49.247 28.1244L46.3603 27.1396C45.7943 26.9358 45.3414 26.732 45.0018 26.5283C44.6622 26.3019 44.4132 26.0868 44.2547 25.883C44.0962 25.6566 43.9943 25.4415 43.949 25.2377C43.9038 25.034 43.8811 24.8529 43.8811 24.6944C43.8811 23.9246 44.1868 23.3472 44.7981 22.9624C45.432 22.5548 46.1225 22.3511 46.8697 22.3511C47.5715 22.3511 48.1602 22.4643 48.6357 22.6907C49.1111 22.8944 49.5073 23.1888 49.8243 23.5737C50.1639 23.9359 50.4469 24.3661 50.6733 24.8642C50.9224 25.3623 51.1601 25.883 51.3865 26.4264H51.828V22.2831H51.3526C51.3073 22.3963 51.2507 22.4982 51.1827 22.5888C51.1148 22.6793 50.9563 22.7246 50.7073 22.7246C50.5714 22.7246 50.379 22.6793 50.13 22.5888C49.9035 22.4982 49.6319 22.4077 49.3149 22.3171C49.0206 22.2039 48.6809 22.102 48.2961 22.0114C47.9338 21.9209 47.5376 21.8756 47.1074 21.8756C46.2923 21.8756 45.5339 22.0114 44.832 22.2831C44.1528 22.5322 43.5641 22.8831 43.066 23.3359C42.5906 23.7661 42.217 24.2755 41.9453 24.8642C41.6736 25.4528 41.5378 26.0755 41.5378 26.732C41.5378 27.3433 41.6397 27.8754 41.8434 28.3282C42.0472 28.7584 42.2963 29.132 42.5906 29.4489C42.9076 29.7659 43.2472 30.0263 43.6094 30.23C43.9717 30.4112 44.3113 30.5583 44.6283 30.6715L47.3791 31.6904C47.9904 31.9168 48.4659 32.1432 48.8055 32.3696C49.1677 32.5733 49.4394 32.7884 49.6205 33.0148C49.8017 33.2412 49.9149 33.4677 49.9601 33.6941C50.0281 33.8978 50.062 34.1016 50.062 34.3054C50.062 34.9619 49.9375 35.4714 49.6885 35.8336C49.462 36.1732 49.179 36.4336 48.8394 36.6147C48.5225 36.7732 48.1942 36.8638 47.8546 36.8864C47.5149 36.909 47.2433 36.9204 47.0395 36.9204C46.2471 36.9204 45.5792 36.7845 45.0358 36.5128C44.4924 36.2185 44.0283 35.8449 43.6434 35.3921C43.2585 34.9393 42.9189 34.4186 42.6245 33.8299C42.3529 33.2412 42.0812 32.6299 41.8095 31.996H41.334Z"/>
  <path fill-rule="evenodd" clip-rule="evenodd" d="M58.1293 17.9701V22.3511H55.854V22.8265H58.1293V33.2865C58.1293 33.6941 58.152 34.1356 58.1973 34.611C58.2425 35.0865 58.4124 35.528 58.7067 35.9355C59.0237 36.343 59.4991 36.6826 60.1331 36.9543C60.7896 37.226 61.7066 37.3619 62.8839 37.3619C63.3141 37.3619 63.7669 37.3166 64.2423 37.226C64.7178 37.1581 65.1593 36.9996 65.5668 36.7506C65.997 36.5015 66.3706 36.1506 66.6875 35.6978C67.0272 35.2223 67.2649 34.5997 67.4007 33.8299L66.8913 33.728C66.8007 34.0676 66.6762 34.4186 66.5177 34.7808C66.3819 35.1431 66.2008 35.4714 65.9743 35.7657C65.7479 36.0374 65.4763 36.2638 65.1593 36.4449C64.865 36.626 64.5027 36.7166 64.0725 36.7166C63.6876 36.7166 63.3707 36.6487 63.1216 36.5128C62.8952 36.377 62.7141 36.1959 62.5783 35.9695C62.465 35.7204 62.3858 35.4487 62.3405 35.1544C62.2952 34.8601 62.2726 34.5431 62.2726 34.2035V22.8265H66.246V22.3511H62.2726V17.9701C61.933 18.1059 61.5821 18.2191 61.2198 18.3097C60.8802 18.4002 60.5406 18.4455 60.201 18.4455C59.8614 18.4455 59.5104 18.4002 59.1482 18.3097C58.8086 18.2191 58.469 18.1059 58.1293 17.9701Z"/>
  <path fill-rule="evenodd" clip-rule="evenodd" d="M68.857 12.7401V13.2155H71.9815V36.4449H68.857V36.9204H80.0302V36.4449H76.9058V24.8302H86.7206V36.4449H83.5961V36.9204H94.7693V36.4449H91.6449V13.2155H94.7693V12.7401H83.5961V13.2155H86.7206V24.3548H76.9058V13.2155H80.0302V12.7401H68.857Z"/>
  <path fill-rule="evenodd" clip-rule="evenodd" d="M105.799 36.9204C104.916 36.9204 104.225 36.7166 103.727 36.3091C103.229 35.8789 102.856 35.3242 102.607 34.645C102.38 33.9657 102.233 33.1846 102.165 32.3017C102.12 31.4187 102.097 30.5244 102.097 29.6187C102.097 28.7131 102.12 27.8301 102.165 26.9698C102.233 26.0868 102.38 25.3057 102.607 24.6264C102.856 23.9472 103.229 23.4038 103.727 22.9963C104.225 22.5661 104.916 22.3511 105.799 22.3511C106.682 22.3511 107.373 22.5661 107.871 22.9963C108.369 23.4038 108.731 23.9472 108.957 24.6264C109.206 25.3057 109.354 26.0868 109.399 26.9698C109.467 27.8301 109.501 28.7131 109.501 29.6187C109.501 30.5244 109.467 31.4187 109.399 32.3017C109.354 33.1846 109.206 33.9657 108.957 34.645C108.731 35.3242 108.369 35.8789 107.871 36.3091C107.373 36.7166 106.682 36.9204 105.799 36.9204ZM105.799 21.8756C104.622 21.8756 103.524 22.0907 102.505 22.5209C101.509 22.9284 100.637 23.4831 99.8897 24.185C99.1426 24.8868 98.5539 25.7132 98.1238 26.6641C97.7162 27.5924 97.5125 28.5773 97.5125 29.6187C97.5125 30.6828 97.7162 31.6904 98.1238 32.6413C98.5539 33.5695 99.1426 34.3846 99.8897 35.0865C100.637 35.7883 101.509 36.343 102.505 36.7506C103.524 37.1581 104.622 37.3619 105.799 37.3619C106.976 37.3619 108.063 37.1581 109.059 36.7506C110.078 36.343 110.961 35.7883 111.708 35.0865C112.455 34.3846 113.033 33.5695 113.44 32.6413C113.87 31.6904 114.085 30.6828 114.085 29.6187C114.085 28.5773 113.87 27.5924 113.44 26.6641C113.033 25.7132 112.455 24.8868 111.708 24.185C110.961 23.4831 110.078 22.9284 109.059 22.5209C108.063 22.0907 106.976 21.8756 105.799 21.8756Z"/>
  <path fill-rule="evenodd" clip-rule="evenodd" d="M117.055 22.3511V22.8265H119.296V36.4449H117.055V36.9204H125.443V36.4449H123.439V28.1584C123.439 27.5924 123.451 27.1169 123.473 26.732C123.519 26.3245 123.575 25.9736 123.643 25.6792C123.734 25.3623 123.847 25.0906 123.983 24.8642C124.119 24.6151 124.277 24.3774 124.458 24.151C125.137 23.3586 125.93 22.9624 126.835 22.9624C127.356 22.9624 127.832 23.1661 128.262 23.5737C128.692 23.9585 128.907 24.6491 128.907 25.6453V36.4449H126.869V36.9204H135.054V36.4449H133.05V26.4264C133.05 25.8151 133.164 25.2943 133.39 24.8642C133.639 24.4114 133.933 24.0491 134.273 23.7774C134.613 23.5057 134.963 23.302 135.326 23.1661C135.688 23.0303 135.994 22.9624 136.243 22.9624C137.058 22.9624 137.635 23.2227 137.975 23.7435C138.337 24.2416 138.518 24.9661 138.518 25.917V36.4449H136.514V36.9204H144.903V36.4449H142.661V27.1735C142.661 26.766 142.627 26.2679 142.559 25.6792C142.514 25.0906 142.333 24.5359 142.016 24.0151C141.699 23.4718 141.19 23.0076 140.488 22.6227C139.786 22.2379 138.79 22.0454 137.499 22.0454C137.25 22.0454 136.933 22.0794 136.548 22.1473C136.163 22.1926 135.756 22.3171 135.326 22.5209C134.896 22.702 134.465 22.9737 134.035 23.3359C133.628 23.6755 133.254 24.151 132.914 24.7623C132.733 24.4453 132.53 24.1284 132.303 23.8114C132.099 23.4944 131.816 23.2114 131.454 22.9624C131.115 22.6907 130.673 22.4756 130.13 22.3171C129.609 22.136 128.952 22.0454 128.16 22.0454C127.413 22.0454 126.768 22.1473 126.224 22.3511C125.703 22.5548 125.251 22.8039 124.866 23.0982C124.503 23.3699 124.209 23.6642 123.983 23.9812C123.756 24.2755 123.575 24.5359 123.439 24.7623H123.371V22.3511H117.055Z"/>
  <path fill-rule="evenodd" clip-rule="evenodd" d="M157.415 27.9207H151.981C152.004 27.332 152.038 26.7207 152.083 26.0868C152.151 25.4302 152.287 24.8302 152.491 24.2868C152.695 23.7208 153 23.2567 153.408 22.8944C153.838 22.5322 154.438 22.3511 155.208 22.3511C155.751 22.3511 156.17 22.4756 156.464 22.7246C156.781 22.9737 157.008 23.2793 157.144 23.6416C157.279 24.0038 157.359 24.3661 157.381 24.7283C157.404 25.0906 157.415 25.3962 157.415 25.6453V27.9207ZM151.981 28.3961H162C162 27.2415 161.796 26.2566 161.389 25.4415C160.981 24.6038 160.46 23.9246 159.826 23.4038C159.193 22.8831 158.479 22.4982 157.687 22.2492C156.895 22.0001 156.102 21.8756 155.31 21.8756C154.2 21.8756 153.159 22.102 152.185 22.5548C151.234 22.985 150.397 23.5623 149.672 24.2868C148.97 24.9887 148.416 25.8038 148.008 26.732C147.6 27.6603 147.397 28.6112 147.397 29.5848C147.397 30.8074 147.612 31.9054 148.042 32.879C148.472 33.8299 149.061 34.645 149.808 35.3242C150.578 35.9808 151.472 36.4902 152.491 36.8524C153.51 37.192 154.608 37.3619 155.785 37.3619C156.781 37.3619 157.63 37.2147 158.332 36.9204C159.034 36.6487 159.623 36.3091 160.098 35.9015C160.574 35.4714 160.947 35.0185 161.219 34.5431C161.491 34.045 161.683 33.5809 161.796 33.1507L161.321 32.9809C161.298 33.1846 161.185 33.5016 160.981 33.9318C160.8 34.362 160.506 34.8035 160.098 35.2563C159.713 35.6864 159.204 36.0713 158.57 36.4109C157.959 36.7506 157.2 36.9204 156.295 36.9204C155.276 36.9204 154.483 36.7053 153.917 36.2751C153.351 35.8449 152.921 35.3015 152.627 34.645C152.332 33.9657 152.151 33.2186 152.083 32.4035C152.015 31.5658 151.981 30.7394 151.981 29.9244V28.3961Z"/>
  <path fill-rule="evenodd" clip-rule="evenodd" d="M29.8077 48.8619C29.5108 47.2213 28.1983 46.2525 26.5889 46.2525C24.542 46.2525 23.0577 47.8306 23.0577 50.3619C23.0577 52.8931 24.542 54.4713 26.5889 54.4713C28.1983 54.4713 29.5108 53.5025 29.8077 51.8619H28.8389C28.6045 52.9713 27.6514 53.565 26.5889 53.565C25.1358 53.565 23.9952 52.44 23.9952 50.3619C23.9952 48.2838 25.1358 47.1588 26.5889 47.1588C27.6514 47.1588 28.6045 47.7525 28.8389 48.8619H29.8077ZM40.7631 50.3619C40.7631 47.8306 39.2787 46.2525 37.2318 46.2525C35.185 46.2525 33.7006 47.8306 33.7006 50.3619C33.7006 52.8931 35.185 54.4713 37.2318 54.4713C39.2787 54.4713 40.7631 52.8931 40.7631 50.3619ZM39.8256 50.3619C39.8256 52.44 38.685 53.565 37.2318 53.565C35.7787 53.565 34.6381 52.44 34.6381 50.3619C34.6381 48.2838 35.7787 47.1588 37.2318 47.1588C38.685 47.1588 39.8256 48.2838 39.8256 50.3619ZM51.3757 46.3619H50.4226V52.6588H50.3445L45.9695 46.3619H45.032V54.3619H46.0007V48.0806H46.0789L50.4382 54.3619H51.3757V46.3619ZM60.3292 48.3619H61.2667C61.2238 47.1548 60.1105 46.2525 58.5636 46.2525C57.0323 46.2525 55.8292 47.1431 55.8292 48.4869C55.8292 49.565 56.6105 50.2056 57.8605 50.565L58.8448 50.8463C59.6886 51.0806 60.4386 51.3775 60.4386 52.1744C60.4386 53.0494 59.5948 53.6275 58.4855 53.6275C57.5323 53.6275 56.6886 53.2056 56.6105 52.2994H55.6105C55.7042 53.6119 56.7667 54.5025 58.4855 54.5025C60.3292 54.5025 61.3761 53.4869 61.3761 52.19C61.3761 50.69 59.9542 50.2056 59.1261 49.9869L58.3136 49.7681C57.7198 49.6119 56.7667 49.2994 56.7667 48.44C56.7667 47.6744 57.4698 47.1119 58.5323 47.1119C59.5011 47.1119 60.2355 47.5728 60.3292 48.3619ZM65.1714 47.2213H67.687V54.3619H68.6557V47.2213H71.1714V46.3619H65.1714V47.2213ZM75.3065 54.3619H76.2752V51.2369H78.0252C78.0955 51.2369 78.162 51.2369 78.2284 51.233L79.9159 54.3619H81.0409L79.2323 51.0572C80.2518 50.7095 80.7284 49.8775 80.7284 48.815C80.7284 47.4009 79.8846 46.3619 78.0096 46.3619H75.3065V54.3619ZM76.2752 50.3619V47.2213H77.9784C79.2752 47.2213 79.7752 47.8541 79.7752 48.815C79.7752 49.7759 79.2752 50.3619 77.994 50.3619H76.2752ZM90.2326 46.3619V51.5806C90.2326 52.7525 89.4279 53.5963 88.092 53.5963C86.7561 53.5963 85.9514 52.7525 85.9514 51.5806V46.3619H84.9826V51.6588C84.9826 53.2994 86.2092 54.5025 88.092 54.5025C89.9748 54.5025 91.2014 53.2994 91.2014 51.6588V46.3619H90.2326ZM102.213 48.8619C101.917 47.2213 100.604 46.2525 98.9947 46.2525C96.9478 46.2525 95.4634 47.8306 95.4634 50.3619C95.4634 52.8931 96.9478 54.4713 98.9947 54.4713C100.604 54.4713 101.917 53.5025 102.213 51.8619H101.245C101.01 52.9713 100.057 53.565 98.9947 53.565C97.5416 53.565 96.4009 52.44 96.4009 50.3619C96.4009 48.2838 97.5416 47.1588 98.9947 47.1588C100.057 47.1588 101.01 47.7525 101.245 48.8619H102.213ZM105.981 47.2213H108.497V54.3619H109.466V47.2213H111.981V46.3619H105.981V47.2213ZM117.085 46.3619H116.116V54.3619H117.085V46.3619ZM128.418 50.3619C128.418 47.8306 126.933 46.2525 124.886 46.2525C122.839 46.2525 121.355 47.8306 121.355 50.3619C121.355 52.8931 122.839 54.4713 124.886 54.4713C126.933 54.4713 128.418 52.8931 128.418 50.3619ZM127.48 50.3619C127.48 52.44 126.339 53.565 124.886 53.565C123.433 53.565 122.293 52.44 122.293 50.3619C122.293 48.2838 123.433 47.1588 124.886 47.1588C126.339 47.1588 127.48 48.2838 127.48 50.3619ZM139.03 46.3619H138.077V52.6588H137.999L133.624 46.3619H132.687V54.3619H133.655V48.0806H133.733L138.093 54.3619H139.03V46.3619Z"/>
</svg>
