<svg width="162" height="26" viewBox="0 0 162 26" xmlns="http://www.w3.org/2000/svg">
  <path fill-rule="evenodd" clip-rule="evenodd" d="M8.04878 11.7095V1.21552C8.29783 1.19288 8.54687 1.17024 8.79592 1.1476C9.04497 1.12496 9.29402 1.11364 9.54307 1.11364C10.4034 1.11364 11.1053 1.22684 11.6487 1.45325C12.2147 1.67966 12.6562 2.03059 12.9731 2.50604C13.2901 2.95886 13.5165 3.54752 13.6524 4.27202C13.7882 4.97388 13.8561 5.82291 13.8561 6.8191C13.8561 7.4304 13.8108 8.03038 13.7203 8.61904C13.6524 9.2077 13.4712 9.73976 13.1769 10.2152C12.8826 10.668 12.4411 11.0303 11.8524 11.302C11.2638 11.5737 10.46 11.7095 9.44118 11.7095H8.04878ZM8.04878 24.4449V12.185H10.0185C11.1506 12.185 12.0222 12.4227 12.6335 12.8981C13.2675 13.351 13.7316 13.8943 14.0259 14.5283C14.3429 15.1622 14.5353 15.8075 14.6033 16.4641C14.6712 17.098 14.7052 17.6074 14.7052 17.9923C14.7052 19.3734 14.5919 20.4941 14.3655 21.3544C14.1618 22.1922 13.8561 22.8487 13.4486 23.3242C13.0411 23.7996 12.543 24.1279 11.9543 24.3091C11.3883 24.4675 10.743 24.5468 10.0185 24.5468C9.31666 24.5468 8.66008 24.5128 8.04878 24.4449ZM3.12442 1.21552V24.4449H0V24.9204H5.12812C6.07903 24.9204 7.01863 24.9317 7.9469 24.9543C8.89781 24.977 9.84872 24.9883 10.7996 24.9883C11.66 24.9883 12.6335 24.8977 13.7203 24.7166C14.807 24.5128 15.8259 24.1619 16.7768 23.6638C17.7503 23.1657 18.5654 22.4865 19.222 21.6261C19.9012 20.7658 20.2408 19.679 20.2408 18.3659C20.2408 17.1659 19.9804 16.1697 19.4597 15.3773C18.939 14.5849 18.2824 13.9509 17.49 13.4755C16.6975 12.9774 15.8259 12.6151 14.875 12.3887C13.924 12.1623 13.0071 12.0151 12.1241 11.9472V11.8114C12.6675 11.7435 13.3241 11.5963 14.0939 11.3699C14.8863 11.1435 15.6447 10.8152 16.3692 10.385C17.0937 9.95484 17.705 9.41146 18.2031 8.75488C18.7239 8.07566 18.9842 7.24928 18.9842 6.27572C18.9842 5.18897 18.7239 4.28334 18.2031 3.55884C17.6824 2.83434 17.0145 2.257 16.1994 1.82682C15.407 1.39665 14.524 1.091 13.5505 0.909874C12.5769 0.728747 11.6487 0.638184 10.7657 0.638184C9.81476 0.638184 8.87516 0.660824 7.9469 0.706105C7.01863 0.728746 6.07903 0.740068 5.12812 0.740068H0V1.21552H3.12442Z"/>
  <path fill-rule="evenodd" clip-rule="evenodd" d="M33.6668 15.9207H28.233C28.2557 15.332 28.2896 14.7207 28.3349 14.0868C28.4028 13.4302 28.5387 12.8302 28.7425 12.2868C28.9462 11.7208 29.2519 11.2567 29.6594 10.8944C30.0896 10.5322 30.6896 10.3511 31.4593 10.3511C32.0027 10.3511 32.4216 10.4756 32.7159 10.7246C33.0329 10.9737 33.2593 11.2793 33.3951 11.6416C33.531 12.0038 33.6102 12.3661 33.6329 12.7283C33.6555 13.0906 33.6668 13.3962 33.6668 13.6453V15.9207ZM28.233 16.3961H38.2516C38.2516 15.2415 38.0478 14.2566 37.6403 13.4415C37.2327 12.6038 36.712 11.9246 36.0781 11.4038C35.4441 10.8831 34.7309 10.4982 33.9385 10.2492C33.1461 10.0001 32.3537 9.8756 31.5612 9.8756C30.4518 9.8756 29.4104 10.102 28.4368 10.5548C27.4859 10.985 26.6482 11.5623 25.9237 12.2868C25.2218 12.9887 24.6671 13.8038 24.2596 14.732C23.8521 15.6603 23.6483 16.6112 23.6483 17.5848C23.6483 18.8074 23.8634 19.9054 24.2936 20.879C24.7237 21.8299 25.3124 22.645 26.0595 23.3242C26.8293 23.9808 27.7236 24.4902 28.7425 24.8524C29.7613 25.192 30.8594 25.3619 32.0367 25.3619C33.0329 25.3619 33.8819 25.2147 34.5838 24.9204C35.2856 24.6487 35.8743 24.3091 36.3497 23.9015C36.8252 23.4714 37.1988 23.0185 37.4705 22.5431C37.7421 22.045 37.9346 21.5809 38.0478 21.1507L37.5723 20.9809C37.5497 21.1846 37.4365 21.5016 37.2327 21.9318C37.0516 22.362 36.7573 22.8035 36.3497 23.2563C35.9648 23.6864 35.4554 24.0713 34.8215 24.4109C34.2102 24.7506 33.4517 24.9204 32.5461 24.9204C31.5273 24.9204 30.7348 24.7053 30.1688 24.2751C29.6028 23.8449 29.1726 23.3015 28.8783 22.645C28.584 21.9657 28.4028 21.2186 28.3349 20.4035C28.267 19.5658 28.233 18.7394 28.233 17.9244V16.3961Z"/>
  <path fill-rule="evenodd" clip-rule="evenodd" d="M41.334 19.996V24.9204H41.8095C41.8774 24.7392 41.9453 24.6147 42.0132 24.5468C42.1038 24.4789 42.2397 24.4449 42.4208 24.4449C42.6245 24.4449 42.9076 24.4902 43.2698 24.5808C43.6321 24.6713 44.0283 24.7845 44.4585 24.9204C44.9113 25.0336 45.3754 25.1354 45.8509 25.226C46.3263 25.3166 46.7678 25.3619 47.1753 25.3619C47.9225 25.3619 48.647 25.2487 49.3488 25.0222C50.0507 24.7958 50.662 24.4789 51.1827 24.0713C51.7261 23.6412 52.1563 23.1317 52.4733 22.5431C52.8129 21.9318 52.9827 21.2526 52.9827 20.5054C52.9827 19.4187 52.6657 18.5244 52.0318 17.8225C51.3978 17.1206 50.4696 16.5546 49.247 16.1244L46.3603 15.1396C45.7943 14.9358 45.3414 14.732 45.0018 14.5283C44.6622 14.3019 44.4132 14.0868 44.2547 13.883C44.0962 13.6566 43.9943 13.4415 43.949 13.2377C43.9038 13.034 43.8811 12.8529 43.8811 12.6944C43.8811 11.9246 44.1868 11.3472 44.7981 10.9624C45.432 10.5548 46.1225 10.3511 46.8697 10.3511C47.5715 10.3511 48.1602 10.4643 48.6357 10.6907C49.1111 10.8944 49.5073 11.1888 49.8243 11.5737C50.1639 11.9359 50.4469 12.3661 50.6733 12.8642C50.9224 13.3623 51.1601 13.883 51.3865 14.4264H51.828V10.2831H51.3526C51.3073 10.3963 51.2507 10.4982 51.1827 10.5888C51.1148 10.6793 50.9563 10.7246 50.7073 10.7246C50.5714 10.7246 50.379 10.6793 50.13 10.5888C49.9035 10.4982 49.6319 10.4077 49.3149 10.3171C49.0206 10.2039 48.6809 10.102 48.2961 10.0114C47.9338 9.92088 47.5376 9.8756 47.1074 9.8756C46.2923 9.8756 45.5339 10.0114 44.832 10.2831C44.1528 10.5322 43.5641 10.8831 43.066 11.3359C42.5906 11.7661 42.217 12.2755 41.9453 12.8642C41.6736 13.4528 41.5378 14.0755 41.5378 14.732C41.5378 15.3433 41.6397 15.8754 41.8434 16.3282C42.0472 16.7584 42.2963 17.132 42.5906 17.4489C42.9076 17.7659 43.2472 18.0263 43.6094 18.23C43.9717 18.4112 44.3113 18.5583 44.6283 18.6715L47.3791 19.6904C47.9904 19.9168 48.4659 20.1432 48.8055 20.3696C49.1677 20.5733 49.4394 20.7884 49.6205 21.0148C49.8017 21.2412 49.9149 21.4677 49.9601 21.6941C50.0281 21.8978 50.062 22.1016 50.062 22.3054C50.062 22.9619 49.9375 23.4714 49.6885 23.8336C49.462 24.1732 49.179 24.4336 48.8394 24.6147C48.5225 24.7732 48.1942 24.8638 47.8546 24.8864C47.5149 24.909 47.2433 24.9204 47.0395 24.9204C46.2471 24.9204 45.5792 24.7845 45.0358 24.5128C44.4924 24.2185 44.0283 23.8449 43.6434 23.3921C43.2585 22.9393 42.9189 22.4186 42.6245 21.8299C42.3529 21.2412 42.0812 20.6299 41.8095 19.996H41.334Z"/>
  <path fill-rule="evenodd" clip-rule="evenodd" d="M58.1293 5.97008V10.3511H55.854V10.8265H58.1293V21.2865C58.1293 21.6941 58.152 22.1356 58.1973 22.611C58.2425 23.0865 58.4124 23.528 58.7067 23.9355C59.0237 24.343 59.4991 24.6826 60.1331 24.9543C60.7896 25.226 61.7066 25.3619 62.8839 25.3619C63.3141 25.3619 63.7669 25.3166 64.2423 25.226C64.7178 25.1581 65.1593 24.9996 65.5668 24.7506C65.997 24.5015 66.3706 24.1506 66.6875 23.6978C67.0272 23.2223 67.2649 22.5997 67.4007 21.8299L66.8913 21.728C66.8007 22.0676 66.6762 22.4186 66.5177 22.7808C66.3819 23.1431 66.2008 23.4714 65.9743 23.7657C65.7479 24.0374 65.4763 24.2638 65.1593 24.4449C64.865 24.626 64.5027 24.7166 64.0725 24.7166C63.6876 24.7166 63.3707 24.6487 63.1216 24.5128C62.8952 24.377 62.7141 24.1959 62.5783 23.9695C62.465 23.7204 62.3858 23.4487 62.3405 23.1544C62.2952 22.8601 62.2726 22.5431 62.2726 22.2035V10.8265H66.246V10.3511H62.2726V5.97008C61.933 6.10592 61.5821 6.21912 61.2198 6.30968C60.8802 6.40025 60.5406 6.44553 60.201 6.44553C59.8614 6.44553 59.5104 6.40025 59.1482 6.30968C58.8086 6.21912 58.469 6.10592 58.1293 5.97008Z"/>
  <path fill-rule="evenodd" clip-rule="evenodd" d="M68.857 0.740068V1.21552H71.9815V24.4449H68.857V24.9204H80.0302V24.4449H76.9058V12.8302H86.7206V24.4449H83.5961V24.9204H94.7693V24.4449H91.6449V1.21552H94.7693V0.740068H83.5961V1.21552H86.7206V12.3548H76.9058V1.21552H80.0302V0.740068H68.857Z"/>
  <path fill-rule="evenodd" clip-rule="evenodd" d="M105.799 24.9204C104.916 24.9204 104.225 24.7166 103.727 24.3091C103.229 23.8789 102.856 23.3242 102.607 22.645C102.38 21.9657 102.233 21.1846 102.165 20.3017C102.12 19.4187 102.097 18.5244 102.097 17.6187C102.097 16.7131 102.12 15.8301 102.165 14.9698C102.233 14.0868 102.38 13.3057 102.607 12.6264C102.856 11.9472 103.229 11.4038 103.727 10.9963C104.225 10.5661 104.916 10.3511 105.799 10.3511C106.682 10.3511 107.373 10.5661 107.871 10.9963C108.369 11.4038 108.731 11.9472 108.957 12.6264C109.206 13.3057 109.354 14.0868 109.399 14.9698C109.467 15.8301 109.501 16.7131 109.501 17.6187C109.501 18.5244 109.467 19.4187 109.399 20.3017C109.354 21.1846 109.206 21.9657 108.957 22.645C108.731 23.3242 108.369 23.8789 107.871 24.3091C107.373 24.7166 106.682 24.9204 105.799 24.9204ZM105.799 9.8756C104.622 9.8756 103.524 10.0907 102.505 10.5209C101.509 10.9284 100.637 11.4831 99.8897 12.185C99.1426 12.8868 98.5539 13.7132 98.1238 14.6641C97.7162 15.5924 97.5125 16.5773 97.5125 17.6187C97.5125 18.6828 97.7162 19.6904 98.1238 20.6413C98.5539 21.5695 99.1426 22.3846 99.8897 23.0865C100.637 23.7883 101.509 24.343 102.505 24.7506C103.524 25.1581 104.622 25.3619 105.799 25.3619C106.976 25.3619 108.063 25.1581 109.059 24.7506C110.078 24.343 110.961 23.7883 111.708 23.0865C112.455 22.3846 113.033 21.5695 113.44 20.6413C113.87 19.6904 114.085 18.6828 114.085 17.6187C114.085 16.5773 113.87 15.5924 113.44 14.6641C113.033 13.7132 112.455 12.8868 111.708 12.185C110.961 11.4831 110.078 10.9284 109.059 10.5209C108.063 10.0907 106.976 9.8756 105.799 9.8756Z"/>
  <path fill-rule="evenodd" clip-rule="evenodd" d="M117.055 10.3511V10.8265H119.296V24.4449H117.055V24.9204H125.443V24.4449H123.439V16.1584C123.439 15.5924 123.451 15.1169 123.473 14.732C123.519 14.3245 123.575 13.9736 123.643 13.6792C123.734 13.3623 123.847 13.0906 123.983 12.8642C124.119 12.6151 124.277 12.3774 124.458 12.151C125.137 11.3586 125.93 10.9624 126.835 10.9624C127.356 10.9624 127.832 11.1661 128.262 11.5737C128.692 11.9585 128.907 12.6491 128.907 13.6453V24.4449H126.869V24.9204H135.054V24.4449H133.05V14.4264C133.05 13.8151 133.164 13.2943 133.39 12.8642C133.639 12.4114 133.933 12.0491 134.273 11.7774C134.613 11.5057 134.963 11.302 135.326 11.1661C135.688 11.0303 135.994 10.9624 136.243 10.9624C137.058 10.9624 137.635 11.2227 137.975 11.7435C138.337 12.2416 138.518 12.9661 138.518 13.917V24.4449H136.514V24.9204H144.903V24.4449H142.661V15.1735C142.661 14.766 142.627 14.2679 142.559 13.6792C142.514 13.0906 142.333 12.5359 142.016 12.0151C141.699 11.4718 141.19 11.0076 140.488 10.6227C139.786 10.2379 138.79 10.0454 137.499 10.0454C137.25 10.0454 136.933 10.0794 136.548 10.1473C136.163 10.1926 135.756 10.3171 135.326 10.5209C134.896 10.702 134.465 10.9737 134.035 11.3359C133.628 11.6755 133.254 12.151 132.914 12.7623C132.733 12.4453 132.53 12.1284 132.303 11.8114C132.099 11.4944 131.816 11.2114 131.454 10.9624C131.115 10.6907 130.673 10.4756 130.13 10.3171C129.609 10.136 128.952 10.0454 128.16 10.0454C127.413 10.0454 126.768 10.1473 126.224 10.3511C125.703 10.5548 125.251 10.8039 124.866 11.0982C124.503 11.3699 124.209 11.6642 123.983 11.9812C123.756 12.2755 123.575 12.5359 123.439 12.7623H123.371V10.3511H117.055Z"/>
  <path fill-rule="evenodd" clip-rule="evenodd" d="M157.415 15.9207H151.981C152.004 15.332 152.038 14.7207 152.083 14.0868C152.151 13.4302 152.287 12.8302 152.491 12.2868C152.695 11.7208 153 11.2567 153.408 10.8944C153.838 10.5322 154.438 10.3511 155.208 10.3511C155.751 10.3511 156.17 10.4756 156.464 10.7246C156.781 10.9737 157.008 11.2793 157.144 11.6416C157.279 12.0038 157.359 12.3661 157.381 12.7283C157.404 13.0906 157.415 13.3962 157.415 13.6453V15.9207ZM151.981 16.3961H162C162 15.2415 161.796 14.2566 161.389 13.4415C160.981 12.6038 160.46 11.9246 159.826 11.4038C159.193 10.8831 158.479 10.4982 157.687 10.2492C156.895 10.0001 156.102 9.8756 155.31 9.8756C154.2 9.8756 153.159 10.102 152.185 10.5548C151.234 10.985 150.397 11.5623 149.672 12.2868C148.97 12.9887 148.416 13.8038 148.008 14.732C147.6 15.6603 147.397 16.6112 147.397 17.5848C147.397 18.8074 147.612 19.9054 148.042 20.879C148.472 21.8299 149.061 22.645 149.808 23.3242C150.578 23.9808 151.472 24.4902 152.491 24.8524C153.51 25.192 154.608 25.3619 155.785 25.3619C156.781 25.3619 157.63 25.2147 158.332 24.9204C159.034 24.6487 159.623 24.3091 160.098 23.9015C160.574 23.4714 160.947 23.0185 161.219 22.5431C161.491 22.045 161.683 21.5809 161.796 21.1507L161.321 20.9809C161.298 21.1846 161.185 21.5016 160.981 21.9318C160.8 22.362 160.506 22.8035 160.098 23.2563C159.713 23.6864 159.204 24.0713 158.57 24.4109C157.959 24.7506 157.2 24.9204 156.295 24.9204C155.276 24.9204 154.483 24.7053 153.917 24.2751C153.351 23.8449 152.921 23.3015 152.627 22.645C152.332 21.9657 152.151 21.2186 152.083 20.4035C152.015 19.5658 151.981 18.7394 151.981 17.9244V16.3961Z"/>
</svg>
