<svg xmlns="http://www.w3.org/2000/svg" x="0" y="0" version="1.1" viewBox="0 0 72 72" xml:space="preserve">
  <path d="M35.661 36.505c-4.596 0-7.8-2.134-7.8-4.05v-1.5c0-.579.471-1.05 1.05-1.05h13.5c.58 0 1.05.471 1.05 1.05v1.5c0 1.916-3.203 4.05-7.8 4.05zm11.675 6.976a1.133 1.133 0 00-.409-.076H24.396a1.09 1.09 0 00-.41.076 1.022 1.022 0 00-.341.225 1.046 1.046 0 00-.004 1.495c.102.102.218.177.347.23a.89.89 0 00.408.075H46.91c.164.021.295-.024.426-.076.127-.052.242-.127.34-.225a1.043 1.043 0 00.004-1.495 1.029 1.029 0 00-.345-.229zM35.661 24.505a4.02 4.02 0 002.864-1.186c.754-.753 1.186-1.797 1.186-2.863s-.432-2.11-1.185-2.863c-.766-.766-1.783-1.187-2.865-1.187s-2.098.421-2.863 1.186c-.755.753-1.186 1.797-1.186 2.864s.431 2.11 1.185 2.862a4.021 4.021 0 002.864 1.187zm22.8-11.55v46.5c0 3.06-2.49 5.55-5.55 5.55h-34.5c-3.06 0-5.55-2.49-5.55-5.55v-46.5c0-3.06 2.49-5.55 5.55-5.55h34.5c3.06 0 5.55 2.49 5.55 5.55zm-2.1 0a3.414 3.414 0 00-3.45-3.45h-34.5a3.414 3.414 0 00-3.45 3.45v46.5a3.414 3.414 0 003.45 3.45h34.5a3.414 3.414 0 003.45-3.45v-46.5zm-16.368 39.5a1.046 1.046 0 00-.311-.745 1.023 1.023 0 00-.345-.228 1.25 1.25 0 00-.41-.077H24.396a1.09 1.09 0 00-.41.076 1.022 1.022 0 00-.341.225 1.046 1.046 0 00-.004 1.495 1.04 1.04 0 00.755.305H38.91a.85.85 0 00.426-.076c.127-.052.242-.127.34-.225a1.043 1.043 0 00.315-.75z"/>
</svg>
