<svg xmlns="http://www.w3.org/2000/svg" x="0" y="0" version="1.1" viewBox="0 0 72 72" xml:space="preserve">
  <path d="M52.911 9.505h-34.5a3.414 3.414 0 00-3.45 3.45v46.5a3.414 3.414 0 003.45 3.45h34.5a3.414 3.414 0 003.45-3.45v-46.5a3.414 3.414 0 00-3.45-3.45zm-20.113 8.087c.765-.765 1.781-1.186 2.863-1.186s2.099.421 2.865 1.187c.753.752 1.185 1.796 1.185 2.863s-.432 2.11-1.186 2.863c-.765.765-1.782 1.186-2.864 1.186s-2.098-.42-2.864-1.187c-.754-.752-1.185-1.796-1.185-2.862s.431-2.11 1.186-2.864zm-4.936 13.364c0-.58.47-1.05 1.05-1.05h13.5c.578 0 1.05.47 1.05 1.05v1.5c0 1.915-3.204 4.05-7.8 4.05s-7.8-2.135-7.8-4.05v-1.5zm12.05 21.905c-.054.13-.132.244-.234.344a1.033 1.033 0 01-.34.225.85.85 0 01-.427.075H24.396a1.04 1.04 0 01-.755-.305 1.047 1.047 0 01.004-1.495c.097-.096.213-.172.342-.224a1.09 1.09 0 01.424-.075h14.516c.133.005.278.023.41.076.129.052.243.127.345.228a1.046 1.046 0 01.23 1.151zm8-8c-.054.13-.132.244-.234.344a1.033 1.033 0 01-.34.225c-.132.052-.263.097-.427.075H24.396a.89.89 0 01-.408-.074 1.04 1.04 0 01-.347-.23 1.047 1.047 0 01.004-1.495c.097-.097.213-.173.342-.225a1.09 1.09 0 01.424-.075h22.516a1.029 1.029 0 01.755.305 1.046 1.046 0 01.23 1.151z"/>
</svg>
