<svg xmlns="http://www.w3.org/2000/svg" x="0" y="0" version="1.1" viewBox="0 0 72 72" xml:space="preserve">
  <path d="M55.461 15.206a1.2 1.2 0 011.2-1.2h6.75c1.935 0 3.45 1.515 3.45 3.45s-1.515 3.45-3.45 3.45h-6.75a1.2 1.2 0 01-1.2-1.2v-4.5zm-24 0a1.2 1.2 0 011.2-1.2h19.5a1.2 1.2 0 011.2 1.2v36.75c0 3.616-2.832 6.45-6.45 6.45h-14.25a1.2 1.2 0 01-1.2-1.2v-42zm-13.5 0a1.2 1.2 0 011.2-1.2h7.5a1.2 1.2 0 011.2 1.2v42a1.2 1.2 0 01-1.2 1.2h-2.25c-3.617 0-6.45-2.834-6.45-6.45v-36.75zm-3.3 5.7h-6.75c-1.934 0-3.45-1.516-3.45-3.45s1.516-3.45 3.45-3.45h6.75a1.2 1.2 0 011.2 1.2v4.5a1.2 1.2 0 01-1.2 1.2z"/>
</svg>
