<svg width="20" height="20" viewBox="0 0 20 20" xmlns="http://www.w3.org/2000/svg">
  <path d="M15.3588 5.49231C13.9476 5.49231 12.8035 6.63765 12.8035 8.04765C12.8031 9.46015 13.9472 10.6062 15.3588 10.6062C16.7734 10.6062 17.9166 9.46057 17.9166 8.04765C17.9166 6.63765 16.773 5.49231 15.3588 5.49231ZM7.35101 5.70634C7.28726 5.71365 7.22436 5.73082 7.16383 5.75842L2.03281 8.09078C1.71865 8.2337 1.57984 8.60383 1.72275 8.91842C1.86525 9.23217 2.23372 9.37264 2.55039 9.22848L2.65944 9.17884L7.18906 7.95976L8.56846 10.1928L5.42555 12.74C5.55805 12.8125 5.8216 12.9166 6.24994 12.9166C6.84952 12.9166 7.12817 12.7141 7.17442 12.6766L7.29811 12.5553C7.30895 12.5453 7.32063 12.5352 7.33229 12.5252C7.44854 12.4269 7.56105 12.3664 7.62689 12.3348C7.69522 12.2952 7.7552 12.265 7.81895 12.2387C7.96436 12.1762 8.12923 12.1314 8.31048 12.1085C8.37257 12.0998 8.43196 12.0951 8.49196 12.0939C8.65946 12.088 8.84314 12.1085 9.03314 12.1606C9.06855 12.1694 9.11704 12.1826 9.16579 12.1997C9.30162 12.2484 9.42583 12.3106 9.54583 12.3885L9.60931 12.4178L9.79079 12.5667C9.79454 12.5696 9.79764 12.5731 9.80055 12.5756C9.83389 12.6031 9.87087 12.637 9.90879 12.6757C9.95254 12.712 10.2304 12.9166 10.8333 12.9166C11.4329 12.9166 11.7115 12.7141 11.7577 12.6766L11.8814 12.5553C11.8923 12.5453 11.904 12.5352 11.9156 12.5252C12.0348 12.4248 12.1493 12.3644 12.2127 12.3339C12.2852 12.2923 12.3419 12.2633 12.4023 12.2379C12.5506 12.1746 12.715 12.131 12.8954 12.1085C12.9554 12.0998 13.014 12.0943 13.0753 12.0931C13.2399 12.0868 13.4204 12.1077 13.6091 12.1582C13.6583 12.1707 13.6989 12.1822 13.7402 12.1964C13.7973 12.2168 13.8492 12.2406 13.9013 12.2648C13.3759 11.7069 12.8277 11.1259 12.2827 10.5493C12.166 10.3809 12.0215 10.2358 11.8635 10.1058C9.79229 7.91492 7.90716 5.9301 7.87591 5.89677C7.7381 5.75177 7.54226 5.68441 7.35101 5.70634V5.70634ZM17.7221 13.3186C17.5311 13.3182 17.3503 13.4051 17.2314 13.5546C17.2314 13.5546 17.1465 13.6661 16.8538 13.8289C16.5611 13.9917 16.1005 14.1666 15.4166 14.1666C14.7327 14.1666 14.2721 13.9917 13.9794 13.8289C13.7057 13.6767 13.637 13.5858 13.6262 13.5725C13.5172 13.4298 13.3521 13.3409 13.1729 13.3284C13.1721 13.3284 13.1713 13.3284 13.1705 13.3284C13.1532 13.3271 13.1358 13.3266 13.1184 13.3268C12.9231 13.327 12.7392 13.4186 12.6212 13.5742C12.6094 13.5886 12.5423 13.6777 12.2704 13.8289C11.9778 13.9917 11.5172 14.1666 10.8333 14.1666C10.1494 14.1666 9.68878 13.9917 9.39609 13.8289C9.1224 13.6767 9.05367 13.5858 9.0429 13.5725C8.9339 13.4298 8.76877 13.3409 8.58962 13.3284C8.5888 13.3284 8.58799 13.3284 8.58718 13.3284C8.56984 13.3271 8.55247 13.3266 8.53509 13.3268C8.3398 13.327 8.15586 13.4186 8.03786 13.5742C8.02607 13.5886 7.95897 13.6777 7.68711 13.8289C7.39444 13.9917 6.93385 14.1666 6.24994 14.1666C5.56602 14.1666 5.10545 13.9917 4.81276 13.8289C4.52008 13.6661 4.43516 13.5546 4.43516 13.5546C4.31409 13.4075 4.13252 13.3236 3.94199 13.3268C3.69911 13.3311 3.4807 13.4757 3.38194 13.6976C3.28319 13.9196 3.32196 14.1786 3.48138 14.3619C3.48138 14.3619 3.74918 14.6671 4.20566 14.921C4.66215 15.1749 5.34718 15.4166 6.24994 15.4166C7.15269 15.4166 7.83773 15.1749 8.29421 14.921C8.45021 14.8343 8.43284 14.8143 8.5416 14.7298C8.65036 14.8143 8.63299 14.8343 8.789 14.921C9.24548 15.1749 9.93052 15.4166 10.8333 15.4166C11.736 15.4166 12.4211 15.1749 12.8775 14.921C13.0335 14.8343 13.0162 14.8143 13.1249 14.7298C13.2337 14.8143 13.2163 14.8343 13.3723 14.921C13.8288 15.1749 14.5139 15.4166 15.4166 15.4166C16.3194 15.4166 17.0044 15.1749 17.4609 14.921C17.9174 14.6671 18.1852 14.3619 18.1852 14.3619C18.3502 14.1787 18.392 13.9155 18.292 13.6901C18.1919 13.4647 17.9687 13.3192 17.7221 13.3186V13.3186Z"/>
</svg>
